<svg width="58" height="55" fill="none" xmlns="http://www.w3.org/2000/svg"><path d="M6.023 20.273H24.09M0 29.91h20.477m-8.715 9.635h9.92" stroke="#C70100" stroke-width="2" stroke-miterlimit="10"/><path d="M9.262 39.037h.934v1.006h-.934v-1.006zm-4 0h.934v1.006h-.934v-1.006zm-4 0h.934v1.006h-.934v-1.006z" fill="#505050" stroke="#C70100"/><path d="M33.727 5.818H28.91V1h12.046v4.818h-4.819m1.204 2.409v2.554A21.682 21.682 0 0134.931 54H15.66m.493-10.84a21.683 21.683 0 005.529 6.323m-8.432-15.96c.12 2.026.525 4.025 1.204 5.938m.495-15.575a21.428 21.428 0 00-1.566 6.023m19.14-21.682v2.554a21.684 21.684 0 00-15.66 9.552" stroke="#C70100" stroke-width="2" stroke-miterlimit="10"/><path d="M34.932 35.932a3.614 3.614 0 100-7.227 3.614 3.614 0 000 7.227zm2.408-6.022l9.637-9.637m8.432-6.023l-3.614-3.614m-2.409 6.023L53 13.045m-3.457 10.841a16.864 16.864 0 01-14.611 25.296h-4.819" stroke="#C70100" stroke-width="2" stroke-miterlimit="10"/></svg>