<svg width="59" height="54" fill="none" xmlns="http://www.w3.org/2000/svg"><path d="M2.301 11.882L26.276 2 50.14 7.366M2.301 11.882L30.3 23.466M2.301 11.882l-.551.72 1.488 12.762 26.07 13.743h.991M50.14 7.367L30.3 23.465m19.84-16.1L50 11.524l-.724.673L33.5 25.364v11.16l-3.2 2.583m0-15.641v15.641m17.2-22.226l9.75 2.07m0 0l-1.819 12.238L36.637 52M57.25 18.95l-10.361 8.552M36.636 52l.551-16.492 9.7-8.006M36.639 52L9.134 37.537M38 24.619l8.889 2.883m-38.8 1.069l1.046 8.966m0 0l7-4.516" stroke="#C70100" stroke-width="2"/><path d="M24.013 25.403l-12.386-5.218a1 1 0 00-1.378 1.063l.423 2.975a1 1 0 00.58.77l11.962 5.39a1 1 0 001.411-.912v-3.146a1 1 0 00-.612-.922z" stroke="#C70100" stroke-width="2"/><path d="M7.578 41.733l-.806-.47.47-.806.807.47-.47.806zm3.34 1.951l-.807-.471.471-.806.806.47-.47.807zm3.339 1.95l-.806-.47.47-.807.807.471-.47.806z" fill="#505050" stroke="#C70100"/></svg>