<svg width="52" height="55" fill="none" xmlns="http://www.w3.org/2000/svg"><path d="M32.716 44.143l3.102 3.976 4.85-2.798-1.842-4.676a18.716 18.716 0 002.332-2.332l4.665 1.889 2.798-4.85-3.965-3.149c.378-1.047.667-2.123.863-3.218l4.991-.7v-5.597l-4.99-.7a19.828 19.828 0 00-.864-3.218l3.977-3.101-2.81-4.851-4.665 1.842a18.722 18.722 0 00-2.332-2.332l1.89-4.664-4.851-2.798-3.149 3.964a19.82 19.82 0 00-3.218-.863L28.798 1h-5.596l-.7 4.99a19.82 19.82 0 00-3.218.863l-3.102-3.976-4.85 2.787 1.842 4.664a18.722 18.722 0 00-2.332 2.332l-4.665-1.889-2.798 4.851 3.964 3.148a19.823 19.823 0 00-.862 3.219l-4.991.7v5.596l4.99.7c.197 1.095.486 2.171.863 3.218l-3.976 3.102 2.799 4.85 4.676-1.842a18.716 18.716 0 002.332 2.332l-1.89 4.664 4.851 2.799 3.149-3.965" stroke="#C70100" stroke-width="2" stroke-linejoin="round"/><path d="M26 10.328a15.158 15.158 0 0115.158 15.159M19.074 38.978a15.16 15.16 0 01-8.232-13.491" stroke="#C70100" stroke-width="2" stroke-linecap="round" stroke-linejoin="round"/><path d="M29.498 43.637v-9.23a1.167 1.167 0 01.688-1.061 8.559 8.559 0 005.142-7.86 9.328 9.328 0 00-4-7.66 1.165 1.165 0 00-1.83.968v5.526a1.166 1.166 0 01-1.166 1.166h-4.664a1.166 1.166 0 01-1.166-1.166v-5.526a1.165 1.165 0 00-1.83-.968 9.327 9.327 0 00-4 7.66 8.559 8.559 0 005.142 7.86 1.165 1.165 0 01.688 1.06v20.231" stroke="#C70100" stroke-width="2" stroke-linejoin="round"/><path d="M29 46.5v-1h1v1h-1zm0 4v-1h1v1h-1zm0 4v-1h1v1h-1z" fill="#505050" stroke="#C70100"/></svg>