<svg width="60" height="54" fill="none" xmlns="http://www.w3.org/2000/svg"><path d="M12 48.657a6.039 6.039 0 01-5.585-3.737 6.063 6.063 0 011.31-6.598 6.043 6.043 0 016.589-1.312 6.06 6.06 0 011.961 9.875A6.04 6.04 0 0112 48.656zm0-10.923a4.86 4.86 0 00-4.493 3.006 4.875 4.875 0 001.054 5.306 4.862 4.862 0 008.303-3.443c0-1.291-.512-2.53-1.424-3.443A4.86 4.86 0 0012 37.734z" fill="#505050"/><path d="M12 48.657a6.039 6.039 0 01-5.585-3.737 6.063 6.063 0 011.31-6.598 6.043 6.043 0 016.589-1.312 6.06 6.06 0 011.961 9.875A6.04 6.04 0 0112 48.656zm0-10.923a4.86 4.86 0 00-4.493 3.006 4.875 4.875 0 001.054 5.306 4.862 4.862 0 008.303-3.443c0-1.291-.512-2.53-1.424-3.443A4.86 4.86 0 0012 37.734z" fill="url(#paint0_linear_1_1816)"/><path d="M12 48.657a6.039 6.039 0 01-5.585-3.737 6.063 6.063 0 011.31-6.598 6.043 6.043 0 016.589-1.312 6.06 6.06 0 011.961 9.875A6.04 6.04 0 0112 48.656zm0-10.923a4.86 4.86 0 00-4.493 3.006 4.875 4.875 0 001.054 5.306 4.862 4.862 0 008.303-3.443c0-1.291-.512-2.53-1.424-3.443A4.86 4.86 0 0012 37.734z" stroke="#C70100"/><path d="M48 48.657a6.04 6.04 0 01-5.585-3.737 6.062 6.062 0 011.31-6.598 6.043 6.043 0 016.588-1.312 6.06 6.06 0 011.961 9.875A6.04 6.04 0 0148 48.656zm0-10.923a4.86 4.86 0 00-4.493 3.006 4.875 4.875 0 001.054 5.306 4.862 4.862 0 008.303-3.443c0-1.291-.513-2.53-1.425-3.443A4.86 4.86 0 0048 37.734z" fill="#505050"/><path d="M48 48.657a6.04 6.04 0 01-5.585-3.737 6.062 6.062 0 011.31-6.598 6.043 6.043 0 016.588-1.312 6.06 6.06 0 011.961 9.875A6.04 6.04 0 0148 48.656zm0-10.923a4.86 4.86 0 00-4.493 3.006 4.875 4.875 0 001.054 5.306 4.862 4.862 0 008.303-3.443c0-1.291-.513-2.53-1.425-3.443A4.86 4.86 0 0048 37.734z" fill="url(#paint1_linear_1_1816)"/><path d="M48 48.657a6.04 6.04 0 01-5.585-3.737 6.062 6.062 0 011.31-6.598 6.043 6.043 0 016.588-1.312 6.06 6.06 0 011.961 9.875A6.04 6.04 0 0148 48.656zm0-10.923a4.86 4.86 0 00-4.493 3.006 4.875 4.875 0 001.054 5.306 4.862 4.862 0 008.303-3.443c0-1.291-.513-2.53-1.425-3.443A4.86 4.86 0 0048 37.734z" stroke="#C70100"/><path d="M48 44.288a1.68 1.68 0 01-1.554-1.04 1.688 1.688 0 011.226-2.297 1.679 1.679 0 011.726.716A1.687 1.687 0 0148 44.287z" fill="#505050"/><path d="M48 44.288a1.68 1.68 0 01-1.554-1.04 1.688 1.688 0 011.226-2.297 1.679 1.679 0 011.726.716A1.687 1.687 0 0148 44.287z" fill="url(#paint2_linear_1_1816)"/><path d="M48 44.288a1.68 1.68 0 01-1.554-1.04 1.688 1.688 0 011.226-2.297 1.679 1.679 0 011.726.716A1.687 1.687 0 0148 44.287z" stroke="#C70100"/><path d="M4.864 48.657v-1.184h53.545v1.184H4.864z" fill="#505050"/><path d="M4.864 48.657v-1.184h53.545v1.184H4.864z" fill="url(#paint3_linear_1_1816)"/><path d="M4.864 48.657v-1.184h53.545v1.184H4.864z" stroke="#C70100"/><path d="M21.227 53.027v-1.185h19.728v1.185H21.227z" fill="#505050"/><path d="M21.227 53.027v-1.185h19.728v1.185H21.227z" fill="url(#paint4_linear_1_1816)"/><path d="M21.227 53.027v-1.185h19.728v1.185H21.227z" stroke="#C70100"/><path d="M44.136 53.027v-1.185h1.182v1.185h-1.182z" fill="#505050"/><path d="M44.136 53.027v-1.185h1.182v1.185h-1.182z" fill="url(#paint5_linear_1_1816)"/><path d="M44.136 53.027v-1.185h1.182v1.185h-1.182z" stroke="#C70100"/><path d="M12 44.288a1.68 1.68 0 01-1.553-1.04 1.688 1.688 0 011.225-2.297 1.68 1.68 0 011.726.716A1.687 1.687 0 0112 44.287z" fill="#505050"/><path d="M12 44.288a1.68 1.68 0 01-1.553-1.04 1.688 1.688 0 011.225-2.297 1.68 1.68 0 011.726.716A1.687 1.687 0 0112 44.287z" fill="url(#paint6_linear_1_1816)"/><path d="M12 44.288a1.68 1.68 0 01-1.553-1.04 1.688 1.688 0 011.225-2.297 1.68 1.68 0 011.726.716A1.687 1.687 0 0112 44.287z" stroke="#C70100"/><path d="M17.782 23.532h-4.191v-4.297a1.178 1.178 0 00-1.67-1.039 1.18 1.18 0 00-.55.527l-.004.008-.004.008-1.789 3.778a3.704 3.704 0 01-3.324 2.108H4.864V23.44h1.385a2.505 2.505 0 002.247-1.364l.005-.01.004-.009 1.767-3.823.005-.01a2.35 2.35 0 012.663-1.35 2.346 2.346 0 011.833 2.36v3.114h3.011a2.431 2.431 0 012.006 1.044 2.441 2.441 0 01.283 2.247v.001L18.6 29.638a4.02 4.02 0 01-3.764 2.634H4.864v-1.185h9.976a2.844 2.844 0 002.646-1.853l1.527-3.996.016-.044.009-.045c.023-.131.026-.265.007-.397-.006-.15-.038-.3-.096-.439l-.462.192.463-.192a1.264 1.264 0 00-1.168-.78z" fill="#505050"/><path d="M17.782 23.532h-4.191v-4.297a1.178 1.178 0 00-1.67-1.039 1.18 1.18 0 00-.55.527l-.004.008-.004.008-1.789 3.778a3.704 3.704 0 01-3.324 2.108H4.864V23.44h1.385a2.505 2.505 0 002.247-1.364l.005-.01.004-.009 1.767-3.823.005-.01a2.35 2.35 0 012.663-1.35 2.346 2.346 0 011.833 2.36v3.114h3.011a2.431 2.431 0 012.006 1.044 2.441 2.441 0 01.283 2.247v.001L18.6 29.638a4.02 4.02 0 01-3.764 2.634H4.864v-1.185h9.976a2.844 2.844 0 002.646-1.853l1.527-3.996.016-.044.009-.045c.023-.131.026-.265.007-.397-.006-.15-.038-.3-.096-.439l-.462.192.463-.192a1.264 1.264 0 00-1.168-.78z" fill="url(#paint7_linear_1_1816)"/><path d="M17.782 23.532h-4.191v-4.284h0v-.013a1.178 1.178 0 00-1.67-1.039 1.18 1.18 0 00-.55.527l-.004.008-.004.008-1.789 3.778s0 0 0 0a3.704 3.704 0 01-3.324 2.108H4.864V23.44h1.385a2.505 2.505 0 002.247-1.364l.005-.01.004-.009 1.767-3.823h0l.005-.01a2.35 2.35 0 012.663-1.35 2.346 2.346 0 011.833 2.36h0v3.114h3.011a2.431 2.431 0 012.006 1.044 2.441 2.441 0 01.283 2.247v.001L18.6 29.638h0a4.02 4.02 0 01-3.764 2.634H4.864v-1.185h9.976a2.844 2.844 0 002.646-1.853l1.527-3.996.016-.044.009-.045c.023-.131.026-.265.007-.397-.006-.15-.038-.3-.096-.439l-.462.192.463-.192a1.264 1.264 0 00-1.168-.78z" stroke="#C70100"/><path d="M20.727 18.07h-.5v10.832h11.91V18.071h-11.41zm10.91 12.017h-10.91a1.68 1.68 0 01-1.682-1.685v-9.831a1.686 1.686 0 011.682-1.685h10.91a1.68 1.68 0 011.68 1.685v9.831a1.687 1.687 0 01-1.68 1.685z" fill="#505050"/><path d="M20.727 18.07h-.5v10.832h11.91V18.071h-11.41zm10.91 12.017h-10.91a1.68 1.68 0 01-1.682-1.685v-9.831a1.686 1.686 0 011.682-1.685h10.91a1.68 1.68 0 011.68 1.685v9.831a1.687 1.687 0 01-1.68 1.685z" fill="url(#paint8_linear_1_1816)"/><path d="M20.727 18.07h-.5v10.832h11.91V18.071h-11.41zm10.91 12.017h-10.91a1.68 1.68 0 01-1.682-1.685v-9.831a1.686 1.686 0 011.682-1.685h10.91a1.68 1.68 0 011.68 1.685v9.831a1.687 1.687 0 01-1.68 1.685z" stroke="#C70100"/><path d="M25.59 20.255v-2.277h1.183v2.277H25.59z" fill="#505050"/><path d="M25.59 20.255v-2.277h1.183v2.277H25.59z" fill="url(#paint9_linear_1_1816)"/><path d="M25.59 20.255v-2.277h1.183v2.277H25.59z" stroke="#C70100"/><path d="M37.59 38.826V10.332h1.183v28.494H37.59z" fill="#505050"/><path d="M37.59 38.826V10.332h1.183v28.494H37.59z" fill="url(#paint10_linear_1_1816)"/><path d="M37.59 38.826V10.332h1.183v28.494H37.59z" stroke="#C70100"/><path d="M41.955 25.717v-1.184h11.643v1.184H41.955z" fill="#505050"/><path d="M41.955 25.717v-1.184h11.643v1.184H41.955z" fill="url(#paint11_linear_1_1816)"/><path d="M41.955 25.717v-1.184h11.643v1.184H41.955z" stroke="#C70100"/><path d="M41.955 30.087v-1.185h2.272v1.185h-2.272z" fill="#505050"/><path d="M41.955 30.087v-1.185h2.272v1.185h-2.272z" fill="url(#paint12_linear_1_1816)"/><path d="M41.955 30.087v-1.185h2.272v1.185h-2.272z" stroke="#C70100"/><path d="M13.591 1.685V.5h17.546v1.185H13.59z" fill="#505050"/><path d="M13.591 1.685V.5h17.546v1.185H13.59z" fill="url(#paint13_linear_1_1816)"/><path d="M13.591 1.685V.5h17.546v1.185H13.59z" stroke="#C70100"/><path d="M23.409 6.054V4.87h11v1.184h-11z" fill="#505050"/><path d="M23.409 6.054V4.87h11v1.184h-11z" fill="url(#paint14_linear_1_1816)"/><path d="M23.409 6.054V4.87h11v1.184h-11z" stroke="#C70100"/><path d="M37.59 6.054V4.87h1.183v1.184H37.59z" fill="#505050"/><path d="M37.59 6.054V4.87h1.183v1.184H37.59z" fill="url(#paint15_linear_1_1816)"/><path d="M37.59 6.054V4.87h1.183v1.184H37.59z" stroke="#C70100"/><path d="M21.227 38.826v-1.185h1.182v1.185h-1.182z" fill="#505050"/><path d="M21.227 38.826v-1.185h1.182v1.185h-1.182z" fill="url(#paint16_linear_1_1816)"/><path d="M21.227 38.826v-1.185h1.182v1.185h-1.182z" stroke="#C70100"/><path d="M25.59 38.826v-1.185h1.183v1.185H25.59z" fill="#505050"/><path d="M25.59 38.826v-1.185h1.183v1.185H25.59z" fill="url(#paint17_linear_1_1816)"/><path d="M25.59 38.826v-1.185h1.183v1.185H25.59z" stroke="#C70100"/><path d="M29.955 38.826v-1.185h1.181v1.185h-1.181z" fill="#505050"/><path d="M29.955 38.826v-1.185h1.181v1.185h-1.181z" fill="url(#paint18_linear_1_1816)"/><path d="M29.955 38.826v-1.185h1.181v1.185h-1.181z" stroke="#C70100"/><path d="M55.636 43.195h-1.681v-1.184h1.681a2.68 2.68 0 002.682-2.685V31.67a1.593 1.593 0 00-.366-.987v-.001l-16.36-19.658a1.593 1.593 0 00-1.221-.6H4.364a2.68 2.68 0 00-2.682 2.685v26.217c0 .712.282 1.394.785 1.898l.354-.353-.354.353a2.68 2.68 0 001.897.787h1.681v1.184H4.364a3.86 3.86 0 01-2.732-1.133A3.872 3.872 0 01.5 39.326V13.109c0-1.027.407-2.011 1.132-2.737A3.86 3.86 0 014.364 9.24h35.999c.4.001.797.09 1.16.259l.211-.453-.21.453c.362.169.685.415.944.72l.001.002 16.36 19.714.008.008c.42.483.654 1.1.663 1.74v7.644c0 1.026-.407 2.01-1.132 2.736a3.86 3.86 0 01-2.732 1.133z" fill="#505050"/><path d="M55.636 43.195h-1.681v-1.184h1.681a2.68 2.68 0 002.682-2.685V31.67a1.593 1.593 0 00-.366-.987v-.001l-16.36-19.658a1.593 1.593 0 00-1.221-.6H4.364a2.68 2.68 0 00-2.682 2.685v26.217c0 .712.282 1.394.785 1.898l.354-.353-.354.353a2.68 2.68 0 001.897.787h1.681v1.184H4.364a3.86 3.86 0 01-2.732-1.133A3.872 3.872 0 01.5 39.326V13.109c0-1.027.407-2.011 1.132-2.737A3.86 3.86 0 014.364 9.24h35.999c.4.001.797.09 1.16.259l.211-.453-.21.453c.362.169.685.415.944.72l.001.002 16.36 19.714.008.008c.42.483.654 1.1.663 1.74v7.644c0 1.026-.407 2.01-1.132 2.736a3.86 3.86 0 01-2.732 1.133z" fill="url(#paint19_linear_1_1816)"/><path d="M55.636 43.195h-1.681v-1.184h1.681a2.68 2.68 0 002.682-2.685v-7.647h0v-.009a1.593 1.593 0 00-.366-.987v-.001l-16.36-19.658a1.593 1.593 0 00-1.221-.6v0H4.364a2.68 2.68 0 00-2.682 2.685v26.217c0 .712.282 1.394.785 1.898l.354-.353-.354.353a2.68 2.68 0 001.897.787h1.681v1.184H4.364a3.86 3.86 0 01-2.732-1.133A3.872 3.872 0 01.5 39.326V13.109c0-1.027.407-2.011 1.132-2.737A3.86 3.86 0 014.364 9.24h35.999c.4.001.797.09 1.16.259l.211-.453-.21.453c.362.169.685.415.944.72l.001.002 16.36 19.714h0l.008.008c.42.483.654 1.1.663 1.74v7.644c0 1.026-.407 2.01-1.132 2.736a3.86 3.86 0 01-2.732 1.133z" stroke="#C70100"/><path d="M17.955 43.196V42.01h24.09v1.185h-24.09z" fill="#505050"/><path d="M17.955 43.196V42.01h24.09v1.185h-24.09z" fill="url(#paint20_linear_1_1816)"/><path d="M17.955 43.196V42.01h24.09v1.185h-24.09z" stroke="#C70100"/><path d="M54.545 33.271h3.864v1.185h-5.546v-3.37h1.182v2.185h.5z" fill="#505050"/><path d="M54.545 33.271h3.864v1.185h-5.546v-3.37h1.182v2.185h.5z" fill="url(#paint21_linear_1_1816)"/><path d="M54.545 33.271h3.864v1.185h-5.546v-3.37h1.182v2.185h.5z" stroke="#C70100"/><defs><linearGradient id="paint0_linear_1_1816" x1="12" y1="49.141" x2="12" y2="36.033" gradientUnits="userSpaceOnUse"><stop stop-color="#919191"/><stop offset=".07" stop-color="#ABABAB"/><stop offset=".2" stop-color="#A2A2A2"/><stop offset=".38" stop-color="#8E8E8E"/><stop offset=".48" stop-color="#6E6E6E"/><stop offset=".49" stop-color="#262626"/><stop offset="1" stop-color="#B5B5B5"/></linearGradient><linearGradient id="paint1_linear_1_1816" x1="48" y1="49.141" x2="48" y2="36.033" gradientUnits="userSpaceOnUse"><stop stop-color="#919191"/><stop offset=".07" stop-color="#ABABAB"/><stop offset=".2" stop-color="#A2A2A2"/><stop offset=".38" stop-color="#8E8E8E"/><stop offset=".48" stop-color="#6E6E6E"/><stop offset=".49" stop-color="#262626"/><stop offset="1" stop-color="#B5B5B5"/></linearGradient><linearGradient id="paint2_linear_1_1816" x1="48" y1="44.782" x2="48" y2="40.413" gradientUnits="userSpaceOnUse"><stop stop-color="#919191"/><stop offset=".07" stop-color="#ABABAB"/><stop offset=".2" stop-color="#A2A2A2"/><stop offset=".38" stop-color="#8E8E8E"/><stop offset=".48" stop-color="#6E6E6E"/><stop offset=".49" stop-color="#262626"/><stop offset="1" stop-color="#B5B5B5"/></linearGradient><linearGradient id="paint3_linear_1_1816" x1="31.637" y1="49.155" x2="31.637" y2="46.97" gradientUnits="userSpaceOnUse"><stop stop-color="#919191"/><stop offset=".07" stop-color="#ABABAB"/><stop offset=".2" stop-color="#A2A2A2"/><stop offset=".38" stop-color="#8E8E8E"/><stop offset=".48" stop-color="#6E6E6E"/><stop offset=".49" stop-color="#262626"/><stop offset="1" stop-color="#B5B5B5"/></linearGradient><linearGradient id="paint4_linear_1_1816" x1="31.091" y1="53.524" x2="31.091" y2="51.34" gradientUnits="userSpaceOnUse"><stop stop-color="#919191"/><stop offset=".07" stop-color="#ABABAB"/><stop offset=".2" stop-color="#A2A2A2"/><stop offset=".38" stop-color="#8E8E8E"/><stop offset=".48" stop-color="#6E6E6E"/><stop offset=".49" stop-color="#262626"/><stop offset="1" stop-color="#B5B5B5"/></linearGradient><linearGradient id="paint5_linear_1_1816" x1="44.727" y1="53.524" x2="44.727" y2="51.34" gradientUnits="userSpaceOnUse"><stop stop-color="#919191"/><stop offset=".07" stop-color="#ABABAB"/><stop offset=".2" stop-color="#A2A2A2"/><stop offset=".38" stop-color="#8E8E8E"/><stop offset=".48" stop-color="#6E6E6E"/><stop offset=".49" stop-color="#262626"/><stop offset="1" stop-color="#B5B5B5"/></linearGradient><linearGradient id="paint6_linear_1_1816" x1="12" y1="44.782" x2="12" y2="40.413" gradientUnits="userSpaceOnUse"><stop stop-color="#919191"/><stop offset=".07" stop-color="#ABABAB"/><stop offset=".2" stop-color="#A2A2A2"/><stop offset=".38" stop-color="#8E8E8E"/><stop offset=".48" stop-color="#6E6E6E"/><stop offset=".49" stop-color="#262626"/><stop offset="1" stop-color="#B5B5B5"/></linearGradient><linearGradient id="paint7_linear_1_1816" x1="12.545" y1="32.751" x2="12.545" y2="16.297" gradientUnits="userSpaceOnUse"><stop stop-color="#919191"/><stop offset=".07" stop-color="#ABABAB"/><stop offset=".2" stop-color="#A2A2A2"/><stop offset=".38" stop-color="#8E8E8E"/><stop offset=".48" stop-color="#6E6E6E"/><stop offset=".49" stop-color="#262626"/><stop offset="1" stop-color="#B5B5B5"/></linearGradient><linearGradient id="paint8_linear_1_1816" x1="26.181" y1="30.57" x2="26.181" y2="16.369" gradientUnits="userSpaceOnUse"><stop stop-color="#919191"/><stop offset=".07" stop-color="#ABABAB"/><stop offset=".2" stop-color="#A2A2A2"/><stop offset=".38" stop-color="#8E8E8E"/><stop offset=".48" stop-color="#6E6E6E"/><stop offset=".49" stop-color="#262626"/><stop offset="1" stop-color="#B5B5B5"/></linearGradient><linearGradient id="paint9_linear_1_1816" x1="26.182" y1="20.751" x2="26.182" y2="17.474" gradientUnits="userSpaceOnUse"><stop stop-color="#919191"/><stop offset=".07" stop-color="#ABABAB"/><stop offset=".2" stop-color="#A2A2A2"/><stop offset=".38" stop-color="#8E8E8E"/><stop offset=".48" stop-color="#6E6E6E"/><stop offset=".49" stop-color="#262626"/><stop offset="1" stop-color="#B5B5B5"/></linearGradient><linearGradient id="paint10_linear_1_1816" x1="38.182" y1="39.29" x2="38.182" y2="9.796" gradientUnits="userSpaceOnUse"><stop stop-color="#919191"/><stop offset=".07" stop-color="#ABABAB"/><stop offset=".2" stop-color="#A2A2A2"/><stop offset=".38" stop-color="#8E8E8E"/><stop offset=".48" stop-color="#6E6E6E"/><stop offset=".49" stop-color="#262626"/><stop offset="1" stop-color="#B5B5B5"/></linearGradient><linearGradient id="paint11_linear_1_1816" x1="47.776" y1="26.215" x2="47.776" y2="24.03" gradientUnits="userSpaceOnUse"><stop stop-color="#919191"/><stop offset=".07" stop-color="#ABABAB"/><stop offset=".2" stop-color="#A2A2A2"/><stop offset=".38" stop-color="#8E8E8E"/><stop offset=".48" stop-color="#6E6E6E"/><stop offset=".49" stop-color="#262626"/><stop offset="1" stop-color="#B5B5B5"/></linearGradient><linearGradient id="paint12_linear_1_1816" x1="43.091" y1="30.584" x2="43.091" y2="28.399" gradientUnits="userSpaceOnUse"><stop stop-color="#919191"/><stop offset=".07" stop-color="#ABABAB"/><stop offset=".2" stop-color="#A2A2A2"/><stop offset=".38" stop-color="#8E8E8E"/><stop offset=".48" stop-color="#6E6E6E"/><stop offset=".49" stop-color="#262626"/><stop offset="1" stop-color="#B5B5B5"/></linearGradient><linearGradient id="paint13_linear_1_1816" x1="22.364" y1="2.182" x2="22.364" y2="-.003" gradientUnits="userSpaceOnUse"><stop stop-color="#919191"/><stop offset=".07" stop-color="#ABABAB"/><stop offset=".2" stop-color="#A2A2A2"/><stop offset=".38" stop-color="#8E8E8E"/><stop offset=".48" stop-color="#6E6E6E"/><stop offset=".49" stop-color="#262626"/><stop offset="1" stop-color="#B5B5B5"/></linearGradient><linearGradient id="paint14_linear_1_1816" x1="28.909" y1="6.552" x2="28.909" y2="4.367" gradientUnits="userSpaceOnUse"><stop stop-color="#919191"/><stop offset=".07" stop-color="#ABABAB"/><stop offset=".2" stop-color="#A2A2A2"/><stop offset=".38" stop-color="#8E8E8E"/><stop offset=".48" stop-color="#6E6E6E"/><stop offset=".49" stop-color="#262626"/><stop offset="1" stop-color="#B5B5B5"/></linearGradient><linearGradient id="paint15_linear_1_1816" x1="38.182" y1="6.552" x2="38.182" y2="4.367" gradientUnits="userSpaceOnUse"><stop stop-color="#919191"/><stop offset=".07" stop-color="#ABABAB"/><stop offset=".2" stop-color="#A2A2A2"/><stop offset=".38" stop-color="#8E8E8E"/><stop offset=".48" stop-color="#6E6E6E"/><stop offset=".49" stop-color="#262626"/><stop offset="1" stop-color="#B5B5B5"/></linearGradient><linearGradient id="paint16_linear_1_1816" x1="21.818" y1="39.323" x2="21.818" y2="37.139" gradientUnits="userSpaceOnUse"><stop stop-color="#919191"/><stop offset=".07" stop-color="#ABABAB"/><stop offset=".2" stop-color="#A2A2A2"/><stop offset=".38" stop-color="#8E8E8E"/><stop offset=".48" stop-color="#6E6E6E"/><stop offset=".49" stop-color="#262626"/><stop offset="1" stop-color="#B5B5B5"/></linearGradient><linearGradient id="paint17_linear_1_1816" x1="26.182" y1="39.323" x2="26.182" y2="37.139" gradientUnits="userSpaceOnUse"><stop stop-color="#919191"/><stop offset=".07" stop-color="#ABABAB"/><stop offset=".2" stop-color="#A2A2A2"/><stop offset=".38" stop-color="#8E8E8E"/><stop offset=".48" stop-color="#6E6E6E"/><stop offset=".49" stop-color="#262626"/><stop offset="1" stop-color="#B5B5B5"/></linearGradient><linearGradient id="paint18_linear_1_1816" x1="30.546" y1="39.323" x2="30.546" y2="37.139" gradientUnits="userSpaceOnUse"><stop stop-color="#919191"/><stop offset=".07" stop-color="#ABABAB"/><stop offset=".2" stop-color="#A2A2A2"/><stop offset=".38" stop-color="#8E8E8E"/><stop offset=".48" stop-color="#6E6E6E"/><stop offset=".49" stop-color="#262626"/><stop offset="1" stop-color="#B5B5B5"/></linearGradient><linearGradient id="paint19_linear_1_1816" x1="30" y1="43.652" x2="30" y2="8.697" gradientUnits="userSpaceOnUse"><stop stop-color="#919191"/><stop offset=".07" stop-color="#ABABAB"/><stop offset=".2" stop-color="#A2A2A2"/><stop offset=".38" stop-color="#8E8E8E"/><stop offset=".48" stop-color="#6E6E6E"/><stop offset=".49" stop-color="#262626"/><stop offset="1" stop-color="#B5B5B5"/></linearGradient><linearGradient id="paint20_linear_1_1816" x1="30" y1="43.693" x2="30" y2="41.508" gradientUnits="userSpaceOnUse"><stop stop-color="#919191"/><stop offset=".07" stop-color="#ABABAB"/><stop offset=".2" stop-color="#A2A2A2"/><stop offset=".38" stop-color="#8E8E8E"/><stop offset=".48" stop-color="#6E6E6E"/><stop offset=".49" stop-color="#262626"/><stop offset="1" stop-color="#B5B5B5"/></linearGradient><linearGradient id="paint21_linear_1_1816" x1="55.636" y1="34.951" x2="55.636" y2="30.581" gradientUnits="userSpaceOnUse"><stop stop-color="#919191"/><stop offset=".07" stop-color="#ABABAB"/><stop offset=".2" stop-color="#A2A2A2"/><stop offset=".38" stop-color="#8E8E8E"/><stop offset=".48" stop-color="#6E6E6E"/><stop offset=".49" stop-color="#262626"/><stop offset="1" stop-color="#B5B5B5"/></linearGradient></defs></svg>