<svg width="59" height="54" fill="none" xmlns="http://www.w3.org/2000/svg"><path d="M27.1 52.676v-.933h.933v.933H27.1z" fill="#505050"/><path d="M27.1 52.676v-.933h.933v.933H27.1z" fill="url(#paint0_linear_1_1930)"/><path d="M27.1 52.676v-.933h.933v.933H27.1z" stroke="#C70100"/><path d="M30.967 52.676v-.933h16.4v.933h-16.4z" fill="#505050"/><path d="M30.967 52.676v-.933h16.4v.933h-16.4z" fill="url(#paint1_linear_1_1930)"/><path d="M30.967 52.676v-.933h16.4v.933h-16.4z" stroke="#C70100"/><path d="M57.066 48.81v-.935H58v.934h-.934z" fill="#505050"/><path d="M57.066 48.81v-.935H58v.934h-.934z" fill="url(#paint2_linear_1_1930)"/><path d="M57.066 48.81v-.935H58v.934h-.934z" stroke="#C70100"/><path d="M4.866 47.843V5.334h.933v42.508h-.933z" fill="#505050"/><path d="M4.866 47.843V5.334h.933v42.508h-.933z" fill="url(#paint3_linear_1_1930)"/><path d="M4.866 47.843V5.334h.933v42.508h-.933z" stroke="#C70100"/><path d="M51.267 47.843V5.334h.934v42.508h-.934z" fill="#505050"/><path d="M51.267 47.843V5.334h.934v42.508h-.934z" fill="url(#paint4_linear_1_1930)"/><path d="M51.267 47.843V5.334h.934v42.508h-.934z" stroke="#C70100"/><path d="M4.895 4.334A4.335 4.335 0 019.199.5h38.668a4.333 4.333 0 014.304 3.834h-.941a3.4 3.4 0 00-3.363-2.9H9.199a3.4 3.4 0 00-3.363 2.9h-.941z" fill="#505050"/><path d="M4.895 4.334A4.335 4.335 0 019.199.5h38.668a4.333 4.333 0 014.304 3.834h-.941a3.4 3.4 0 00-3.363-2.9H9.199a3.4 3.4 0 00-3.363 2.9h-.941z" fill="url(#paint5_linear_1_1930)"/><path d="M4.895 4.334A4.335 4.335 0 019.199.5h38.668a4.333 4.333 0 014.304 3.834h-.941a3.4 3.4 0 00-3.363-2.9H9.199a3.4 3.4 0 00-3.363 2.9h-.941z" stroke="#C70100"/><path d="M5.833 11.102v-.934h45.4v.934h-45.4z" fill="#505050"/><path d="M5.833 11.102v-.934h45.4v.934h-45.4z" fill="url(#paint6_linear_1_1930)"/><path d="M5.833 11.102v-.934h45.4v.934h-45.4z" stroke="#C70100"/><path d="M8.733 47.842V11.135h.933v36.707h-.933z" fill="#505050"/><path d="M8.733 47.842V11.135h.933v36.707h-.933z" fill="url(#paint7_linear_1_1930)"/><path d="M8.733 47.842V11.135h.933v36.707h-.933z" stroke="#C70100"/><path d="M46.434 47.842V11.135h.933v36.707h-.933z" fill="#505050"/><path d="M46.434 47.842V11.135h.933v36.707h-.933z" fill="url(#paint8_linear_1_1930)"/><path d="M46.434 47.842V11.135h.933v36.707h-.933z" stroke="#C70100"/><path d="M9.7 14.97v-.934h26.067v.934H9.7z" fill="#505050"/><path d="M9.7 14.97v-.934h26.067v.934H9.7z" fill="url(#paint9_linear_1_1930)"/><path d="M9.7 14.97v-.934h26.067v.934H9.7z" stroke="#C70100"/><path d="M9.7 18.837v-.934h36.7v.934H9.7z" fill="#505050"/><path d="M9.7 18.837v-.934h36.7v.934H9.7z" fill="url(#paint10_linear_1_1930)"/><path d="M9.7 18.837v-.934h36.7v.934H9.7z" stroke="#C70100"/><path d="M13.533 23.204v9.169H12.6v-9.169a1.434 1.434 0 011.433-1.433h13.534A1.433 1.433 0 0129 23.204v2.4h-.933v-2.9H13.533v.5z" fill="#505050"/><path d="M13.533 23.204v9.169H12.6v-9.169a1.434 1.434 0 011.433-1.433h13.534A1.433 1.433 0 0129 23.204v2.4h-.933v-2.9H13.533v.5z" fill="url(#paint11_linear_1_1930)"/><path d="M13.533 23.204v9.169H12.6v-9.169a1.434 1.434 0 011.433-1.433h13.534A1.433 1.433 0 0129 23.204v2.4h-.933v-2.9H13.533v.5z" stroke="#C70100"/><path d="M34.8 27.072v5.3h-.933v-5.8h-8.733v5.8H24.2V27.05a1.357 1.357 0 011.282-1.412h8.037A1.356 1.356 0 0134.8 27.05v.021z" fill="#505050"/><path d="M34.8 27.072v5.3h-.933v-5.8h-8.733v5.8H24.2V27.05a1.357 1.357 0 011.282-1.412h8.037A1.356 1.356 0 0134.8 27.05v.021z" fill="url(#paint12_linear_1_1930)"/><path d="M34.8 27.072v5.3h-.933v-5.8h-8.733v5.8H24.2V27.05a1.357 1.357 0 011.282-1.412h8.037A1.356 1.356 0 0134.8 27.05v.021z" stroke="#C70100"/><path d="M33.834 23.204v2.4H32.9v-2.4a1.434 1.434 0 011.434-1.433h7.733a1.433 1.433 0 011.433 1.433v9.169h-.933v-9.669h-8.733v.5z" fill="#505050"/><path d="M33.834 23.204v2.4H32.9v-2.4a1.434 1.434 0 011.434-1.433h7.733a1.433 1.433 0 011.433 1.433v9.169h-.933v-9.669h-8.733v.5z" fill="url(#paint13_linear_1_1930)"/><path d="M33.834 23.204v2.4H32.9v-2.4a1.434 1.434 0 011.434-1.433h7.733a1.433 1.433 0 011.433 1.433v9.169h-.933v-9.669h-8.733v.5z" stroke="#C70100"/><path d="M9.7 33.34v-.934h36.7v.934H9.7z" fill="#505050"/><path d="M9.7 33.34v-.934h36.7v.934H9.7z" fill="url(#paint14_linear_1_1930)"/><path d="M9.7 33.34v-.934h36.7v.934H9.7z" stroke="#C70100"/><path d="M13.533 37.707v10.136H12.6V37.707a1.434 1.434 0 011.433-1.434H23.7a1.433 1.433 0 011.433 1.434v2.4H24.2v-2.9H13.533v.5z" fill="#505050"/><path d="M13.533 37.707v10.136H12.6V37.707a1.434 1.434 0 011.433-1.434H23.7a1.433 1.433 0 011.433 1.434v2.4H24.2v-2.9H13.533v.5z" fill="url(#paint15_linear_1_1930)"/><path d="M13.533 37.707v10.136H12.6V37.707a1.434 1.434 0 011.433-1.434H23.7a1.433 1.433 0 011.433 1.434v2.4H24.2v-2.9H13.533v.5z" stroke="#C70100"/><path d="M24.167 41.575v6.267h-.934v-6.267a1.434 1.434 0 011.434-1.434H32.4a1.433 1.433 0 011.434 1.434v6.267H32.9v-6.767h-8.733v.5z" fill="#505050"/><path d="M24.167 41.575v6.267h-.934v-6.267a1.434 1.434 0 011.434-1.434H32.4a1.433 1.433 0 011.434 1.434v6.267H32.9v-6.767h-8.733v.5z" fill="url(#paint16_linear_1_1930)"/><path d="M24.167 41.575v6.267h-.934v-6.267a1.434 1.434 0 011.434-1.434H32.4a1.433 1.433 0 011.434 1.434v6.267H32.9v-6.767h-8.733v.5z" stroke="#C70100"/><path d="M31.9 37.707v2.4h-.933v-2.4a1.434 1.434 0 011.433-1.434h9.667a1.433 1.433 0 011.433 1.434v10.136h-.933V37.207H31.9v.5z" fill="#505050"/><path d="M31.9 37.707v2.4h-.933v-2.4a1.434 1.434 0 011.433-1.434h9.667a1.433 1.433 0 011.433 1.434v10.136h-.933V37.207H31.9v.5z" fill="url(#paint17_linear_1_1930)"/><path d="M31.9 37.707v2.4h-.933v-2.4a1.434 1.434 0 011.433-1.434h9.667a1.433 1.433 0 011.433 1.434v10.136h-.933V37.207H31.9v.5z" stroke="#C70100"/><path d="M1 20.77v-.933h.933v.934H1z" fill="#505050"/><path d="M1 20.77v-.933h.933v.934H1z" fill="url(#paint18_linear_1_1930)"/><path d="M1 20.77v-.933h.933v.934H1z" stroke="#C70100"/><path d="M1 24.638v-.934h.933v.934H1z" fill="#505050"/><path d="M1 24.638v-.934h.933v.934H1z" fill="url(#paint19_linear_1_1930)"/><path d="M1 24.638v-.934h.933v.934H1z" stroke="#C70100"/><path d="M1 28.506v-.934h.933v.934H1z" fill="#505050"/><path d="M1 28.506v-.934h.933v.934H1z" fill="url(#paint20_linear_1_1930)"/><path d="M1 28.506v-.934h.933v.934H1z" stroke="#C70100"/><path d="M56.1 2.4v-.933h.934v.934H56.1z" fill="#505050"/><path d="M56.1 2.4v-.933h.934v.934H56.1z" fill="url(#paint21_linear_1_1930)"/><path d="M56.1 2.4v-.933h.934v.934H56.1z" stroke="#C70100"/><path d="M56.1 6.268v-.934h.934v.934H56.1z" fill="#505050"/><path d="M56.1 6.268v-.934h.934v.934H56.1z" fill="url(#paint22_linear_1_1930)"/><path d="M56.1 6.268v-.934h.934v.934H56.1z" stroke="#C70100"/><path d="M56.1 10.135v-.933h.934v.933H56.1z" fill="#505050"/><path d="M56.1 10.135v-.933h.934v.933H56.1z" fill="url(#paint23_linear_1_1930)"/><path d="M56.1 10.135v-.933h.934v.933H56.1z" stroke="#C70100"/><path d="M20.334 24.638v-1.9h.933v1.9h-.933z" fill="#505050"/><path d="M20.334 24.638v-1.9h.933v1.9h-.933z" fill="url(#paint24_linear_1_1930)"/><path d="M20.334 24.638v-1.9h.933v1.9h-.933z" stroke="#C70100"/><path d="M29.034 28.506v-1.901h.933v1.9h-.933z" fill="#505050"/><path d="M29.034 28.506v-1.901h.933v1.9h-.933z" fill="url(#paint25_linear_1_1930)"/><path d="M29.034 28.506v-1.901h.933v1.9h-.933z" stroke="#C70100"/><path d="M18.4 39.14v-1.9h.934v1.9H18.4z" fill="#505050"/><path d="M18.4 39.14v-1.9h.934v1.9H18.4z" fill="url(#paint26_linear_1_1930)"/><path d="M18.4 39.14v-1.9h.934v1.9H18.4z" stroke="#C70100"/><path d="M36.767 39.14v-1.9h.933v1.9h-.933z" fill="#505050"/><path d="M36.767 39.14v-1.9h.933v1.9h-.933z" fill="url(#paint27_linear_1_1930)"/><path d="M36.767 39.14v-1.9h.933v1.9h-.933z" stroke="#C70100"/><path d="M28.066 43.008v-1.9H29v1.9h-.934z" fill="#505050"/><path d="M28.066 43.008v-1.9H29v1.9h-.934z" fill="url(#paint28_linear_1_1930)"/><path d="M28.066 43.008v-1.9H29v1.9h-.934z" stroke="#C70100"/><path d="M37.734 24.638v-1.9h.933v1.9h-.933z" fill="#505050"/><path d="M37.734 24.638v-1.9h.933v1.9h-.933z" fill="url(#paint29_linear_1_1930)"/><path d="M37.734 24.638v-1.9h.933v1.9h-.933z" stroke="#C70100"/><defs><linearGradient id="paint0_linear_1_1930" x1="27.567" y1="53.174" x2="27.567" y2="51.24" gradientUnits="userSpaceOnUse"><stop stop-color="#919191"/><stop offset=".07" stop-color="#ABABAB"/><stop offset=".2" stop-color="#A2A2A2"/><stop offset=".38" stop-color="#8E8E8E"/><stop offset=".48" stop-color="#6E6E6E"/><stop offset=".49" stop-color="#262626"/><stop offset="1" stop-color="#B5B5B5"/></linearGradient><linearGradient id="paint1_linear_1_1930" x1="39.167" y1="53.174" x2="39.167" y2="51.24" gradientUnits="userSpaceOnUse"><stop stop-color="#919191"/><stop offset=".07" stop-color="#ABABAB"/><stop offset=".2" stop-color="#A2A2A2"/><stop offset=".38" stop-color="#8E8E8E"/><stop offset=".48" stop-color="#6E6E6E"/><stop offset=".49" stop-color="#262626"/><stop offset="1" stop-color="#B5B5B5"/></linearGradient><linearGradient id="paint2_linear_1_1930" x1="57.533" y1="49.307" x2="57.533" y2="47.373" gradientUnits="userSpaceOnUse"><stop stop-color="#919191"/><stop offset=".07" stop-color="#ABABAB"/><stop offset=".2" stop-color="#A2A2A2"/><stop offset=".38" stop-color="#8E8E8E"/><stop offset=".48" stop-color="#6E6E6E"/><stop offset=".49" stop-color="#262626"/><stop offset="1" stop-color="#B5B5B5"/></linearGradient><linearGradient id="paint3_linear_1_1930" x1="5.333" y1="48.289" x2="5.333" y2="4.782" gradientUnits="userSpaceOnUse"><stop stop-color="#919191"/><stop offset=".07" stop-color="#ABABAB"/><stop offset=".2" stop-color="#A2A2A2"/><stop offset=".38" stop-color="#8E8E8E"/><stop offset=".48" stop-color="#6E6E6E"/><stop offset=".49" stop-color="#262626"/><stop offset="1" stop-color="#B5B5B5"/></linearGradient><linearGradient id="paint4_linear_1_1930" x1="51.734" y1="48.289" x2="51.734" y2="4.782" gradientUnits="userSpaceOnUse"><stop stop-color="#919191"/><stop offset=".07" stop-color="#ABABAB"/><stop offset=".2" stop-color="#A2A2A2"/><stop offset=".38" stop-color="#8E8E8E"/><stop offset=".48" stop-color="#6E6E6E"/><stop offset=".49" stop-color="#262626"/><stop offset="1" stop-color="#B5B5B5"/></linearGradient><linearGradient id="paint5_linear_1_1930" x1="28.533" y1="4.828" x2="28.533" y2="-.006" gradientUnits="userSpaceOnUse"><stop stop-color="#919191"/><stop offset=".07" stop-color="#ABABAB"/><stop offset=".2" stop-color="#A2A2A2"/><stop offset=".38" stop-color="#8E8E8E"/><stop offset=".48" stop-color="#6E6E6E"/><stop offset=".49" stop-color="#262626"/><stop offset="1" stop-color="#B5B5B5"/></linearGradient><linearGradient id="paint6_linear_1_1930" x1="28.533" y1="11.6" x2="28.533" y2="9.666" gradientUnits="userSpaceOnUse"><stop stop-color="#919191"/><stop offset=".07" stop-color="#ABABAB"/><stop offset=".2" stop-color="#A2A2A2"/><stop offset=".38" stop-color="#8E8E8E"/><stop offset=".48" stop-color="#6E6E6E"/><stop offset=".49" stop-color="#262626"/><stop offset="1" stop-color="#B5B5B5"/></linearGradient><linearGradient id="paint7_linear_1_1930" x1="9.2" y1="48.296" x2="9.2" y2="10.59" gradientUnits="userSpaceOnUse"><stop stop-color="#919191"/><stop offset=".07" stop-color="#ABABAB"/><stop offset=".2" stop-color="#A2A2A2"/><stop offset=".38" stop-color="#8E8E8E"/><stop offset=".48" stop-color="#6E6E6E"/><stop offset=".49" stop-color="#262626"/><stop offset="1" stop-color="#B5B5B5"/></linearGradient><linearGradient id="paint8_linear_1_1930" x1="46.901" y1="48.296" x2="46.901" y2="10.59" gradientUnits="userSpaceOnUse"><stop stop-color="#919191"/><stop offset=".07" stop-color="#ABABAB"/><stop offset=".2" stop-color="#A2A2A2"/><stop offset=".38" stop-color="#8E8E8E"/><stop offset=".48" stop-color="#6E6E6E"/><stop offset=".49" stop-color="#262626"/><stop offset="1" stop-color="#B5B5B5"/></linearGradient><linearGradient id="paint9_linear_1_1930" x1="22.733" y1="15.467" x2="22.733" y2="13.534" gradientUnits="userSpaceOnUse"><stop stop-color="#919191"/><stop offset=".07" stop-color="#ABABAB"/><stop offset=".2" stop-color="#A2A2A2"/><stop offset=".38" stop-color="#8E8E8E"/><stop offset=".48" stop-color="#6E6E6E"/><stop offset=".49" stop-color="#262626"/><stop offset="1" stop-color="#B5B5B5"/></linearGradient><linearGradient id="paint10_linear_1_1930" x1="28.05" y1="19.335" x2="28.05" y2="17.401" gradientUnits="userSpaceOnUse"><stop stop-color="#919191"/><stop offset=".07" stop-color="#ABABAB"/><stop offset=".2" stop-color="#A2A2A2"/><stop offset=".38" stop-color="#8E8E8E"/><stop offset=".48" stop-color="#6E6E6E"/><stop offset=".49" stop-color="#262626"/><stop offset="1" stop-color="#B5B5B5"/></linearGradient><linearGradient id="paint11_linear_1_1930" x1="20.8" y1="32.858" x2="20.8" y2="21.257" gradientUnits="userSpaceOnUse"><stop stop-color="#919191"/><stop offset=".07" stop-color="#ABABAB"/><stop offset=".2" stop-color="#A2A2A2"/><stop offset=".38" stop-color="#8E8E8E"/><stop offset=".48" stop-color="#6E6E6E"/><stop offset=".49" stop-color="#262626"/><stop offset="1" stop-color="#B5B5B5"/></linearGradient><linearGradient id="paint12_linear_1_1930" x1="29.5" y1="32.863" x2="29.5" y2="25.129" gradientUnits="userSpaceOnUse"><stop stop-color="#919191"/><stop offset=".07" stop-color="#ABABAB"/><stop offset=".2" stop-color="#A2A2A2"/><stop offset=".38" stop-color="#8E8E8E"/><stop offset=".48" stop-color="#6E6E6E"/><stop offset=".49" stop-color="#262626"/><stop offset="1" stop-color="#B5B5B5"/></linearGradient><linearGradient id="paint13_linear_1_1930" x1="38.2" y1="32.858" x2="38.2" y2="21.257" gradientUnits="userSpaceOnUse"><stop stop-color="#919191"/><stop offset=".07" stop-color="#ABABAB"/><stop offset=".2" stop-color="#A2A2A2"/><stop offset=".38" stop-color="#8E8E8E"/><stop offset=".48" stop-color="#6E6E6E"/><stop offset=".49" stop-color="#262626"/><stop offset="1" stop-color="#B5B5B5"/></linearGradient><linearGradient id="paint14_linear_1_1930" x1="28.05" y1="33.837" x2="28.05" y2="31.904" gradientUnits="userSpaceOnUse"><stop stop-color="#919191"/><stop offset=".07" stop-color="#ABABAB"/><stop offset=".2" stop-color="#A2A2A2"/><stop offset=".38" stop-color="#8E8E8E"/><stop offset=".48" stop-color="#6E6E6E"/><stop offset=".49" stop-color="#262626"/><stop offset="1" stop-color="#B5B5B5"/></linearGradient><linearGradient id="paint15_linear_1_1930" x1="18.867" y1="48.327" x2="18.867" y2="35.758" gradientUnits="userSpaceOnUse"><stop stop-color="#919191"/><stop offset=".07" stop-color="#ABABAB"/><stop offset=".2" stop-color="#A2A2A2"/><stop offset=".38" stop-color="#8E8E8E"/><stop offset=".48" stop-color="#6E6E6E"/><stop offset=".49" stop-color="#262626"/><stop offset="1" stop-color="#B5B5B5"/></linearGradient><linearGradient id="paint16_linear_1_1930" x1="28.534" y1="48.332" x2="28.534" y2="39.63" gradientUnits="userSpaceOnUse"><stop stop-color="#919191"/><stop offset=".07" stop-color="#ABABAB"/><stop offset=".2" stop-color="#A2A2A2"/><stop offset=".38" stop-color="#8E8E8E"/><stop offset=".48" stop-color="#6E6E6E"/><stop offset=".49" stop-color="#262626"/><stop offset="1" stop-color="#B5B5B5"/></linearGradient><linearGradient id="paint17_linear_1_1930" x1="37.233" y1="48.327" x2="37.233" y2="35.758" gradientUnits="userSpaceOnUse"><stop stop-color="#919191"/><stop offset=".07" stop-color="#ABABAB"/><stop offset=".2" stop-color="#A2A2A2"/><stop offset=".38" stop-color="#8E8E8E"/><stop offset=".48" stop-color="#6E6E6E"/><stop offset=".49" stop-color="#262626"/><stop offset="1" stop-color="#B5B5B5"/></linearGradient><linearGradient id="paint18_linear_1_1930" x1="1.467" y1="21.268" x2="1.467" y2="19.335" gradientUnits="userSpaceOnUse"><stop stop-color="#919191"/><stop offset=".07" stop-color="#ABABAB"/><stop offset=".2" stop-color="#A2A2A2"/><stop offset=".38" stop-color="#8E8E8E"/><stop offset=".48" stop-color="#6E6E6E"/><stop offset=".49" stop-color="#262626"/><stop offset="1" stop-color="#B5B5B5"/></linearGradient><linearGradient id="paint19_linear_1_1930" x1="1.467" y1="25.135" x2="1.467" y2="23.202" gradientUnits="userSpaceOnUse"><stop stop-color="#919191"/><stop offset=".07" stop-color="#ABABAB"/><stop offset=".2" stop-color="#A2A2A2"/><stop offset=".38" stop-color="#8E8E8E"/><stop offset=".48" stop-color="#6E6E6E"/><stop offset=".49" stop-color="#262626"/><stop offset="1" stop-color="#B5B5B5"/></linearGradient><linearGradient id="paint20_linear_1_1930" x1="1.467" y1="29.003" x2="1.467" y2="27.07" gradientUnits="userSpaceOnUse"><stop stop-color="#919191"/><stop offset=".07" stop-color="#ABABAB"/><stop offset=".2" stop-color="#A2A2A2"/><stop offset=".38" stop-color="#8E8E8E"/><stop offset=".48" stop-color="#6E6E6E"/><stop offset=".49" stop-color="#262626"/><stop offset="1" stop-color="#B5B5B5"/></linearGradient><linearGradient id="paint21_linear_1_1930" x1="56.567" y1="2.898" x2="56.567" y2=".965" gradientUnits="userSpaceOnUse"><stop stop-color="#919191"/><stop offset=".07" stop-color="#ABABAB"/><stop offset=".2" stop-color="#A2A2A2"/><stop offset=".38" stop-color="#8E8E8E"/><stop offset=".48" stop-color="#6E6E6E"/><stop offset=".49" stop-color="#262626"/><stop offset="1" stop-color="#B5B5B5"/></linearGradient><linearGradient id="paint22_linear_1_1930" x1="56.567" y1="6.766" x2="56.567" y2="4.832" gradientUnits="userSpaceOnUse"><stop stop-color="#919191"/><stop offset=".07" stop-color="#ABABAB"/><stop offset=".2" stop-color="#A2A2A2"/><stop offset=".38" stop-color="#8E8E8E"/><stop offset=".48" stop-color="#6E6E6E"/><stop offset=".49" stop-color="#262626"/><stop offset="1" stop-color="#B5B5B5"/></linearGradient><linearGradient id="paint23_linear_1_1930" x1="56.567" y1="10.633" x2="56.567" y2="8.699" gradientUnits="userSpaceOnUse"><stop stop-color="#919191"/><stop offset=".07" stop-color="#ABABAB"/><stop offset=".2" stop-color="#A2A2A2"/><stop offset=".38" stop-color="#8E8E8E"/><stop offset=".48" stop-color="#6E6E6E"/><stop offset=".49" stop-color="#262626"/><stop offset="1" stop-color="#B5B5B5"/></linearGradient><linearGradient id="paint24_linear_1_1930" x1="20.8" y1="25.134" x2="20.8" y2="22.234" gradientUnits="userSpaceOnUse"><stop stop-color="#919191"/><stop offset=".07" stop-color="#ABABAB"/><stop offset=".2" stop-color="#A2A2A2"/><stop offset=".38" stop-color="#8E8E8E"/><stop offset=".48" stop-color="#6E6E6E"/><stop offset=".49" stop-color="#262626"/><stop offset="1" stop-color="#B5B5B5"/></linearGradient><linearGradient id="paint25_linear_1_1930" x1="29.5" y1="29.002" x2="29.5" y2="26.102" gradientUnits="userSpaceOnUse"><stop stop-color="#919191"/><stop offset=".07" stop-color="#ABABAB"/><stop offset=".2" stop-color="#A2A2A2"/><stop offset=".38" stop-color="#8E8E8E"/><stop offset=".48" stop-color="#6E6E6E"/><stop offset=".49" stop-color="#262626"/><stop offset="1" stop-color="#B5B5B5"/></linearGradient><linearGradient id="paint26_linear_1_1930" x1="18.867" y1="39.637" x2="18.867" y2="36.737" gradientUnits="userSpaceOnUse"><stop stop-color="#919191"/><stop offset=".07" stop-color="#ABABAB"/><stop offset=".2" stop-color="#A2A2A2"/><stop offset=".38" stop-color="#8E8E8E"/><stop offset=".48" stop-color="#6E6E6E"/><stop offset=".49" stop-color="#262626"/><stop offset="1" stop-color="#B5B5B5"/></linearGradient><linearGradient id="paint27_linear_1_1930" x1="37.233" y1="39.637" x2="37.233" y2="36.737" gradientUnits="userSpaceOnUse"><stop stop-color="#919191"/><stop offset=".07" stop-color="#ABABAB"/><stop offset=".2" stop-color="#A2A2A2"/><stop offset=".38" stop-color="#8E8E8E"/><stop offset=".48" stop-color="#6E6E6E"/><stop offset=".49" stop-color="#262626"/><stop offset="1" stop-color="#B5B5B5"/></linearGradient><linearGradient id="paint28_linear_1_1930" x1="28.533" y1="43.505" x2="28.533" y2="40.604" gradientUnits="userSpaceOnUse"><stop stop-color="#919191"/><stop offset=".07" stop-color="#ABABAB"/><stop offset=".2" stop-color="#A2A2A2"/><stop offset=".38" stop-color="#8E8E8E"/><stop offset=".48" stop-color="#6E6E6E"/><stop offset=".49" stop-color="#262626"/><stop offset="1" stop-color="#B5B5B5"/></linearGradient><linearGradient id="paint29_linear_1_1930" x1="38.2" y1="25.134" x2="38.2" y2="22.234" gradientUnits="userSpaceOnUse"><stop stop-color="#919191"/><stop offset=".07" stop-color="#ABABAB"/><stop offset=".2" stop-color="#A2A2A2"/><stop offset=".38" stop-color="#8E8E8E"/><stop offset=".48" stop-color="#6E6E6E"/><stop offset=".49" stop-color="#262626"/><stop offset="1" stop-color="#B5B5B5"/></linearGradient></defs></svg>