<svg width="53" height="53" fill="none" xmlns="http://www.w3.org/2000/svg"><rect x="2" y="6" width="16.838" height="39" rx="1" stroke="#C70100" stroke-width="2"/><path d="M9.5 20.434V19.5h.933v.934H9.5zm0 3.866v-.933h.933v.934H9.5z" fill="#505050" stroke="#C70100"/><rect x="6.787" y="27.334" width="7.605" height=".992" rx=".496" fill="#505050" stroke="#C70100" stroke-width=".992"/><rect x="6.787" y="31.767" width="7.605" height=".992" rx=".496" fill="#505050" stroke="#C70100" stroke-width=".992"/><rect x="6.787" y="36.199" width="7.605" height=".992" rx=".496" fill="#505050" stroke="#C70100" stroke-width=".992"/><rect x="6.787" y="40.631" width="7.605" height=".992" rx=".496" fill="#505050" stroke="#C70100" stroke-width=".992"/><circle cx="10.258" cy="14.258" r="3.218" stroke="#C70100" stroke-width="1.5"/><rect x="35.162" y="12" width="15.919" height="37" rx="1" stroke="#C70100" stroke-width="2"/><path d="M42.5 26.434V25.5h.933v.934H42.5zm0 3.866v-.933h.933v.934H42.5z" fill="#505050" stroke="#C70100"/><circle cx="42.968" cy="19.806" r="3.024" stroke="#C70100" stroke-width="1.5"/><rect x="39.666" y="32.391" width="7.234" height=".944" rx=".472" fill="#505050" stroke="#C70100" stroke-width=".944"/><rect x="39.666" y="36.607" width="7.234" height=".944" rx=".472" fill="#505050" stroke="#C70100" stroke-width=".944"/><rect x="39.666" y="40.823" width="7.234" height=".944" rx=".472" fill="#505050" stroke="#C70100" stroke-width=".944"/><rect x="39.666" y="45.039" width="7.234" height=".944" rx=".472" fill="#505050" stroke="#C70100" stroke-width=".944"/><path d="M30.333 30.833l2.5 2.5-2.5 2.5m-9.166-2.5h11.666m-9.166-4.166l-2.5-2.5 2.5-2.5m9.166 2.5H21.167" stroke="#C70100" stroke-width="2" stroke-linecap="round" stroke-linejoin="round"/></svg>