<svg width="52" height="67" fill="none" xmlns="http://www.w3.org/2000/svg"><mask id="path-1-inside-1_1_1045" fill="#fff"><path d="M51.826 65.184l-2.218-3.733a4.132 4.132 0 00.475-4.848L35.877 32.698a13.198 13.198 0 002.878-5.727 13.253 13.253 0 00-.153-6.418 13.186 13.186 0 00-3.147-5.58 13.047 13.047 0 00-5.394-3.418V1.196c0-.317-.125-.621-.348-.846a1.183 1.183 0 00-.84-.35h-5.751c-.315 0-.617.126-.84.35a1.201 1.201 0 00-.348.846V11.56a13.048 13.048 0 00-5.393 3.417 13.187 13.187 0 00-3.148 5.581 13.258 13.258 0 00-.153 6.418 13.198 13.198 0 002.878 5.727L1.912 56.608a4.132 4.132 0 00.475 4.848L.169 65.188a1.202 1.202 0 00.408 1.642 1.18 1.18 0 001.63-.412l2.218-3.735c.318.08.645.121.973.122a4.067 4.067 0 002.004-.535 4.106 4.106 0 001.487-1.456l6.792-11.433h9.132v1.486c0 .318.125.622.347.846a1.183 1.183 0 001.68 0c.222-.224.347-.529.347-.846v-1.486h9.132l6.792 11.433a4.064 4.064 0 001.925 1.679 4.025 4.025 0 002.54.19l2.218 3.735a1.193 1.193 0 00.73.546 1.18 1.18 0 001.242-.448 1.2 1.2 0 00.065-1.328l-.005-.004zM24.306 2.393h3.378v8.614a12.473 12.473 0 00-3.377 0V2.393zm-9.024 21.686a10.849 10.849 0 011.168-4.913 10.761 10.761 0 013.26-3.839 10.625 10.625 0 019.635-1.5c1.61.536 3.07 1.45 4.26 2.667a10.798 10.798 0 012.585 4.33 10.86 10.86 0 01-1.629 9.685l-2.966-4.992a5.877 5.877 0 00-1.041-5.017 5.798 5.798 0 00-2.027-1.66 5.754 5.754 0 00-5.087 0 5.799 5.799 0 00-2.027 1.66 5.877 5.877 0 00-1.042 5.018l-2.966 4.99a10.822 10.822 0 01-2.11-6.433l-.013.004zm10.713 3.439a3.397 3.397 0 01-1.897-.58c-.562-.378-1-.916-1.258-1.544a3.465 3.465 0 01.74-3.75 3.39 3.39 0 013.722-.746 3.42 3.42 0 011.533 1.267 3.46 3.46 0 01-.426 4.344 3.407 3.407 0 01-2.414 1.009zM6.847 59.582a1.685 1.685 0 01-1.454.828 1.68 1.68 0 01-1.466-.863 1.712 1.712 0 01.02-1.712l17.745-29.863a5.78 5.78 0 002.89 1.762L6.847 59.582zm20.336-12.596v-1.488c0-.318-.125-.622-.348-.846a1.183 1.183 0 00-1.68 0 1.201 1.201 0 00-.347.846v1.488h-7.709l8.896-14.972 8.896 14.972h-7.708zm17.96 12.596L27.409 29.734a5.78 5.78 0 002.89-1.762l17.745 29.863a1.71 1.71 0 01-.583 2.334 1.678 1.678 0 01-2.316-.587z"/></mask><path d="M16.974 30.256l-1.287 2.194.862.506 1.288-2.194-.863-.506zm17.159.51l1.315 2.19.858-.515-1.316-2.19-.857.515zM22.094 12.034c.44-.15 1.501-.457 2.26-.53l-.095-.995c-.876.084-2.025.422-2.485.577l.32.948zm5.547-.529a9.39 9.39 0 012.242.517l.357-.934a10.372 10.372 0 00-2.514-.58l-.084.997zm24.185 53.679l-.86.51.064.107.087.087.71-.704zm-2.218-3.733l-.745-.667-.49.547.376.63.86-.51zm.475-4.848l.861-.509-.001-.002-.86.51zM35.877 32.698l-.758-.653-.47.545.368.62.86-.512zm-5.816-21.143h-1v.724l.688.226.312-.95zM28.874 0v-1 1zm-6.94 11.56l.312.95.688-.226v-.724h-1zm-5.816 21.143l.86.511.368-.619-.47-.545-.758.653zM1.912 56.608l-.86-.511-.001.002.861.509zm.475 4.848l.86.51.374-.63-.489-.547-.745.667zM.169 65.188l.86.511-.86-.51zm2.037 1.23l.86.511-.86-.51zm2.219-3.735l.243-.97-.723-.181-.38.64.86.511zm.973.122l-.003 1h.006l-.003-1zm3.491-1.99l.858.514.002-.004-.86-.51zm6.792-11.434v-1h-.569l-.29.49.86.51zm9.132 0h1v-1h-1v1zm2.374 0v-1h-1v1h1zm9.132 0l.86-.51-.291-.49h-.57v1zm6.792 11.433l.86-.51-.86.51zm4.465 1.87l.86-.511-.382-.642-.723.182.244.97zm2.218 3.734l-.86.51v.001l.86-.51zm2.037-1.23l.86-.51-.063-.107-.087-.087-.71.704zM24.307 2.393v-1h-1v1h1zm3.377 0h1v-1h-1v1zm0 8.614l-.136.99 1.136.156v-1.146h-1zm-3.377 0h-1v1.146l1.135-.155-.135-.99zM15.282 24.08l-1 .002.003 1.478 1.37-.552-.373-.928zm19.28 6.43l-.86.51.768 1.294.895-1.21-.804-.594zm-2.967-4.992l-.97-.244-.1.4.21.355.86-.51zm-11.223 0l.86.511.21-.355-.1-.4-.97.244zm-2.967 4.992l-.804.594.895 1.212.77-1.295-.86-.511zm-2.11-6.434h1v-1.482l-1.374.554.373.928zm10.7 3.443v1h.002l-.002-1zm3.415-3.441l1 .001v-.001h-1zM6.847 59.582l-.86-.51-.002.002.862.508zm-1.454.828l.006-1h-.004l-.002 1zm-1.446-2.575l-.86-.51.86.51zm17.745-29.863l.747-.664-.908-1.022-.699 1.176.86.51zm2.89 1.762l.86.51.683-1.15-1.296-.33-.247.97zm2.6 17.252h-1v1h1v-1zm-2.374 0v1h1v-1h-1zm-7.709 0l-.86-.51-.897 1.51h1.757v-1zm8.896-14.972l.86-.51-.86-1.448-.86 1.447.86.51zm8.896 14.972v1h1.758l-.898-1.51-.86.51zm10.253 12.596l.86-.51-.86.51zM27.408 29.734l-.247-.97-1.295.33.683 1.15.86-.51zm2.89-1.762l.86-.51-.698-1.176-.909 1.022.748.664zm17.745 29.863l.86-.51-.86.51zm-.583 2.334l.516.857-.516-.857zm5.226 4.504l-2.218-3.733-1.72 1.022 2.219 3.733 1.72-1.022zm-2.332-2.556a5.121 5.121 0 001.278-2.914l-1.99-.195a3.12 3.12 0 01-.78 1.776l1.492 1.333zm1.278-2.914a5.131 5.131 0 00-.688-3.109l-1.722 1.017c.337.57.484 1.235.42 1.897l1.99.195zm-.69-3.111L36.738 32.187l-1.72 1.022 14.207 23.905 1.719-1.022zm-14.308-22.74a14.199 14.199 0 003.097-6.162l-1.951-.438a12.197 12.197 0 01-2.66 5.293l1.514 1.306zm3.097-6.162c.512-2.279.455-4.65-.164-6.902l-1.929.53c.533 1.936.581 3.975.142 5.934l1.951.438zm-.164-6.902a14.186 14.186 0 00-3.387-6.004l-1.45 1.377a12.185 12.185 0 012.908 5.158l1.929-.53zm-3.387-6.004a14.05 14.05 0 00-5.807-3.68l-.624 1.901a12.049 12.049 0 014.98 3.155l1.451-1.376zm-5.119-2.729V1.196h-2v10.36h2zm0-10.359c0-.58-.229-1.138-.638-1.55l-1.42 1.409a.201.201 0 01.058.141h2zm-.638-1.55A2.183 2.183 0 0028.873-1v2a.18.18 0 01.13.055l1.42-1.409zM28.873-1h-5.751v2h5.752v-2zm-5.751 0c-.583 0-1.14.233-1.55.646l1.42 1.409a.183.183 0 01.13-.055v-2zm-1.55.646a2.2 2.2 0 00-.638 1.55h2a.2.2 0 01.058-.141l-1.42-1.409zm-.638 1.55V11.56h2V1.196h-2zm.688 9.414a14.049 14.049 0 00-5.807 3.678l1.45 1.377a12.049 12.049 0 014.981-3.155l-.624-1.9zm-5.807 3.678a14.186 14.186 0 00-3.386 6.005l1.928.53a12.187 12.187 0 012.909-5.158l-1.45-1.377zm-3.386 6.005a14.258 14.258 0 00-.165 6.902l1.952-.438c-.44-1.96-.391-3.998.14-5.934l-1.928-.53zm-.165 6.902a14.198 14.198 0 003.097 6.161l1.515-1.306a12.198 12.198 0 01-2.66-5.293l-1.952.438zm2.995 4.997L1.052 56.097l1.72 1.021 14.206-23.904-1.72-1.022zM1.05 56.1a5.131 5.131 0 00-.687 3.109l1.99-.195a3.132 3.132 0 01.42-1.897L1.05 56.099zm-.687 3.109a5.121 5.121 0 001.278 2.914l1.49-1.333a3.12 3.12 0 01-.778-1.776l-1.99.195zm1.163 1.737L-.69 64.678l1.72 1.021 2.218-3.733-1.72-1.021zM-.69 64.677a2.21 2.21 0 00-.286.806l1.98.29a.202.202 0 01.025-.073L-.69 64.677zm-.286.806c-.041.284-.027.574.042.853l1.941-.483a.205.205 0 01-.004-.08l-1.979-.29zm.042.853a2.2 2.2 0 00.364.773l1.61-1.186a.2.2 0 01-.033-.07l-1.94.483zm.364.773c.17.232.385.428.632.577l1.033-1.712a.19.19 0 01-.055-.05l-1.61 1.185zm.632.577c.246.149.52.248.805.29l.295-1.978a.18.18 0 01-.067-.024L.061 67.686zm.805.29c.285.043.576.028.855-.042l-.49-1.94a.178.178 0 01-.07.004l-.295 1.978zm.855-.042c.28-.071.542-.196.773-.369l-1.197-1.602a.182.182 0 01-.065.032l.49 1.939zm.773-.369c.23-.172.425-.388.572-.636l-1.72-1.022a.193.193 0 01-.05.056l1.198 1.602zm.572-.636l2.218-3.735-1.72-1.022-2.217 3.736 1.72 1.02zm1.115-3.276c.397.1.805.15 1.214.152l.006-2a3.05 3.05 0 01-.733-.092l-.487 1.94zm1.22.152a5.068 5.068 0 002.497-.666l-.99-1.737a3.067 3.067 0 01-1.513.403l.006 2zm2.497-.666a5.106 5.106 0 001.849-1.81L8.032 60.3a3.11 3.11 0 01-1.125 1.102l.99 1.737zm1.851-1.814l6.792-11.433-1.72-1.022L8.03 60.304l1.719 1.021zm5.932-10.944h9.132v-2H15.68v2zm8.132-1v1.486h2v-1.486h-2zm0 1.486a2.2 2.2 0 00.638 1.55l1.42-1.408a.201.201 0 01-.058-.142h-2zm.638 1.55c.41.413.966.647 1.549.647v-2a.183.183 0 01-.13-.055l-1.42 1.409zm1.549.647c.582 0 1.14-.234 1.55-.646l-1.42-1.41a.183.183 0 01-.13.056v2zm1.55-.646c.409-.413.637-.97.637-1.55h-2a.201.201 0 01-.057.14l1.42 1.41zm.637-1.55V49.38h-2v1.486h2zm-1-.487h9.132v-2h-9.132v2zm8.272-.489l6.792 11.433 1.72-1.022-6.793-11.432-1.719 1.021zm6.791 11.432a5.063 5.063 0 002.4 2.091l.773-1.845a3.063 3.063 0 01-1.452-1.265l-1.72 1.019zm2.4 2.091a5.026 5.026 0 003.17.238l-.489-1.94c-.635.16-1.304.11-1.909-.143l-.772 1.845zm2.066-.221l2.218 3.735 1.72-1.021-2.219-3.736-1.72 1.022zm2.218 3.735c.147.248.341.464.572.636l1.197-1.602a.193.193 0 01-.05-.056l-1.719 1.022zm.572.636c.23.173.493.298.773.369l.49-1.94a.181.181 0 01-.066-.03l-1.197 1.601zm.773.369c.28.07.57.085.855.042l-.295-1.978a.177.177 0 01-.07-.004l-.49 1.94zm.855.042c.285-.042.559-.141.806-.29l-1.034-1.712a.18.18 0 01-.067.024l.295 1.978zm.806-.29a2.2 2.2 0 00.631-.577l-1.61-1.186a.19.19 0 01-.055.05l1.034 1.713zm.631-.577c.17-.231.294-.494.364-.773l-1.941-.483a.2.2 0 01-.033.07l1.61 1.186zm.364-.773c.07-.28.083-.569.042-.853l-1.98.29a.204.204 0 01-.003.08l1.94.483zm.042-.853a2.205 2.205 0 00-.286-.806L50.97 65.7a.203.203 0 01.027.075l1.979-.291zm-.436-1l-.005-.004-1.419 1.41.005.004 1.419-1.41zM24.306 3.394h3.377v-2h-3.377v2zm2.377-1v8.614h2V2.393h-2zm1.135 7.623a13.471 13.471 0 00-3.648 0l.271 1.982a11.456 11.456 0 013.106 0l.271-1.982zm-2.512.991V2.393h-2v8.614h2zm-9.025 13.07a9.849 9.849 0 011.06-4.46l-1.785-.903a11.85 11.85 0 00-1.275 5.367l2-.003zm1.06-4.46a9.761 9.761 0 012.958-3.482L19.12 14.52a11.76 11.76 0 00-3.564 4.195l1.785.903zm2.958-3.482a9.657 9.657 0 014.203-1.74l-.308-1.976a11.657 11.657 0 00-5.074 2.1l1.179 1.616zm4.203-1.74a9.624 9.624 0 014.527.38l.632-1.897a11.626 11.626 0 00-5.467-.46l.308 1.977zm4.527.38a9.689 9.689 0 013.86 2.418l1.43-1.398a11.688 11.688 0 00-4.658-2.917l-.632 1.897zm3.86 2.418a9.8 9.8 0 012.346 3.928l1.909-.596a11.799 11.799 0 00-2.825-4.73l-1.43 1.398zm2.346 3.928a9.861 9.861 0 01.312 4.577l1.972.331a11.85 11.85 0 00-.376-5.504l-1.908.597zm.312 4.577a9.825 9.825 0 01-1.79 4.216l1.607 1.19a11.825 11.825 0 002.155-5.075l-1.972-.331zm-.127 4.3l-2.966-4.992-1.72 1.022 2.967 4.992 1.719-1.022zm-2.856-4.236a6.875 6.875 0 00.065-3.078l-1.959.406c.15.722.134 1.468-.046 2.183l1.94.489zm.065-3.078a6.854 6.854 0 00-1.285-2.795l-1.583 1.222c.448.58.76 1.258.91 1.98l1.958-.407zm-1.285-2.795a6.798 6.798 0 00-2.376-1.945l-.884 1.794a4.799 4.799 0 011.677 1.373l1.583-1.222zm-2.376-1.945a6.755 6.755 0 00-2.986-.696v2c.729 0 1.447.167 2.102.49l.884-1.794zm-2.986-.696a6.755 6.755 0 00-2.985.696l.884 1.794a4.755 4.755 0 012.101-.49v-2zm-2.985.696a6.798 6.798 0 00-2.376 1.945l1.583 1.222a4.8 4.8 0 011.677-1.373l-.884-1.794zm-2.376 1.945a6.853 6.853 0 00-1.285 2.795l1.958.406c.15-.721.461-1.398.91-1.98l-1.583-1.221zm-1.285 2.795a6.878 6.878 0 00.065 3.078l1.94-.489a4.876 4.876 0 01-.047-2.183l-1.958-.406zm.175 2.322l-2.966 4.992 1.72 1.022 2.965-4.992-1.719-1.021zm-1.302 4.909a9.823 9.823 0 01-1.916-5.84l-2-.001a11.823 11.823 0 002.307 7.029l1.609-1.188zm-3.29-6.768l-.011.005.747 1.855.012-.005-.747-1.855zm11.075 3.37c-.476 0-.942-.141-1.339-.409l-1.116 1.66a4.4 4.4 0 002.455.75v-2zm-1.339-.409a2.435 2.435 0 01-.89-1.095l-1.85.76a4.42 4.42 0 001.623 1.994l1.117-1.659zm-.89-1.095a2.465 2.465 0 01-.14-1.414l-1.961-.387c-.17.86-.083 1.751.25 2.562l1.85-.76zm-.14-1.414a2.45 2.45 0 01.664-1.25l-1.42-1.41a4.45 4.45 0 00-1.205 2.273l1.962.387zm.664-1.25a2.392 2.392 0 011.236-.666l-.393-1.961a4.407 4.407 0 00-2.262 1.217l1.42 1.41zm1.236-.666a2.391 2.391 0 011.391.138l.77-1.846a4.39 4.39 0 00-2.555-.253l.393 1.96zm1.391.138c.44.183.818.495 1.084.897l1.667-1.105a4.421 4.421 0 00-1.98-1.638l-.771 1.846zm1.084.897c.267.401.41.874.41 1.359h2a4.46 4.46 0 00-.743-2.465L28 22.719zm.41 1.358a2.463 2.463 0 01-.712 1.728l1.42 1.409a4.459 4.459 0 001.291-3.135l-2-.002zm-.712 1.728a2.407 2.407 0 01-1.705.714l.003 2a4.407 4.407 0 003.121-1.305l-1.42-1.409zM5.985 59.074a.685.685 0 01-.25.248l.99 1.738c.407-.232.746-.567.983-.97l-1.723-1.016zm-.25.248a.67.67 0 01-.336.088l-.011 2a2.67 2.67 0 001.337-.35l-.99-1.738zm-.34.088a.68.68 0 01-.343-.094l-1.015 1.723c.41.242.878.37 1.355.37l.003-2zm-.343-.094a.696.696 0 01-.253-.26l-1.744.98c.233.415.572.762.982 1.003l1.015-1.723zm-.253-.26a.711.711 0 01-.091-.356l-2-.024c-.006.476.114.945.347 1.36l1.744-.98zm-.091-.356a.71.71 0 01.1-.354l-1.72-1.021a2.71 2.71 0 00-.38 1.351l2 .024zm.099-.354l17.745-29.863-1.72-1.021L3.088 57.324l1.719 1.022zm16.138-29.709a6.78 6.78 0 003.39 2.066l.494-1.938a4.78 4.78 0 01-2.39-1.457l-1.494 1.33zm2.777.586L5.988 59.07l1.72 1.022 17.735-29.849-1.72-1.021zm4.46 17.763v-1.488h-2v1.488h2zm0-1.488a2.2 2.2 0 00-.637-1.55l-1.42 1.408a.2.2 0 01.058.142h2zm-.637-1.55a2.183 2.183 0 00-1.55-.647v2c.047 0 .094.02.13.055l1.42-1.409zm-1.55-.647c-.582 0-1.14.233-1.55.646l1.42 1.41a.183.183 0 01.13-.056v-2zm-1.55.646c-.409.413-.637.97-.637 1.55h2a.2.2 0 01.057-.14l-1.42-1.41zm-.637 1.55v1.489h2v-1.488h-2zm1 .489h-7.709v2h7.709v-2zm-6.85 1.51l8.897-14.971-1.72-1.022-8.896 14.972 1.72 1.022zm7.178-14.971l8.896 14.972 1.72-1.022-8.897-14.972-1.72 1.022zm9.755 13.461h-7.708v2h7.708v-2zm11.112 13.085L28.268 29.223l-1.72 1.021 17.736 29.849 1.72-1.022zM27.655 30.703a6.78 6.78 0 003.39-2.066l-1.494-1.33a4.78 4.78 0 01-2.39 1.458l.494 1.938zm1.784-2.22l17.745 29.863 1.719-1.022-17.745-29.862-1.72 1.021zm17.744 29.863a.697.697 0 01.092.26l1.98-.29a2.71 2.71 0 00-.352-.991l-1.72 1.02zm.092.26a.714.714 0 01-.014.276l1.94.484c.087-.343.104-.7.053-1.05l-1.979.29zm-.014.276a.707.707 0 01-.117.248l1.61 1.188c.21-.285.362-.608.448-.952l-1.94-.484zm-.117.248a.693.693 0 01-.2.183l1.032 1.713a2.7 2.7 0 00.778-.708l-1.61-1.188zm-.2.183a.678.678 0 01-.517.077l-.492 1.938a2.679 2.679 0 002.041-.302l-1.032-1.713zm-.517.077a.69.69 0 01-.423-.318l-1.72 1.02a2.69 2.69 0 001.651 1.236l.492-1.938z" fill="#C70100" mask="url(#path-1-inside-1_1_1045)"/></svg>