<svg width="62" height="67" fill="none" xmlns="http://www.w3.org/2000/svg"><mask id="path-1-inside-1_1_1081" fill="#fff"><path d="M19.848 21.394l-.23-1.32a1.546 1.546 0 00-.547-.928 1.57 1.57 0 00-1.024-.352H17.01a5.565 5.565 0 00-.75-.88l.205-1.007c.077-.362.019-.74-.163-1.063a1.544 1.544 0 00-.826-.696l-1.264-.44a1.59 1.59 0 00-1.082.01c-.348.13-.638.377-.82.698l-.497.902c-.39.025-.775.093-1.149.202l-.78-.686a1.613 1.613 0 00-2.036-.026l-1.03.853a1.524 1.524 0 00-.333 1.988l.538.88a5.868 5.868 0 00-.235.54c-.071.185-.124.37-.173.56l-.976.32a1.554 1.554 0 00-.846.675 1.533 1.533 0 00-.196 1.058l.23 1.32c.066.364.26.692.548.927.288.234.65.36 1.023.353l1.037-.027c.219.318.47.613.75.88l-.204 1.003c-.077.362-.019.74.163 1.063.181.323.475.57.826.696l1.264.44a1.566 1.566 0 001.903-.708l.496-.88c.39-.028.774-.097 1.149-.207l.78.687a1.568 1.568 0 002.036.026l1.029-.853a1.525 1.525 0 00.333-1.988l-.537-.88a5.96 5.96 0 00.408-1.095l.976-.326a1.55 1.55 0 00.842-.668c.191-.316.262-.689.2-1.051zm-2.697.44a1.54 1.54 0 00-1.02 1.104 3.5 3.5 0 01-.142.479c-.058.15-.126.297-.204.44a1.534 1.534 0 00.058 1.5l.506.818-.75.62-.732-.647a1.578 1.578 0 00-1.494-.308c-.303.09-.616.144-.932.163a1.583 1.583 0 00-1.308.8l-.465.84-.914-.33.19-.94a1.54 1.54 0 00-.474-1.452 3.63 3.63 0 01-.603-.721 1.578 1.578 0 00-1.33-.717H6.56l-.169-.955.918-.303a1.558 1.558 0 001.02-1.104c.037-.163.084-.323.142-.48.059-.15.127-.297.204-.44a1.524 1.524 0 00-.057-1.495l-.524-.831.75-.616.731.642a1.598 1.598 0 001.495.313c.303-.091.616-.146.931-.163a1.58 1.58 0 001.309-.805l.465-.84.914.33-.19.945a1.535 1.535 0 00.474 1.447c.23.215.433.457.603.722a1.579 1.579 0 001.33.717h.976l.169.954-.9.312zm-3.938-2.472a2.823 2.823 0 00-.989-.176 2.917 2.917 0 00-1.654.517 2.842 2.842 0 00-.302 4.452c.28.255.606.452.963.581a2.905 2.905 0 002.377-.176 2.878 2.878 0 001.047-.97 2.846 2.846 0 00.186-2.746 2.86 2.86 0 00-1.628-1.504v.022zm.053 3.078a1.13 1.13 0 01-.58.616 1.096 1.096 0 01-1.575-1.067 1.098 1.098 0 01.577-.896 1.12 1.12 0 01.917-.069c.268.102.486.303.608.56.123.257.14.552.049.821l.004.035zm.187-11.198c.085.39.308.736.627.977.319.242.714.363 1.115.343l1.304-.084c.298.409.64.784 1.02 1.117l-.208 1.276c-.067.393.013.797.223 1.136.21.34.538.592.921.711l1.504.48a1.687 1.687 0 001.399-.166c.265-.163.48-.397.619-.674l.576-1.162a6.491 6.491 0 001.481-.32l1.016.822a1.735 1.735 0 002.186-.057l1.171-1.056a1.643 1.643 0 00.27-2.15l-.718-1.078a6.79 6.79 0 00.275-.704c.077-.242.14-.487.191-.735l1.215-.44a1.648 1.648 0 001.042-1.904L30.35 6.04a1.679 1.679 0 00-.63-.979 1.704 1.704 0 00-1.118-.34l-1.3.079a6.794 6.794 0 00-1.02-1.117l.21-1.276a1.638 1.638 0 00-.224-1.136 1.661 1.661 0 00-.92-.711L23.839.08a1.69 1.69 0 00-1.164.052 1.67 1.67 0 00-.85.793l-.58 1.117a6.598 6.598 0 00-1.482.321l-1.01-.818a1.722 1.722 0 00-2.187.057l-1.17 1.051a1.643 1.643 0 00-.27 2.155l.717 1.074a5.927 5.927 0 00-.275.703 6.054 6.054 0 00-.19.735l-1.23.44a1.66 1.66 0 00-.88.758c-.191.35-.249.758-.161 1.146l.346 1.58zm2.607-2.274a1.64 1.64 0 001.047-1.227c.036-.2.087-.397.15-.59.063-.192.138-.382.223-.567a1.638 1.638 0 00-.13-1.605l-.704-1.051 1.05-.941.994.804a1.723 1.723 0 001.623.269 4.72 4.72 0 011.127-.242 1.698 1.698 0 001.37-.92l.568-1.134 1.33.44-.203 1.249a1.676 1.676 0 00.576 1.54c.291.248.55.532.772.844a1.677 1.677 0 001.476.717l1.287-.08.297 1.373-1.189.44a1.654 1.654 0 00-1.046 1.231 5.131 5.131 0 01-.373 1.152 1.637 1.637 0 00.129 1.606l.705 1.051-1.016.91-.993-.804a1.722 1.722 0 00-1.623-.273 4.73 4.73 0 01-1.122.242 1.68 1.68 0 00-1.375.92l-.568 1.134-1.33-.44.204-1.245a1.676 1.676 0 00-.581-1.544 4.853 4.853 0 01-.772-.844 1.659 1.659 0 00-1.477-.717l-1.282.08-.297-1.373 1.153-.405zm4.781 2.938a3.5 3.5 0 002.339-.075 3.464 3.464 0 001.759-1.53 3.42 3.42 0 00-.787-4.298 3.49 3.49 0 00-4.405-.074A3.44 3.44 0 0018.51 7.9a3.418 3.418 0 00.304 2.3 3.416 3.416 0 002.027 1.672v.035zm-.554-3.79a1.67 1.67 0 01.614-.848 1.7 1.7 0 011-.323 1.694 1.694 0 011.692 1.544 1.61 1.61 0 01-.078.65 1.665 1.665 0 01-.613.849c-.29.21-.641.323-1 .322a1.681 1.681 0 01-1.508-.915 1.63 1.63 0 01-.107-1.315v.035zm.696 20.671l1.131.172c.119.43.267.852.444 1.262l-.772.836a1.467 1.467 0 000 1.983l1.951 2.16a1.535 1.535 0 001.992.202l.918-.673c.391.223.799.417 1.22.58l.048 1.136c.015.366.168.713.428.974.26.26.609.415.978.433l2.918.159h.093c.356.001.7-.125.97-.355.27-.23.447-.55.498-.9l.173-1.12a10.2 10.2 0 001.277-.44l.843.765a1.484 1.484 0 001.996.013l2.177-1.935a1.465 1.465 0 00.204-1.975l-.678-.91c.223-.39.419-.794.585-1.21l1.144-.049c.37-.014.72-.166.983-.424.262-.258.418-.604.437-.97l.16-2.894a1.461 1.461 0 00-.33-1.012 1.484 1.484 0 00-.93-.527l-1.131-.172a9.494 9.494 0 00-.444-1.262l.772-.836a1.462 1.462 0 000-1.983l-1.951-2.16a1.53 1.53 0 00-1.987-.202l-.923.673a9.729 9.729 0 00-1.22-.58l-.048-1.136a1.464 1.464 0 00-.428-.974 1.487 1.487 0 00-.978-.433l-2.918-.159H30.5c-.355 0-.7.126-.969.356-.27.23-.446.55-.498.898l-.173 1.122c-.434.117-.86.264-1.273.44l-.843-.766a1.538 1.538 0 00-2 0l-2.178 1.935a1.465 1.465 0 00-.204 1.975l.679.91c-.222.39-.417.795-.585 1.21l-1.145.049c-.369.015-.72.166-.982.424a1.464 1.464 0 00-.437.97l-.16 2.894c-.015.36.104.714.335.993.23.279.557.464.916.52v.013zm.657-4.081l1.077-.044c.293-.013.576-.111.812-.282.237-.172.418-.409.519-.682.164-.434.366-.854.603-1.253a1.46 1.46 0 00-.071-1.628l-.639-.88 1.774-1.591.794.72a1.504 1.504 0 001.628.252c.43-.185.875-.333 1.33-.44a1.48 1.48 0 001.113-1.205l.165-1.056 2.399.128.044 1.068a1.473 1.473 0 00.976 1.32c.436.163.857.364 1.26.598a1.527 1.527 0 001.645-.07l.887-.634 1.605 1.76-.727.787a1.472 1.472 0 00-.253 1.614c.187.426.335.868.444 1.32.07.282.223.537.44.733.215.197.485.326.775.37l1.069.163-.134 2.38-1.077.044a1.498 1.498 0 00-.813.284 1.48 1.48 0 00-.518.683c-.165.433-.366.85-.603 1.25a1.469 1.469 0 00.071 1.631l.639.88-1.774 1.592-.794-.721a1.504 1.504 0 00-1.628-.25 7.645 7.645 0 01-1.33.439c-.285.07-.541.222-.74.437a1.477 1.477 0 00-.373.768l-.16 1.06-2.4-.132-.048-1.069a1.461 1.461 0 00-.286-.807 1.48 1.48 0 00-.69-.512 8.192 8.192 0 01-1.255-.598 1.518 1.518 0 00-1.645.07l-.887.633-1.606-1.759.732-.787a1.473 1.473 0 00.248-1.614 7.866 7.866 0 01-.443-1.32 1.476 1.476 0 00-.44-.734 1.495 1.495 0 00-.775-.37l-1.065-.158.125-2.389zm9.388 8.541h.382a6.852 6.852 0 004.735-2.081 6.74 6.74 0 001.899-4.78 6.742 6.742 0 00-2.033-4.725 6.855 6.855 0 00-4.792-1.95 6.85 6.85 0 00-4.792 1.95 6.742 6.742 0 00-2.033 4.725 6.74 6.74 0 001.899 4.78 6.852 6.852 0 004.735 2.081zm-4.727-7.108a5.049 5.049 0 011.585-3.403 5.132 5.132 0 013.51-1.39h.284a5.135 5.135 0 012.787 1.005 5.07 5.07 0 011.755 2.372c.335.945.38 1.968.13 2.938a5.06 5.06 0 01-1.538 2.515 5.147 5.147 0 01-5.62.797 5.094 5.094 0 01-2.187-1.986 5.035 5.035 0 01-.706-2.856v.008zm-11.323 7.003a.872.872 0 01-.45.87.892.892 0 01-.33.106 12.847 12.847 0 01-10-3.126 12.647 12.647 0 01-4.192-7.989.88.88 0 01.188-.651.895.895 0 011.586.45 10.903 10.903 0 004.105 7.301 11.082 11.082 0 008.109 2.286.892.892 0 01.647.177c.184.14.305.347.337.575zm16.161-9.848a.67.67 0 01.224-.462.682.682 0 01.486-.172 3.884 3.884 0 012.666 1.27 3.82 3.82 0 01.984 2.768.666.666 0 01-.21.45.677.677 0 01-.464.183h-.036a.68.68 0 01-.601-.445.662.662 0 01-.038-.258 2.474 2.474 0 00-.633-1.809 2.513 2.513 0 00-1.74-.83.676.676 0 01-.463-.218.665.665 0 01-.175-.477zm-2.404.413a.77.77 0 01.48-.718.787.787 0 01.851.165.772.772 0 01-.55 1.323.784.784 0 01-.55-.225.771.771 0 01-.23-.545zm-11.038 8.95a.826.826 0 01-.518.769.845.845 0 01-.913-.18.83.83 0 01-.182-.906.833.833 0 01.775-.514.84.84 0 01.592.244.828.828 0 01.246.588zm39.4 24.631a.879.879 0 00-.381-.555.893.893 0 00-.666-.127l-1.96.4c-.062-.5-.146-1.156-.235-1.86a99.983 99.983 0 01-.412-4.152c-.196-2.555.54-5.155 2.009-10.34l.195-.678c.802-2.806 1.499-5.23.652-8.282a8.909 8.909 0 00-.315-.954c-.133-.343-.728-1.24-2.688-4.152-1.162-1.724-2.368-3.519-2.94-4.451a21.643 21.643 0 01-1.614-3.382c-.537-1.32-1.003-2.49-2.293-2.578h-.133c-.657 0-1.655.326-2.688 1.87-1.135 1.693-.803 3.544-.608 4.648a9.767 9.767 0 002.302 4.694l1.996 6.874c-.936 2.797-2.51 6.268-4.24 7.917-.449.447-.99.79-1.588 1.007-.329.09-.67.127-1.01.11a26.316 26.316 0 01-4.09-.492l-.261-.049c-1.38-1.662-4.072-4.205-7.837-4.53-.333-.026-.75-.062-1.22-.062a5.319 5.319 0 00-3.743 1.276 4.946 4.946 0 00-1.415 2.313.873.873 0 00.06.648c.102.2.277.354.49.43 1.774.638 5.11 2.116 7.243 4.838.62.814 1.17 1.68 1.64 2.586.324.638.613 1.175.856 1.636a9.53 9.53 0 01.812 1.707c.683 3.022 1.096 4.284 4.178 6.888l-1.725.356a.887.887 0 00-.688 1.038l.923 4.398a.88.88 0 00.381.558.894.894 0 001.23-.252.874.874 0 00.127-.662l-.745-3.545 2.44-.501c.042.01.085.017.128.022.06.004.121.004.182 0L53.54 58.95a.9.9 0 00.164-.053l1.854-.383 1.628 7.781c.042.2.154.38.316.508a.892.892 0 00.57.191.922.922 0 00.182 0 .887.887 0 00.56-.378.874.874 0 00.128-.66l-1.845-8.669zm-17.691 2.74c-3.819-3.017-4.014-3.879-4.675-6.817a9.851 9.851 0 00-.975-2.142c-.244-.44-.523-.98-.838-1.605a20.015 20.015 0 00-1.828-2.877c-2.093-2.639-5.13-4.244-7.18-5.076a2.94 2.94 0 01.599-.765 3.616 3.616 0 012.546-.814c.39 0 .75.031 1.064.058 3.433.294 5.912 2.986 6.816 4.13.142.18.349.298.577.33.106 0 .297.048.545.092 1.452.293 2.924.468 4.404.523a5.12 5.12 0 001.57-.198 6.216 6.216 0 002.258-1.407c2.541-2.41 4.302-7.416 4.78-8.893a.871.871 0 000-.515l-2.102-7.323a.879.879 0 00-.19-.348 8.09 8.09 0 01-2.014-3.958c-.168-.959-.403-2.265.337-3.374.572-.853 1.03-1.082 1.224-1.082.173 0 .515.88.763 1.478a22.731 22.731 0 001.774 3.616c.595.976 1.81 2.78 2.985 4.521 1.051 1.561 2.364 3.519 2.51 3.813.1.254.185.514.253.779.718 2.582.115 4.68-.648 7.336l-.195.682c-1.525 5.383-2.288 8.084-2.07 10.96.057.753.19 2.3.42 4.219.098.774.187 1.49.258 2.01l-12.968 2.647zm18.507-33.607a.826.826 0 01.514-.771.845.845 0 01.915.177.83.83 0 01-.59 1.42.842.842 0 01-.78-.511.825.825 0 01-.064-.32l.005.005zm-2.79 36.554c0 .305-.09.603-.262.856a1.55 1.55 0 01-.697.567 1.565 1.565 0 01-1.692-.336 1.536 1.536 0 01-.334-1.679 1.55 1.55 0 01.574-.69 1.559 1.559 0 011.954.195c.289.288.452.677.453 1.083l.004.004zM29.06 55.322a.892.892 0 01-.443.11.892.892 0 01-.776-.44l-.227-.395a48.141 48.141 0 01-1.042-1.927 12.936 12.936 0 00-1.09-1.737c-.963-1.219-2.733-2.353-4.853-3.11a.89.89 0 01-.535-.447.872.872 0 01.144-.994.889.889 0 01.99-.213c2.43.88 4.488 2.2 5.65 3.682.48.637.905 1.312 1.273 2.019.373.734.71 1.32 1.007 1.864l.235.41a.873.873 0 01-.337 1.174l.004.004zm31.706-13.899l-.191.66a.89.89 0 01-.852.638.947.947 0 01-.244-.03.885.885 0 01-.53-.42.873.873 0 01-.077-.667l.186-.66c.83-2.894 1.774-6.158.66-10.19-.124-.44-.272-.87-.443-1.294a.873.873 0 01.015-.67.884.884 0 01.486-.466.894.894 0 01.677.01.883.883 0 01.472.48c.192.48.355.973.488 1.473 1.255 4.482.244 8.018-.652 11.132l.005.005zM30.558 57.46a.826.826 0 01-.518.768.845.845 0 01-.914-.182.83.83 0 01-.18-.907.833.833 0 01.778-.51.84.84 0 01.772.513c.042.1.063.209.062.318z"/></mask><path d="M19.848 21.394l-.23-1.32a1.546 1.546 0 00-.547-.928 1.57 1.57 0 00-1.024-.352H17.01a5.565 5.565 0 00-.75-.88l.205-1.007c.077-.362.019-.74-.163-1.063a1.544 1.544 0 00-.826-.696l-1.264-.44a1.59 1.59 0 00-1.082.01c-.348.13-.638.377-.82.698l-.497.902c-.39.025-.775.093-1.149.202l-.78-.686a1.613 1.613 0 00-2.036-.026l-1.03.853a1.524 1.524 0 00-.333 1.988l.538.88a5.868 5.868 0 00-.235.54c-.071.185-.124.37-.173.56l-.976.32a1.554 1.554 0 00-.846.675 1.533 1.533 0 00-.196 1.058l.23 1.32c.066.364.26.692.548.927.288.234.65.36 1.023.353l1.037-.027c.219.318.47.613.75.88l-.204 1.003c-.077.362-.019.74.163 1.063.181.323.475.57.826.696l1.264.44a1.566 1.566 0 001.903-.708l.496-.88c.39-.028.774-.097 1.149-.207l.78.687a1.568 1.568 0 002.036.026l1.029-.853a1.525 1.525 0 00.333-1.988l-.537-.88a5.96 5.96 0 00.408-1.095l.976-.326a1.55 1.55 0 00.842-.668c.191-.316.262-.689.2-1.051zm-2.697.44a1.54 1.54 0 00-1.02 1.104 3.5 3.5 0 01-.142.479c-.058.15-.126.297-.204.44a1.534 1.534 0 00.058 1.5l.506.818-.75.62-.732-.647a1.578 1.578 0 00-1.494-.308c-.303.09-.616.144-.932.163a1.583 1.583 0 00-1.308.8l-.465.84-.914-.33.19-.94a1.54 1.54 0 00-.474-1.452 3.63 3.63 0 01-.603-.721 1.578 1.578 0 00-1.33-.717H6.56l-.169-.955.918-.303a1.558 1.558 0 001.02-1.104c.037-.163.084-.323.142-.48.059-.15.127-.297.204-.44a1.524 1.524 0 00-.057-1.495l-.524-.831.75-.616.731.642a1.598 1.598 0 001.495.313c.303-.091.616-.146.931-.163a1.58 1.58 0 001.309-.805l.465-.84.914.33-.19.945a1.535 1.535 0 00.474 1.447c.23.215.433.457.603.722a1.579 1.579 0 001.33.717h.976l.169.954-.9.312zm-3.938-2.472a2.823 2.823 0 00-.989-.176 2.917 2.917 0 00-1.654.517 2.842 2.842 0 00-.302 4.452c.28.255.606.452.963.581a2.905 2.905 0 002.377-.176 2.878 2.878 0 001.047-.97 2.846 2.846 0 00.186-2.746 2.86 2.86 0 00-1.628-1.504v.022zm.053 3.078a1.13 1.13 0 01-.58.616 1.096 1.096 0 01-1.575-1.067 1.098 1.098 0 01.577-.896 1.12 1.12 0 01.917-.069c.268.102.486.303.608.56.123.257.14.552.049.821l.004.035zm.187-11.198c.085.39.308.736.627.977.319.242.714.363 1.115.343l1.304-.084c.298.409.64.784 1.02 1.117l-.208 1.276c-.067.393.013.797.223 1.136.21.34.538.592.921.711l1.504.48a1.687 1.687 0 001.399-.166c.265-.163.48-.397.619-.674l.576-1.162a6.491 6.491 0 001.481-.32l1.016.822a1.735 1.735 0 002.186-.057l1.171-1.056a1.643 1.643 0 00.27-2.15l-.718-1.078a6.79 6.79 0 00.275-.704c.077-.242.14-.487.191-.735l1.215-.44a1.648 1.648 0 001.042-1.904L30.35 6.04a1.679 1.679 0 00-.63-.979 1.704 1.704 0 00-1.118-.34l-1.3.079a6.794 6.794 0 00-1.02-1.117l.21-1.276a1.638 1.638 0 00-.224-1.136 1.661 1.661 0 00-.92-.711L23.839.08a1.69 1.69 0 00-1.164.052 1.67 1.67 0 00-.85.793l-.58 1.117a6.598 6.598 0 00-1.482.321l-1.01-.818a1.722 1.722 0 00-2.187.057l-1.17 1.051a1.643 1.643 0 00-.27 2.155l.717 1.074a5.927 5.927 0 00-.275.703 6.054 6.054 0 00-.19.735l-1.23.44a1.66 1.66 0 00-.88.758c-.191.35-.249.758-.161 1.146l.346 1.58zm2.607-2.274a1.64 1.64 0 001.047-1.227c.036-.2.087-.397.15-.59.063-.192.138-.382.223-.567a1.638 1.638 0 00-.13-1.605l-.704-1.051 1.05-.941.994.804a1.723 1.723 0 001.623.269 4.72 4.72 0 011.127-.242 1.698 1.698 0 001.37-.92l.568-1.134 1.33.44-.203 1.249a1.676 1.676 0 00.576 1.54c.291.248.55.532.772.844a1.677 1.677 0 001.476.717l1.287-.08.297 1.373-1.189.44a1.654 1.654 0 00-1.046 1.231 5.131 5.131 0 01-.373 1.152 1.637 1.637 0 00.129 1.606l.705 1.051-1.016.91-.993-.804a1.722 1.722 0 00-1.623-.273 4.73 4.73 0 01-1.122.242 1.68 1.68 0 00-1.375.92l-.568 1.134-1.33-.44.204-1.245a1.676 1.676 0 00-.581-1.544 4.853 4.853 0 01-.772-.844 1.659 1.659 0 00-1.477-.717l-1.282.08-.297-1.373 1.153-.405zm4.781 2.938a3.5 3.5 0 002.339-.075 3.464 3.464 0 001.759-1.53 3.42 3.42 0 00-.787-4.298 3.49 3.49 0 00-4.405-.074A3.44 3.44 0 0018.51 7.9a3.418 3.418 0 00.304 2.3 3.416 3.416 0 002.027 1.672v.035zm-.554-3.79a1.67 1.67 0 01.614-.848 1.7 1.7 0 011-.323 1.694 1.694 0 011.692 1.544 1.61 1.61 0 01-.078.65 1.665 1.665 0 01-.613.849c-.29.21-.641.323-1 .322a1.681 1.681 0 01-1.508-.915 1.63 1.63 0 01-.107-1.315v.035zm.696 20.671l1.131.172c.119.43.267.852.444 1.262l-.772.836a1.467 1.467 0 000 1.983l1.951 2.16a1.535 1.535 0 001.992.202l.918-.673c.391.223.799.417 1.22.58l.048 1.136c.015.366.168.713.428.974.26.26.609.415.978.433l2.918.159h.093c.356.001.7-.125.97-.355.27-.23.447-.55.498-.9l.173-1.12a10.2 10.2 0 001.277-.44l.843.765a1.484 1.484 0 001.996.013l2.177-1.935a1.465 1.465 0 00.204-1.975l-.678-.91c.223-.39.419-.794.585-1.21l1.144-.049c.37-.014.72-.166.983-.424.262-.258.418-.604.437-.97l.16-2.894a1.461 1.461 0 00-.33-1.012 1.484 1.484 0 00-.93-.527l-1.131-.172a9.494 9.494 0 00-.444-1.262l.772-.836a1.462 1.462 0 000-1.983l-1.951-2.16a1.53 1.53 0 00-1.987-.202l-.923.673a9.729 9.729 0 00-1.22-.58l-.048-1.136a1.464 1.464 0 00-.428-.974 1.487 1.487 0 00-.978-.433l-2.918-.159H30.5c-.355 0-.7.126-.969.356-.27.23-.446.55-.498.898l-.173 1.122c-.434.117-.86.264-1.273.44l-.843-.766a1.538 1.538 0 00-2 0l-2.178 1.935a1.465 1.465 0 00-.204 1.975l.679.91c-.222.39-.417.795-.585 1.21l-1.145.049c-.369.015-.72.166-.982.424a1.464 1.464 0 00-.437.97l-.16 2.894c-.015.36.104.714.335.993.23.279.557.464.916.52v.013zm.657-4.081l1.077-.044c.293-.013.576-.111.812-.282.237-.172.418-.409.519-.682.164-.434.366-.854.603-1.253a1.46 1.46 0 00-.071-1.628l-.639-.88 1.774-1.591.794.72a1.504 1.504 0 001.628.252c.43-.185.875-.333 1.33-.44a1.48 1.48 0 001.113-1.205l.165-1.056 2.399.128.044 1.068a1.473 1.473 0 00.976 1.32c.436.163.857.364 1.26.598a1.527 1.527 0 001.645-.07l.887-.634 1.605 1.76-.727.787a1.472 1.472 0 00-.253 1.614c.187.426.335.868.444 1.32.07.282.223.537.44.733.215.197.485.326.775.37l1.069.163-.134 2.38-1.077.044a1.498 1.498 0 00-.813.284 1.48 1.48 0 00-.518.683c-.165.433-.366.85-.603 1.25a1.469 1.469 0 00.071 1.631l.639.88-1.774 1.592-.794-.721a1.504 1.504 0 00-1.628-.25 7.645 7.645 0 01-1.33.439c-.285.07-.541.222-.74.437a1.477 1.477 0 00-.373.768l-.16 1.06-2.4-.132-.048-1.069a1.461 1.461 0 00-.286-.807 1.48 1.48 0 00-.69-.512 8.192 8.192 0 01-1.255-.598 1.518 1.518 0 00-1.645.07l-.887.633-1.606-1.759.732-.787a1.473 1.473 0 00.248-1.614 7.866 7.866 0 01-.443-1.32 1.476 1.476 0 00-.44-.734 1.495 1.495 0 00-.775-.37l-1.065-.158.125-2.389zm9.388 8.541h.382a6.852 6.852 0 004.735-2.081 6.74 6.74 0 001.899-4.78 6.742 6.742 0 00-2.033-4.725 6.855 6.855 0 00-4.792-1.95 6.85 6.85 0 00-4.792 1.95 6.742 6.742 0 00-2.033 4.725 6.74 6.74 0 001.899 4.78 6.852 6.852 0 004.735 2.081zm-4.727-7.108a5.049 5.049 0 011.585-3.403 5.132 5.132 0 013.51-1.39h.284a5.135 5.135 0 012.787 1.005 5.07 5.07 0 011.755 2.372c.335.945.38 1.968.13 2.938a5.06 5.06 0 01-1.538 2.515 5.147 5.147 0 01-5.62.797 5.094 5.094 0 01-2.187-1.986 5.035 5.035 0 01-.706-2.856v.008zm-11.323 7.003a.872.872 0 01-.45.87.892.892 0 01-.33.106 12.847 12.847 0 01-10-3.126 12.647 12.647 0 01-4.192-7.989.88.88 0 01.188-.651.895.895 0 011.586.45 10.903 10.903 0 004.105 7.301 11.082 11.082 0 008.109 2.286.892.892 0 01.647.177c.184.14.305.347.337.575zm16.161-9.848a.67.67 0 01.224-.462.682.682 0 01.486-.172 3.884 3.884 0 012.666 1.27 3.82 3.82 0 01.984 2.768.666.666 0 01-.21.45.677.677 0 01-.464.183h-.036a.68.68 0 01-.601-.445.662.662 0 01-.038-.258 2.474 2.474 0 00-.633-1.809 2.513 2.513 0 00-1.74-.83.676.676 0 01-.463-.218.665.665 0 01-.175-.477zm-2.404.413a.77.77 0 01.48-.718.787.787 0 01.851.165.772.772 0 01-.55 1.323.784.784 0 01-.55-.225.771.771 0 01-.23-.545zm-11.038 8.95a.826.826 0 01-.518.769.845.845 0 01-.913-.18.83.83 0 01-.182-.906.833.833 0 01.775-.514.84.84 0 01.592.244.828.828 0 01.246.588zm39.4 24.631a.879.879 0 00-.381-.555.893.893 0 00-.666-.127l-1.96.4c-.062-.5-.146-1.156-.235-1.86a99.983 99.983 0 01-.412-4.152c-.196-2.555.54-5.155 2.009-10.34l.195-.678c.802-2.806 1.499-5.23.652-8.282a8.909 8.909 0 00-.315-.954c-.133-.343-.728-1.24-2.688-4.152-1.162-1.724-2.368-3.519-2.94-4.451a21.643 21.643 0 01-1.614-3.382c-.537-1.32-1.003-2.49-2.293-2.578h-.133c-.657 0-1.655.326-2.688 1.87-1.135 1.693-.803 3.544-.608 4.648a9.767 9.767 0 002.302 4.694l1.996 6.874c-.936 2.797-2.51 6.268-4.24 7.917-.449.447-.99.79-1.588 1.007-.329.09-.67.127-1.01.11a26.316 26.316 0 01-4.09-.492l-.261-.049c-1.38-1.662-4.072-4.205-7.837-4.53-.333-.026-.75-.062-1.22-.062a5.319 5.319 0 00-3.743 1.276 4.946 4.946 0 00-1.415 2.313.873.873 0 00.06.648c.102.2.277.354.49.43 1.774.638 5.11 2.116 7.243 4.838.62.814 1.17 1.68 1.64 2.586.324.638.613 1.175.856 1.636a9.53 9.53 0 01.812 1.707c.683 3.022 1.096 4.284 4.178 6.888l-1.725.356a.887.887 0 00-.688 1.038l.923 4.398a.88.88 0 00.381.558.894.894 0 001.23-.252.874.874 0 00.127-.662l-.745-3.545 2.44-.501c.042.01.085.017.128.022.06.004.121.004.182 0L53.54 58.95a.9.9 0 00.164-.053l1.854-.383 1.628 7.781c.042.2.154.38.316.508a.892.892 0 00.57.191.922.922 0 00.182 0 .887.887 0 00.56-.378.874.874 0 00.128-.66l-1.845-8.669zm-17.691 2.74c-3.819-3.017-4.014-3.879-4.675-6.817a9.851 9.851 0 00-.975-2.142c-.244-.44-.523-.98-.838-1.605a20.015 20.015 0 00-1.828-2.877c-2.093-2.639-5.13-4.244-7.18-5.076a2.94 2.94 0 01.599-.765 3.616 3.616 0 012.546-.814c.39 0 .75.031 1.064.058 3.433.294 5.912 2.986 6.816 4.13.142.18.349.298.577.33.106 0 .297.048.545.092 1.452.293 2.924.468 4.404.523a5.12 5.12 0 001.57-.198 6.216 6.216 0 002.258-1.407c2.541-2.41 4.302-7.416 4.78-8.893a.871.871 0 000-.515l-2.102-7.323a.879.879 0 00-.19-.348 8.09 8.09 0 01-2.014-3.958c-.168-.959-.403-2.265.337-3.374.572-.853 1.03-1.082 1.224-1.082.173 0 .515.88.763 1.478a22.731 22.731 0 001.774 3.616c.595.976 1.81 2.78 2.985 4.521 1.051 1.561 2.364 3.519 2.51 3.813.1.254.185.514.253.779.718 2.582.115 4.68-.648 7.336l-.195.682c-1.525 5.383-2.288 8.084-2.07 10.96.057.753.19 2.3.42 4.219.098.774.187 1.49.258 2.01l-12.968 2.647zm18.507-33.607a.826.826 0 01.514-.771.845.845 0 01.915.177.83.83 0 01-.59 1.42.842.842 0 01-.78-.511.825.825 0 01-.064-.32l.005.005zm-2.79 36.554c0 .305-.09.603-.262.856a1.55 1.55 0 01-.697.567 1.565 1.565 0 01-1.692-.336 1.536 1.536 0 01-.334-1.679 1.55 1.55 0 01.574-.69 1.559 1.559 0 011.954.195c.289.288.452.677.453 1.083l.004.004zM29.06 55.322a.892.892 0 01-.443.11.892.892 0 01-.776-.44l-.227-.395a48.141 48.141 0 01-1.042-1.927 12.936 12.936 0 00-1.09-1.737c-.963-1.219-2.733-2.353-4.853-3.11a.89.89 0 01-.535-.447.872.872 0 01.144-.994.889.889 0 01.99-.213c2.43.88 4.488 2.2 5.65 3.682.48.637.905 1.312 1.273 2.019.373.734.71 1.32 1.007 1.864l.235.41a.873.873 0 01-.337 1.174l.004.004zm31.706-13.899l-.191.66a.89.89 0 01-.852.638.947.947 0 01-.244-.03.885.885 0 01-.53-.42.873.873 0 01-.077-.667l.186-.66c.83-2.894 1.774-6.158.66-10.19-.124-.44-.272-.87-.443-1.294a.873.873 0 01.015-.67.884.884 0 01.486-.466.894.894 0 01.677.01.883.883 0 01.472.48c.192.48.355.973.488 1.473 1.255 4.482.244 8.018-.652 11.132l.005.005zM30.558 57.46a.826.826 0 01-.518.768.845.845 0 01-.914-.182.83.83 0 01-.18-.907.833.833 0 01.778-.51.84.84 0 01.772.513c.042.1.063.209.062.318z" stroke="#C70100" stroke-width="2" mask="url(#path-1-inside-1_1_1081)"/></svg>