<svg width="46" height="70" fill="none" xmlns="http://www.w3.org/2000/svg"><path d="M45 68.467V62.6a2.933 2.933 0 00-2.933-2.933h-2.934V47.933l-13.2-13.2 13.2-13.2V9.8h2.934A2.933 2.933 0 0045 6.867V1H1v5.867A2.933 2.933 0 003.933 9.8h2.934v11.733l13.2 13.2-13.2 13.2v11.734H3.933A2.933 2.933 0 001 62.6v5.867h44zM6.867 9.8h32.267M6.867 59.667h32.267" stroke="#C70100" stroke-width="2" stroke-miterlimit="10"/><path d="M33.267 59.667v-8.8l-8.8-8.8h-2.933l-8.8 8.8v8.8m-1.468-46.934V18.6l8.8 8.8" stroke="#C70100" stroke-width="2" stroke-miterlimit="10"/></svg>