<svg width="67" height="68" fill="none" xmlns="http://www.w3.org/2000/svg"><path d="M58.617 3.483h.5V1.129A.63.63 0 0159.745.5H65.7a.627.627 0 01.628.63v5.963a.63.63 0 01-.628.629h-5.956a.627.627 0 01-.627-.63v-2.35H41.782l-.168.971C50.69 8.94 57.388 17.374 58.24 27.486l.038.458h3.165a.628.628 0 01.629.629v5.964a.63.63 0 01-.629.629h-5.957a.627.627 0 01-.628-.63v-5.958a.63.63 0 01.628-.629h1.534l-.05-.546c-.994-10.816-9.013-19.57-19.356-21.466l-.59-.108v1.259a.63.63 0 01-.628.629h-5.958a.627.627 0 01-.628-.63V5.825l-.59.108c-10.342 1.9-18.363 10.662-19.357 21.466l-.05.546h1.536a.628.628 0 01.627.629v5.964a.63.63 0 01-.627.629H5.387a.627.627 0 01-.628-.63v-5.963a.63.63 0 01.628-.63h3.165l.038-.457c.85-10.112 7.55-18.539 16.625-21.774l-.168-.971H7.714v2.351a.63.63 0 01-.628.629H1.128a.627.627 0 01-.628-.63V1.13A.63.63 0 011.128.5h5.958a.627.627 0 01.628.63v2.352H29.81V1.129A.63.63 0 0130.439.5h5.954a.627.627 0 01.628.63v2.352h21.596zm-52.66 2.98h.5V1.759h-4.7v4.705h4.202zm4.261 27.444h.5v-4.705H6.016v4.705h4.202zM35.265 6.464h.5V1.758h-4.702v4.706h4.202zM56.61 29.202h-.5v4.705h4.702v-4.705H56.61zm7.962-22.738h.5V1.758h-4.7v4.706h4.2z" stroke="#C70100"/><path d="M39.458 30.48l-.001-.003a48.421 48.421 0 01-3.71-12.34l-.034-.21.128-.17a3.075 3.075 0 00-2.448-4.928 3.067 3.067 0 00-2.748 1.704 3.076 3.076 0 00.3 3.224l.128.17-.033.209a48.4 48.4 0 01-3.682 12.347l-.001.002c-2.22 4.859-6.313 10.142-6.527 10.414h0a.626.626 0 00-.112.549h0l4.63 17.373.116.437-.424.16a3.967 3.967 0 00-2.509 4.422 3.97 3.97 0 003.896 3.264s0 0 0 0l14.031-.01h0m-1-36.615l2.549 28.455a4.466 4.466 0 012.84 4.977 4.47 4.47 0 01-4.388 3.683v-.5m-1.001-36.615c1.143 2.488 2.772 5.077 4.113 7.041a76.711 76.711 0 002.23 3.099l.188.246.007.009.006.008a.635.635 0 01.115.553l-6.66-10.956zm1 36.615a3.963 3.963 0 003.897-3.27 3.974 3.974 0 00-2.522-4.422l-.425-.158.115-.438 4.594-17.37-5.658 25.658zm-14.533-1.301v.687h1v-.63l13.533-.01h0a2.71 2.71 0 002.658-2.213h.054l-.002-.502a2.72 2.72 0 00-2.705-2.708h-.139 0l-13.77.013h0-.13v0h-.013a2.708 2.708 0 00-2.634 2.71 2.713 2.713 0 002.148 2.653zm6.836-49.21v-.169h1.256v2.014l.931-1.592c.056-.096.104-.196.143-.3h0l.002-.005a1.815 1.815 0 00-1.204-2.36v-.07l-.499-.002a1.808 1.808 0 00-1.8 1.576c-.037.29-.005.583.095.857l.001.003a2 2 0 00.144.303l.93 1.574v-1.829zM30.27 42.77v.5h.042a3.152 3.152 0 003.103 2.643h.001a3.142 3.142 0 002.904-1.945 3.15 3.15 0 00-2.296-4.29 3.142 3.142 0 00-3.755 3.092zm9.477 16.39l.385-.001.098-.372 4.53-17.14.063-.237-.148-.195c-1.085-1.42-4.387-5.91-6.364-10.209a50.13 50.13 0 01-3.305-9.96l-.988.108.015 16.84v.396l.386.09a4.407 4.407 0 011.92 7.575 4.396 4.396 0 01-2.925 1.117 4.398 4.398 0 01-4.367-3.893 4.41 4.41 0 013.35-4.799l.384-.091v-.396l-.016-16.835-.988-.105a50.065 50.065 0 01-3.289 9.963c-1.966 4.3-5.26 8.797-6.338 10.222l-.147.194.063.236 4.565 17.13.1.372h.384l12.632-.01z" stroke="#C70100"/></svg>