<svg width="63" height="67" fill="none" xmlns="http://www.w3.org/2000/svg"><mask id="path-1-inside-1_1_1038" fill="#fff"><path d="M14.447 14.391V21.6a.241.241 0 00.24.24h7.165a.233.233 0 00.222-.148.237.237 0 00.017-.092v-2.153l1.911-2.307v4.46a2.174 2.174 0 01-.63 1.527 2.148 2.148 0 01-1.52.635h-7.166a2.148 2.148 0 01-1.519-.634 2.174 2.174 0 01-.63-1.528v-7.21a2.174 2.174 0 01.63-1.528 2.148 2.148 0 011.52-.634h7.165c.393 0 .778.108 1.114.312a1.76 1.76 0 00-.43.37l-1.023 1.24h-6.827a.237.237 0 00-.22.148.24.24 0 00-.019.092zm9.555 17.176l-1.91 2.307v2.143a.237.237 0 01-.147.223.231.231 0 01-.093.017h-7.166a.238.238 0 01-.239-.24v-7.209a.241.241 0 01.24-.24h6.831l1.018-1.23a1.72 1.72 0 01.434-.375 2.122 2.122 0 00-1.118-.317h-7.166c-.57.001-1.116.23-1.519.634a2.17 2.17 0 00-.63 1.528v7.209c0 .573.227 1.122.63 1.528.403.405.95.633 1.52.634h7.165a2.148 2.148 0 001.52-.634c.402-.406.629-.955.63-1.528v-4.45zm-2.15 9.496c.57 0 1.117.228 1.52.633.404.406.63.956.63 1.53v7.208c0 .574-.226 1.124-.63 1.53-.403.405-.95.633-1.52.633h-7.166a2.148 2.148 0 01-1.519-.635 2.174 2.174 0 01-.63-1.528v-7.209a2.174 2.174 0 01.63-1.527 2.148 2.148 0 011.52-.635h7.165zm0 1.922h-7.166a.243.243 0 00-.239.24v7.21a.24.24 0 00.24.24h7.165a.238.238 0 00.24-.24v-7.21a.241.241 0 00-.24-.24zm39.415-24.99a1.07 1.07 0 00-.99.671 1.088 1.088 0 00.236 1.177 1.073 1.073 0 101.514-1.525 1.068 1.068 0 00-.76-.308v-.015zM1.07 32.653a1.071 1.071 0 00.997-.664 1.087 1.087 0 00-.23-1.18A1.073 1.073 0 000 31.572a1.092 1.092 0 00.658 1.009c.13.056.27.085.412.086v-.014zm54.464 30.179c-.287-.284-.559-.206-.822-.504H11.581v-.96l41.086.132a17.63 17.63 0 01-1.295-1.922L7.76 59.445V4.674h42.997V61.5h1.911V7.557h1.911v55.107c.326-.002.72 0 .956.168.356.119.442 1.433.955 1.433V6.596c0-.255-.1-.5-.28-.68a.953.953 0 00-.675-.281h-2.867V3.713c0-.255-.1-.5-.28-.68a.953.953 0 00-.675-.281H6.803a.953.953 0 00-.675.281.964.964 0 00-.28.68V60.42a.961.961 0 00.955.962H9.67v1.922a.961.961 0 00.955.961H56.49c.011-2.765-.611-1.092-.955-1.433zm-27.71-46.639h18.2a.952.952 0 00.675-.281.964.964 0 00-.676-1.641H27.824a.952.952 0 00-.675.281.964.964 0 00.675 1.641zm0 5.767h18.2a.952.952 0 00.675-.281.964.964 0 00-.676-1.641H27.824a.953.953 0 00-.675.281.964.964 0 000 1.36c.179.18.422.281.675.281zm19.131 7.69c0-.256-.1-.5-.28-.68a.953.953 0 00-.675-.282H27.824a.952.952 0 00-.675.282.964.964 0 00.675 1.64H46c.25 0 .492-.099.67-.276a.964.964 0 00.285-.67v-.015zm.029 6.043c0-.255-.1-.5-.28-.68a.953.953 0 00-.676-.282l-18.204-.276a.952.952 0 00-.675.282.964.964 0 00.675 1.64l18.204.277a.963.963 0 00.956-.947v-.014zM5.79 65.116a4.802 4.802 0 01-2.7-1.685 4.852 4.852 0 01-1.064-3.01V34.468c0-.255-.1-.499-.28-.68a.953.953 0 00-1.631.68V60.42a6.791 6.791 0 001.484 4.212 6.722 6.722 0 003.771 2.363.993.993 0 00.205 0 .956.956 0 00.945-.5.97.97 0 00-.386-1.31.955.955 0 00-.358-.113l.014.044zM56.551 1.9a4.798 4.798 0 012.698 1.685 4.848 4.848 0 011.063 3.01v9.612c0 .255.1.499.28.68a.953.953 0 001.63-.68V6.596a6.787 6.787 0 00-1.483-4.212A6.717 6.717 0 0056.967.022a.951.951 0 00-.72.13.962.962 0 00-.287 1.33.956.956 0 00.601.419h-.01zM24.743 29.135a.965.965 0 00-.45-1.536.95.95 0 00-.616.017c-.159.06-.3.16-.41.289l-1.176 1.441-2.924 3.518-1.433-1.441-.721-.721a.951.951 0 00-1.282.065.964.964 0 00-.06 1.29l2.866 2.883a.924.924 0 00.669.284h.047a.988.988 0 00.693-.346l2.126-2.571L23.983 30l.76-.865zm-.124-15.763a.953.953 0 00-.956-.158.898.898 0 00-.401.283l-1.175 1.442-2.92 3.518-1.433-1.418-.721-.726a.956.956 0 00-1.075-.265.953.953 0 00-.54.546.967.967 0 00.272 1.08l2.867 2.883a.92.92 0 00.669.283h.047a.99.99 0 00.693-.346l2.126-2.57 1.911-2.307.74-.89a.961.961 0 00.126-1.06.96.96 0 00-.23-.295z"/><path d="M46.675 42.97c.18.18.28.424.28.68v.014a.964.964 0 01-.285.67.953.953 0 01-.67.276H27.824a.953.953 0 01-.676-.281.964.964 0 010-1.36.952.952 0 01.676-.28H46c.253 0 .496.1.675.28zm.029 6.043c.18.18.28.425.28.68v.014a.964.964 0 01-.285.67.952.952 0 01-.67.277l-18.205-.277a.952.952 0 01-.676-.281.964.964 0 01.676-1.64l18.204.275c.254 0 .497.102.676.282zM60.671 18.18a1.07 1.07 0 01.596-.185v.015a1.063 1.063 0 01.76.308 1.078 1.078 0 01.32.759 1.086 1.086 0 01-.663.998 1.068 1.068 0 01-1.17-.232 1.084 1.084 0 01.157-1.663zM1.669 32.473c-.178.118-.386.18-.599.18v.014a1.074 1.074 0 01-.991-.679A1.092 1.092 0 010 31.572a1.086 1.086 0 01.665-1 1.068 1.068 0 011.172.237 1.083 1.083 0 01-.168 1.664zM3.09 63.431a4.802 4.802 0 002.7 1.685l-.014-.044a.955.955 0 01.646.353.968.968 0 01-.847 1.57.993.993 0 01-.205 0 6.722 6.722 0 01-3.77-2.363A6.791 6.791 0 01.114 60.42V34.47c0-.255.1-.5.28-.68a.953.953 0 011.63.68v25.95a4.852 4.852 0 001.066 3.011z"/></mask><path d="M61.267 17.995h.5v-.502l-.502.002.002.5zm1.08 1.082h.5v-.005l-.5.005zm-1.08-1.067h-.5v.504l.505-.004-.005-.5zM1.07 32.653l.002-.5-.502-.002v.502h.5zM0 31.572l.5.004v-.004H0zm1.07 1.095l-.004.5.504.005v-.505h-.5zm4.72 32.449l-.109.488.862.192-.278-.838-.475.158zM2.026 60.42h-.5v.003l.5-.003zm-1.911 0h-.5v.002l.5-.002zm5.255 6.575l-.11.487.029.007.03.003.051-.497zm.205 0l.053-.498-.052-.005-.052.005.051.498zm.201-1.923l.053-.497-.772-.081.244.736.475-.158zm55.489-47.577a1.57 1.57 0 00-.874.271l.56.828a.57.57 0 01.318-.099l-.004-1zm-.874.271a1.58 1.58 0 00-.577.711l.926.378a.58.58 0 01.212-.261l-.561-.828zm-.577.711a1.587 1.587 0 00-.086.912l.98-.197a.587.587 0 01.032-.337l-.926-.378zm-.086.912c.061.306.211.587.431.807l.708-.706a.584.584 0 01-.159-.298l-.98.197zm.431.807c.22.22.502.371.808.432l.194-.98a.573.573 0 01-.294-.158l-.707.706zm.808.432c.305.06.622.029.91-.091l-.386-.923a.57.57 0 01-.33.033l-.194.981zm.91-.091c.288-.12.533-.324.706-.584l-.834-.552a.576.576 0 01-.258.213l.386.922zm.706-.584c.172-.26.264-.564.264-.876h-1a.586.586 0 01-.098.323l.834.553zm.264-.88a1.584 1.584 0 00-.125-.602l-.921.389a.58.58 0 01.046.221l1-.009zm-.125-.602a1.577 1.577 0 00-.344-.508l-.703.711a.575.575 0 01.126.186l.921-.389zm-.344-.508a1.571 1.571 0 00-.513-.338l-.376.926c.07.028.133.07.186.123l.703-.711zm-.513-.338a1.567 1.567 0 00-.603-.115l.01 1c.074 0 .148.013.217.041l.376-.926zm-.098.385v-.015h-1v.015h1zM1.068 33.153c.312.001.618-.09.878-.264l-.555-.832a.57.57 0 01-.319.096l-.004 1zm.878-.264c.26-.173.463-.42.582-.708l-.923-.384a.58.58 0 01-.214.26l.555.832zm.582-.708c.12-.289.152-.606.093-.913l-.982.191a.587.587 0 01-.034.338l.923.384zm.093-.913a1.584 1.584 0 00-.429-.811l-.71.703a.59.59 0 01.157.3l.982-.192zm-.429-.811c-.22-.222-.5-.374-.807-.436l-.197.98a.573.573 0 01.293.16l.711-.704zm-.807-.436a1.569 1.569 0 00-.912.09l.384.923a.57.57 0 01.33-.032l.198-.98zm-.912.09c-.289.12-.535.322-.708.582l.833.554a.577.577 0 01.259-.213l-.384-.924zm-.708.582c-.173.26-.265.566-.265.879h1c0-.116.034-.229.098-.325l-.833-.553zm-.265.874c-.002.208.037.414.115.607l.928-.372a.592.592 0 01-.043-.226l-1-.009zm.115.607c.077.193.192.369.337.518l.715-.699a.587.587 0 01-.124-.191l-.928.372zm.337.518c.145.148.318.267.51.349l.392-.92a.582.582 0 01-.187-.128l-.715.699zm.51.349c.19.081.396.124.604.126l.009-1a.574.574 0 01-.22-.046l-.394.92zm1.108-.374v-.014h-1v.014h1zm4.33 31.96a4.302 4.302 0 01-2.42-1.509l-.78.626a5.302 5.302 0 002.981 1.86l.218-.976zm-2.42-1.509a4.352 4.352 0 01-.954-2.7l-1 .005a5.352 5.352 0 001.175 3.32l.78-.625zm-.954-2.698V34.47h-1v25.95h1zm0-25.95c0-.387-.153-.758-.426-1.033l-.709.705a.464.464 0 01.135.327h1zM2.1 33.436a1.453 1.453 0 00-1.03-.429v1c.12 0 .236.048.321.134l.71-.705zm-1.03-.429a1.45 1.45 0 00-1.03.43l.71.704a.453.453 0 01.32-.134v-1zm-1.03.43a1.464 1.464 0 00-.425 1.031h1c0-.123.048-.24.134-.327l-.709-.705zm-.425 1.031V60.42h1V34.47h-1zm0 25.953a7.291 7.291 0 001.594 4.522l.78-.624a6.291 6.291 0 01-1.374-3.902l-1 .005zm1.594 4.522a7.221 7.221 0 004.051 2.538l.22-.975a6.222 6.222 0 01-3.49-2.187l-.781.624zm4.11 2.548c.102.01.205.01.308 0l-.103-.995a.496.496 0 01-.102 0l-.104.995zm.204 0c.191.02.384.002.569-.053l-.286-.958a.456.456 0 01-.178.016l-.105.995zm.569-.053c.184-.055.355-.145.504-.267l-.631-.775a.46.46 0 01-.16.084l.287.958zm.504-.267c.15-.121.273-.27.364-.44l-.88-.475a.465.465 0 01-.115.14l.631.775zm.364-.44a1.47 1.47 0 00.169-.546l-.995-.104a.47.47 0 01-.054.175l.88.475zm.169-.546c.02-.19.002-.384-.052-.568l-.96.282c.018.06.023.121.017.182l.995.104zm-.052-.568a1.468 1.468 0 00-.265-.506l-.78.627a.469.469 0 01.085.161l.96-.282zm-.265-.506a1.46 1.46 0 00-.438-.367l-.48.878c.054.029.1.068.139.116l.779-.627zm-.438-.367a1.457 1.457 0 00-.545-.17l-.105.995c.06.006.117.024.17.053l.48-.878zM5.3 65.23l.015.043.949-.315-.014-.043-.95.315zm16.551-43.39l.021-1h-.02v1zm.24-.24h-1v.02l1-.02zm0-2.153l-.77-.638-.23.277v.36h1zm1.91-2.307h1v-2.775l-1.77 2.137.77.638zm0 4.46l1 .002V21.6h-1zm-2.15 2.162v1h.003l-.003-1zm-7.166 0l-.002 1h.002v-1zm-2.15-2.162h-1v.002l1-.002zm0-7.209l-1-.002v.002h1zm2.15-2.162v-1h-.002l.002 1zm7.166 0l.001-1v1zm1.114.312l.521.853 1.4-.855-1.402-.853-.52.855zm-.43.37l-.766-.643-.006.007.772.636zm-1.023 1.24v1h.472l.3-.364-.772-.636zm2.49 17.416h1v-2.775l-1.77 2.137.77.638zm-1.912 2.307l-.77-.638-.23.277v.36h1zm0 2.143h-1v.02l1-.02zm-.239.24l.021-1h-.02v1zm-.334-7.689v1h.47l.3-.363-.77-.637zm1.018-1.23l-.77-.638h-.001l.77.638zm.434-.375l.518.856 1.4-.846-1.392-.86-.526.85zm-1.118-.317v1h.002l-.002-1zm-7.166 0v-1h-.002l.002 1zm-2.15 2.162l-1-.002v.002h1zm0 7.209h-1v.002l1-.002zm2.15 2.162l-.002 1h.002v-1zm7.166 0v1h.003l-.003-1zm2.15-2.162l1 .002v-.002h-1zm-9.316 16.58l-.002 1h.002v-1zm-2.15-2.163h-1v.002l1-.002zm0-7.209l-1-.002v.002h1zm2.15-2.162v-1h-.002l.002 1zm0 1.922v-1h-.02l.02 1zm-.239.24l-1-.019v.02h1zm40.265 19.103l.75-.661-.298-.339h-.452v1zm-43.131 0h-1v1h1v-1zm0-.96l.003-1-1.003-.004v1.003h1zm41.086.132v1h1v-1h-1zm-1.294-1.922l.868-.496-.286-.502-.58-.002-.002 1zm-43.614-.133h-1v.997l.997.003.003-1zm0-54.771v-1h-1v1h1zm42.997 0h1v-1h-1v1zm0 56.826h-1v1h1v-1zm1.911-53.943v-1h-1v1h1zm1.911 0h1v-1h-1v1zm0 55.107h-1v1.005l1.006-.005-.006-1zm1.911 1.601v1h.997l.003-.996-1-.004zm-3.822-58.63h-1v1h1v-1zM9.67 61.382h1v-1h-1v1zM46 30.61v-1 1zm.956-.947l1 .015v-.015h-1zm-.928 5.067l-.015 1h.015v-1zm-18.204-.276l.015-1h-.015v1zm0 1.922l.015-1h-.015v1zm18.204.277l-.015 1h.015v-1zm.956-.947l1 .015v-.015h-1zM56.55 1.901v-1l-.218 1.976.218-.976zm3.76 4.695h1v-.004l-1 .004zm1.911 0h1v-.003l-1 .003zM56.967.022l.22-.976-.006-.001-.214.977zM56.561 1.9v1l.214-1.977-.214.977zM24.743 29.135l.751.66.009-.01.008-.01-.768-.64zm-1.066-1.519l-.35-.936.35.936zm-.41.289l-.761-.65-.007.01-.008.008.776.632zm-1.176 1.441l.77.64.005-.008-.775-.632zm-2.924 3.518l-.709.705.776.78.702-.845-.769-.64zm-1.433-1.441l.71-.705-.003-.003-.707.708zm-.721-.721l.707-.708-.034-.034-.037-.03-.636.772zm-1.343 1.355l-.773.634.03.037.034.034.71-.705zm2.867 2.883l.722-.692-.007-.006-.006-.007-.71.705zm.669.284v-1H19.2l.006 1zm.047 0v1h.031l.03-.002-.06-.998zm.693-.346l.76.65.006-.006.005-.007-.77-.637zm2.126-2.571l-.77-.638.77.638zM23.983 30l-.751-.66-.01.011-.009.011.77.638zm.636-16.628l.652-.758-.01-.008-.642.766zm-.956-.158l.331.943.016-.005.015-.006-.362-.932zm-.401.283l.775.632.003-.004-.778-.628zm-1.175 1.442l.77.639.005-.007-.775-.632zm-2.92 3.518l-.703.71.776.768.697-.84-.77-.638zm-1.433-1.418l-.709.705.006.006.703-.71zm-.721-.726l-.76.651.025.028.026.026.709-.705zm-1.343 1.36l.71-.705-.029-.028-.03-.027-.65.76zm2.867 2.884l.722-.692-.007-.007-.006-.006-.71.705zm.669.283v-1H19.2l.006 1zm.047 0v1h.031l.03-.002-.06-.998zm.693-.346l.76.65.006-.006.005-.006-.77-.638zm2.126-2.57l-.77-.639v.001l.77.637zm1.911-2.307l-.768-.64-.002.002.77.638zm.74-.89l-.761-.647-.007.008.769.64zM46.677 42.97l.709-.705-.71.705zm-19.528 0l-.709-.705.71.705zm0 1.359l-.709.705.71-.705zM46 44.611v-1 1zm.955-.947l1 .015v-.015h-1zm-.927 5.067l-.015 1h.015v-1zm-18.204-.276l.015-1h-.015v1zm-.676.282l-.709-.706.71.706zm0 1.359l-.709.705.71-.705zm.676.281l.015-1h-.015v1zm18.204.277l-.015 1h.015v-1zm.956-.947l1 .015v-.015h-1zM13.447 14.391V21.6h2v-7.21h-2zm0 7.209c0 .327.13.641.361.875l1.418-1.41a.754.754 0 01.221.535h-2zm.361.875c.232.233.548.365.878.365v-2c.204 0 .398.081.54.225l-1.418 1.41zm.878.365h7.166v-2h-7.166v2zm7.146 0c.167.003.333-.027.488-.09l-.75-1.854a.767.767 0 01.303-.056l-.041 2zm.488-.09c.154-.063.295-.156.412-.274l-1.418-1.41a.767.767 0 01.256-.17l.75 1.854zm.412-.274a1.23 1.23 0 00.271-.412l-1.857-.743a.765.765 0 01.168-.255l1.418 1.41zm.271-.412c.062-.154.091-.32.088-.485l-2 .041a.762.762 0 01.055-.299l1.857.743zm.088-.464v-2.153h-2V21.6h2zm-.23-1.515l1.911-2.307-1.54-1.276-1.91 2.307 1.54 1.276zm.141-2.945v4.46h2v-4.46h-2zm0 4.457c0 .311-.123.608-.34.825l1.418 1.41c.59-.592.92-1.394.922-2.23l-2-.005zm-.34.825c-.216.218-.508.34-.812.34l.005 2a3.148 3.148 0 002.225-.93l-1.418-1.41zm-.81.34h-7.166v2h7.166v-2zm-7.164 0c-.303 0-.595-.122-.812-.34l-1.418 1.41a3.15 3.15 0 002.226.93l.004-2zm-.812-.34a1.174 1.174 0 01-.34-.825l-2 .005c.002.836.333 1.638.922 2.23l1.418-1.41zm-.34-.822v-7.21h-2v7.21h2zm0-7.207c0-.31.124-.607.34-.825l-1.418-1.41a3.174 3.174 0 00-.922 2.23l2 .005zm.34-.825c.217-.217.509-.339.812-.34l-.004-2a3.149 3.149 0 00-2.226.93l1.418 1.41zm.81-.34h7.166v-2h-7.166v2zm7.166 0c.209 0 .414.058.594.167l1.039-1.709a3.145 3.145 0 00-1.632-.457l-.001 2zm.592-1.54a2.76 2.76 0 00-.674.58l1.531 1.286a.76.76 0 01.186-.16l-1.043-1.706zm-.68.587l-1.022 1.24 1.543 1.272 1.022-1.24-1.543-1.272zm-.25.876h-6.828v2h6.827v-2zm-6.828 0c-.163 0-.325.032-.476.095l.77 1.846a.762.762 0 01-.294.059v-2zm-.476.095c-.15.063-.287.155-.402.27l1.418 1.41a.762.762 0 01-.247.166l-.769-1.846zm-.402.27a1.24 1.24 0 00-.267.402l1.85.762a.76.76 0 01-.165.246l-1.418-1.41zm-.267.402c-.062.15-.094.31-.094.473h2c0 .1-.02.197-.057.289l-1.85-.762zm9.691 17.01l-1.91 2.308 1.54 1.276 1.91-2.307-1.54-1.276zm-2.14 2.946v2.143h2v-2.143h-2zm0 2.163a.762.762 0 01.054-.299l1.857.743c.062-.154.091-.319.088-.485l-2 .041zm.054-.299a.762.762 0 01.168-.255l1.418 1.41a1.23 1.23 0 00.271-.412l-1.857-.743zm.168-.255a.766.766 0 01.256-.17l.75 1.854c.154-.062.295-.156.412-.274l-1.418-1.41zm.256-.17a.767.767 0 01.303-.056l-.041 2c.167.003.333-.027.488-.09l-.75-1.854zm.282-.056h-7.166v2h7.166v-2zm-7.166 0c.204 0 .398.082.54.225l-1.418 1.41c.232.233.548.365.878.365v-2zm.54.225a.76.76 0 01.221.535h-2c0 .327.13.642.361.875l1.418-1.41zm.221.535v-7.209h-2v7.209h2zm0-7.209c0 .2-.078.392-.22.535l-1.419-1.41a1.24 1.24 0 00-.36.875h2zm-.22.535a.762.762 0 01-.54.225v-2a1.24 1.24 0 00-.879.365l1.418 1.41zm-.54.225h6.831v-2h-6.832v2zm7.601-.363l1.018-1.23-1.541-1.275-1.018 1.23 1.541 1.275zm1.018-1.23a.72.72 0 01.181-.156l-1.034-1.712c-.26.158-.493.358-.688.593l1.54 1.276zm.19-1.863a3.121 3.121 0 00-1.645-.466l.003 2c.208 0 .412.057.59.168l1.052-1.702zm-1.644-.466h-7.166v2h7.166v-2zm-7.168 0a3.149 3.149 0 00-2.226.93l1.418 1.41c.217-.218.509-.34.812-.34l-.004-2zm-2.226.93a3.174 3.174 0 00-.922 2.23l2 .005c0-.311.124-.608.34-.826l-1.418-1.41zm-.922 2.232v7.209h2v-7.209h-2zm0 7.211c.002.836.333 1.638.922 2.23l1.418-1.41a1.174 1.174 0 01-.34-.824l-2 .004zm.922 2.23c.59.594 1.39.929 2.226.93l.004-2c-.303 0-.595-.122-.812-.34l-1.418 1.41zm2.228.93h7.166v-2h-7.166v2zm7.169 0a3.148 3.148 0 002.225-.93l-1.418-1.41c-.216.218-.508.34-.812.34l.005 2zm2.225-.93c.59-.592.92-1.394.922-2.23l-2-.004c0 .31-.123.607-.34.825l1.418 1.41zm.922-2.232v-4.45h-2v4.45h2zm-3.15 6.046c.303 0 .595.121.811.338l1.419-1.41a3.144 3.144 0 00-2.23-.928v2zm.811.338c.217.218.34.514.34.824h2c0-.836-.331-1.64-.921-2.234l-1.419 1.41zm.34.824v7.21h2v-7.21h-2zm0 7.21c0 .31-.123.606-.34.823l1.419 1.41c.59-.593.92-1.397.92-2.234h-2zm-.34.823a1.144 1.144 0 01-.81.339v2c.837 0 1.638-.335 2.229-.929l-1.419-1.41zm-.81.339h-7.167v2h7.166v-2zm-7.165 0a1.155 1.155 0 01-.812-.34l-1.418 1.41a3.15 3.15 0 002.226.93l.004-2zm-.812-.34a1.174 1.174 0 01-.34-.825l-2 .004c.002.836.333 1.638.922 2.23l1.418-1.41zm-.34-.823v-7.209h-2v7.21h2zm0-7.206c0-.31.124-.607.34-.825l-1.418-1.41a3.174 3.174 0 00-.922 2.23l2 .005zm.34-.825c.217-.218.509-.34.812-.34l-.004-2a3.149 3.149 0 00-2.226.93l1.418 1.41zm.81-.34h7.166v-2h-7.166v2zm7.166-.078h-7.166v2h7.166v-2zm-7.185 0a1.25 1.25 0 00-.858.367l1.419 1.41a.757.757 0 01-.522.223l-.04-2zm-.858.367a1.246 1.246 0 00-.362.854l2 .039a.755.755 0 01-.22.517l-1.418-1.41zm-.362.873v7.21h2v-7.21h-2zm0 7.21c0 .326.13.64.361.874l1.418-1.41a.76.76 0 01.221.535h-2zm.361.874c.232.233.548.365.878.365v-2c.204 0 .398.082.54.225l-1.418 1.41zm.878.365h7.166v-2h-7.166v2zm7.166 0c.33 0 .647-.132.878-.365l-1.418-1.41a.762.762 0 01.54-.225v2zm.878-.365a1.24 1.24 0 00.361-.875h-2c0-.2.079-.392.221-.535l1.418 1.41zm.361-.875v-7.209h-2v7.21h2zm0-7.209a1.24 1.24 0 00-.36-.874l-1.419 1.41a.759.759 0 01-.22-.536h2zm-.36-.874a1.238 1.238 0 00-.879-.366v2a.761.761 0 01-.54-.224l1.418-1.41zm33.506 19.77c-.306-.303-.628-.416-.76-.467-.11-.043-.05-.028-.015.013l-1.5 1.323a1.9 1.9 0 00.79.527c.141.056.099.046.079.026l1.406-1.422zm-1.525-.793H11.581v2h43.131v-2zm-42.131 1v-.96h-2v.96h2zm-1.003.04l41.086.132.007-2-41.087-.133-.006 2zm41.878-1.483c-.23-.295-.448-.595-.646-.896l-1.67 1.1c.231.352.482.696.739 1.026l1.577-1.23zm-.646-.896a16.69 16.69 0 01-.569-.907l-1.737.991c.204.358.421.69.635 1.016l1.671-1.1zm-1.434-1.411l-43.614-.133-.006 2 43.614.133.006-2zm-42.617.867V4.674h-2v54.77h2zm-1-53.771h42.997v-2H7.76v2zm41.997-1V61.5h2V4.674h-2zm1 57.826h1.911v-2h-1.91v2zm2.911-1V7.557h-2V61.5h2zm-1-52.943h1.911v-2h-1.91v2zm.911-1v55.107h2V7.557h-2zm1.006 56.107c.17-.001.287 0 .381.012a.61.61 0 01.064.012l-.02-.009a.378.378 0 01-.057-.034l1.164-1.627c-.318-.226-.67-.297-.9-.326a4.859 4.859 0 00-.643-.028l.01 2zm.634.117a.738.738 0 01-.346-.233c-.03-.038-.033-.053-.015-.015.044.093.077.195.16.414.065.17.17.441.332.677.157.228.52.641 1.14.641v-2c.166 0 .304.057.397.121a.57.57 0 01.086.075c.017.017.025.03.026.031.001.001-.011-.017-.034-.067a3.01 3.01 0 01-.076-.187c-.047-.123-.134-.372-.223-.56a1.923 1.923 0 00-.225-.371 1.267 1.267 0 00-.59-.424l-.632 1.898zm2.271.484V6.596h-2v57.669h2zm0-57.669c0-.518-.204-1.016-.57-1.384L55.5 6.622a.036.036 0 01-.01-.026h2zm-.57-1.384a1.953 1.953 0 00-1.385-.577v2a.047.047 0 01-.034-.013l1.419-1.41zm-1.385-.577h-2.867v2h2.867v-2zm-1.867 1V3.713h-2v1.922h2zm0-1.922c0-.518-.204-1.017-.57-1.385l-1.419 1.41a.036.036 0 01-.01-.025h2zm-.57-1.385a1.953 1.953 0 00-1.385-.576v2a.047.047 0 01-.034-.014l1.419-1.41zm-1.385-.576H6.803v2h44.909v-2zm-44.909 0c-.52 0-1.018.208-1.385.576l1.419 1.41a.047.047 0 01-.034.014v-2zm-1.385.576c-.366.368-.57.866-.57 1.385h2a.036.036 0 01-.011.025l-1.419-1.41zm-.57 1.385V60.42h2V3.713h-2zm0 56.707c0 .519.204 1.017.57 1.385l1.419-1.41c.007.008.01.017.01.025h-2zm.57 1.385c.367.368.865.577 1.385.577v-2c.014 0 .026.005.034.013l-1.419 1.41zm1.385.577H9.67v-2H6.803v2zm1.867-1v1.922h2v-1.922h-2zm0 1.922c0 .518.204 1.016.57 1.385l1.419-1.41c.007.007.01.016.01.025h-2zm.57 1.385c.367.368.865.576 1.385.576v-2c.014 0 .026.006.034.014l-1.419 1.41zm1.385.576H56.49v-2H10.625v2zm46.864-.996c.003-.697-.03-1.226-.129-1.6a1.507 1.507 0 00-.362-.681 1.15 1.15 0 00-1.004-.337 1.42 1.42 0 00-.53.204 2.628 2.628 0 00-.11.073l-.049.032c-.035.021.057-.046.217-.07a.846.846 0 01.716.232l-1.408 1.42a1.163 1.163 0 00.997.324c.26-.04.456-.16.528-.204.045-.028.088-.057.112-.073l.049-.032c.036-.022-.058.046-.22.071a.845.845 0 01-.729-.243c-.138-.141-.156-.266-.141-.209.026.1.066.4.063 1.085l2 .008zM27.824 17.193h18.2v-2h-18.2v2zm18.2 0c.52 0 1.018-.208 1.384-.576l-1.418-1.41a.047.047 0 01.033-.014v2zm1.384-.576c.366-.369.57-.867.57-1.385h-2c0-.008.004-.018.012-.025l1.418 1.41zm.57-1.385c0-.518-.204-1.016-.57-1.385l-1.418 1.41a.036.036 0 01-.011-.025h2zm-.57-1.385a1.953 1.953 0 00-1.385-.576v2a.047.047 0 01-.033-.014l1.418-1.41zm-1.385-.576H27.824v2h18.2v-2zm-18.199 0c-.52 0-1.018.208-1.385.576l1.419 1.41a.048.048 0 01-.034.014v-2zm-1.385.576c-.366.369-.57.867-.57 1.385h2a.036.036 0 01-.011.026l-1.419-1.41zm-.57 1.385c0 .518.204 1.017.57 1.385l1.419-1.41c.008.007.01.017.01.025h-2zm.57 1.385c.367.368.865.576 1.385.576v-2c.014 0 .026.006.034.014l-1.419 1.41zm1.385 6.343h18.2v-2h-18.2v2zm18.2 0c.52 0 1.018-.208 1.384-.576l-1.418-1.41a.047.047 0 01.033-.014v2zm1.384-.576c.366-.369.57-.867.57-1.385h-2c0-.008.004-.018.012-.025l1.418 1.41zm.57-1.385c0-.518-.204-1.016-.57-1.385l-1.418 1.41a.036.036 0 01-.011-.025h2zm-.57-1.385a1.953 1.953 0 00-1.385-.576v2a.047.047 0 01-.033-.014l1.418-1.41zm-1.385-.576H27.824v2h18.2v-2zm-18.199 0c-.52 0-1.018.208-1.385.576l1.419 1.41a.048.048 0 01-.034.014v-2zm-1.385.576c-.366.369-.57.867-.57 1.385h2a.036.036 0 01-.011.025l-1.419-1.41zM25.87 21c0 .518.204 1.016.57 1.385l1.419-1.41c.008.007.01.017.01.025h-2zm.57 1.385c.367.368.865.576 1.385.576v-2c.014 0 .026.006.034.014l-1.419 1.41zm21.517 7.265c0-.518-.205-1.016-.571-1.384l-1.418 1.41a.036.036 0 01-.011-.026h2zm-.571-1.384A1.952 1.952 0 0046 27.688v2a.047.047 0 01-.033-.013l1.418-1.41zM46 27.688H27.824v2H46v-2zm-18.176 0c-.52 0-1.018.208-1.385.577l1.419 1.41a.048.048 0 01-.034.013v-2zm-1.385.577c-.366.368-.57.866-.57 1.384h2a.036.036 0 01-.011.026l-1.419-1.41zm-.57 1.384c0 .519.204 1.017.57 1.385l1.419-1.41c.008.008.01.017.01.025h-2zm.57 1.385c.367.368.865.576 1.385.576v-2c.014 0 .026.006.034.014l-1.419 1.41zm1.385.576H46v-2H27.824v2zm18.176 0c.515 0 1.009-.203 1.374-.566l-1.407-1.42A.047.047 0 0146 29.61v2zm1.374-.566c.366-.361.574-.852.581-1.365l-2-.03c0-.009.004-.018.012-.025l1.407 1.42zm.581-1.38v-.015h-2v.015h2zm.029 6.029c0-.519-.205-1.017-.57-1.385l-1.42 1.41a.036.036 0 01-.01-.025h2zm-.57-1.385a1.953 1.953 0 00-1.386-.577v2a.048.048 0 01-.033-.013l1.418-1.41zm-1.37-.576l-18.204-.277-.03 2 18.203.276.03-2zm-18.22-.277c-.52 0-1.018.208-1.385.577l1.419 1.41a.048.048 0 01-.034.013v-2zm-1.385.577c-.366.368-.57.866-.57 1.384h2a.036.036 0 01-.011.026l-1.419-1.41zm-.57 1.384c0 .518.204 1.017.57 1.385l1.419-1.41c.008.008.01.017.01.025h-2zm.57 1.385c.367.368.865.576 1.385.576v-2c.014 0 .026.006.034.014l-1.419 1.41zm1.37.576l18.204.277.03-2-18.203-.277-.03 2zm18.22.277c.515 0 1.008-.204 1.374-.566l-1.408-1.421a.048.048 0 01.034-.013v2zm1.374-.566c.365-.362.573-.853.58-1.366l-1.999-.03c0-.008.003-.017.011-.025l1.408 1.42zm.58-1.381v-.014h-2v.014h2zm8.35-32.83c.84.188 1.594.658 2.136 1.334l1.56-1.25A5.797 5.797 0 0056.77.925l-.436 1.952zM58.47 4.21c.541.676.839 1.519.843 2.39l2-.009a5.847 5.847 0 00-1.282-3.631L58.47 4.21zm.843 2.385v9.612h2V6.596h-2zm0 9.612c0 .518.204 1.016.57 1.384l1.419-1.41a.036.036 0 01.01.026h-2zm.57 1.384a1.95 1.95 0 001.385.577v-2c.014 0 .026.005.033.013l-1.418 1.41zm1.385.577c.52 0 1.018-.208 1.385-.577l-1.419-1.41a.047.047 0 01.034-.013v2zm1.385-.577c.366-.368.57-.866.57-1.384h-2a.04.04 0 01.011-.026l1.419 1.41zm.57-1.384V6.596h-2v9.612h2zm0-9.615a7.787 7.787 0 00-1.702-4.834l-1.562 1.249A5.786 5.786 0 0161.222 6.6l2-.007zM61.52 1.759a7.717 7.717 0 00-4.333-2.713l-.44 1.952a5.716 5.716 0 013.21 2.01l1.563-1.249zM57.18-.955a1.951 1.951 0 00-1.476.268L56.79.993a.049.049 0 01-.036.006l.427-1.954zm-1.476.268a1.961 1.961 0 00-.851 1.233l1.955.422a.039.039 0 01-.018.024L55.704-.687zM54.853.546a1.966 1.966 0 00.264 1.474L56.803.943a.034.034 0 01.005.025L54.853.546zm.264 1.474c.28.437.722.747 1.23.858l.428-1.954c.013.003.022.01.028.019L55.118 2.02zM56.562.9h-.01v2h.01v-2zm-31.05 28.875c.277-.332.436-.746.454-1.177l-1.998-.083c0-.007.002-.015.008-.022l1.536 1.282zm.454-1.177a1.966 1.966 0 00-.355-1.21l-1.637 1.148a.035.035 0 01-.006-.021l1.998.083zm-.355-1.21a1.956 1.956 0 00-1.02-.745l-.594 1.91a.044.044 0 01-.023-.017l1.637-1.148zm-1.02-.745a1.95 1.95 0 00-1.263.036l.701 1.873a.05.05 0 01-.032 0l.594-1.909zm-1.264.036c-.318.12-.6.318-.82.576l1.521 1.298.002-.001-.703-1.873zm-.835.593l-1.175 1.442 1.55 1.263 1.176-1.441-1.55-1.264zm-1.169 1.434l-2.924 3.518 1.538 1.279 2.924-3.518-1.538-1.279zm-1.445 3.452l-1.434-1.441-1.418 1.41 1.433 1.441 1.419-1.41zm-1.436-1.444l-.721-.72-1.414 1.414.721.721 1.414-1.415zm-.792-.785a1.952 1.952 0 00-1.34-.443l.101 1.997a.048.048 0 01-.033-.01l1.272-1.544zm-1.34-.443c-.487.025-.947.23-1.289.576l1.421 1.408a.047.047 0 01-.031.013l-.102-1.997zm-1.289.576a1.964 1.964 0 00-.566 1.29l1.998.094a.036.036 0 01-.011.024l-1.42-1.408zm-.566 1.29c-.023.485.135.962.443 1.338l1.547-1.268a.036.036 0 01.008.024l-1.998-.093zm.507 1.409l2.867 2.883 1.418-1.41-2.866-2.883-1.419 1.41zm2.854 2.87c.18.189.397.338.637.44l.78-1.842c.01.005.02.01.027.018l-1.444 1.385zm.637.44c.24.102.498.153.76.152l-.012-2c.011 0 .023.002.033.007l-.78 1.84zm.754.152h.047v-2h-.047v2zm.109-.002c.267-.016.527-.086.766-.206l-.893-1.79h.004l.123 1.996zm.766-.206c.24-.12.452-.285.625-.488l-1.52-1.3.002-.001.893 1.79zm.636-.5l2.126-2.572-1.541-1.274-2.127 2.57 1.542 1.275zm2.125-2.571l1.911-2.307-1.54-1.276-1.91 2.307 1.54 1.276zm1.893-2.285l.76-.865-1.504-1.32-.76.865 1.504 1.32zm.526-18.054a1.953 1.953 0 00-.935-.43L24 14.148a.047.047 0 01-.023-.01l1.285-1.533zm-.935-.43a1.95 1.95 0 00-1.024.105l.723 1.865a.05.05 0 01-.026.003l.327-1.973zm-.994.094a1.899 1.899 0 00-.848.6l1.556 1.255a.101.101 0 01-.046.032l-.662-1.887zm-.845.595l-1.176 1.442 1.55 1.264 1.176-1.442-1.55-1.264zm-1.17 1.435l-2.92 3.518 1.54 1.277 2.92-3.517-1.54-1.278zm-1.446 3.446l-1.434-1.418-1.406 1.422 1.433 1.418 1.407-1.422zm-1.428-1.412l-.721-.726-1.418 1.41.721.726 1.418-1.41zm-.671-.672a1.955 1.955 0 00-.635-.488l-.869 1.801a.046.046 0 01-.014-.01l1.518-1.303zm-.635-.488a1.95 1.95 0 00-.779-.193l-.07 1.999a.049.049 0 01-.02-.005l.869-1.801zm-.779-.193a1.95 1.95 0 00-.79.137l.74 1.859a.049.049 0 01-.02.003l.07-1.999zm-.79.137a1.94 1.94 0 00-.668.444l1.423 1.405a.045.045 0 01-.015.01l-.74-1.859zm-.668.444a1.96 1.96 0 00-.435.672l1.866.72a.038.038 0 01-.008.012L14.9 15.562zm-.435.672a1.99 1.99 0 00-.13.79l1.999-.084c0 .004 0 .009-.003.013l-1.866-.719zm-.13.79c.012.269.078.533.196.775l1.8-.873a.033.033 0 01.003.014l-1.998.083zm.196.775c.118.243.284.459.49.634l1.3-1.52a.04.04 0 01.01.013l-1.8.873zm.43.58l2.867 2.883 1.418-1.41-2.866-2.884-1.419 1.41zm2.854 2.87c.18.188.397.338.637.44l.78-1.842a.08.08 0 01.027.018l-1.444 1.384zm.637.44c.24.101.498.153.76.151l-.012-2c.011 0 .023.003.033.007l-.78 1.841zm.754.151h.047v-2h-.047v2zm.109-.002a1.99 1.99 0 00.766-.205l-.893-1.79a.01.01 0 01.004 0l.123 1.995zm.766-.205c.24-.12.452-.286.625-.489l-1.52-1.3h.002l.893 1.789zm.636-.501l2.126-2.571-1.541-1.275-2.127 2.571 1.542 1.275zm2.125-2.57l1.911-2.308-1.54-1.275-1.91 2.306 1.54 1.276zm1.91-2.306l.74-.889-1.537-1.28-.74.89 1.537 1.28zm.733-.88c.167-.196.293-.423.373-.667l-1.903-.617a.037.037 0 01.007-.012l1.523 1.295zm.373-.667c.079-.245.109-.502.09-.758l-1.995.154c0-.004 0-.008.002-.013l1.903.617zm.09-.758a1.966 1.966 0 00-.206-.735l-1.785.902a.033.033 0 01-.004-.013l1.994-.154zm-.206-.735a1.96 1.96 0 00-.471-.602l-1.305 1.516a.039.039 0 01-.01-.012l1.786-.902zm22.213 30.433c0-.518-.204-1.016-.57-1.384l-1.419 1.41a.036.036 0 01-.01-.026h2zm-.57-1.384A1.953 1.953 0 0046 41.688v2a.047.047 0 01-.034-.013l1.419-1.41zM46 41.688H27.824v2H46v-2zm-18.176 0c-.52 0-1.018.208-1.385.577l1.419 1.41a.047.047 0 01-.034.013v-2zm-1.385.577c-.366.368-.57.866-.57 1.384h2a.036.036 0 01-.011.026l-1.419-1.41zm-.57 1.384c0 .519.204 1.017.57 1.385l1.419-1.41a.036.036 0 01.01.025h-2zm.57 1.385c.367.368.865.577 1.385.577v-2c.014 0 .026.005.034.013l-1.419 1.41zm1.385.577H46v-2H27.824v2zm18.176 0c.515 0 1.009-.204 1.374-.567l-1.407-1.42A.048.048 0 0146 43.61v2zm1.374-.567a1.96 1.96 0 00.581-1.365l-2-.03c0-.008.004-.018.012-.025l1.407 1.42zm.581-1.38v-.015h-2v.015h2zm.029 6.029c0-.519-.205-1.017-.57-1.385l-1.42 1.41a.036.036 0 01-.01-.025h2zm-.57-1.385a1.953 1.953 0 00-1.386-.577v2a.048.048 0 01-.033-.013l1.418-1.41zm-1.37-.576l-18.205-.277-.03 2 18.204.276.03-2zm-18.22-.277c-.52 0-1.018.208-1.385.577l1.419 1.41a.047.047 0 01-.034.013v-2zm-1.385.577c-.366.368-.57.866-.57 1.384h2a.036.036 0 01-.011.026l-1.419-1.41zm-.57 1.384c0 .519.204 1.017.57 1.385l1.419-1.41a.036.036 0 01.01.025h-2zm.57 1.385c.367.368.865.576 1.385.576v-2c.014 0 .026.006.034.014l-1.419 1.41zm1.37.576l18.204.277.03-2-18.204-.277-.03 2zm18.22.277c.515 0 1.008-.204 1.374-.566l-1.408-1.421a.047.047 0 01.033-.013v2zm1.374-.566c.365-.362.573-.853.58-1.366l-2-.03a.042.042 0 01.012-.025l1.408 1.42zm.58-1.381v-.014h-2v.014h2z" fill="#C70100" mask="url(#path-1-inside-1_1_1038)"/></svg>