<svg width="60" height="54" viewBox="0 0 60 54" fill="none" xmlns="http://www.w3.org/2000/svg">
<path d="M12.0003 48.6575C10.8048 48.6575 9.63603 48.3025 8.64188 47.6373C7.64772 46.9721 6.87276 46.0266 6.41511 44.9203C5.95746 43.8139 5.83771 42.5964 6.07102 41.4219C6.30434 40.2473 6.88023 39.1685 7.72575 38.3218C8.57126 37.4752 9.64843 36.8987 10.821 36.6651C11.9936 36.4316 13.209 36.5514 14.3136 37.0096C15.4182 37.4677 16.3624 38.2436 17.0267 39.2393C17.6911 40.2349 18.0457 41.4056 18.0457 42.6031C18.0457 44.2091 17.4086 45.7491 16.2748 46.8844C15.141 48.0198 13.6034 48.6575 12.0003 48.6575ZM12.0003 37.7336C11.0382 37.7336 10.0978 38.0193 9.29794 38.5544C8.49811 39.0896 7.87482 39.8502 7.50679 40.7399C7.13875 41.6296 7.04247 42.6086 7.23008 43.553C7.4177 44.4975 7.8808 45.3651 8.56094 46.0462C9.2411 46.7273 10.1077 47.1911 11.0513 47.3791C11.9949 47.567 12.9729 47.4706 13.8617 47.1019C14.7505 46.7333 15.5101 46.109 16.0444 45.3083C16.5788 44.5075 16.8639 43.5661 16.8639 42.6031C16.8639 41.3119 16.3517 40.0734 15.4396 39.1601C14.5276 38.2468 13.2904 37.7336 12.0003 37.7336Z" fill="#505050"/>
<path d="M12.0003 48.6575C10.8048 48.6575 9.63603 48.3025 8.64188 47.6373C7.64772 46.9721 6.87276 46.0266 6.41511 44.9203C5.95746 43.8139 5.83771 42.5964 6.07102 41.4219C6.30434 40.2473 6.88023 39.1685 7.72575 38.3218C8.57126 37.4752 9.64843 36.8987 10.821 36.6651C11.9936 36.4316 13.209 36.5514 14.3136 37.0096C15.4182 37.4677 16.3624 38.2436 17.0267 39.2393C17.6911 40.2349 18.0457 41.4056 18.0457 42.6031C18.0457 44.2091 17.4086 45.7491 16.2748 46.8844C15.141 48.0198 13.6034 48.6575 12.0003 48.6575ZM12.0003 37.7336C11.0382 37.7336 10.0978 38.0193 9.29794 38.5544C8.49811 39.0896 7.87482 39.8502 7.50679 40.7399C7.13875 41.6296 7.04247 42.6086 7.23008 43.553C7.4177 44.4975 7.8808 45.3651 8.56094 46.0462C9.2411 46.7273 10.1077 47.1911 11.0513 47.3791C11.9949 47.567 12.9729 47.4706 13.8617 47.1019C14.7505 46.7333 15.5101 46.109 16.0444 45.3083C16.5788 44.5075 16.8639 43.5661 16.8639 42.6031C16.8639 41.3119 16.3517 40.0734 15.4396 39.1601C14.5276 38.2468 13.2904 37.7336 12.0003 37.7336Z" fill="url(#paint0_linear_1_1816)"/>
<path d="M12.0003 48.6575C10.8048 48.6575 9.63603 48.3025 8.64188 47.6373C7.64772 46.9721 6.87276 46.0266 6.41511 44.9203C5.95746 43.8139 5.83771 42.5964 6.07102 41.4219C6.30434 40.2473 6.88023 39.1685 7.72575 38.3218C8.57126 37.4752 9.64843 36.8987 10.821 36.6651C11.9936 36.4316 13.209 36.5514 14.3136 37.0096C15.4182 37.4677 16.3624 38.2436 17.0267 39.2393C17.6911 40.2349 18.0457 41.4056 18.0457 42.6031C18.0457 44.2091 17.4086 45.7491 16.2748 46.8844C15.141 48.0198 13.6034 48.6575 12.0003 48.6575ZM12.0003 37.7336C11.0382 37.7336 10.0978 38.0193 9.29794 38.5544C8.49811 39.0896 7.87482 39.8502 7.50679 40.7399C7.13875 41.6296 7.04247 42.6086 7.23008 43.553C7.4177 44.4975 7.8808 45.3651 8.56094 46.0462C9.2411 46.7273 10.1077 47.1911 11.0513 47.3791C11.9949 47.567 12.9729 47.4706 13.8617 47.1019C14.7505 46.7333 15.5101 46.109 16.0444 45.3083C16.5788 44.5075 16.8639 43.5661 16.8639 42.6031C16.8639 41.3119 16.3517 40.0734 15.4396 39.1601C14.5276 38.2468 13.2904 37.7336 12.0003 37.7336Z" stroke="#C70100"/>
<path d="M48 48.6575C46.8045 48.6575 45.6358 48.3025 44.6416 47.6373C43.6475 46.9721 42.8725 46.0266 42.4149 44.9203C41.9572 43.8139 41.8375 42.5964 42.0708 41.4219C42.3041 40.2473 42.88 39.1685 43.7255 38.3218C44.571 37.4752 45.6482 36.8987 46.8208 36.6651C47.9933 36.4316 49.2087 36.5514 50.3133 37.0096C51.4179 37.4677 52.3621 38.2436 53.0265 39.2393C53.6909 40.2349 54.0455 41.4056 54.0455 42.6031C54.0455 44.2091 53.4084 45.7491 52.2746 46.8844C51.1408 48.0198 49.6032 48.6575 48 48.6575ZM48 37.7336C47.038 37.7336 46.0975 38.0193 45.2977 38.5544C44.4979 39.0896 43.8746 39.8502 43.5065 40.7399C43.1385 41.6296 43.0422 42.6086 43.2298 43.553C43.4175 44.4975 43.8806 45.3651 44.5607 46.0462C45.2408 46.7273 46.1075 47.1911 47.0511 47.3791C47.9946 47.567 48.9727 47.4706 49.8615 47.1019C50.7503 46.7333 51.5098 46.109 52.0442 45.3083C52.5785 44.5075 52.8637 43.5661 52.8637 42.6031C52.8637 41.3119 52.3514 40.0734 51.4394 39.1601C50.5273 38.2468 49.2902 37.7336 48 37.7336Z" fill="#505050"/>
<path d="M48 48.6575C46.8045 48.6575 45.6358 48.3025 44.6416 47.6373C43.6475 46.9721 42.8725 46.0266 42.4149 44.9203C41.9572 43.8139 41.8375 42.5964 42.0708 41.4219C42.3041 40.2473 42.88 39.1685 43.7255 38.3218C44.571 37.4752 45.6482 36.8987 46.8208 36.6651C47.9933 36.4316 49.2087 36.5514 50.3133 37.0096C51.4179 37.4677 52.3621 38.2436 53.0265 39.2393C53.6909 40.2349 54.0455 41.4056 54.0455 42.6031C54.0455 44.2091 53.4084 45.7491 52.2746 46.8844C51.1408 48.0198 49.6032 48.6575 48 48.6575ZM48 37.7336C47.038 37.7336 46.0975 38.0193 45.2977 38.5544C44.4979 39.0896 43.8746 39.8502 43.5065 40.7399C43.1385 41.6296 43.0422 42.6086 43.2298 43.553C43.4175 44.4975 43.8806 45.3651 44.5607 46.0462C45.2408 46.7273 46.1075 47.1911 47.0511 47.3791C47.9946 47.567 48.9727 47.4706 49.8615 47.1019C50.7503 46.7333 51.5098 46.109 52.0442 45.3083C52.5785 44.5075 52.8637 43.5661 52.8637 42.6031C52.8637 41.3119 52.3514 40.0734 51.4394 39.1601C50.5273 38.2468 49.2902 37.7336 48 37.7336Z" fill="url(#paint1_linear_1_1816)"/>
<path d="M48 48.6575C46.8045 48.6575 45.6358 48.3025 44.6416 47.6373C43.6475 46.9721 42.8725 46.0266 42.4149 44.9203C41.9572 43.8139 41.8375 42.5964 42.0708 41.4219C42.3041 40.2473 42.88 39.1685 43.7255 38.3218C44.571 37.4752 45.6482 36.8987 46.8208 36.6651C47.9933 36.4316 49.2087 36.5514 50.3133 37.0096C51.4179 37.4677 52.3621 38.2436 53.0265 39.2393C53.6909 40.2349 54.0455 41.4056 54.0455 42.6031C54.0455 44.2091 53.4084 45.7491 52.2746 46.8844C51.1408 48.0198 49.6032 48.6575 48 48.6575ZM48 37.7336C47.038 37.7336 46.0975 38.0193 45.2977 38.5544C44.4979 39.0896 43.8746 39.8502 43.5065 40.7399C43.1385 41.6296 43.0422 42.6086 43.2298 43.553C43.4175 44.4975 43.8806 45.3651 44.5607 46.0462C45.2408 46.7273 46.1075 47.1911 47.0511 47.3791C47.9946 47.567 48.9727 47.4706 49.8615 47.1019C50.7503 46.7333 51.5098 46.109 52.0442 45.3083C52.5785 44.5075 52.8637 43.5661 52.8637 42.6031C52.8637 41.3119 52.3514 40.0734 51.4394 39.1601C50.5273 38.2468 49.2902 37.7336 48 37.7336Z" stroke="#C70100"/>
<path d="M47.9999 44.2879C47.6675 44.2879 47.3424 44.1892 47.0658 44.0041C46.7893 43.8191 46.5736 43.556 46.4462 43.2481C46.3189 42.9401 46.2855 42.6013 46.3505 42.2743C46.4154 41.9474 46.5757 41.6471 46.8109 41.4116C47.0462 41.176 47.3458 41.0156 47.672 40.9507C47.998 40.8857 48.3361 40.9191 48.6433 41.0465C48.9506 41.1739 49.2133 41.3898 49.3981 41.6668C49.583 41.9439 49.6818 42.2697 49.6818 42.6031C49.6818 43.0502 49.5044 43.4788 49.1889 43.7947C48.8735 44.1105 48.4458 44.2879 47.9999 44.2879Z" fill="#505050"/>
<path d="M47.9999 44.2879C47.6675 44.2879 47.3424 44.1892 47.0658 44.0041C46.7893 43.8191 46.5736 43.556 46.4462 43.2481C46.3189 42.9401 46.2855 42.6013 46.3505 42.2743C46.4154 41.9474 46.5757 41.6471 46.8109 41.4116C47.0462 41.176 47.3458 41.0156 47.672 40.9507C47.998 40.8857 48.3361 40.9191 48.6433 41.0465C48.9506 41.1739 49.2133 41.3898 49.3981 41.6668C49.583 41.9439 49.6818 42.2697 49.6818 42.6031C49.6818 43.0502 49.5044 43.4788 49.1889 43.7947C48.8735 44.1105 48.4458 44.2879 47.9999 44.2879Z" fill="url(#paint2_linear_1_1816)"/>
<path d="M47.9999 44.2879C47.6675 44.2879 47.3424 44.1892 47.0658 44.0041C46.7893 43.8191 46.5736 43.556 46.4462 43.2481C46.3189 42.9401 46.2855 42.6013 46.3505 42.2743C46.4154 41.9474 46.5757 41.6471 46.8109 41.4116C47.0462 41.176 47.3458 41.0156 47.672 40.9507C47.998 40.8857 48.3361 40.9191 48.6433 41.0465C48.9506 41.1739 49.2133 41.3898 49.3981 41.6668C49.583 41.9439 49.6818 42.2697 49.6818 42.6031C49.6818 43.0502 49.5044 43.4788 49.1889 43.7947C48.8735 44.1105 48.4458 44.2879 47.9999 44.2879Z" stroke="#C70100"/>
<path d="M4.86377 48.6574V47.4727H58.4092V48.6574H4.86377Z" fill="#505050"/>
<path d="M4.86377 48.6574V47.4727H58.4092V48.6574H4.86377Z" fill="url(#paint3_linear_1_1816)"/>
<path d="M4.86377 48.6574V47.4727H58.4092V48.6574H4.86377Z" stroke="#C70100"/>
<path d="M21.2273 53.0269V51.8422H40.9546V53.0269H21.2273Z" fill="#505050"/>
<path d="M21.2273 53.0269V51.8422H40.9546V53.0269H21.2273Z" fill="url(#paint4_linear_1_1816)"/>
<path d="M21.2273 53.0269V51.8422H40.9546V53.0269H21.2273Z" stroke="#C70100"/>
<path d="M44.136 53.0269V51.8422H45.3178V53.0269H44.136Z" fill="#505050"/>
<path d="M44.136 53.0269V51.8422H45.3178V53.0269H44.136Z" fill="url(#paint5_linear_1_1816)"/>
<path d="M44.136 53.0269V51.8422H45.3178V53.0269H44.136Z" stroke="#C70100"/>
<path d="M12.0002 44.2879C11.6677 44.2879 11.3426 44.1892 11.0661 44.0041C10.7895 43.8191 10.5738 43.556 10.4465 43.2481C10.3191 42.9401 10.2858 42.6013 10.3507 42.2743C10.4156 41.9474 10.5759 41.6471 10.8112 41.4116C11.0464 41.176 11.3461 41.0156 11.6722 40.9507C11.9983 40.8857 12.3363 40.9191 12.6436 41.0465C12.9508 41.1739 13.2135 41.3898 13.3984 41.6668C13.5833 41.9439 13.682 42.2697 13.682 42.6031C13.682 43.0502 13.5046 43.4788 13.1892 43.7947C12.8737 44.1105 12.446 44.2879 12.0002 44.2879Z" fill="#505050"/>
<path d="M12.0002 44.2879C11.6677 44.2879 11.3426 44.1892 11.0661 44.0041C10.7895 43.8191 10.5738 43.556 10.4465 43.2481C10.3191 42.9401 10.2858 42.6013 10.3507 42.2743C10.4156 41.9474 10.5759 41.6471 10.8112 41.4116C11.0464 41.176 11.3461 41.0156 11.6722 40.9507C11.9983 40.8857 12.3363 40.9191 12.6436 41.0465C12.9508 41.1739 13.2135 41.3898 13.3984 41.6668C13.5833 41.9439 13.682 42.2697 13.682 42.6031C13.682 43.0502 13.5046 43.4788 13.1892 43.7947C12.8737 44.1105 12.446 44.2879 12.0002 44.2879Z" fill="url(#paint6_linear_1_1816)"/>
<path d="M12.0002 44.2879C11.6677 44.2879 11.3426 44.1892 11.0661 44.0041C10.7895 43.8191 10.5738 43.556 10.4465 43.2481C10.3191 42.9401 10.2858 42.6013 10.3507 42.2743C10.4156 41.9474 10.5759 41.6471 10.8112 41.4116C11.0464 41.176 11.3461 41.0156 11.6722 40.9507C11.9983 40.8857 12.3363 40.9191 12.6436 41.0465C12.9508 41.1739 13.2135 41.3898 13.3984 41.6668C13.5833 41.9439 13.682 42.2697 13.682 42.6031C13.682 43.0502 13.5046 43.4788 13.1892 43.7947C12.8737 44.1105 12.446 44.2879 12.0002 44.2879Z" stroke="#C70100"/>
<path d="M17.782 23.5324H13.591V19.2478H13.5912L13.5909 19.235C13.5842 18.9742 13.4912 18.7229 13.3263 18.5207C13.1614 18.3184 12.9339 18.1767 12.6796 18.1179C12.4252 18.0592 12.1586 18.0867 11.9216 18.1962C11.6847 18.3058 11.491 18.491 11.3708 18.7226L11.3666 18.7307L11.3628 18.7389L9.57434 22.5171C9.57424 22.5173 9.57414 22.5175 9.57404 22.5177C9.27381 23.1466 8.8026 23.6778 8.21461 24.0505C7.62665 24.4231 6.94573 24.6222 6.25003 24.6248H4.86377V23.44H6.24939C6.71306 23.4429 7.16843 23.3171 7.5649 23.0765C7.9619 22.8355 8.28421 22.489 8.49603 22.0756L8.50065 22.0666L8.5049 22.0574L10.2722 18.2341L10.2723 18.2341L10.2765 18.2245C10.495 17.7246 10.8803 17.3165 11.3661 17.07C11.852 16.8235 12.4082 16.7539 12.9397 16.8731C13.4711 16.9923 13.9447 17.2929 14.2792 17.7236C14.6138 18.1542 14.7884 18.6881 14.7731 19.2337L14.7729 19.2337V19.2478V21.8476V22.3476H15.2729L17.782 22.3476L17.7837 22.3476C18.1774 22.3462 18.5655 22.4404 18.9148 22.6222C19.2642 22.804 19.5643 23.068 19.7895 23.3916C20.0147 23.7151 20.1582 24.0886 20.2077 24.48C20.2571 24.8713 20.2111 25.2689 20.0734 25.6385L20.0728 25.6402L18.6 29.6383L18.5999 29.6386C18.3163 30.4103 17.8034 31.0763 17.1304 31.5469C16.4574 32.0176 15.6566 32.2705 14.8359 32.2715H4.86377V31.0867L14.8365 31.0867L14.84 31.0867C15.4172 31.0827 15.9794 30.903 16.4522 30.5717C16.9243 30.2407 17.2848 29.7742 17.4862 29.2338L19.0127 25.2377L19.0292 25.1943L19.0375 25.1487C19.0613 25.0177 19.0638 24.8839 19.0448 24.7523C19.0395 24.6016 19.0072 24.4529 18.9495 24.3133L18.4875 24.5045L18.9495 24.3133C18.8861 24.16 18.793 24.0205 18.6757 23.9031C18.5584 23.7856 18.4191 23.6924 18.2657 23.6288C18.1124 23.5652 17.948 23.5324 17.782 23.5324Z" fill="#505050"/>
<path d="M17.782 23.5324H13.591V19.2478H13.5912L13.5909 19.235C13.5842 18.9742 13.4912 18.7229 13.3263 18.5207C13.1614 18.3184 12.9339 18.1767 12.6796 18.1179C12.4252 18.0592 12.1586 18.0867 11.9216 18.1962C11.6847 18.3058 11.491 18.491 11.3708 18.7226L11.3666 18.7307L11.3628 18.7389L9.57434 22.5171C9.57424 22.5173 9.57414 22.5175 9.57404 22.5177C9.27381 23.1466 8.8026 23.6778 8.21461 24.0505C7.62665 24.4231 6.94573 24.6222 6.25003 24.6248H4.86377V23.44H6.24939C6.71306 23.4429 7.16843 23.3171 7.5649 23.0765C7.9619 22.8355 8.28421 22.489 8.49603 22.0756L8.50065 22.0666L8.5049 22.0574L10.2722 18.2341L10.2723 18.2341L10.2765 18.2245C10.495 17.7246 10.8803 17.3165 11.3661 17.07C11.852 16.8235 12.4082 16.7539 12.9397 16.8731C13.4711 16.9923 13.9447 17.2929 14.2792 17.7236C14.6138 18.1542 14.7884 18.6881 14.7731 19.2337L14.7729 19.2337V19.2478V21.8476V22.3476H15.2729L17.782 22.3476L17.7837 22.3476C18.1774 22.3462 18.5655 22.4404 18.9148 22.6222C19.2642 22.804 19.5643 23.068 19.7895 23.3916C20.0147 23.7151 20.1582 24.0886 20.2077 24.48C20.2571 24.8713 20.2111 25.2689 20.0734 25.6385L20.0728 25.6402L18.6 29.6383L18.5999 29.6386C18.3163 30.4103 17.8034 31.0763 17.1304 31.5469C16.4574 32.0176 15.6566 32.2705 14.8359 32.2715H4.86377V31.0867L14.8365 31.0867L14.84 31.0867C15.4172 31.0827 15.9794 30.903 16.4522 30.5717C16.9243 30.2407 17.2848 29.7742 17.4862 29.2338L19.0127 25.2377L19.0292 25.1943L19.0375 25.1487C19.0613 25.0177 19.0638 24.8839 19.0448 24.7523C19.0395 24.6016 19.0072 24.4529 18.9495 24.3133L18.4875 24.5045L18.9495 24.3133C18.8861 24.16 18.793 24.0205 18.6757 23.9031C18.5584 23.7856 18.4191 23.6924 18.2657 23.6288C18.1124 23.5652 17.948 23.5324 17.782 23.5324Z" fill="url(#paint7_linear_1_1816)"/>
<path d="M17.782 23.5324H13.591V19.2478H13.5912L13.5909 19.235C13.5842 18.9742 13.4912 18.7229 13.3263 18.5207C13.1614 18.3184 12.9339 18.1767 12.6796 18.1179C12.4252 18.0592 12.1586 18.0867 11.9216 18.1962C11.6847 18.3058 11.491 18.491 11.3708 18.7226L11.3666 18.7307L11.3628 18.7389L9.57434 22.5171C9.57424 22.5173 9.57414 22.5175 9.57404 22.5177C9.27381 23.1466 8.8026 23.6778 8.21461 24.0505C7.62665 24.4231 6.94573 24.6222 6.25003 24.6248H4.86377V23.44H6.24939C6.71306 23.4429 7.16843 23.3171 7.5649 23.0765C7.9619 22.8355 8.28421 22.489 8.49603 22.0756L8.50065 22.0666L8.5049 22.0574L10.2722 18.2341L10.2723 18.2341L10.2765 18.2245C10.495 17.7246 10.8803 17.3165 11.3661 17.07C11.852 16.8235 12.4082 16.7539 12.9397 16.8731C13.4711 16.9923 13.9447 17.2929 14.2792 17.7236C14.6138 18.1542 14.7884 18.6881 14.7731 19.2337L14.7729 19.2337V19.2478V21.8476V22.3476H15.2729L17.782 22.3476L17.7837 22.3476C18.1774 22.3462 18.5655 22.4404 18.9148 22.6222C19.2642 22.804 19.5643 23.068 19.7895 23.3916C20.0147 23.7151 20.1582 24.0886 20.2077 24.48C20.2571 24.8713 20.2111 25.2689 20.0734 25.6385L20.0728 25.6402L18.6 29.6383L18.5999 29.6386C18.3163 30.4103 17.8034 31.0763 17.1304 31.5469C16.4574 32.0176 15.6566 32.2705 14.8359 32.2715H4.86377V31.0867L14.8365 31.0867L14.84 31.0867C15.4172 31.0827 15.9794 30.903 16.4522 30.5717C16.9243 30.2407 17.2848 29.7742 17.4862 29.2338L19.0127 25.2377L19.0292 25.1943L19.0375 25.1487C19.0613 25.0177 19.0638 24.8839 19.0448 24.7523C19.0395 24.6016 19.0072 24.4529 18.9495 24.3133L18.4875 24.5045L18.9495 24.3133C18.8861 24.16 18.793 24.0205 18.6757 23.9031C18.5584 23.7856 18.4191 23.6924 18.2657 23.6288C18.1124 23.5652 17.948 23.5324 17.782 23.5324Z" stroke="#C70100"/>
<path d="M20.727 18.0708H20.227V18.5708V28.4022V28.9022H20.727H31.6361H32.1361V28.4022V18.5708V18.0708H31.6361H20.727ZM31.6361 30.087H20.727C20.2812 30.087 19.8534 29.9097 19.538 29.5938C19.2225 29.2779 19.0452 28.8493 19.0452 28.4022V18.5708C19.0452 18.1237 19.2225 17.6951 19.538 17.3792C19.8534 17.0633 20.2812 16.886 20.727 16.886H31.6361C32.0819 16.886 32.5096 17.0633 32.8251 17.3792C33.1405 17.6951 33.3179 18.1237 33.3179 18.5708V28.4022C33.3179 28.8493 33.1405 29.2779 32.8251 29.5938C32.5096 29.9097 32.0819 30.087 31.6361 30.087Z" fill="#505050"/>
<path d="M20.727 18.0708H20.227V18.5708V28.4022V28.9022H20.727H31.6361H32.1361V28.4022V18.5708V18.0708H31.6361H20.727ZM31.6361 30.087H20.727C20.2812 30.087 19.8534 29.9097 19.538 29.5938C19.2225 29.2779 19.0452 28.8493 19.0452 28.4022V18.5708C19.0452 18.1237 19.2225 17.6951 19.538 17.3792C19.8534 17.0633 20.2812 16.886 20.727 16.886H31.6361C32.0819 16.886 32.5096 17.0633 32.8251 17.3792C33.1405 17.6951 33.3179 18.1237 33.3179 18.5708V28.4022C33.3179 28.8493 33.1405 29.2779 32.8251 29.5938C32.5096 29.9097 32.0819 30.087 31.6361 30.087Z" fill="url(#paint8_linear_1_1816)"/>
<path d="M20.727 18.0708H20.227V18.5708V28.4022V28.9022H20.727H31.6361H32.1361V28.4022V18.5708V18.0708H31.6361H20.727ZM31.6361 30.087H20.727C20.2812 30.087 19.8534 29.9097 19.538 29.5938C19.2225 29.2779 19.0452 28.8493 19.0452 28.4022V18.5708C19.0452 18.1237 19.2225 17.6951 19.538 17.3792C19.8534 17.0633 20.2812 16.886 20.727 16.886H31.6361C32.0819 16.886 32.5096 17.0633 32.8251 17.3792C33.1405 17.6951 33.3179 18.1237 33.3179 18.5708V28.4022C33.3179 28.8493 33.1405 29.2779 32.8251 29.5938C32.5096 29.9097 32.0819 30.087 31.6361 30.087Z" stroke="#C70100"/>
<path d="M25.5908 20.2553V17.9781H26.7726V20.2553H25.5908Z" fill="#505050"/>
<path d="M25.5908 20.2553V17.9781H26.7726V20.2553H25.5908Z" fill="url(#paint9_linear_1_1816)"/>
<path d="M25.5908 20.2553V17.9781H26.7726V20.2553H25.5908Z" stroke="#C70100"/>
<path d="M37.5908 38.8261V10.3317H38.7726V38.8261H37.5908Z" fill="#505050"/>
<path d="M37.5908 38.8261V10.3317H38.7726V38.8261H37.5908Z" fill="url(#paint10_linear_1_1816)"/>
<path d="M37.5908 38.8261V10.3317H38.7726V38.8261H37.5908Z" stroke="#C70100"/>
<path d="M41.9546 25.7172V24.5325H53.5982V25.7172H41.9546Z" fill="#505050"/>
<path d="M41.9546 25.7172V24.5325H53.5982V25.7172H41.9546Z" fill="url(#paint11_linear_1_1816)"/>
<path d="M41.9546 25.7172V24.5325H53.5982V25.7172H41.9546Z" stroke="#C70100"/>
<path d="M41.9546 30.0867V28.902H44.2273V30.0867H41.9546Z" fill="#505050"/>
<path d="M41.9546 30.0867V28.902H44.2273V30.0867H41.9546Z" fill="url(#paint12_linear_1_1816)"/>
<path d="M41.9546 30.0867V28.902H44.2273V30.0867H41.9546Z" stroke="#C70100"/>
<path d="M13.5911 1.68477V0.5H31.1365V1.68477H13.5911Z" fill="#505050"/>
<path d="M13.5911 1.68477V0.5H31.1365V1.68477H13.5911Z" fill="url(#paint13_linear_1_1816)"/>
<path d="M13.5911 1.68477V0.5H31.1365V1.68477H13.5911Z" stroke="#C70100"/>
<path d="M23.4087 6.05428V4.86951H34.4087V6.05428H23.4087Z" fill="#505050"/>
<path d="M23.4087 6.05428V4.86951H34.4087V6.05428H23.4087Z" fill="url(#paint14_linear_1_1816)"/>
<path d="M23.4087 6.05428V4.86951H34.4087V6.05428H23.4087Z" stroke="#C70100"/>
<path d="M37.5908 6.05428V4.86951H38.7726V6.05428H37.5908Z" fill="#505050"/>
<path d="M37.5908 6.05428V4.86951H38.7726V6.05428H37.5908Z" fill="url(#paint15_linear_1_1816)"/>
<path d="M37.5908 6.05428V4.86951H38.7726V6.05428H37.5908Z" stroke="#C70100"/>
<path d="M21.2273 38.8261V37.6414H22.4091V38.8261H21.2273Z" fill="#505050"/>
<path d="M21.2273 38.8261V37.6414H22.4091V38.8261H21.2273Z" fill="url(#paint16_linear_1_1816)"/>
<path d="M21.2273 38.8261V37.6414H22.4091V38.8261H21.2273Z" stroke="#C70100"/>
<path d="M25.5908 38.8261V37.6414H26.7726V38.8261H25.5908Z" fill="#505050"/>
<path d="M25.5908 38.8261V37.6414H26.7726V38.8261H25.5908Z" fill="url(#paint17_linear_1_1816)"/>
<path d="M25.5908 38.8261V37.6414H26.7726V38.8261H25.5908Z" stroke="#C70100"/>
<path d="M29.9546 38.8261V37.6414H31.1364V38.8261H29.9546Z" fill="#505050"/>
<path d="M29.9546 38.8261V37.6414H31.1364V38.8261H29.9546Z" fill="url(#paint18_linear_1_1816)"/>
<path d="M29.9546 38.8261V37.6414H31.1364V38.8261H29.9546Z" stroke="#C70100"/>
<path d="M55.6364 43.1954H53.9545V42.0106H55.6364C56.3478 42.0106 57.03 41.7276 57.5329 41.224C58.0358 40.7204 58.3182 40.0376 58.3182 39.3258V31.6791H58.3183L58.3181 31.67C58.3115 31.3091 58.1826 30.961 57.9524 30.683L57.9516 30.682L41.5918 11.0236C41.446 10.8406 41.2617 10.6919 41.0519 10.5882C40.84 10.4835 40.6074 10.4273 40.371 10.4238V10.4238H40.3636H4.36364C3.65216 10.4238 2.96995 10.7068 2.46706 11.2104C1.9642 11.7139 1.68182 12.3967 1.68182 13.1086V39.3258C1.68182 40.0376 1.9642 40.7204 2.46706 41.224L2.82086 40.8707L2.46707 41.224C2.96995 41.7276 3.65216 42.0106 4.36364 42.0106H6.04545V43.1954H4.36364C3.33915 43.1954 2.3565 42.7878 1.63187 42.0622C0.907226 41.3366 0.5 40.3523 0.5 39.3258V13.1086C0.5 12.0821 0.907226 11.0978 1.63187 10.3721C2.3565 9.64653 3.33915 9.23901 4.36364 9.23901H40.3629C40.7638 9.24022 41.1597 9.32849 41.5232 9.49775L41.7341 9.04484L41.5232 9.49775C41.8864 9.66679 42.2086 9.91261 42.4679 10.2183C42.4684 10.2189 42.4688 10.2195 42.4693 10.22L58.8298 29.9338L58.8297 29.9339L58.8368 29.9421C59.2561 30.4255 59.491 31.042 59.5 31.6824V39.3258C59.5 40.3523 59.0928 41.3366 58.3681 42.0622C57.6435 42.7878 56.6609 43.1954 55.6364 43.1954Z" fill="#505050"/>
<path d="M55.6364 43.1954H53.9545V42.0106H55.6364C56.3478 42.0106 57.03 41.7276 57.5329 41.224C58.0358 40.7204 58.3182 40.0376 58.3182 39.3258V31.6791H58.3183L58.3181 31.67C58.3115 31.3091 58.1826 30.961 57.9524 30.683L57.9516 30.682L41.5918 11.0236C41.446 10.8406 41.2617 10.6919 41.0519 10.5882C40.84 10.4835 40.6074 10.4273 40.371 10.4238V10.4238H40.3636H4.36364C3.65216 10.4238 2.96995 10.7068 2.46706 11.2104C1.9642 11.7139 1.68182 12.3967 1.68182 13.1086V39.3258C1.68182 40.0376 1.9642 40.7204 2.46706 41.224L2.82086 40.8707L2.46707 41.224C2.96995 41.7276 3.65216 42.0106 4.36364 42.0106H6.04545V43.1954H4.36364C3.33915 43.1954 2.3565 42.7878 1.63187 42.0622C0.907226 41.3366 0.5 40.3523 0.5 39.3258V13.1086C0.5 12.0821 0.907226 11.0978 1.63187 10.3721C2.3565 9.64653 3.33915 9.23901 4.36364 9.23901H40.3629C40.7638 9.24022 41.1597 9.32849 41.5232 9.49775L41.7341 9.04484L41.5232 9.49775C41.8864 9.66679 42.2086 9.91261 42.4679 10.2183C42.4684 10.2189 42.4688 10.2195 42.4693 10.22L58.8298 29.9338L58.8297 29.9339L58.8368 29.9421C59.2561 30.4255 59.491 31.042 59.5 31.6824V39.3258C59.5 40.3523 59.0928 41.3366 58.3681 42.0622C57.6435 42.7878 56.6609 43.1954 55.6364 43.1954Z" fill="url(#paint19_linear_1_1816)"/>
<path d="M55.6364 43.1954H53.9545V42.0106H55.6364C56.3478 42.0106 57.03 41.7276 57.5329 41.224C58.0358 40.7204 58.3182 40.0376 58.3182 39.3258V31.6791H58.3183L58.3181 31.67C58.3115 31.3091 58.1826 30.961 57.9524 30.683L57.9516 30.682L41.5918 11.0236C41.446 10.8406 41.2617 10.6919 41.0519 10.5882C40.84 10.4835 40.6074 10.4273 40.371 10.4238V10.4238H40.3636H4.36364C3.65216 10.4238 2.96995 10.7068 2.46706 11.2104C1.9642 11.7139 1.68182 12.3967 1.68182 13.1086V39.3258C1.68182 40.0376 1.9642 40.7204 2.46706 41.224L2.82086 40.8707L2.46707 41.224C2.96995 41.7276 3.65216 42.0106 4.36364 42.0106H6.04545V43.1954H4.36364C3.33915 43.1954 2.3565 42.7878 1.63187 42.0622C0.907226 41.3366 0.5 40.3523 0.5 39.3258V13.1086C0.5 12.0821 0.907226 11.0978 1.63187 10.3721C2.3565 9.64653 3.33915 9.23901 4.36364 9.23901H40.3629C40.7638 9.24022 41.1597 9.32849 41.5232 9.49775L41.7341 9.04484L41.5232 9.49775C41.8864 9.66679 42.2086 9.91261 42.4679 10.2183C42.4684 10.2189 42.4688 10.2195 42.4693 10.22L58.8298 29.9338L58.8297 29.9339L58.8368 29.9421C59.2561 30.4255 59.491 31.042 59.5 31.6824V39.3258C59.5 40.3523 59.0928 41.3366 58.3681 42.0622C57.6435 42.7878 56.6609 43.1954 55.6364 43.1954Z" stroke="#C70100"/>
<path d="M17.9546 43.1956V42.0109H42.0455V43.1956H17.9546Z" fill="#505050"/>
<path d="M17.9546 43.1956V42.0109H42.0455V43.1956H17.9546Z" fill="url(#paint20_linear_1_1816)"/>
<path d="M17.9546 43.1956V42.0109H42.0455V43.1956H17.9546Z" stroke="#C70100"/>
<path d="M54.5451 33.2714H58.4087V34.4562H52.8633V31.0867H54.0451V32.7714V33.2714H54.5451Z" fill="#505050"/>
<path d="M54.5451 33.2714H58.4087V34.4562H52.8633V31.0867H54.0451V32.7714V33.2714H54.5451Z" fill="url(#paint21_linear_1_1816)"/>
<path d="M54.5451 33.2714H58.4087V34.4562H52.8633V31.0867H54.0451V32.7714V33.2714H54.5451Z" stroke="#C70100"/>
<defs>
<linearGradient id="paint0_linear_1_1816" x1="12.0003" y1="49.1413" x2="12.0003" y2="36.0332" gradientUnits="userSpaceOnUse">
<stop stop-color="#919191"/>
<stop offset="0.07" stop-color="#ABABAB"/>
<stop offset="0.2" stop-color="#A2A2A2"/>
<stop offset="0.38" stop-color="#8E8E8E"/>
<stop offset="0.48" stop-color="#6E6E6E"/>
<stop offset="0.49" stop-color="#262626"/>
<stop offset="1" stop-color="#B5B5B5"/>
</linearGradient>
<linearGradient id="paint1_linear_1_1816" x1="48" y1="49.1413" x2="48" y2="36.0332" gradientUnits="userSpaceOnUse">
<stop stop-color="#919191"/>
<stop offset="0.07" stop-color="#ABABAB"/>
<stop offset="0.2" stop-color="#A2A2A2"/>
<stop offset="0.38" stop-color="#8E8E8E"/>
<stop offset="0.48" stop-color="#6E6E6E"/>
<stop offset="0.49" stop-color="#262626"/>
<stop offset="1" stop-color="#B5B5B5"/>
</linearGradient>
<linearGradient id="paint2_linear_1_1816" x1="47.9999" y1="44.7825" x2="47.9999" y2="40.4131" gradientUnits="userSpaceOnUse">
<stop stop-color="#919191"/>
<stop offset="0.07" stop-color="#ABABAB"/>
<stop offset="0.2" stop-color="#A2A2A2"/>
<stop offset="0.38" stop-color="#8E8E8E"/>
<stop offset="0.48" stop-color="#6E6E6E"/>
<stop offset="0.49" stop-color="#262626"/>
<stop offset="1" stop-color="#B5B5B5"/>
</linearGradient>
<linearGradient id="paint3_linear_1_1816" x1="31.6365" y1="49.1547" x2="31.6365" y2="46.97" gradientUnits="userSpaceOnUse">
<stop stop-color="#919191"/>
<stop offset="0.07" stop-color="#ABABAB"/>
<stop offset="0.2" stop-color="#A2A2A2"/>
<stop offset="0.38" stop-color="#8E8E8E"/>
<stop offset="0.48" stop-color="#6E6E6E"/>
<stop offset="0.49" stop-color="#262626"/>
<stop offset="1" stop-color="#B5B5B5"/>
</linearGradient>
<linearGradient id="paint4_linear_1_1816" x1="31.0909" y1="53.5242" x2="31.0909" y2="51.3396" gradientUnits="userSpaceOnUse">
<stop stop-color="#919191"/>
<stop offset="0.07" stop-color="#ABABAB"/>
<stop offset="0.2" stop-color="#A2A2A2"/>
<stop offset="0.38" stop-color="#8E8E8E"/>
<stop offset="0.48" stop-color="#6E6E6E"/>
<stop offset="0.49" stop-color="#262626"/>
<stop offset="1" stop-color="#B5B5B5"/>
</linearGradient>
<linearGradient id="paint5_linear_1_1816" x1="44.7269" y1="53.5242" x2="44.7269" y2="51.3396" gradientUnits="userSpaceOnUse">
<stop stop-color="#919191"/>
<stop offset="0.07" stop-color="#ABABAB"/>
<stop offset="0.2" stop-color="#A2A2A2"/>
<stop offset="0.38" stop-color="#8E8E8E"/>
<stop offset="0.48" stop-color="#6E6E6E"/>
<stop offset="0.49" stop-color="#262626"/>
<stop offset="1" stop-color="#B5B5B5"/>
</linearGradient>
<linearGradient id="paint6_linear_1_1816" x1="12.0002" y1="44.7825" x2="12.0002" y2="40.4131" gradientUnits="userSpaceOnUse">
<stop stop-color="#919191"/>
<stop offset="0.07" stop-color="#ABABAB"/>
<stop offset="0.2" stop-color="#A2A2A2"/>
<stop offset="0.38" stop-color="#8E8E8E"/>
<stop offset="0.48" stop-color="#6E6E6E"/>
<stop offset="0.49" stop-color="#262626"/>
<stop offset="1" stop-color="#B5B5B5"/>
</linearGradient>
<linearGradient id="paint7_linear_1_1816" x1="12.5454" y1="32.7512" x2="12.5454" y2="16.2966" gradientUnits="userSpaceOnUse">
<stop stop-color="#919191"/>
<stop offset="0.07" stop-color="#ABABAB"/>
<stop offset="0.2" stop-color="#A2A2A2"/>
<stop offset="0.38" stop-color="#8E8E8E"/>
<stop offset="0.48" stop-color="#6E6E6E"/>
<stop offset="0.49" stop-color="#262626"/>
<stop offset="1" stop-color="#B5B5B5"/>
</linearGradient>
<linearGradient id="paint8_linear_1_1816" x1="26.1815" y1="30.5695" x2="26.1815" y2="16.369" gradientUnits="userSpaceOnUse">
<stop stop-color="#919191"/>
<stop offset="0.07" stop-color="#ABABAB"/>
<stop offset="0.2" stop-color="#A2A2A2"/>
<stop offset="0.38" stop-color="#8E8E8E"/>
<stop offset="0.48" stop-color="#6E6E6E"/>
<stop offset="0.49" stop-color="#262626"/>
<stop offset="1" stop-color="#B5B5B5"/>
</linearGradient>
<linearGradient id="paint9_linear_1_1816" x1="26.1817" y1="20.7513" x2="26.1817" y2="17.4742" gradientUnits="userSpaceOnUse">
<stop stop-color="#919191"/>
<stop offset="0.07" stop-color="#ABABAB"/>
<stop offset="0.2" stop-color="#A2A2A2"/>
<stop offset="0.38" stop-color="#8E8E8E"/>
<stop offset="0.48" stop-color="#6E6E6E"/>
<stop offset="0.49" stop-color="#262626"/>
<stop offset="1" stop-color="#B5B5B5"/>
</linearGradient>
<linearGradient id="paint10_linear_1_1816" x1="38.1817" y1="39.2897" x2="38.1817" y2="9.79647" gradientUnits="userSpaceOnUse">
<stop stop-color="#919191"/>
<stop offset="0.07" stop-color="#ABABAB"/>
<stop offset="0.2" stop-color="#A2A2A2"/>
<stop offset="0.38" stop-color="#8E8E8E"/>
<stop offset="0.48" stop-color="#6E6E6E"/>
<stop offset="0.49" stop-color="#262626"/>
<stop offset="1" stop-color="#B5B5B5"/>
</linearGradient>
<linearGradient id="paint11_linear_1_1816" x1="47.7764" y1="26.2145" x2="47.7764" y2="24.0299" gradientUnits="userSpaceOnUse">
<stop stop-color="#919191"/>
<stop offset="0.07" stop-color="#ABABAB"/>
<stop offset="0.2" stop-color="#A2A2A2"/>
<stop offset="0.38" stop-color="#8E8E8E"/>
<stop offset="0.48" stop-color="#6E6E6E"/>
<stop offset="0.49" stop-color="#262626"/>
<stop offset="1" stop-color="#B5B5B5"/>
</linearGradient>
<linearGradient id="paint12_linear_1_1816" x1="43.091" y1="30.5841" x2="43.091" y2="28.3994" gradientUnits="userSpaceOnUse">
<stop stop-color="#919191"/>
<stop offset="0.07" stop-color="#ABABAB"/>
<stop offset="0.2" stop-color="#A2A2A2"/>
<stop offset="0.38" stop-color="#8E8E8E"/>
<stop offset="0.48" stop-color="#6E6E6E"/>
<stop offset="0.49" stop-color="#262626"/>
<stop offset="1" stop-color="#B5B5B5"/>
</linearGradient>
<linearGradient id="paint13_linear_1_1816" x1="22.3638" y1="2.18208" x2="22.3638" y2="-0.00260721" gradientUnits="userSpaceOnUse">
<stop stop-color="#919191"/>
<stop offset="0.07" stop-color="#ABABAB"/>
<stop offset="0.2" stop-color="#A2A2A2"/>
<stop offset="0.38" stop-color="#8E8E8E"/>
<stop offset="0.48" stop-color="#6E6E6E"/>
<stop offset="0.49" stop-color="#262626"/>
<stop offset="1" stop-color="#B5B5B5"/>
</linearGradient>
<linearGradient id="paint14_linear_1_1816" x1="28.9087" y1="6.55158" x2="28.9087" y2="4.3669" gradientUnits="userSpaceOnUse">
<stop stop-color="#919191"/>
<stop offset="0.07" stop-color="#ABABAB"/>
<stop offset="0.2" stop-color="#A2A2A2"/>
<stop offset="0.38" stop-color="#8E8E8E"/>
<stop offset="0.48" stop-color="#6E6E6E"/>
<stop offset="0.49" stop-color="#262626"/>
<stop offset="1" stop-color="#B5B5B5"/>
</linearGradient>
<linearGradient id="paint15_linear_1_1816" x1="38.1817" y1="6.55158" x2="38.1817" y2="4.3669" gradientUnits="userSpaceOnUse">
<stop stop-color="#919191"/>
<stop offset="0.07" stop-color="#ABABAB"/>
<stop offset="0.2" stop-color="#A2A2A2"/>
<stop offset="0.38" stop-color="#8E8E8E"/>
<stop offset="0.48" stop-color="#6E6E6E"/>
<stop offset="0.49" stop-color="#262626"/>
<stop offset="1" stop-color="#B5B5B5"/>
</linearGradient>
<linearGradient id="paint16_linear_1_1816" x1="21.8182" y1="39.3234" x2="21.8182" y2="37.1388" gradientUnits="userSpaceOnUse">
<stop stop-color="#919191"/>
<stop offset="0.07" stop-color="#ABABAB"/>
<stop offset="0.2" stop-color="#A2A2A2"/>
<stop offset="0.38" stop-color="#8E8E8E"/>
<stop offset="0.48" stop-color="#6E6E6E"/>
<stop offset="0.49" stop-color="#262626"/>
<stop offset="1" stop-color="#B5B5B5"/>
</linearGradient>
<linearGradient id="paint17_linear_1_1816" x1="26.1817" y1="39.3234" x2="26.1817" y2="37.1388" gradientUnits="userSpaceOnUse">
<stop stop-color="#919191"/>
<stop offset="0.07" stop-color="#ABABAB"/>
<stop offset="0.2" stop-color="#A2A2A2"/>
<stop offset="0.38" stop-color="#8E8E8E"/>
<stop offset="0.48" stop-color="#6E6E6E"/>
<stop offset="0.49" stop-color="#262626"/>
<stop offset="1" stop-color="#B5B5B5"/>
</linearGradient>
<linearGradient id="paint18_linear_1_1816" x1="30.5455" y1="39.3234" x2="30.5455" y2="37.1388" gradientUnits="userSpaceOnUse">
<stop stop-color="#919191"/>
<stop offset="0.07" stop-color="#ABABAB"/>
<stop offset="0.2" stop-color="#A2A2A2"/>
<stop offset="0.38" stop-color="#8E8E8E"/>
<stop offset="0.48" stop-color="#6E6E6E"/>
<stop offset="0.49" stop-color="#262626"/>
<stop offset="1" stop-color="#B5B5B5"/>
</linearGradient>
<linearGradient id="paint19_linear_1_1816" x1="30" y1="43.6522" x2="30" y2="8.6973" gradientUnits="userSpaceOnUse">
<stop stop-color="#919191"/>
<stop offset="0.07" stop-color="#ABABAB"/>
<stop offset="0.2" stop-color="#A2A2A2"/>
<stop offset="0.38" stop-color="#8E8E8E"/>
<stop offset="0.48" stop-color="#6E6E6E"/>
<stop offset="0.49" stop-color="#262626"/>
<stop offset="1" stop-color="#B5B5B5"/>
</linearGradient>
<linearGradient id="paint20_linear_1_1816" x1="30" y1="43.6929" x2="30" y2="41.5083" gradientUnits="userSpaceOnUse">
<stop stop-color="#919191"/>
<stop offset="0.07" stop-color="#ABABAB"/>
<stop offset="0.2" stop-color="#A2A2A2"/>
<stop offset="0.38" stop-color="#8E8E8E"/>
<stop offset="0.48" stop-color="#6E6E6E"/>
<stop offset="0.49" stop-color="#262626"/>
<stop offset="1" stop-color="#B5B5B5"/>
</linearGradient>
<linearGradient id="paint21_linear_1_1816" x1="55.636" y1="34.9508" x2="55.636" y2="30.5815" gradientUnits="userSpaceOnUse">
<stop stop-color="#919191"/>
<stop offset="0.07" stop-color="#ABABAB"/>
<stop offset="0.2" stop-color="#A2A2A2"/>
<stop offset="0.38" stop-color="#8E8E8E"/>
<stop offset="0.48" stop-color="#6E6E6E"/>
<stop offset="0.49" stop-color="#262626"/>
<stop offset="1" stop-color="#B5B5B5"/>
</linearGradient>
</defs>
</svg>
