<svg width="59" height="54" viewBox="0 0 59 54" fill="none" xmlns="http://www.w3.org/2000/svg">
<path d="M27.1001 52.6765V51.7428H28.0335V52.6765H27.1001Z" fill="#505050"/>
<path d="M27.1001 52.6765V51.7428H28.0335V52.6765H27.1001Z" fill="url(#paint0_linear_1_1930)"/>
<path d="M27.1001 52.6765V51.7428H28.0335V52.6765H27.1001Z" stroke="#C70100"/>
<path d="M30.9666 52.6765V51.7428H47.3668V52.6765H30.9666Z" fill="#505050"/>
<path d="M30.9666 52.6765V51.7428H47.3668V52.6765H30.9666Z" fill="url(#paint1_linear_1_1930)"/>
<path d="M30.9666 52.6765V51.7428H47.3668V52.6765H30.9666Z" stroke="#C70100"/>
<path d="M57.0664 48.8091V47.8754H57.9998V48.8091H57.0664Z" fill="#505050"/>
<path d="M57.0664 48.8091V47.8754H57.9998V48.8091H57.0664Z" fill="url(#paint2_linear_1_1930)"/>
<path d="M57.0664 48.8091V47.8754H57.9998V48.8091H57.0664Z" stroke="#C70100"/>
<path d="M4.86597 47.8425V5.33435H5.79933V47.8425H4.86597Z" fill="#505050"/>
<path d="M4.86597 47.8425V5.33435H5.79933V47.8425H4.86597Z" fill="url(#paint3_linear_1_1930)"/>
<path d="M4.86597 47.8425V5.33435H5.79933V47.8425H4.86597Z" stroke="#C70100"/>
<path d="M51.2673 47.8425V5.33435H52.2007V47.8425H51.2673Z" fill="#505050"/>
<path d="M51.2673 47.8425V5.33435H52.2007V47.8425H51.2673Z" fill="url(#paint4_linear_1_1930)"/>
<path d="M51.2673 47.8425V5.33435H52.2007V47.8425H51.2673Z" stroke="#C70100"/>
<path d="M4.89488 4.33424C5.00696 3.36879 5.44125 2.46352 6.13522 1.76944C6.94789 0.956618 8.0501 0.5 9.19936 0.5H47.8665C49.0158 0.5 50.118 0.956617 50.9307 1.76943C51.6246 2.46352 52.0589 3.36879 52.171 4.33424H51.2296C51.1231 3.61736 50.7893 2.94839 50.2707 2.42972C49.6331 1.79199 48.7683 1.4337 47.8665 1.4337H9.19936C8.29759 1.4337 7.43276 1.79198 6.79514 2.42972C6.27656 2.9484 5.94281 3.61736 5.83626 4.33424H4.89488Z" fill="#505050"/>
<path d="M4.89488 4.33424C5.00696 3.36879 5.44125 2.46352 6.13522 1.76944C6.94789 0.956618 8.0501 0.5 9.19936 0.5H47.8665C49.0158 0.5 50.118 0.956617 50.9307 1.76943C51.6246 2.46352 52.0589 3.36879 52.171 4.33424H51.2296C51.1231 3.61736 50.7893 2.94839 50.2707 2.42972C49.6331 1.79199 48.7683 1.4337 47.8665 1.4337H9.19936C8.29759 1.4337 7.43276 1.79198 6.79514 2.42972C6.27656 2.9484 5.94281 3.61736 5.83626 4.33424H4.89488Z" fill="url(#paint5_linear_1_1930)"/>
<path d="M4.89488 4.33424C5.00696 3.36879 5.44125 2.46352 6.13522 1.76944C6.94789 0.956618 8.0501 0.5 9.19936 0.5H47.8665C49.0158 0.5 50.118 0.956617 50.9307 1.76943C51.6246 2.46352 52.0589 3.36879 52.171 4.33424H51.2296C51.1231 3.61736 50.7893 2.94839 50.2707 2.42972C49.6331 1.79199 48.7683 1.4337 47.8665 1.4337H9.19936C8.29759 1.4337 7.43276 1.79198 6.79514 2.42972C6.27656 2.9484 5.94281 3.61736 5.83626 4.33424H4.89488Z" stroke="#C70100"/>
<path d="M5.83276 11.1022V10.1685H51.2334V11.1022H5.83276Z" fill="#505050"/>
<path d="M5.83276 11.1022V10.1685H51.2334V11.1022H5.83276Z" fill="url(#paint6_linear_1_1930)"/>
<path d="M5.83276 11.1022V10.1685H51.2334V11.1022H5.83276Z" stroke="#C70100"/>
<path d="M8.73291 47.8423V11.1353H9.66627V47.8423H8.73291Z" fill="#505050"/>
<path d="M8.73291 47.8423V11.1353H9.66627V47.8423H8.73291Z" fill="url(#paint7_linear_1_1930)"/>
<path d="M8.73291 47.8423V11.1353H9.66627V47.8423H8.73291Z" stroke="#C70100"/>
<path d="M46.4338 47.8423V11.1353H47.3672V47.8423H46.4338Z" fill="#505050"/>
<path d="M46.4338 47.8423V11.1353H47.3672V47.8423H46.4338Z" fill="url(#paint8_linear_1_1930)"/>
<path d="M46.4338 47.8423V11.1353H47.3672V47.8423H46.4338Z" stroke="#C70100"/>
<path d="M9.69995 14.9696V14.0359H35.767V14.9696H9.69995Z" fill="#505050"/>
<path d="M9.69995 14.9696V14.0359H35.767V14.9696H9.69995Z" fill="url(#paint9_linear_1_1930)"/>
<path d="M9.69995 14.9696V14.0359H35.767V14.9696H9.69995Z" stroke="#C70100"/>
<path d="M9.69995 18.8371V17.9034H46.4004V18.8371H9.69995Z" fill="#505050"/>
<path d="M9.69995 18.8371V17.9034H46.4004V18.8371H9.69995Z" fill="url(#paint10_linear_1_1930)"/>
<path d="M9.69995 18.8371V17.9034H46.4004V18.8371H9.69995Z" stroke="#C70100"/>
<path d="M13.5332 23.2043V32.3728H12.5999V23.2043C12.5999 22.8241 12.7509 22.4594 13.0197 22.1905C13.2885 21.9217 13.6531 21.7706 14.0332 21.7706H27.5667C27.9468 21.7706 28.3114 21.9217 28.5802 22.1905C28.849 22.4594 29.0001 22.8241 29.0001 23.2043V25.6049H28.0667V23.2043V22.7043H27.5667H14.0332H13.5332V23.2043Z" fill="#505050"/>
<path d="M13.5332 23.2043V32.3728H12.5999V23.2043C12.5999 22.8241 12.7509 22.4594 13.0197 22.1905C13.2885 21.9217 13.6531 21.7706 14.0332 21.7706H27.5667C27.9468 21.7706 28.3114 21.9217 28.5802 22.1905C28.849 22.4594 29.0001 22.8241 29.0001 23.2043V25.6049H28.0667V23.2043V22.7043H27.5667H14.0332H13.5332V23.2043Z" fill="url(#paint11_linear_1_1930)"/>
<path d="M13.5332 23.2043V32.3728H12.5999V23.2043C12.5999 22.8241 12.7509 22.4594 13.0197 22.1905C13.2885 21.9217 13.6531 21.7706 14.0332 21.7706H27.5667C27.9468 21.7706 28.3114 21.9217 28.5802 22.1905C28.849 22.4594 29.0001 22.8241 29.0001 23.2043V25.6049H28.0667V23.2043V22.7043H27.5667H14.0332H13.5332V23.2043Z" stroke="#C70100"/>
<path d="M34.8003 27.0718V32.3728H33.867V27.0718V26.5718H33.367H25.6335H25.1335V27.0718V32.3728H24.2002V27.0718V27.0611L24.1997 27.0504C24.1844 26.6917 24.3118 26.3416 24.5541 26.0768C24.794 25.8146 25.1271 25.6572 25.4816 25.6381H33.5189C33.8734 25.6572 34.2065 25.8146 34.4464 26.0768C34.6887 26.3416 34.8161 26.6917 34.8008 27.0504L34.8003 27.0611V27.0718Z" fill="#505050"/>
<path d="M34.8003 27.0718V32.3728H33.867V27.0718V26.5718H33.367H25.6335H25.1335V27.0718V32.3728H24.2002V27.0718V27.0611L24.1997 27.0504C24.1844 26.6917 24.3118 26.3416 24.5541 26.0768C24.794 25.8146 25.1271 25.6572 25.4816 25.6381H33.5189C33.8734 25.6572 34.2065 25.8146 34.4464 26.0768C34.6887 26.3416 34.8161 26.6917 34.8008 27.0504L34.8003 27.0611V27.0718Z" fill="url(#paint12_linear_1_1930)"/>
<path d="M34.8003 27.0718V32.3728H33.867V27.0718V26.5718H33.367H25.6335H25.1335V27.0718V32.3728H24.2002V27.0718V27.0611L24.1997 27.0504C24.1844 26.6917 24.3118 26.3416 24.5541 26.0768C24.794 25.8146 25.1271 25.6572 25.4816 25.6381H33.5189C33.8734 25.6572 34.2065 25.8146 34.4464 26.0768C34.6887 26.3416 34.8161 26.6917 34.8008 27.0504L34.8003 27.0611V27.0718Z" stroke="#C70100"/>
<path d="M33.8335 23.2043V25.6049H32.9001V23.2043C32.9001 22.8241 33.0512 22.4594 33.32 22.1905C33.5888 21.9217 33.9534 21.7706 34.3335 21.7706H42.0669C42.4471 21.7706 42.8116 21.9217 43.0804 22.1905C43.3493 22.4594 43.5003 22.8241 43.5003 23.2043V32.3728H42.5669V23.2043V22.7043H42.0669H34.3335H33.8335V23.2043Z" fill="#505050"/>
<path d="M33.8335 23.2043V25.6049H32.9001V23.2043C32.9001 22.8241 33.0512 22.4594 33.32 22.1905C33.5888 21.9217 33.9534 21.7706 34.3335 21.7706H42.0669C42.4471 21.7706 42.8116 21.9217 43.0804 22.1905C43.3493 22.4594 43.5003 22.8241 43.5003 23.2043V32.3728H42.5669V23.2043V22.7043H42.0669H34.3335H33.8335V23.2043Z" fill="url(#paint13_linear_1_1930)"/>
<path d="M33.8335 23.2043V25.6049H32.9001V23.2043C32.9001 22.8241 33.0512 22.4594 33.32 22.1905C33.5888 21.9217 33.9534 21.7706 34.3335 21.7706H42.0669C42.4471 21.7706 42.8116 21.9217 43.0804 22.1905C43.3493 22.4594 43.5003 22.8241 43.5003 23.2043V32.3728H42.5669V23.2043V22.7043H42.0669H34.3335H33.8335V23.2043Z" stroke="#C70100"/>
<path d="M9.69995 33.3396V32.4059H46.4004V33.3396H9.69995Z" fill="#505050"/>
<path d="M9.69995 33.3396V32.4059H46.4004V33.3396H9.69995Z" fill="url(#paint14_linear_1_1930)"/>
<path d="M9.69995 33.3396V32.4059H46.4004V33.3396H9.69995Z" stroke="#C70100"/>
<path d="M13.5332 37.7071V47.8425H12.5999V37.7071C12.5999 37.3269 12.7509 36.9622 13.0197 36.6933C13.2885 36.4245 13.6531 36.2734 14.0332 36.2734H23.7C24.0801 36.2734 24.4447 36.4245 24.7135 36.6933C24.9823 36.9622 25.1334 37.3269 25.1334 37.7071V40.1077H24.2V37.7071V37.2071H23.7H14.0332H13.5332V37.7071Z" fill="#505050"/>
<path d="M13.5332 37.7071V47.8425H12.5999V37.7071C12.5999 37.3269 12.7509 36.9622 13.0197 36.6933C13.2885 36.4245 13.6531 36.2734 14.0332 36.2734H23.7C24.0801 36.2734 24.4447 36.4245 24.7135 36.6933C24.9823 36.9622 25.1334 37.3269 25.1334 37.7071V40.1077H24.2V37.7071V37.2071H23.7H14.0332H13.5332V37.7071Z" fill="url(#paint15_linear_1_1930)"/>
<path d="M13.5332 37.7071V47.8425H12.5999V37.7071C12.5999 37.3269 12.7509 36.9622 13.0197 36.6933C13.2885 36.4245 13.6531 36.2734 14.0332 36.2734H23.7C24.0801 36.2734 24.4447 36.4245 24.7135 36.6933C24.9823 36.9622 25.1334 37.3269 25.1334 37.7071V40.1077H24.2V37.7071V37.2071H23.7H14.0332H13.5332V37.7071Z" stroke="#C70100"/>
<path d="M24.1668 41.5746V47.8425H23.2334V41.5746C23.2334 41.1943 23.3844 40.8296 23.6532 40.5608C23.9221 40.2919 24.2866 40.1409 24.6668 40.1409H32.4002C32.7803 40.1409 33.1449 40.2919 33.4137 40.5608C33.6825 40.8296 33.8335 41.1943 33.8335 41.5746V47.8425H32.9002V41.5746V41.0746H32.4002H24.6668H24.1668V41.5746Z" fill="#505050"/>
<path d="M24.1668 41.5746V47.8425H23.2334V41.5746C23.2334 41.1943 23.3844 40.8296 23.6532 40.5608C23.9221 40.2919 24.2866 40.1409 24.6668 40.1409H32.4002C32.7803 40.1409 33.1449 40.2919 33.4137 40.5608C33.6825 40.8296 33.8335 41.1943 33.8335 41.5746V47.8425H32.9002V41.5746V41.0746H32.4002H24.6668H24.1668V41.5746Z" fill="url(#paint16_linear_1_1930)"/>
<path d="M24.1668 41.5746V47.8425H23.2334V41.5746C23.2334 41.1943 23.3844 40.8296 23.6532 40.5608C23.9221 40.2919 24.2866 40.1409 24.6668 40.1409H32.4002C32.7803 40.1409 33.1449 40.2919 33.4137 40.5608C33.6825 40.8296 33.8335 41.1943 33.8335 41.5746V47.8425H32.9002V41.5746V41.0746H32.4002H24.6668H24.1668V41.5746Z" stroke="#C70100"/>
<path d="M31.8999 37.7071V40.1077H30.9666V37.7071C30.9666 37.3269 31.1176 36.9622 31.3864 36.6933C31.6552 36.4245 32.0198 36.2734 32.3999 36.2734H42.0667C42.4468 36.2734 42.8114 36.4245 43.0802 36.6933C43.349 36.9622 43.5001 37.3269 43.5001 37.7071V47.8425H42.5667V37.7071V37.2071H42.0667H32.3999H31.8999V37.7071Z" fill="#505050"/>
<path d="M31.8999 37.7071V40.1077H30.9666V37.7071C30.9666 37.3269 31.1176 36.9622 31.3864 36.6933C31.6552 36.4245 32.0198 36.2734 32.3999 36.2734H42.0667C42.4468 36.2734 42.8114 36.4245 43.0802 36.6933C43.349 36.9622 43.5001 37.3269 43.5001 37.7071V47.8425H42.5667V37.7071V37.2071H42.0667H32.3999H31.8999V37.7071Z" fill="url(#paint17_linear_1_1930)"/>
<path d="M31.8999 37.7071V40.1077H30.9666V37.7071C30.9666 37.3269 31.1176 36.9622 31.3864 36.6933C31.6552 36.4245 32.0198 36.2734 32.3999 36.2734H42.0667C42.4468 36.2734 42.8114 36.4245 43.0802 36.6933C43.349 36.9622 43.5001 37.3269 43.5001 37.7071V47.8425H42.5667V37.7071V37.2071H42.0667H32.3999H31.8999V37.7071Z" stroke="#C70100"/>
<path d="M1 20.7706V19.8369H1.93336V20.7706H1Z" fill="#505050"/>
<path d="M1 20.7706V19.8369H1.93336V20.7706H1Z" fill="url(#paint18_linear_1_1930)"/>
<path d="M1 20.7706V19.8369H1.93336V20.7706H1Z" stroke="#C70100"/>
<path d="M1 24.6378V23.7041H1.93336V24.6378H1Z" fill="#505050"/>
<path d="M1 24.6378V23.7041H1.93336V24.6378H1Z" fill="url(#paint19_linear_1_1930)"/>
<path d="M1 24.6378V23.7041H1.93336V24.6378H1Z" stroke="#C70100"/>
<path d="M1 28.5055V27.5718H1.93336V28.5055H1Z" fill="#505050"/>
<path d="M1 28.5055V27.5718H1.93336V28.5055H1Z" fill="url(#paint20_linear_1_1930)"/>
<path d="M1 28.5055V27.5718H1.93336V28.5055H1Z" stroke="#C70100"/>
<path d="M56.1006 2.40086V1.46716H57.0339V2.40086H56.1006Z" fill="#505050"/>
<path d="M56.1006 2.40086V1.46716H57.0339V2.40086H56.1006Z" fill="url(#paint21_linear_1_1930)"/>
<path d="M56.1006 2.40086V1.46716H57.0339V2.40086H56.1006Z" stroke="#C70100"/>
<path d="M56.1006 6.26805V5.33435H57.0339V6.26805H56.1006Z" fill="#505050"/>
<path d="M56.1006 6.26805V5.33435H57.0339V6.26805H56.1006Z" fill="url(#paint22_linear_1_1930)"/>
<path d="M56.1006 6.26805V5.33435H57.0339V6.26805H56.1006Z" stroke="#C70100"/>
<path d="M56.1006 10.1352V9.20154H57.0339V10.1352H56.1006Z" fill="#505050"/>
<path d="M56.1006 10.1352V9.20154H57.0339V10.1352H56.1006Z" fill="url(#paint23_linear_1_1930)"/>
<path d="M56.1006 10.1352V9.20154H57.0339V10.1352H56.1006Z" stroke="#C70100"/>
<path d="M20.3335 24.6381V22.7375H21.2669V24.6381H20.3335Z" fill="#505050"/>
<path d="M20.3335 24.6381V22.7375H21.2669V24.6381H20.3335Z" fill="url(#paint24_linear_1_1930)"/>
<path d="M20.3335 24.6381V22.7375H21.2669V24.6381H20.3335Z" stroke="#C70100"/>
<path d="M29.0337 28.5055V26.605H29.967V28.5055H29.0337Z" fill="#505050"/>
<path d="M29.0337 28.5055V26.605H29.967V28.5055H29.0337Z" fill="url(#paint25_linear_1_1930)"/>
<path d="M29.0337 28.5055V26.605H29.967V28.5055H29.0337Z" stroke="#C70100"/>
<path d="M18.4001 39.1408V37.2402H19.3335V39.1408H18.4001Z" fill="#505050"/>
<path d="M18.4001 39.1408V37.2402H19.3335V39.1408H18.4001Z" fill="url(#paint26_linear_1_1930)"/>
<path d="M18.4001 39.1408V37.2402H19.3335V39.1408H18.4001Z" stroke="#C70100"/>
<path d="M36.7666 39.1408V37.2402H37.7V39.1408H36.7666Z" fill="#505050"/>
<path d="M36.7666 39.1408V37.2402H37.7V39.1408H36.7666Z" fill="url(#paint27_linear_1_1930)"/>
<path d="M36.7666 39.1408V37.2402H37.7V39.1408H36.7666Z" stroke="#C70100"/>
<path d="M28.0664 43.0081V41.1075H28.9998V43.0081H28.0664Z" fill="#505050"/>
<path d="M28.0664 43.0081V41.1075H28.9998V43.0081H28.0664Z" fill="url(#paint28_linear_1_1930)"/>
<path d="M28.0664 43.0081V41.1075H28.9998V43.0081H28.0664Z" stroke="#C70100"/>
<path d="M37.7336 24.6381V22.7375H38.667V24.6381H37.7336Z" fill="#505050"/>
<path d="M37.7336 24.6381V22.7375H38.667V24.6381H37.7336Z" fill="url(#paint29_linear_1_1930)"/>
<path d="M37.7336 24.6381V22.7375H38.667V24.6381H37.7336Z" stroke="#C70100"/>
<defs>
<linearGradient id="paint0_linear_1_1930" x1="27.5668" y1="53.1741" x2="27.5668" y2="51.2405" gradientUnits="userSpaceOnUse">
<stop stop-color="#919191"/>
<stop offset="0.07" stop-color="#ABABAB"/>
<stop offset="0.2" stop-color="#A2A2A2"/>
<stop offset="0.38" stop-color="#8E8E8E"/>
<stop offset="0.48" stop-color="#6E6E6E"/>
<stop offset="0.49" stop-color="#262626"/>
<stop offset="1" stop-color="#B5B5B5"/>
</linearGradient>
<linearGradient id="paint1_linear_1_1930" x1="39.1667" y1="53.1741" x2="39.1667" y2="51.2405" gradientUnits="userSpaceOnUse">
<stop stop-color="#919191"/>
<stop offset="0.07" stop-color="#ABABAB"/>
<stop offset="0.2" stop-color="#A2A2A2"/>
<stop offset="0.38" stop-color="#8E8E8E"/>
<stop offset="0.48" stop-color="#6E6E6E"/>
<stop offset="0.49" stop-color="#262626"/>
<stop offset="1" stop-color="#B5B5B5"/>
</linearGradient>
<linearGradient id="paint2_linear_1_1930" x1="57.5331" y1="49.3067" x2="57.5331" y2="47.3731" gradientUnits="userSpaceOnUse">
<stop stop-color="#919191"/>
<stop offset="0.07" stop-color="#ABABAB"/>
<stop offset="0.2" stop-color="#A2A2A2"/>
<stop offset="0.38" stop-color="#8E8E8E"/>
<stop offset="0.48" stop-color="#6E6E6E"/>
<stop offset="0.49" stop-color="#262626"/>
<stop offset="1" stop-color="#B5B5B5"/>
</linearGradient>
<linearGradient id="paint3_linear_1_1930" x1="5.33265" y1="48.2888" x2="5.33265" y2="4.78243" gradientUnits="userSpaceOnUse">
<stop stop-color="#919191"/>
<stop offset="0.07" stop-color="#ABABAB"/>
<stop offset="0.2" stop-color="#A2A2A2"/>
<stop offset="0.38" stop-color="#8E8E8E"/>
<stop offset="0.48" stop-color="#6E6E6E"/>
<stop offset="0.49" stop-color="#262626"/>
<stop offset="1" stop-color="#B5B5B5"/>
</linearGradient>
<linearGradient id="paint4_linear_1_1930" x1="51.734" y1="48.2888" x2="51.734" y2="4.78243" gradientUnits="userSpaceOnUse">
<stop stop-color="#919191"/>
<stop offset="0.07" stop-color="#ABABAB"/>
<stop offset="0.2" stop-color="#A2A2A2"/>
<stop offset="0.38" stop-color="#8E8E8E"/>
<stop offset="0.48" stop-color="#6E6E6E"/>
<stop offset="0.49" stop-color="#262626"/>
<stop offset="1" stop-color="#B5B5B5"/>
</linearGradient>
<linearGradient id="paint5_linear_1_1930" x1="28.5329" y1="4.82827" x2="28.5329" y2="-0.00576897" gradientUnits="userSpaceOnUse">
<stop stop-color="#919191"/>
<stop offset="0.07" stop-color="#ABABAB"/>
<stop offset="0.2" stop-color="#A2A2A2"/>
<stop offset="0.38" stop-color="#8E8E8E"/>
<stop offset="0.48" stop-color="#6E6E6E"/>
<stop offset="0.49" stop-color="#262626"/>
<stop offset="1" stop-color="#B5B5B5"/>
</linearGradient>
<linearGradient id="paint6_linear_1_1930" x1="28.5331" y1="11.5998" x2="28.5331" y2="9.66615" gradientUnits="userSpaceOnUse">
<stop stop-color="#919191"/>
<stop offset="0.07" stop-color="#ABABAB"/>
<stop offset="0.2" stop-color="#A2A2A2"/>
<stop offset="0.38" stop-color="#8E8E8E"/>
<stop offset="0.48" stop-color="#6E6E6E"/>
<stop offset="0.49" stop-color="#262626"/>
<stop offset="1" stop-color="#B5B5B5"/>
</linearGradient>
<linearGradient id="paint7_linear_1_1930" x1="9.19959" y1="48.2958" x2="9.19959" y2="10.5903" gradientUnits="userSpaceOnUse">
<stop stop-color="#919191"/>
<stop offset="0.07" stop-color="#ABABAB"/>
<stop offset="0.2" stop-color="#A2A2A2"/>
<stop offset="0.38" stop-color="#8E8E8E"/>
<stop offset="0.48" stop-color="#6E6E6E"/>
<stop offset="0.49" stop-color="#262626"/>
<stop offset="1" stop-color="#B5B5B5"/>
</linearGradient>
<linearGradient id="paint8_linear_1_1930" x1="46.9005" y1="48.2958" x2="46.9005" y2="10.5903" gradientUnits="userSpaceOnUse">
<stop stop-color="#919191"/>
<stop offset="0.07" stop-color="#ABABAB"/>
<stop offset="0.2" stop-color="#A2A2A2"/>
<stop offset="0.38" stop-color="#8E8E8E"/>
<stop offset="0.48" stop-color="#6E6E6E"/>
<stop offset="0.49" stop-color="#262626"/>
<stop offset="1" stop-color="#B5B5B5"/>
</linearGradient>
<linearGradient id="paint9_linear_1_1930" x1="22.7335" y1="15.4672" x2="22.7335" y2="13.5336" gradientUnits="userSpaceOnUse">
<stop stop-color="#919191"/>
<stop offset="0.07" stop-color="#ABABAB"/>
<stop offset="0.2" stop-color="#A2A2A2"/>
<stop offset="0.38" stop-color="#8E8E8E"/>
<stop offset="0.48" stop-color="#6E6E6E"/>
<stop offset="0.49" stop-color="#262626"/>
<stop offset="1" stop-color="#B5B5B5"/>
</linearGradient>
<linearGradient id="paint10_linear_1_1930" x1="28.0502" y1="19.3348" x2="28.0502" y2="17.4011" gradientUnits="userSpaceOnUse">
<stop stop-color="#919191"/>
<stop offset="0.07" stop-color="#ABABAB"/>
<stop offset="0.2" stop-color="#A2A2A2"/>
<stop offset="0.38" stop-color="#8E8E8E"/>
<stop offset="0.48" stop-color="#6E6E6E"/>
<stop offset="0.49" stop-color="#262626"/>
<stop offset="1" stop-color="#B5B5B5"/>
</linearGradient>
<linearGradient id="paint11_linear_1_1930" x1="20.8" y1="32.8585" x2="20.8" y2="21.2568" gradientUnits="userSpaceOnUse">
<stop stop-color="#919191"/>
<stop offset="0.07" stop-color="#ABABAB"/>
<stop offset="0.2" stop-color="#A2A2A2"/>
<stop offset="0.38" stop-color="#8E8E8E"/>
<stop offset="0.48" stop-color="#6E6E6E"/>
<stop offset="0.49" stop-color="#262626"/>
<stop offset="1" stop-color="#B5B5B5"/>
</linearGradient>
<linearGradient id="paint12_linear_1_1930" x1="29.5003" y1="32.8633" x2="29.5003" y2="25.1288" gradientUnits="userSpaceOnUse">
<stop stop-color="#919191"/>
<stop offset="0.07" stop-color="#ABABAB"/>
<stop offset="0.2" stop-color="#A2A2A2"/>
<stop offset="0.38" stop-color="#8E8E8E"/>
<stop offset="0.48" stop-color="#6E6E6E"/>
<stop offset="0.49" stop-color="#262626"/>
<stop offset="1" stop-color="#B5B5B5"/>
</linearGradient>
<linearGradient id="paint13_linear_1_1930" x1="38.2002" y1="32.8585" x2="38.2002" y2="21.2568" gradientUnits="userSpaceOnUse">
<stop stop-color="#919191"/>
<stop offset="0.07" stop-color="#ABABAB"/>
<stop offset="0.2" stop-color="#A2A2A2"/>
<stop offset="0.38" stop-color="#8E8E8E"/>
<stop offset="0.48" stop-color="#6E6E6E"/>
<stop offset="0.49" stop-color="#262626"/>
<stop offset="1" stop-color="#B5B5B5"/>
</linearGradient>
<linearGradient id="paint14_linear_1_1930" x1="28.0502" y1="33.8372" x2="28.0502" y2="31.9036" gradientUnits="userSpaceOnUse">
<stop stop-color="#919191"/>
<stop offset="0.07" stop-color="#ABABAB"/>
<stop offset="0.2" stop-color="#A2A2A2"/>
<stop offset="0.38" stop-color="#8E8E8E"/>
<stop offset="0.48" stop-color="#6E6E6E"/>
<stop offset="0.49" stop-color="#262626"/>
<stop offset="1" stop-color="#B5B5B5"/>
</linearGradient>
<linearGradient id="paint15_linear_1_1930" x1="18.8666" y1="48.327" x2="18.8666" y2="35.7584" gradientUnits="userSpaceOnUse">
<stop stop-color="#919191"/>
<stop offset="0.07" stop-color="#ABABAB"/>
<stop offset="0.2" stop-color="#A2A2A2"/>
<stop offset="0.38" stop-color="#8E8E8E"/>
<stop offset="0.48" stop-color="#6E6E6E"/>
<stop offset="0.49" stop-color="#262626"/>
<stop offset="1" stop-color="#B5B5B5"/>
</linearGradient>
<linearGradient id="paint16_linear_1_1930" x1="28.5335" y1="48.3318" x2="28.5335" y2="39.6305" gradientUnits="userSpaceOnUse">
<stop stop-color="#919191"/>
<stop offset="0.07" stop-color="#ABABAB"/>
<stop offset="0.2" stop-color="#A2A2A2"/>
<stop offset="0.38" stop-color="#8E8E8E"/>
<stop offset="0.48" stop-color="#6E6E6E"/>
<stop offset="0.49" stop-color="#262626"/>
<stop offset="1" stop-color="#B5B5B5"/>
</linearGradient>
<linearGradient id="paint17_linear_1_1930" x1="37.2333" y1="48.327" x2="37.2333" y2="35.7584" gradientUnits="userSpaceOnUse">
<stop stop-color="#919191"/>
<stop offset="0.07" stop-color="#ABABAB"/>
<stop offset="0.2" stop-color="#A2A2A2"/>
<stop offset="0.38" stop-color="#8E8E8E"/>
<stop offset="0.48" stop-color="#6E6E6E"/>
<stop offset="0.49" stop-color="#262626"/>
<stop offset="1" stop-color="#B5B5B5"/>
</linearGradient>
<linearGradient id="paint18_linear_1_1930" x1="1.46668" y1="21.2682" x2="1.46668" y2="19.3346" gradientUnits="userSpaceOnUse">
<stop stop-color="#919191"/>
<stop offset="0.07" stop-color="#ABABAB"/>
<stop offset="0.2" stop-color="#A2A2A2"/>
<stop offset="0.38" stop-color="#8E8E8E"/>
<stop offset="0.48" stop-color="#6E6E6E"/>
<stop offset="0.49" stop-color="#262626"/>
<stop offset="1" stop-color="#B5B5B5"/>
</linearGradient>
<linearGradient id="paint19_linear_1_1930" x1="1.46668" y1="25.1354" x2="1.46668" y2="23.2018" gradientUnits="userSpaceOnUse">
<stop stop-color="#919191"/>
<stop offset="0.07" stop-color="#ABABAB"/>
<stop offset="0.2" stop-color="#A2A2A2"/>
<stop offset="0.38" stop-color="#8E8E8E"/>
<stop offset="0.48" stop-color="#6E6E6E"/>
<stop offset="0.49" stop-color="#262626"/>
<stop offset="1" stop-color="#B5B5B5"/>
</linearGradient>
<linearGradient id="paint20_linear_1_1930" x1="1.46668" y1="29.0031" x2="1.46668" y2="27.0695" gradientUnits="userSpaceOnUse">
<stop stop-color="#919191"/>
<stop offset="0.07" stop-color="#ABABAB"/>
<stop offset="0.2" stop-color="#A2A2A2"/>
<stop offset="0.38" stop-color="#8E8E8E"/>
<stop offset="0.48" stop-color="#6E6E6E"/>
<stop offset="0.49" stop-color="#262626"/>
<stop offset="1" stop-color="#B5B5B5"/>
</linearGradient>
<linearGradient id="paint21_linear_1_1930" x1="56.5673" y1="2.89847" x2="56.5673" y2="0.964855" gradientUnits="userSpaceOnUse">
<stop stop-color="#919191"/>
<stop offset="0.07" stop-color="#ABABAB"/>
<stop offset="0.2" stop-color="#A2A2A2"/>
<stop offset="0.38" stop-color="#8E8E8E"/>
<stop offset="0.48" stop-color="#6E6E6E"/>
<stop offset="0.49" stop-color="#262626"/>
<stop offset="1" stop-color="#B5B5B5"/>
</linearGradient>
<linearGradient id="paint22_linear_1_1930" x1="56.5673" y1="6.76566" x2="56.5673" y2="4.83204" gradientUnits="userSpaceOnUse">
<stop stop-color="#919191"/>
<stop offset="0.07" stop-color="#ABABAB"/>
<stop offset="0.2" stop-color="#A2A2A2"/>
<stop offset="0.38" stop-color="#8E8E8E"/>
<stop offset="0.48" stop-color="#6E6E6E"/>
<stop offset="0.49" stop-color="#262626"/>
<stop offset="1" stop-color="#B5B5B5"/>
</linearGradient>
<linearGradient id="paint23_linear_1_1930" x1="56.5673" y1="10.6328" x2="56.5673" y2="8.69923" gradientUnits="userSpaceOnUse">
<stop stop-color="#919191"/>
<stop offset="0.07" stop-color="#ABABAB"/>
<stop offset="0.2" stop-color="#A2A2A2"/>
<stop offset="0.38" stop-color="#8E8E8E"/>
<stop offset="0.48" stop-color="#6E6E6E"/>
<stop offset="0.49" stop-color="#262626"/>
<stop offset="1" stop-color="#B5B5B5"/>
</linearGradient>
<linearGradient id="paint24_linear_1_1930" x1="20.8002" y1="25.1345" x2="20.8002" y2="22.2341" gradientUnits="userSpaceOnUse">
<stop stop-color="#919191"/>
<stop offset="0.07" stop-color="#ABABAB"/>
<stop offset="0.2" stop-color="#A2A2A2"/>
<stop offset="0.38" stop-color="#8E8E8E"/>
<stop offset="0.48" stop-color="#6E6E6E"/>
<stop offset="0.49" stop-color="#262626"/>
<stop offset="1" stop-color="#B5B5B5"/>
</linearGradient>
<linearGradient id="paint25_linear_1_1930" x1="29.5004" y1="29.0019" x2="29.5004" y2="26.1015" gradientUnits="userSpaceOnUse">
<stop stop-color="#919191"/>
<stop offset="0.07" stop-color="#ABABAB"/>
<stop offset="0.2" stop-color="#A2A2A2"/>
<stop offset="0.38" stop-color="#8E8E8E"/>
<stop offset="0.48" stop-color="#6E6E6E"/>
<stop offset="0.49" stop-color="#262626"/>
<stop offset="1" stop-color="#B5B5B5"/>
</linearGradient>
<linearGradient id="paint26_linear_1_1930" x1="18.8668" y1="39.6372" x2="18.8668" y2="36.7368" gradientUnits="userSpaceOnUse">
<stop stop-color="#919191"/>
<stop offset="0.07" stop-color="#ABABAB"/>
<stop offset="0.2" stop-color="#A2A2A2"/>
<stop offset="0.38" stop-color="#8E8E8E"/>
<stop offset="0.48" stop-color="#6E6E6E"/>
<stop offset="0.49" stop-color="#262626"/>
<stop offset="1" stop-color="#B5B5B5"/>
</linearGradient>
<linearGradient id="paint27_linear_1_1930" x1="37.2333" y1="39.6372" x2="37.2333" y2="36.7368" gradientUnits="userSpaceOnUse">
<stop stop-color="#919191"/>
<stop offset="0.07" stop-color="#ABABAB"/>
<stop offset="0.2" stop-color="#A2A2A2"/>
<stop offset="0.38" stop-color="#8E8E8E"/>
<stop offset="0.48" stop-color="#6E6E6E"/>
<stop offset="0.49" stop-color="#262626"/>
<stop offset="1" stop-color="#B5B5B5"/>
</linearGradient>
<linearGradient id="paint28_linear_1_1930" x1="28.5331" y1="43.5045" x2="28.5331" y2="40.6041" gradientUnits="userSpaceOnUse">
<stop stop-color="#919191"/>
<stop offset="0.07" stop-color="#ABABAB"/>
<stop offset="0.2" stop-color="#A2A2A2"/>
<stop offset="0.38" stop-color="#8E8E8E"/>
<stop offset="0.48" stop-color="#6E6E6E"/>
<stop offset="0.49" stop-color="#262626"/>
<stop offset="1" stop-color="#B5B5B5"/>
</linearGradient>
<linearGradient id="paint29_linear_1_1930" x1="38.2003" y1="25.1345" x2="38.2003" y2="22.2341" gradientUnits="userSpaceOnUse">
<stop stop-color="#919191"/>
<stop offset="0.07" stop-color="#ABABAB"/>
<stop offset="0.2" stop-color="#A2A2A2"/>
<stop offset="0.38" stop-color="#8E8E8E"/>
<stop offset="0.48" stop-color="#6E6E6E"/>
<stop offset="0.49" stop-color="#262626"/>
<stop offset="1" stop-color="#B5B5B5"/>
</linearGradient>
</defs>
</svg>
