<svg width="58" height="55" viewBox="0 0 58 55" fill="none" xmlns="http://www.w3.org/2000/svg">
<path d="M6.02271 20.2727H24.0909" stroke="#C70100" stroke-width="2" stroke-miterlimit="10"/>
<path d="M0 29.9091H20.4773" stroke="#C70100" stroke-width="2" stroke-miterlimit="10"/>
<path d="M11.762 39.5454H21.6817" stroke="#C70100" stroke-width="2" stroke-miterlimit="10"/>
<path d="M9.2621 39.0374L10.1958 39.0374L10.1958 40.043L9.2621 40.043L9.2621 39.0374Z" fill="#505050" stroke="#C70100"/>
<path d="M5.2621 39.0374L6.1958 39.0374L6.1958 40.043L5.2621 40.043L5.2621 39.0374Z" fill="#505050" stroke="#C70100"/>
<path d="M1.2621 39.0374L2.1958 39.0374L2.1958 40.043L1.2621 40.043L1.2621 39.0374Z" fill="#505050" stroke="#C70100"/>
<path d="M33.7274 5.81818H28.9092V1H40.9546V5.81818H36.1365" stroke="#C70100" stroke-width="2" stroke-miterlimit="10"/>
<path d="M37.341 8.22729V10.7809C42.8303 11.4176 47.8695 14.1262 51.4288 18.3535C54.9881 22.5807 56.7989 28.0075 56.4914 33.5251C56.1838 39.0427 53.781 44.2346 49.774 48.0401C45.7669 51.8456 40.458 53.9774 34.9319 54H15.6592" stroke="#C70100" stroke-width="2" stroke-miterlimit="10"/>
<path d="M16.1531 43.1591C17.5662 45.6073 19.4444 47.7555 21.6819 49.4829" stroke="#C70100" stroke-width="2" stroke-miterlimit="10"/>
<path d="M13.25 33.5227C13.37 35.549 13.7755 37.5482 14.4545 39.4611" stroke="#C70100" stroke-width="2" stroke-miterlimit="10"/>
<path d="M14.9487 23.8864C14.1365 25.807 13.6089 27.836 13.3828 29.9091" stroke="#C70100" stroke-width="2" stroke-miterlimit="10"/>
<path d="M32.5226 8.22729V10.7809C29.373 11.132 26.3387 12.1692 23.6332 13.8195C20.9277 15.4698 18.617 17.6932 16.8635 20.333" stroke="#C70100" stroke-width="2" stroke-miterlimit="10"/>
<path d="M34.9318 35.9319C36.9275 35.9319 38.5454 34.314 38.5454 32.3182C38.5454 30.3225 36.9275 28.7046 34.9318 28.7046C32.936 28.7046 31.3181 30.3225 31.3181 32.3182C31.3181 34.314 32.936 35.9319 34.9318 35.9319Z" stroke="#C70100" stroke-width="2" stroke-miterlimit="10"/>
<path d="M37.3408 29.9091L46.9772 20.2727" stroke="#C70100" stroke-width="2" stroke-miterlimit="10"/>
<path d="M55.409 14.25L51.7954 10.6364" stroke="#C70100" stroke-width="2" stroke-miterlimit="10"/>
<path d="M49.3865 16.659L53.0001 13.0454" stroke="#C70100" stroke-width="2" stroke-miterlimit="10"/>
<path d="M49.5429 23.8864C51.0232 26.4504 51.8024 29.3591 51.8021 32.3199C51.8018 35.2806 51.0221 38.1891 49.5412 40.7529C48.0603 43.3167 45.9305 45.4455 43.3659 46.9251C40.8014 48.4047 37.8925 49.183 34.9317 49.1818H30.1135" stroke="#C70100" stroke-width="2" stroke-miterlimit="10"/>
</svg>
