<svg width="53" height="53" viewBox="0 0 53 53" fill="none" xmlns="http://www.w3.org/2000/svg">
<rect x="2" y="6" width="16.8378" height="39" rx="1" stroke="#C70100" stroke-width="2"/>
<path d="M9.5 20.4337V19.5H10.4334V20.4337H9.5Z" fill="#505050" stroke="#C70100"/>
<path d="M9.5 24.3009V23.3672H10.4334V24.3009H9.5Z" fill="#505050" stroke="#C70100"/>
<rect x="6.78698" y="27.3336" width="7.60484" height="0.991935" rx="0.495968" fill="#505050" stroke="#C70100" stroke-width="0.991935"/>
<rect x="6.78698" y="31.7665" width="7.60484" height="0.991935" rx="0.495968" fill="#505050" stroke="#C70100" stroke-width="0.991935"/>
<rect x="6.78698" y="36.1988" width="7.60484" height="0.991935" rx="0.495968" fill="#505050" stroke="#C70100" stroke-width="0.991935"/>
<rect x="6.78698" y="40.6312" width="7.60484" height="0.991935" rx="0.495968" fill="#505050" stroke="#C70100" stroke-width="0.991935"/>
<circle cx="10.2578" cy="14.258" r="3.21774" stroke="#C70100" stroke-width="1.5"/>
<rect x="35.1621" y="12" width="15.9189" height="37" rx="1" stroke="#C70100" stroke-width="2"/>
<path d="M42.5 26.4337V25.5H43.4334V26.4337H42.5Z" fill="#505050" stroke="#C70100"/>
<path d="M42.5 30.3009V29.3672H43.4334V30.3009H42.5Z" fill="#505050" stroke="#C70100"/>
<circle cx="42.9685" cy="19.8064" r="3.02419" stroke="#C70100" stroke-width="1.5"/>
<rect x="39.6661" y="32.3905" width="7.23387" height="0.943548" rx="0.471774" fill="#505050" stroke="#C70100" stroke-width="0.943548"/>
<rect x="39.6661" y="36.607" width="7.23387" height="0.943548" rx="0.471774" fill="#505050" stroke="#C70100" stroke-width="0.943548"/>
<rect x="39.6661" y="40.8233" width="7.23387" height="0.943548" rx="0.471774" fill="#505050" stroke="#C70100" stroke-width="0.943548"/>
<rect x="39.6661" y="45.0394" width="7.23387" height="0.943548" rx="0.471774" fill="#505050" stroke="#C70100" stroke-width="0.943548"/>
<path d="M30.3333 30.8334L32.8333 33.3334L30.3333 35.8334" stroke="#C70100" stroke-width="2" stroke-linecap="round" stroke-linejoin="round"/>
<path d="M21.1667 33.3334H32.8334" stroke="#C70100" stroke-width="2" stroke-linecap="round" stroke-linejoin="round"/>
<path d="M23.6667 29.1666L21.1667 26.6666L23.6667 24.1666" stroke="#C70100" stroke-width="2" stroke-linecap="round" stroke-linejoin="round"/>
<path d="M32.8334 26.6666L21.1667 26.6666" stroke="#C70100" stroke-width="2" stroke-linecap="round" stroke-linejoin="round"/>
</svg>
