<svg width="52" height="55" viewBox="0 0 52 55" fill="none" xmlns="http://www.w3.org/2000/svg">
<path d="M32.7163 44.1432L35.818 48.1194L40.6687 45.3209L38.8264 40.6451C39.6708 39.9379 40.4512 39.1575 41.1584 38.313L45.8226 40.202L48.621 35.3513L44.6565 32.203C45.0339 31.1564 45.3226 30.0798 45.5194 28.9848L50.51 28.2852V22.6882L45.5194 21.9886C45.3226 20.8935 45.0339 19.817 44.6565 18.7703L48.6327 15.6687L45.8226 10.818L41.1584 12.6603C40.4512 11.8159 39.6708 11.0355 38.8264 10.3283L40.7153 5.66413L35.8646 2.86565L32.7163 6.83016C31.6697 6.45273 30.5932 6.16409 29.4981 5.9673L28.7985 1H23.2015L22.5019 5.99062C21.4068 6.18741 20.3303 6.47605 19.2837 6.85348L16.182 2.87731L11.3313 5.66413L13.1736 10.3283C12.3292 11.0355 11.5488 11.8159 10.8416 12.6603L6.17745 10.7714L3.37898 15.622L7.34348 18.7703C6.96605 19.817 6.6774 20.8935 6.48061 21.9886L1.48999 22.6882V28.2852L6.48061 28.9848C6.6774 30.0798 6.96605 31.1564 7.34348 32.203L3.3673 35.3047L6.16579 40.1554L10.8416 38.313C11.5488 39.1575 12.3292 39.9379 13.1736 40.6451L11.2847 45.3092L16.1354 48.1077L19.2837 44.1432" stroke="#C70100" stroke-width="2" stroke-linejoin="round"/>
<path d="M26 10.3282C30.0203 10.3282 33.8759 11.9253 36.7186 14.768C39.5614 17.6108 41.1584 21.4664 41.1584 25.4867" stroke="#C70100" stroke-width="2" stroke-linecap="round" stroke-linejoin="round"/>
<path d="M19.0737 38.9777C16.5935 37.7036 14.5127 35.7701 13.0603 33.3899C11.6079 31.0097 10.8402 28.275 10.8416 25.4867" stroke="#C70100" stroke-width="2" stroke-linecap="round" stroke-linejoin="round"/>
<path d="M29.4982 43.6373V34.4067C29.4987 34.1824 29.5639 33.963 29.6859 33.7747C29.8079 33.5865 29.9816 33.4375 30.1862 33.3456C31.7161 32.6795 33.018 31.5807 33.9316 30.1844C34.8452 28.7881 35.3307 27.1551 35.3284 25.4865C35.3291 23.9817 34.9658 22.499 34.2693 21.165C33.5729 19.831 32.5641 18.6853 31.3289 17.8257C31.1533 17.7038 30.9476 17.6326 30.7343 17.6198C30.521 17.6069 30.3082 17.653 30.1193 17.7529C29.9303 17.8528 29.7725 18.0026 29.6629 18.1862C29.5534 18.3697 29.4964 18.5798 29.4982 18.7935V24.3205C29.4982 24.6297 29.3754 24.9263 29.1567 25.145C28.938 25.3637 28.6415 25.4865 28.3322 25.4865H23.6681C23.3588 25.4865 23.0622 25.3637 22.8436 25.145C22.6249 24.9263 22.502 24.6297 22.502 24.3205V18.7935C22.5038 18.5798 22.4469 18.3697 22.3373 18.1862C22.2278 18.0026 22.07 17.8528 21.881 17.7529C21.6921 17.653 21.4793 17.6069 21.266 17.6198C21.0527 17.6326 20.847 17.7038 20.6714 17.8257C19.4362 18.6853 18.4274 19.831 17.731 21.165C17.0345 22.499 16.6712 23.9817 16.6719 25.4865C16.6696 27.1551 17.1551 28.7881 18.0687 30.1844C18.9823 31.5807 20.2842 32.6795 21.8141 33.3456C22.0187 33.4375 22.1924 33.5865 22.3144 33.7747C22.4364 33.963 22.5016 34.1824 22.502 34.4067V54.6373" stroke="#C70100" stroke-width="2" stroke-linejoin="round"/>
<path d="M28.9998 46.5V45.5H29.9998V46V46.5H28.9998Z" fill="#505050" stroke="#C70100"/>
<path d="M28.9998 50.5V49.5H29.9998V50V50.5H28.9998Z" fill="#505050" stroke="#C70100"/>
<path d="M28.9998 54.5V53.5H29.9998V54V54.5H28.9998Z" fill="#505050" stroke="#C70100"/>
</svg>
