<svg width="59" height="54" viewBox="0 0 59 54" fill="none" xmlns="http://www.w3.org/2000/svg">
<path d="M2.30114 11.8822L26.2758 2L50.1403 7.36649M2.30114 11.8822L30.2992 23.466M2.30114 11.8822L1.75 12.6021L3.23808 25.3639L29.3071 39.1073H30.2992M50.1403 7.36649L30.2992 23.466M50.1403 7.36649L50 11.5238L49.2756 12.197L33.5 25.3639V36.5238L30.2992 39.1073M30.2992 23.466V39.1073M47.5 16.881L57.25 18.9503M57.25 18.9503L55.4312 31.1885L36.6373 52M57.25 18.9503L46.8885 27.502M36.6373 52L37.1884 35.5079L46.8885 27.502M36.6373 52L9.1353 37.5366M38 24.619L46.8885 27.502M8.08813 28.5707L9.1353 37.5366M9.1353 37.5366L16.1348 33.0209" stroke="#C70100" stroke-width="2"/>
<path d="M24.0132 25.403L11.6271 20.1854C10.9109 19.8837 10.1393 20.4785 10.2489 21.2479L10.6724 24.2231C10.7207 24.5623 10.9393 24.8532 11.2517 24.9939L23.2143 30.3824C23.8761 30.6805 24.625 30.1965 24.625 29.4707V26.3246C24.625 25.9223 24.3839 25.5592 24.0132 25.403Z" stroke="#C70100" stroke-width="2"/>
<path d="M7.57808 41.7334L6.77181 41.2625L7.24251 40.4566L8.04878 40.9274L7.57808 41.7334Z" fill="#505050" stroke="#C70100"/>
<path d="M10.9177 43.6836L10.1114 43.2127L10.5821 42.4067L11.3884 42.8776L10.9177 43.6836Z" fill="#505050" stroke="#C70100"/>
<path d="M14.2573 45.6342L13.451 45.1633L13.9217 44.3573L14.728 44.8282L14.2573 45.6342Z" fill="#505050" stroke="#C70100"/>
</svg>
