<svg width="62" height="67" viewBox="0 0 62 67" fill="none" xmlns="http://www.w3.org/2000/svg">
<mask id="path-1-inside-1_1_1081" fill="white">
<path d="M19.8478 21.3936L19.6172 20.0741C19.5527 19.71 19.3589 19.3808 19.071 19.1461C18.783 18.9113 18.4199 18.7865 18.0472 18.7942H17.0094C16.791 18.476 16.5398 18.1812 16.2599 17.9145L16.4639 16.9073C16.5407 16.5451 16.4828 16.1675 16.3011 15.8443C16.1194 15.521 15.826 15.2737 15.4749 15.148L14.211 14.7081C13.8605 14.5851 13.4776 14.5887 13.1295 14.7183C12.7815 14.8478 12.4907 15.095 12.3084 15.4163L11.8117 16.3179C11.4224 16.343 11.0372 16.4108 10.663 16.5202L9.88248 15.8341C9.59855 15.597 9.24056 15.4648 8.86942 15.46C8.49828 15.4552 8.13692 15.5781 7.84684 15.8077L6.81793 16.661C6.52999 16.8968 6.33774 17.2279 6.27661 17.5933C6.21548 17.9587 6.2896 18.3336 6.48531 18.649L7.02193 19.5287C6.93323 19.7046 6.85784 19.885 6.78688 20.0697C6.71592 20.2544 6.66271 20.4392 6.61393 20.6283L5.63823 20.9494C5.28378 21.0662 4.98349 21.3055 4.79216 21.6236C4.60083 21.9417 4.53121 22.3175 4.59602 22.6823L4.82664 24.0018C4.89201 24.3655 5.08599 24.6942 5.37374 24.9288C5.6615 25.1633 6.02417 25.2885 6.3966 25.2817L7.43438 25.2553C7.65304 25.5733 7.9042 25.8681 8.18389 26.135L7.97988 27.1378C7.90315 27.5 7.96098 27.8775 8.14272 28.2008C8.32445 28.5241 8.61786 28.7714 8.96888 28.8971L10.2328 29.337C10.4041 29.402 10.5861 29.4348 10.7695 29.4337C11.0491 29.4336 11.3234 29.3587 11.5638 29.2171C11.8041 29.0755 12.0016 28.8723 12.1354 28.6288L12.6321 27.7492C13.0213 27.7209 13.4064 27.6516 13.7808 27.5424L14.5613 28.2286C14.8413 28.4738 15.2007 28.6113 15.5742 28.6161C15.9477 28.621 16.3106 28.4928 16.597 28.255L17.6259 27.4017C17.9138 27.1658 18.1061 26.8347 18.1672 26.4694C18.2283 26.104 18.1542 25.7291 17.9585 25.4137L17.4219 24.534C17.5936 24.183 17.7302 23.8162 17.8299 23.4388L18.8056 23.1133C19.1579 22.9976 19.4568 22.7605 19.648 22.445C19.8392 22.1295 19.9101 21.7565 19.8478 21.3936ZM17.1513 21.8334C16.9008 21.9165 16.6758 22.0614 16.4973 22.2545C16.3189 22.4477 16.1929 22.6827 16.1313 22.9374C16.0955 23.1003 16.0481 23.2605 15.9894 23.4168C15.9308 23.5676 15.8627 23.7145 15.7854 23.8566C15.6656 24.0909 15.608 24.3515 15.6181 24.614C15.6281 24.8764 15.7056 25.132 15.843 25.3565L16.3486 26.1746L15.5991 26.7947L14.8673 26.1482C14.665 25.9754 14.4217 25.8564 14.1602 25.8026C13.8988 25.7487 13.6278 25.7617 13.3728 25.8403C13.0696 25.9296 12.7571 25.9842 12.4414 26.003C12.1726 26.0144 11.9111 26.094 11.6821 26.2342C11.453 26.3743 11.264 26.5703 11.1331 26.8035L10.6675 27.6436L9.75386 27.3137L9.94456 26.3725C9.99814 26.1105 9.98263 25.8392 9.89949 25.585C9.81635 25.3307 9.66843 25.102 9.47003 24.921C9.23835 24.7075 9.0356 24.465 8.86687 24.1997C8.72314 23.9795 8.52606 23.7985 8.29365 23.6733C8.06124 23.548 7.80089 23.4826 7.53639 23.4828H6.56071L6.39218 22.5284L7.3102 22.2249C7.5607 22.1418 7.78578 21.9969 7.96422 21.8037C8.14267 21.6106 8.26863 21.3756 8.33025 21.1209C8.3667 20.9581 8.41411 20.7979 8.47217 20.6415C8.53071 20.4907 8.59884 20.3438 8.67617 20.2016C8.79602 19.9682 8.85364 19.7082 8.84355 19.4465C8.83346 19.1847 8.75599 18.9299 8.61852 18.7062L8.0952 17.8749L8.8447 17.2592L9.57647 17.9013C9.77923 18.0734 10.0224 18.1922 10.2835 18.2468C10.5447 18.3014 10.8155 18.29 11.071 18.2136C11.3738 18.1225 11.6865 18.0679 12.0024 18.0509C12.2718 18.0394 12.5337 17.9594 12.7628 17.8184C12.992 17.6774 13.1807 17.4803 13.3107 17.246L13.7764 16.4059L14.69 16.7358L14.4993 17.6814C14.446 17.9427 14.4618 18.2132 14.5449 18.4667C14.628 18.7202 14.7758 18.9482 14.9738 19.1284C15.2044 19.3429 15.4071 19.5853 15.5769 19.8498C15.7207 20.07 15.9178 20.251 16.1502 20.3762C16.3826 20.5014 16.6429 20.5669 16.9074 20.5667H17.8831L18.0516 21.5211L17.1513 21.8334ZM13.2131 19.3616C12.8968 19.2443 12.5618 19.1847 12.2241 19.1856C11.6326 19.1868 11.0556 19.3674 10.5704 19.7031C10.0853 20.0387 9.71526 20.5135 9.50994 21.0637C9.37974 21.4169 9.32096 21.7921 9.33698 22.1678C9.35299 22.5435 9.44347 22.9125 9.60326 23.2535C9.76306 23.5945 9.98902 23.901 10.2683 24.1554C10.5475 24.4099 10.8745 24.6072 11.2307 24.7363C11.547 24.8535 11.882 24.9132 12.2197 24.9122C12.7049 24.9126 13.1823 24.7917 13.6079 24.5607C14.0335 24.3297 14.3935 23.996 14.6547 23.5906C14.916 23.1851 15.0699 22.7209 15.1024 22.2408C15.135 21.7607 15.0449 21.2803 14.8407 20.8438C14.6847 20.4978 14.4603 20.1864 14.1807 19.9281C13.9011 19.6697 13.5721 19.4696 13.2131 19.3396V19.3616ZM13.2663 22.4404C13.1606 22.7122 12.9528 22.9328 12.6865 23.0559C12.4202 23.1789 12.1161 23.1948 11.8383 23.1001C11.7009 23.051 11.5748 22.9751 11.4674 22.8769C11.36 22.7787 11.2735 22.6602 11.213 22.5284C11.1339 22.36 11.0989 22.1745 11.1113 21.9891C11.1237 21.8038 11.183 21.6245 11.2838 21.4679C11.3847 21.3114 11.5237 21.1825 11.6881 21.0934C11.8524 21.0043 12.0368 20.9578 12.2241 20.9582C12.3541 20.9582 12.4832 20.9805 12.6055 21.0241C12.8733 21.1261 13.091 21.3267 13.2133 21.584C13.3355 21.8413 13.353 22.1355 13.2619 22.4052L13.2663 22.4404ZM13.4526 11.2423C13.5383 11.6314 13.7606 11.9777 14.0798 12.2194C14.399 12.461 14.7945 12.5824 15.1955 12.5618L16.4994 12.4782C16.7965 12.887 17.1386 13.2618 17.5195 13.5954L17.311 14.8709C17.2445 15.2639 17.3237 15.6676 17.5341 16.0071C17.7444 16.3467 18.0716 16.5993 18.4552 16.7182L19.9587 17.1976C20.1248 17.2513 20.2983 17.2795 20.4731 17.2812C20.7856 17.2815 21.092 17.1951 21.3577 17.0319C21.6233 16.8687 21.8377 16.6351 21.9766 16.3575L22.5531 15.1963C23.0579 15.1475 23.5551 15.0397 24.0344 14.8753L25.05 15.6978C25.3649 15.9403 25.7549 16.0671 26.1535 16.0567C26.5521 16.0463 26.9348 15.8992 27.2364 15.6406L28.4072 14.585C28.7058 14.3188 28.8976 13.9548 28.9473 13.5597C28.997 13.1646 28.9013 12.765 28.6778 12.4342L27.9593 11.3566C28.064 11.1272 28.1558 10.8923 28.2343 10.6529C28.3108 10.4115 28.3745 10.1664 28.425 9.91836L29.6401 9.47853C30.0165 9.33938 30.3293 9.06991 30.5208 8.71985C30.7124 8.36979 30.7698 7.96281 30.6824 7.57407L30.3497 6.03906C30.264 5.64915 30.041 5.30224 29.7209 5.06047C29.4007 4.8187 29.0042 4.69786 28.6024 4.71957L27.3029 4.79873C27.0059 4.38987 26.6637 4.01514 26.2829 3.68154L26.4913 2.40605C26.5578 2.013 26.4786 1.60936 26.2683 1.26977C26.0579 0.930178 25.7307 0.677597 25.3471 0.558747L23.8392 0.0793181C23.4573 -0.0420931 23.0441 -0.0236297 22.6746 0.131317C22.3052 0.286264 22.004 0.567443 21.8258 0.923815L21.2448 2.04098C20.7402 2.09078 20.2431 2.19852 19.7635 2.36205L18.7524 1.54397C18.4384 1.29903 18.048 1.17068 17.6487 1.18113C17.2495 1.19157 16.8664 1.34014 16.5659 1.60115L15.3951 2.65235C15.0954 2.91872 14.9028 3.28361 14.8531 3.67972C14.8034 4.07582 14.8998 4.47639 15.1246 4.80751L15.843 5.8807C15.7365 6.10928 15.6446 6.34435 15.5681 6.58445C15.4895 6.82521 15.4258 7.0705 15.3774 7.31896L14.1489 7.75879C13.7726 7.89794 13.4598 8.16744 13.2682 8.51749C13.0766 8.86755 13.0193 9.27453 13.1067 9.66327L13.4526 11.2423ZM16.0604 8.96833C16.3261 8.86965 16.5618 8.70501 16.7451 8.49017C16.9283 8.27532 17.0529 8.01746 17.107 7.74121C17.1431 7.54146 17.1935 7.34449 17.2578 7.15182C17.3205 6.95858 17.3946 6.76914 17.4795 6.58445C17.5982 6.32827 17.6487 6.04619 17.6262 5.76513C17.6037 5.48408 17.5089 5.21343 17.3509 4.97905L16.6458 3.92785L17.6968 2.98663L18.6903 3.7915C18.9165 3.96748 19.1837 4.08429 19.4673 4.13117C19.7509 4.17805 20.0419 4.15352 20.3135 4.05982C20.6775 3.93354 21.0558 3.85226 21.4399 3.81789C21.7287 3.79404 22.0064 3.69697 22.2463 3.53599C22.4863 3.37501 22.6805 3.15554 22.8103 2.89866L23.378 1.76388L24.7085 2.20371L24.5045 3.45285C24.4606 3.73689 24.4905 4.02735 24.5914 4.29673C24.6923 4.56611 24.8608 4.8055 25.081 4.99226C25.3721 5.2414 25.6313 5.525 25.8527 5.83673C26.0164 6.07167 26.2381 6.26098 26.4967 6.38652C26.7553 6.51206 27.0421 6.56961 27.3295 6.55366L28.6157 6.47449L28.9128 7.84677L27.7242 8.2866C27.4577 8.38529 27.2214 8.55049 27.0381 8.76622C26.8547 8.98195 26.7306 9.24092 26.6776 9.51812C26.6389 9.71586 26.5885 9.91119 26.5268 10.1031C26.4649 10.2966 26.3908 10.4861 26.3051 10.6705C26.1864 10.9267 26.1359 11.2087 26.1584 11.4898C26.1809 11.7708 26.2757 12.0415 26.4337 12.2759L27.1388 13.3271L26.1232 14.2375L25.1298 13.4326C24.904 13.2559 24.637 13.1383 24.3533 13.0907C24.0697 13.043 23.7785 13.0668 23.5066 13.1599C23.144 13.2857 22.7672 13.367 22.3846 13.4018C22.0951 13.425 21.8165 13.5217 21.5756 13.6827C21.3348 13.8437 21.1399 14.0636 21.0097 14.3211L20.4421 15.4559L19.1116 15.016L19.3156 13.7713C19.3597 13.4862 19.3295 13.1946 19.2278 12.9244C19.1261 12.6541 18.9563 12.4142 18.7346 12.2275C18.4447 11.9771 18.1857 11.6937 17.9629 11.383C17.8005 11.1468 17.579 10.9566 17.3201 10.8309C17.0612 10.7052 16.7738 10.6484 16.4861 10.6661L15.2044 10.7452L14.9073 9.37297L16.0604 8.96833ZM20.8412 11.9064C21.606 12.1503 22.4324 12.1236 23.1796 11.831C23.9268 11.5383 24.5486 10.9978 24.939 10.3015C25.3294 9.60522 25.4643 8.79621 25.3208 8.01232C25.1772 7.22843 24.764 6.51815 24.1516 6.0025C23.5392 5.48685 22.7655 5.19775 21.9622 5.18442C21.159 5.17109 20.3759 5.43437 19.7465 5.9294C19.117 6.42443 18.6801 7.12059 18.5102 7.89928C18.3402 8.67796 18.4477 9.49099 18.8144 10.1999C19.0248 10.597 19.3121 10.9491 19.6599 11.2359C20.0077 11.5227 20.4091 11.7386 20.8412 11.8712V11.9064ZM20.2869 8.11506C20.3954 7.77507 20.6105 7.47829 20.9008 7.26788C21.1911 7.05746 21.5416 6.9444 21.9012 6.94512C22.0772 6.94524 22.2521 6.97193 22.4201 7.02428C22.6324 7.09196 22.829 7.20064 22.9988 7.34406C23.1685 7.48749 23.308 7.66282 23.4091 7.85995C23.5124 8.05531 23.5751 8.26929 23.5934 8.48917C23.6117 8.70905 23.5852 8.93036 23.5155 9.13987C23.4076 9.48023 23.1926 9.7774 22.9022 9.98791C22.6117 10.1984 22.2609 10.3112 21.9012 10.3098C21.7252 10.3097 21.5502 10.283 21.3823 10.2306C21.1697 10.1636 20.9727 10.0552 20.8028 9.9117C20.633 9.7682 20.4938 9.59251 20.3933 9.39496C20.2847 9.195 20.2192 8.97487 20.2009 8.7485C20.1826 8.52212 20.2118 8.29444 20.2869 8.07986V8.11506ZM20.9831 28.7872L22.114 28.9587C22.2326 29.389 22.3808 29.8108 22.5575 30.221L21.7859 31.0567C21.5369 31.328 21.3989 31.6816 21.3989 32.0485C21.3989 32.4154 21.5369 32.769 21.7859 33.0403L23.7372 35.1999C23.9893 35.4652 24.3292 35.6317 24.6949 35.6688C25.0605 35.706 25.4275 35.6113 25.7285 35.4022L26.6466 34.7293C27.0384 34.9519 27.446 35.1459 27.8662 35.3099L27.915 36.4446C27.93 36.8109 28.0825 37.1583 28.3427 37.4188C28.6028 37.6792 28.9517 37.8337 29.3208 37.8521L32.239 38.0105H32.3322C32.6881 38.012 33.0326 37.886 33.3023 37.6557C33.5721 37.4254 33.7488 37.1062 33.8001 36.7569L33.9731 35.6353C34.4082 35.5171 34.8349 35.3701 35.2504 35.1955L36.093 35.9608C36.3655 36.2118 36.7234 36.3516 37.0953 36.3523C37.4622 36.3522 37.816 36.2174 38.0887 35.974L40.2663 34.0388C40.5423 33.794 40.7162 33.4558 40.754 33.0905C40.7917 32.7252 40.6905 32.3591 40.4703 32.0639L39.7917 31.1535C40.0153 30.7644 40.2109 30.3602 40.3772 29.9439L41.5214 29.8955C41.8907 29.8806 42.241 29.7293 42.5036 29.4714C42.7662 29.2134 42.922 28.8674 42.9405 28.5013L43.1002 25.6072C43.122 25.241 43.0048 24.8799 42.7717 24.595C42.5387 24.3101 42.2065 24.1221 41.8407 24.0678L40.7098 23.8962C40.5919 23.4657 40.4437 23.0439 40.2663 22.6339L41.038 21.7982C41.2879 21.5274 41.4265 21.1735 41.4265 20.8064C41.4265 20.4393 41.2879 20.0854 41.038 19.8146L39.0866 17.655C38.8352 17.39 38.4961 17.2237 38.1312 17.1866C37.7663 17.1494 37.4001 17.2439 37.0997 17.4527L36.1773 18.1256C35.7845 17.9048 35.377 17.7108 34.9577 17.5451L34.9089 16.4103C34.8938 16.044 34.7413 15.6966 34.4812 15.4361C34.221 15.1757 33.8721 15.0212 33.503 15.0028L30.5848 14.8445H30.5005C30.1449 14.8438 29.8008 14.9701 29.5313 15.2003C29.2618 15.4304 29.0847 15.7491 29.0326 16.098L28.8596 17.2196C28.4257 17.3372 28.0004 17.4841 27.5868 17.6594L26.7441 16.8941C26.4662 16.6561 26.1113 16.5251 25.744 16.5251C25.3768 16.5251 25.0219 16.6561 24.744 16.8941L22.5664 18.8294C22.2904 19.0741 22.1165 19.4123 22.0787 19.7776C22.041 20.1429 22.1422 20.509 22.3624 20.8042L23.0409 21.7147C22.8192 22.1046 22.6237 22.5087 22.4555 22.9242L21.3113 22.9726C20.942 22.9875 20.5917 23.1388 20.3291 23.3967C20.0665 23.6547 19.9107 24.0008 19.8921 24.3669L19.7325 27.261C19.7172 27.6215 19.8362 27.9749 20.0669 28.254C20.2976 28.533 20.6237 28.7181 20.9831 28.774V28.7872ZM21.6395 24.7055L22.7172 24.6615C23.0101 24.649 23.2926 24.5509 23.5294 24.3795C23.7661 24.2081 23.9465 23.9711 24.0477 23.6983C24.2117 23.2639 24.4135 22.8445 24.6508 22.4448C24.8022 22.1968 24.8762 21.91 24.8636 21.6205C24.851 21.3309 24.7523 21.0515 24.5799 20.8174L23.9412 19.9377L25.7152 18.3456L26.5091 19.0669C26.7261 19.2617 26.9958 19.3893 27.2851 19.4338C27.5743 19.4784 27.8704 19.438 28.1367 19.3176C28.5663 19.1326 29.0115 18.9854 29.4672 18.8778C29.7514 18.8072 30.0085 18.6554 30.2064 18.4411C30.4043 18.2268 30.5343 17.9596 30.5804 17.6726L30.7445 16.617L33.1437 16.7446L33.1881 17.8133C33.201 18.1043 33.3006 18.3849 33.4743 18.6198C33.6479 18.8546 33.8879 19.0332 34.1638 19.1328C34.6 19.2964 35.0214 19.4965 35.4233 19.731C35.6753 19.8777 35.9646 19.9491 36.2565 19.9366C36.5484 19.9241 36.8304 19.8283 37.0687 19.6606L37.9557 19.0273L39.5611 20.7866L38.8338 21.5739C38.6363 21.7885 38.507 22.0561 38.4621 22.3432C38.4171 22.6303 38.4585 22.9242 38.581 23.1881C38.7676 23.6142 38.916 24.0557 39.0245 24.5076C39.0951 24.7898 39.248 25.045 39.4642 25.2413C39.6803 25.4377 39.9501 25.5665 40.2397 25.6116L41.3085 25.7743L41.1754 28.1538L40.0978 28.1978C39.8045 28.2112 39.5218 28.3102 39.2851 28.4823C39.0485 28.6545 38.8683 28.8921 38.7673 29.1654C38.6024 29.598 38.4006 30.0159 38.1641 30.4145C38.0129 30.6633 37.939 30.9508 37.9516 31.241C37.9643 31.5312 38.0628 31.8113 38.2351 32.0463L38.8737 32.926L37.0997 34.5182L36.3059 33.7969C36.0889 33.602 35.8191 33.4745 35.5299 33.4299C35.2407 33.3854 34.9446 33.4258 34.6782 33.5461C34.2494 33.7331 33.804 33.8803 33.3478 33.986C33.0635 34.0565 32.8065 34.2084 32.6086 34.4226C32.4106 34.6369 32.2806 34.9041 32.2346 35.1911L32.0749 36.2511L29.6756 36.1192L29.6268 35.0504C29.6145 34.7593 29.5151 34.4784 29.3414 34.2434C29.1677 34.0085 28.9274 33.8301 28.6512 33.7309C28.2164 33.5673 27.7965 33.3672 27.3961 33.1327C27.1445 32.985 26.855 32.9129 26.5628 32.9254C26.2707 32.9379 25.9886 33.0344 25.7507 33.2031L24.8637 33.8364L23.2583 32.0771L23.99 31.2898C24.1868 31.0747 24.3152 30.8069 24.3594 30.5198C24.4036 30.2327 24.3615 29.9391 24.2384 29.6756C24.0518 29.2496 23.9034 28.808 23.7949 28.3561C23.7243 28.074 23.5713 27.8187 23.3552 27.6224C23.139 27.426 22.8693 27.2972 22.5797 27.2522L21.5153 27.0938L21.6395 24.7055ZM31.0283 33.2471H31.4097C33.2027 33.1974 34.9039 32.4497 36.1454 31.1658C37.3868 29.8818 38.0688 28.1648 38.0437 26.3861C38.0186 24.6074 37.2886 22.91 36.0114 21.6609C34.7343 20.4119 33.0127 19.7117 31.219 19.7117C29.4253 19.7117 27.7037 20.4119 26.4266 21.6609C25.1494 22.91 24.4193 24.6074 24.3943 26.3861C24.3692 28.1648 25.0512 29.8818 26.2926 31.1658C27.5341 32.4497 29.2353 33.1974 31.0283 33.2471ZM26.3006 26.1394C26.3709 24.8456 26.9383 23.6278 27.8861 22.7361C28.8338 21.8444 30.09 21.3467 31.3964 21.3452H31.6802C32.6891 21.3997 33.6591 21.7497 34.4674 22.3509C35.2758 22.9521 35.8862 23.7775 36.2216 24.7227C36.557 25.668 36.6022 26.6906 36.3516 27.6614C36.101 28.6321 35.5657 29.5074 34.8136 30.1765C34.0614 30.8455 33.1261 31.2784 32.1259 31.4204C31.1257 31.5623 30.1055 31.4069 29.1943 30.9738C28.2831 30.5408 27.5219 29.8495 27.0068 28.9875C26.4918 28.1254 26.246 27.1312 26.3006 26.1306V26.1394ZM14.9782 33.1415C14.9918 33.2565 14.9824 33.373 14.9505 33.4843C14.9186 33.5957 14.8648 33.6997 14.7923 33.7904C14.7198 33.8811 14.63 33.9567 14.5279 34.0129C14.4259 34.0691 14.3136 34.1048 14.1977 34.1179C13.6944 34.1778 13.1878 34.2072 12.6809 34.2059C9.55202 34.2001 6.53385 33.0567 4.19793 30.9922C1.86201 28.9276 0.370504 26.0853 0.00584899 23.0034C-0.0212041 22.7701 0.0463034 22.5357 0.193517 22.3517C0.34073 22.1678 0.555599 22.0494 0.790843 22.0225C1.02609 21.9957 1.26244 22.0627 1.44791 22.2087C1.63338 22.3547 1.75277 22.5678 1.77983 22.8011C2.11781 25.6786 3.59438 28.3053 5.88482 30.1034C8.17525 31.9015 11.092 32.7237 13.9937 32.3894C14.2244 32.3618 14.4569 32.4252 14.641 32.5658C14.8251 32.7065 14.9462 32.9132 14.9782 33.1415ZM31.1392 23.2937C31.1495 23.1167 31.2298 22.9509 31.3627 22.8323C31.4955 22.7137 31.6702 22.6519 31.8488 22.6603C32.8721 22.7171 33.8311 23.174 34.5153 23.9309C35.1995 24.6878 35.5532 25.6829 35.4987 26.698C35.4896 26.8691 35.4146 27.0302 35.2892 27.1481C35.1637 27.266 34.9974 27.3316 34.8246 27.3313H34.7891C34.7006 27.3268 34.6138 27.305 34.5337 27.2672C34.4536 27.2294 34.3819 27.1763 34.3226 27.1109C34.2632 27.0455 34.2175 26.9692 34.188 26.8862C34.1584 26.8033 34.1457 26.7154 34.1505 26.6276C34.1703 26.2996 34.1245 25.971 34.0158 25.6606C33.9071 25.3503 33.7377 25.0642 33.5172 24.819C33.2967 24.5738 33.0296 24.3742 32.7311 24.2317C32.4326 24.0892 32.1086 24.0066 31.7778 23.9886C31.6005 23.9795 31.4341 23.9014 31.3145 23.7713C31.1949 23.6412 31.1319 23.4696 31.1392 23.2937ZM28.7354 23.7071C28.7346 23.5538 28.7796 23.4037 28.8648 23.2758C28.95 23.148 29.0716 23.048 29.2142 22.9888C29.3567 22.9295 29.5138 22.9136 29.6655 22.9429C29.8172 22.9723 29.9567 23.0457 30.0663 23.1538C30.1759 23.2619 30.2507 23.3998 30.2812 23.5501C30.3117 23.7003 30.2965 23.8562 30.2375 23.9979C30.1786 24.1396 30.0785 24.2608 29.9501 24.3461C29.8216 24.4313 29.6705 24.4768 29.516 24.4768C29.3097 24.4768 29.1119 24.3959 28.9656 24.2516C28.8194 24.1074 28.7366 23.9116 28.7354 23.7071ZM17.6968 32.6577C17.6968 32.8221 17.6477 32.9828 17.5556 33.1195C17.4635 33.2562 17.3326 33.3628 17.1794 33.4257C17.0263 33.4886 16.8577 33.5051 16.6951 33.473C16.5325 33.4409 16.3832 33.3617 16.2659 33.2455C16.1487 33.1292 16.0689 32.9811 16.0365 32.8199C16.0042 32.6586 16.0208 32.4915 16.0842 32.3396C16.1477 32.1877 16.2551 32.0578 16.393 31.9665C16.5308 31.8752 16.6929 31.8264 16.8586 31.8264C17.0809 31.8264 17.2942 31.914 17.4513 32.0699C17.6085 32.2258 17.6968 32.4372 17.6968 32.6577ZM57.0969 57.2883C57.0489 57.0604 56.9118 56.8607 56.7156 56.733C56.5194 56.6052 56.2801 56.5597 56.0502 56.6065L54.09 57.0068C54.0279 56.5054 53.9437 55.85 53.855 55.1463C53.6288 53.2638 53.5001 51.742 53.4425 50.9943C53.2473 48.4389 53.9836 45.8394 55.4515 40.6538L55.6467 39.9765C56.4494 37.1704 57.1457 34.7469 56.2986 31.6944C56.2117 31.3707 56.1066 31.0521 55.9837 30.74C55.8507 30.3969 55.2564 29.4997 53.2962 26.588C52.1342 24.8639 50.9279 23.0693 50.3558 22.1369C49.7206 21.0576 49.1805 19.926 48.7415 18.7546C48.2048 17.4351 47.7392 16.2652 46.4486 16.1772H46.3156C45.6592 16.1772 44.6613 16.5027 43.628 18.0465C42.4926 19.7398 42.8252 21.5915 43.0204 22.6955C43.3458 24.4374 44.1412 26.0593 45.3221 27.3885L47.3178 34.2631C46.3821 37.0604 44.8077 40.5307 43.078 42.18C42.6292 42.6266 42.0873 42.9703 41.4903 43.1873C41.1613 43.277 40.82 43.3141 40.4792 43.2972C39.1052 43.2401 37.7379 43.0753 36.3901 42.8046L36.1285 42.7562C34.7492 41.0937 32.0572 38.5514 28.2919 38.226C27.9593 38.1996 27.5424 38.1644 27.0723 38.1644C25.7052 38.0933 24.3636 38.5505 23.3292 39.4399C22.6503 40.0659 22.1604 40.8669 21.9145 41.7534C21.8501 41.9687 21.8713 42.2002 21.9735 42.4006C22.0758 42.6009 22.2514 42.7549 22.4644 42.831C24.2384 43.4688 27.5735 44.9466 29.7067 47.6691C30.3271 48.4831 30.8761 49.3484 31.3476 50.2554C31.6714 50.8931 31.9596 51.4297 32.2035 51.8915C32.5297 52.4327 32.8016 53.0043 33.0151 53.5981C33.6981 56.6197 34.1106 57.8821 37.1929 60.4859L35.4677 60.8421C35.2383 60.89 35.0374 61.026 34.9089 61.2204C34.7796 61.4147 34.7334 61.652 34.7802 61.8801L35.7027 66.2784C35.7504 66.5071 35.8876 66.7076 36.0843 66.8359C36.281 66.9641 36.5211 67.0096 36.7516 66.9624C36.9821 66.9151 37.1843 66.779 37.3136 66.5839C37.443 66.3889 37.4889 66.1508 37.4412 65.9222L36.6962 62.3771L39.1354 61.8757C39.1778 61.8852 39.2208 61.8925 39.264 61.8977C39.3245 61.9021 39.3853 61.9021 39.4458 61.8977L53.5401 58.9509C53.5964 58.9386 53.6513 58.9209 53.7042 58.8981L55.558 58.5154L57.1856 66.2961C57.2279 66.4969 57.3398 66.6768 57.5018 66.8045C57.6638 66.9322 57.8657 66.9997 58.0726 66.9954C58.133 67.0015 58.194 67.0015 58.2544 66.9954C58.4842 66.9478 58.6855 66.8118 58.8144 66.6172C58.9432 66.4227 58.989 66.1854 58.9418 65.9574L57.0969 57.2883ZM39.4059 60.0284C35.5874 57.0112 35.3923 56.1491 34.7315 53.211C34.4933 52.4611 34.1657 51.742 33.7558 51.069C33.5119 50.6292 33.2325 50.0882 32.9176 49.4637C32.3918 48.4552 31.7805 47.493 31.0904 46.5872C28.9971 43.9482 25.9592 42.3428 23.9102 41.5115C24.0655 41.2252 24.2678 40.9665 24.5089 40.7462C25.2205 40.1605 26.1321 39.8691 27.0546 39.9325C27.4449 39.9325 27.8041 39.9633 28.119 39.9897C31.5516 40.2844 34.0307 42.9761 34.9355 44.1197C35.0772 44.2997 35.284 44.418 35.512 44.4496C35.6185 44.4496 35.8092 44.498 36.0575 44.5419C37.5086 44.8354 38.9815 45.0104 40.4614 45.0653C40.992 45.0811 41.5217 45.0143 42.0314 44.8674C42.8777 44.5659 43.648 44.0857 44.2888 43.4599C46.83 41.0497 48.5907 36.0444 49.0696 34.5666C49.1214 34.3989 49.1214 34.2197 49.0696 34.052L46.9675 26.7288C46.9313 26.6001 46.8661 26.4813 46.7768 26.3813C45.7481 25.2727 45.051 23.9021 44.7633 22.4228C44.5948 21.464 44.3597 20.1577 45.1004 19.0493C45.6725 18.196 46.1293 17.9673 46.3244 17.9673C46.4974 17.9673 46.8389 18.847 47.0872 19.4451C47.5701 20.6997 48.1637 21.9095 48.8612 23.0605C49.4555 24.037 50.6707 25.8403 51.8459 27.582C52.897 29.1434 54.2097 31.1007 54.3561 31.3954C54.4568 31.6493 54.5412 31.9094 54.6089 32.1739C55.3273 34.7557 54.7242 36.8537 53.9614 39.5103L53.7663 40.192C52.2406 45.5755 51.4778 48.2761 51.6951 51.1526C51.7528 51.9047 51.8858 53.4529 52.1164 55.3706C52.214 56.1447 52.3027 56.8616 52.3737 57.3806L39.4059 60.0284ZM57.9129 26.4209C57.912 26.2563 57.9604 26.0951 58.052 25.9578C58.1436 25.8206 58.2742 25.7133 58.4273 25.6497C58.5804 25.5861 58.749 25.5691 58.9119 25.6006C59.0748 25.6322 59.2246 25.711 59.3422 25.8271C59.4599 25.9432 59.5402 26.0913 59.5729 26.2527C59.6056 26.414 59.5892 26.5814 59.5259 26.7336C59.4626 26.8857 59.3552 27.0158 59.2172 27.1073C59.0793 27.1989 58.9171 27.2477 58.7511 27.2477C58.6407 27.2483 58.5312 27.2273 58.429 27.1857C58.3268 27.1442 58.2339 27.0831 58.1556 27.0058C58.0773 26.9286 58.0151 26.8367 57.9727 26.7356C57.9303 26.6345 57.9085 26.526 57.9085 26.4165L57.9129 26.4209ZM55.1233 62.9753C55.1233 63.2799 55.0322 63.5778 54.8614 63.831C54.6907 64.0843 54.448 64.2816 54.1641 64.398C53.8802 64.5143 53.5679 64.5446 53.2666 64.4848C52.9654 64.425 52.6888 64.278 52.4719 64.0623C52.255 63.8465 52.1076 63.5718 52.0482 63.2729C51.9888 62.974 52.0201 62.6644 52.1383 62.3831C52.2565 62.1019 52.4561 61.8618 52.712 61.6932C52.9678 61.5246 53.2684 61.435 53.5756 61.4359C53.9849 61.4382 54.3768 61.6008 54.6659 61.8883C54.9549 62.1758 55.1177 62.5649 55.1189 62.9709L55.1233 62.9753ZM29.0592 55.3222C28.9236 55.3967 28.7707 55.4346 28.6157 55.4322C28.4586 55.4336 28.304 55.3936 28.1677 55.3163C28.0313 55.239 27.9181 55.1273 27.8396 54.9924L27.6134 54.5965C27.3162 54.0731 26.957 53.4265 26.5712 52.67C26.2543 52.0633 25.8895 51.4823 25.4802 50.9327C24.5178 49.7144 22.7482 48.5796 20.6283 47.8231C20.5133 47.7885 20.4066 47.731 20.3146 47.6542C20.2227 47.5774 20.1474 47.4829 20.0935 47.3763C20.0395 47.2698 20.0079 47.1535 20.0007 47.0345C19.9934 46.9155 20.0106 46.7963 20.0512 46.6841C20.0918 46.5719 20.155 46.469 20.2369 46.3818C20.3189 46.2946 20.4178 46.2248 20.5278 46.1766C20.6378 46.1285 20.7565 46.103 20.8767 46.1017C20.9969 46.1005 21.1161 46.1235 21.2271 46.1693C23.6574 47.049 25.7152 48.3685 26.8772 49.8507C27.3562 50.4882 27.7819 51.1633 28.15 51.8695C28.5225 52.6041 28.8596 53.1891 29.1567 53.7344L29.3918 54.1435C29.4998 54.3444 29.525 54.5791 29.4622 54.7981C29.3993 55.0171 29.2533 55.2034 29.0547 55.3178L29.0592 55.3222ZM60.7646 41.4235L60.5739 42.0833C60.5209 42.2668 60.4092 42.4283 60.2556 42.5433C60.102 42.6584 59.9149 42.7208 59.7224 42.721C59.6401 42.7214 59.5581 42.711 59.4785 42.6902C59.2528 42.6258 59.0621 42.4753 58.9482 42.2716C58.8343 42.068 58.8065 41.8278 58.8709 41.6039L59.0571 40.9441C59.8865 38.05 60.8311 34.7865 59.7179 30.7532C59.5927 30.3149 59.4447 29.8833 59.2744 29.4601C59.1898 29.2435 59.195 29.0025 59.2889 28.7897C59.3827 28.5769 59.5577 28.4095 59.7755 28.3241C59.9934 28.2388 60.2364 28.2423 60.4516 28.334C60.6668 28.4257 60.8367 28.5981 60.9242 28.8135C61.1162 29.2947 61.2791 29.7867 61.4121 30.287C62.6672 34.7689 61.656 38.3051 60.7601 41.4192L60.7646 41.4235ZM30.5582 57.4598C30.5582 57.6244 30.5089 57.7853 30.4166 57.9221C30.3243 58.0589 30.1931 58.1654 30.0397 58.2282C29.8863 58.291 29.7175 58.3072 29.5548 58.2748C29.3921 58.2423 29.2428 58.1628 29.1257 58.0461C29.0087 57.9294 28.9292 57.7808 28.8973 57.6193C28.8655 57.4577 28.8827 57.2905 28.9469 57.1386C29.011 56.9868 29.1191 56.8573 29.2575 56.7665C29.396 56.6757 29.5584 56.6277 29.7244 56.6285C29.8343 56.6285 29.9431 56.6501 30.0445 56.6919C30.146 56.7337 30.2381 56.795 30.3156 56.8723C30.393 56.9495 30.4544 57.0412 30.496 57.142C30.5376 57.2429 30.5588 57.3509 30.5582 57.4598Z"/>
</mask>
<path d="M19.8478 21.3936L19.6172 20.0741C19.5527 19.71 19.3589 19.3808 19.071 19.1461C18.783 18.9113 18.4199 18.7865 18.0472 18.7942H17.0094C16.791 18.476 16.5398 18.1812 16.2599 17.9145L16.4639 16.9073C16.5407 16.5451 16.4828 16.1675 16.3011 15.8443C16.1194 15.521 15.826 15.2737 15.4749 15.148L14.211 14.7081C13.8605 14.5851 13.4776 14.5887 13.1295 14.7183C12.7815 14.8478 12.4907 15.095 12.3084 15.4163L11.8117 16.3179C11.4224 16.343 11.0372 16.4108 10.663 16.5202L9.88248 15.8341C9.59855 15.597 9.24056 15.4648 8.86942 15.46C8.49828 15.4552 8.13692 15.5781 7.84684 15.8077L6.81793 16.661C6.52999 16.8968 6.33774 17.2279 6.27661 17.5933C6.21548 17.9587 6.2896 18.3336 6.48531 18.649L7.02193 19.5287C6.93323 19.7046 6.85784 19.885 6.78688 20.0697C6.71592 20.2544 6.66271 20.4392 6.61393 20.6283L5.63823 20.9494C5.28378 21.0662 4.98349 21.3055 4.79216 21.6236C4.60083 21.9417 4.53121 22.3175 4.59602 22.6823L4.82664 24.0018C4.89201 24.3655 5.08599 24.6942 5.37374 24.9288C5.6615 25.1633 6.02417 25.2885 6.3966 25.2817L7.43438 25.2553C7.65304 25.5733 7.9042 25.8681 8.18389 26.135L7.97988 27.1378C7.90315 27.5 7.96098 27.8775 8.14272 28.2008C8.32445 28.5241 8.61786 28.7714 8.96888 28.8971L10.2328 29.337C10.4041 29.402 10.5861 29.4348 10.7695 29.4337C11.0491 29.4336 11.3234 29.3587 11.5638 29.2171C11.8041 29.0755 12.0016 28.8723 12.1354 28.6288L12.6321 27.7492C13.0213 27.7209 13.4064 27.6516 13.7808 27.5424L14.5613 28.2286C14.8413 28.4738 15.2007 28.6113 15.5742 28.6161C15.9477 28.621 16.3106 28.4928 16.597 28.255L17.6259 27.4017C17.9138 27.1658 18.1061 26.8347 18.1672 26.4694C18.2283 26.104 18.1542 25.7291 17.9585 25.4137L17.4219 24.534C17.5936 24.183 17.7302 23.8162 17.8299 23.4388L18.8056 23.1133C19.1579 22.9976 19.4568 22.7605 19.648 22.445C19.8392 22.1295 19.9101 21.7565 19.8478 21.3936ZM17.1513 21.8334C16.9008 21.9165 16.6758 22.0614 16.4973 22.2545C16.3189 22.4477 16.1929 22.6827 16.1313 22.9374C16.0955 23.1003 16.0481 23.2605 15.9894 23.4168C15.9308 23.5676 15.8627 23.7145 15.7854 23.8566C15.6656 24.0909 15.608 24.3515 15.6181 24.614C15.6281 24.8764 15.7056 25.132 15.843 25.3565L16.3486 26.1746L15.5991 26.7947L14.8673 26.1482C14.665 25.9754 14.4217 25.8564 14.1602 25.8026C13.8988 25.7487 13.6278 25.7617 13.3728 25.8403C13.0696 25.9296 12.7571 25.9842 12.4414 26.003C12.1726 26.0144 11.9111 26.094 11.6821 26.2342C11.453 26.3743 11.264 26.5703 11.1331 26.8035L10.6675 27.6436L9.75386 27.3137L9.94456 26.3725C9.99814 26.1105 9.98263 25.8392 9.89949 25.585C9.81635 25.3307 9.66843 25.102 9.47003 24.921C9.23835 24.7075 9.0356 24.465 8.86687 24.1997C8.72314 23.9795 8.52606 23.7985 8.29365 23.6733C8.06124 23.548 7.80089 23.4826 7.53639 23.4828H6.56071L6.39218 22.5284L7.3102 22.2249C7.5607 22.1418 7.78578 21.9969 7.96422 21.8037C8.14267 21.6106 8.26863 21.3756 8.33025 21.1209C8.3667 20.9581 8.41411 20.7979 8.47217 20.6415C8.53071 20.4907 8.59884 20.3438 8.67617 20.2016C8.79602 19.9682 8.85364 19.7082 8.84355 19.4465C8.83346 19.1847 8.75599 18.9299 8.61852 18.7062L8.0952 17.8749L8.8447 17.2592L9.57647 17.9013C9.77923 18.0734 10.0224 18.1922 10.2835 18.2468C10.5447 18.3014 10.8155 18.29 11.071 18.2136C11.3738 18.1225 11.6865 18.0679 12.0024 18.0509C12.2718 18.0394 12.5337 17.9594 12.7628 17.8184C12.992 17.6774 13.1807 17.4803 13.3107 17.246L13.7764 16.4059L14.69 16.7358L14.4993 17.6814C14.446 17.9427 14.4618 18.2132 14.5449 18.4667C14.628 18.7202 14.7758 18.9482 14.9738 19.1284C15.2044 19.3429 15.4071 19.5853 15.5769 19.8498C15.7207 20.07 15.9178 20.251 16.1502 20.3762C16.3826 20.5014 16.6429 20.5669 16.9074 20.5667H17.8831L18.0516 21.5211L17.1513 21.8334ZM13.2131 19.3616C12.8968 19.2443 12.5618 19.1847 12.2241 19.1856C11.6326 19.1868 11.0556 19.3674 10.5704 19.7031C10.0853 20.0387 9.71526 20.5135 9.50994 21.0637C9.37974 21.4169 9.32096 21.7921 9.33698 22.1678C9.35299 22.5435 9.44347 22.9125 9.60326 23.2535C9.76306 23.5945 9.98902 23.901 10.2683 24.1554C10.5475 24.4099 10.8745 24.6072 11.2307 24.7363C11.547 24.8535 11.882 24.9132 12.2197 24.9122C12.7049 24.9126 13.1823 24.7917 13.6079 24.5607C14.0335 24.3297 14.3935 23.996 14.6547 23.5906C14.916 23.1851 15.0699 22.7209 15.1024 22.2408C15.135 21.7607 15.0449 21.2803 14.8407 20.8438C14.6847 20.4978 14.4603 20.1864 14.1807 19.9281C13.9011 19.6697 13.5721 19.4696 13.2131 19.3396V19.3616ZM13.2663 22.4404C13.1606 22.7122 12.9528 22.9328 12.6865 23.0559C12.4202 23.1789 12.1161 23.1948 11.8383 23.1001C11.7009 23.051 11.5748 22.9751 11.4674 22.8769C11.36 22.7787 11.2735 22.6602 11.213 22.5284C11.1339 22.36 11.0989 22.1745 11.1113 21.9891C11.1237 21.8038 11.183 21.6245 11.2838 21.4679C11.3847 21.3114 11.5237 21.1825 11.6881 21.0934C11.8524 21.0043 12.0368 20.9578 12.2241 20.9582C12.3541 20.9582 12.4832 20.9805 12.6055 21.0241C12.8733 21.1261 13.091 21.3267 13.2133 21.584C13.3355 21.8413 13.353 22.1355 13.2619 22.4052L13.2663 22.4404ZM13.4526 11.2423C13.5383 11.6314 13.7606 11.9777 14.0798 12.2194C14.399 12.461 14.7945 12.5824 15.1955 12.5618L16.4994 12.4782C16.7965 12.887 17.1386 13.2618 17.5195 13.5954L17.311 14.8709C17.2445 15.2639 17.3237 15.6676 17.5341 16.0071C17.7444 16.3467 18.0716 16.5993 18.4552 16.7182L19.9587 17.1976C20.1248 17.2513 20.2983 17.2795 20.4731 17.2812C20.7856 17.2815 21.092 17.1951 21.3577 17.0319C21.6233 16.8687 21.8377 16.6351 21.9766 16.3575L22.5531 15.1963C23.0579 15.1475 23.5551 15.0397 24.0344 14.8753L25.05 15.6978C25.3649 15.9403 25.7549 16.0671 26.1535 16.0567C26.5521 16.0463 26.9348 15.8992 27.2364 15.6406L28.4072 14.585C28.7058 14.3188 28.8976 13.9548 28.9473 13.5597C28.997 13.1646 28.9013 12.765 28.6778 12.4342L27.9593 11.3566C28.064 11.1272 28.1558 10.8923 28.2343 10.6529C28.3108 10.4115 28.3745 10.1664 28.425 9.91836L29.6401 9.47853C30.0165 9.33938 30.3293 9.06991 30.5208 8.71985C30.7124 8.36979 30.7698 7.96281 30.6824 7.57407L30.3497 6.03906C30.264 5.64915 30.041 5.30224 29.7209 5.06047C29.4007 4.8187 29.0042 4.69786 28.6024 4.71957L27.3029 4.79873C27.0059 4.38987 26.6637 4.01514 26.2829 3.68154L26.4913 2.40605C26.5578 2.013 26.4786 1.60936 26.2683 1.26977C26.0579 0.930178 25.7307 0.677597 25.3471 0.558747L23.8392 0.0793181C23.4573 -0.0420931 23.0441 -0.0236297 22.6746 0.131317C22.3052 0.286264 22.004 0.567443 21.8258 0.923815L21.2448 2.04098C20.7402 2.09078 20.2431 2.19852 19.7635 2.36205L18.7524 1.54397C18.4384 1.29903 18.048 1.17068 17.6487 1.18113C17.2495 1.19157 16.8664 1.34014 16.5659 1.60115L15.3951 2.65235C15.0954 2.91872 14.9028 3.28361 14.8531 3.67972C14.8034 4.07582 14.8998 4.47639 15.1246 4.80751L15.843 5.8807C15.7365 6.10928 15.6446 6.34435 15.5681 6.58445C15.4895 6.82521 15.4258 7.0705 15.3774 7.31896L14.1489 7.75879C13.7726 7.89794 13.4598 8.16744 13.2682 8.51749C13.0766 8.86755 13.0193 9.27453 13.1067 9.66327L13.4526 11.2423ZM16.0604 8.96833C16.3261 8.86965 16.5618 8.70501 16.7451 8.49017C16.9283 8.27532 17.0529 8.01746 17.107 7.74121C17.1431 7.54146 17.1935 7.34449 17.2578 7.15182C17.3205 6.95858 17.3946 6.76914 17.4795 6.58445C17.5982 6.32827 17.6487 6.04619 17.6262 5.76513C17.6037 5.48408 17.5089 5.21343 17.3509 4.97905L16.6458 3.92785L17.6968 2.98663L18.6903 3.7915C18.9165 3.96748 19.1837 4.08429 19.4673 4.13117C19.7509 4.17805 20.0419 4.15352 20.3135 4.05982C20.6775 3.93354 21.0558 3.85226 21.4399 3.81789C21.7287 3.79404 22.0064 3.69697 22.2463 3.53599C22.4863 3.37501 22.6805 3.15554 22.8103 2.89866L23.378 1.76388L24.7085 2.20371L24.5045 3.45285C24.4606 3.73689 24.4905 4.02735 24.5914 4.29673C24.6923 4.56611 24.8608 4.8055 25.081 4.99226C25.3721 5.2414 25.6313 5.525 25.8527 5.83673C26.0164 6.07167 26.2381 6.26098 26.4967 6.38652C26.7553 6.51206 27.0421 6.56961 27.3295 6.55366L28.6157 6.47449L28.9128 7.84677L27.7242 8.2866C27.4577 8.38529 27.2214 8.55049 27.0381 8.76622C26.8547 8.98195 26.7306 9.24092 26.6776 9.51812C26.6389 9.71586 26.5885 9.91119 26.5268 10.1031C26.4649 10.2966 26.3908 10.4861 26.3051 10.6705C26.1864 10.9267 26.1359 11.2087 26.1584 11.4898C26.1809 11.7708 26.2757 12.0415 26.4337 12.2759L27.1388 13.3271L26.1232 14.2375L25.1298 13.4326C24.904 13.2559 24.637 13.1383 24.3533 13.0907C24.0697 13.043 23.7785 13.0668 23.5066 13.1599C23.144 13.2857 22.7672 13.367 22.3846 13.4018C22.0951 13.425 21.8165 13.5217 21.5756 13.6827C21.3348 13.8437 21.1399 14.0636 21.0097 14.3211L20.4421 15.4559L19.1116 15.016L19.3156 13.7713C19.3597 13.4862 19.3295 13.1946 19.2278 12.9244C19.1261 12.6541 18.9563 12.4142 18.7346 12.2275C18.4447 11.9771 18.1857 11.6937 17.9629 11.383C17.8005 11.1468 17.579 10.9566 17.3201 10.8309C17.0612 10.7052 16.7738 10.6484 16.4861 10.6661L15.2044 10.7452L14.9073 9.37297L16.0604 8.96833ZM20.8412 11.9064C21.606 12.1503 22.4324 12.1236 23.1796 11.831C23.9268 11.5383 24.5486 10.9978 24.939 10.3015C25.3294 9.60522 25.4643 8.79621 25.3208 8.01232C25.1772 7.22843 24.764 6.51815 24.1516 6.0025C23.5392 5.48685 22.7655 5.19775 21.9622 5.18442C21.159 5.17109 20.3759 5.43437 19.7465 5.9294C19.117 6.42443 18.6801 7.12059 18.5102 7.89928C18.3402 8.67796 18.4477 9.49099 18.8144 10.1999C19.0248 10.597 19.3121 10.9491 19.6599 11.2359C20.0077 11.5227 20.4091 11.7386 20.8412 11.8712V11.9064ZM20.2869 8.11506C20.3954 7.77507 20.6105 7.47829 20.9008 7.26788C21.1911 7.05746 21.5416 6.9444 21.9012 6.94512C22.0772 6.94524 22.2521 6.97193 22.4201 7.02428C22.6324 7.09196 22.829 7.20064 22.9988 7.34406C23.1685 7.48749 23.308 7.66282 23.4091 7.85995C23.5124 8.05531 23.5751 8.26929 23.5934 8.48917C23.6117 8.70905 23.5852 8.93036 23.5155 9.13987C23.4076 9.48023 23.1926 9.7774 22.9022 9.98791C22.6117 10.1984 22.2609 10.3112 21.9012 10.3098C21.7252 10.3097 21.5502 10.283 21.3823 10.2306C21.1697 10.1636 20.9727 10.0552 20.8028 9.9117C20.633 9.7682 20.4938 9.59251 20.3933 9.39496C20.2847 9.195 20.2192 8.97487 20.2009 8.7485C20.1826 8.52212 20.2118 8.29444 20.2869 8.07986V8.11506ZM20.9831 28.7872L22.114 28.9587C22.2326 29.389 22.3808 29.8108 22.5575 30.221L21.7859 31.0567C21.5369 31.328 21.3989 31.6816 21.3989 32.0485C21.3989 32.4154 21.5369 32.769 21.7859 33.0403L23.7372 35.1999C23.9893 35.4652 24.3292 35.6317 24.6949 35.6688C25.0605 35.706 25.4275 35.6113 25.7285 35.4022L26.6466 34.7293C27.0384 34.9519 27.446 35.1459 27.8662 35.3099L27.915 36.4446C27.93 36.8109 28.0825 37.1583 28.3427 37.4188C28.6028 37.6792 28.9517 37.8337 29.3208 37.8521L32.239 38.0105H32.3322C32.6881 38.012 33.0326 37.886 33.3023 37.6557C33.5721 37.4254 33.7488 37.1062 33.8001 36.7569L33.9731 35.6353C34.4082 35.5171 34.8349 35.3701 35.2504 35.1955L36.093 35.9608C36.3655 36.2118 36.7234 36.3516 37.0953 36.3523C37.4622 36.3522 37.816 36.2174 38.0887 35.974L40.2663 34.0388C40.5423 33.794 40.7162 33.4558 40.754 33.0905C40.7917 32.7252 40.6905 32.3591 40.4703 32.0639L39.7917 31.1535C40.0153 30.7644 40.2109 30.3602 40.3772 29.9439L41.5214 29.8955C41.8907 29.8806 42.241 29.7293 42.5036 29.4714C42.7662 29.2134 42.922 28.8674 42.9405 28.5013L43.1002 25.6072C43.122 25.241 43.0048 24.8799 42.7717 24.595C42.5387 24.3101 42.2065 24.1221 41.8407 24.0678L40.7098 23.8962C40.5919 23.4657 40.4437 23.0439 40.2663 22.6339L41.038 21.7982C41.2879 21.5274 41.4265 21.1735 41.4265 20.8064C41.4265 20.4393 41.2879 20.0854 41.038 19.8146L39.0866 17.655C38.8352 17.39 38.4961 17.2237 38.1312 17.1866C37.7663 17.1494 37.4001 17.2439 37.0997 17.4527L36.1773 18.1256C35.7845 17.9048 35.377 17.7108 34.9577 17.5451L34.9089 16.4103C34.8938 16.044 34.7413 15.6966 34.4812 15.4361C34.221 15.1757 33.8721 15.0212 33.503 15.0028L30.5848 14.8445H30.5005C30.1449 14.8438 29.8008 14.9701 29.5313 15.2003C29.2618 15.4304 29.0847 15.7491 29.0326 16.098L28.8596 17.2196C28.4257 17.3372 28.0004 17.4841 27.5868 17.6594L26.7441 16.8941C26.4662 16.6561 26.1113 16.5251 25.744 16.5251C25.3768 16.5251 25.0219 16.6561 24.744 16.8941L22.5664 18.8294C22.2904 19.0741 22.1165 19.4123 22.0787 19.7776C22.041 20.1429 22.1422 20.509 22.3624 20.8042L23.0409 21.7147C22.8192 22.1046 22.6237 22.5087 22.4555 22.9242L21.3113 22.9726C20.942 22.9875 20.5917 23.1388 20.3291 23.3967C20.0665 23.6547 19.9107 24.0008 19.8921 24.3669L19.7325 27.261C19.7172 27.6215 19.8362 27.9749 20.0669 28.254C20.2976 28.533 20.6237 28.7181 20.9831 28.774V28.7872ZM21.6395 24.7055L22.7172 24.6615C23.0101 24.649 23.2926 24.5509 23.5294 24.3795C23.7661 24.2081 23.9465 23.9711 24.0477 23.6983C24.2117 23.2639 24.4135 22.8445 24.6508 22.4448C24.8022 22.1968 24.8762 21.91 24.8636 21.6205C24.851 21.3309 24.7523 21.0515 24.5799 20.8174L23.9412 19.9377L25.7152 18.3456L26.5091 19.0669C26.7261 19.2617 26.9958 19.3893 27.2851 19.4338C27.5743 19.4784 27.8704 19.438 28.1367 19.3176C28.5663 19.1326 29.0115 18.9854 29.4672 18.8778C29.7514 18.8072 30.0085 18.6554 30.2064 18.4411C30.4043 18.2268 30.5343 17.9596 30.5804 17.6726L30.7445 16.617L33.1437 16.7446L33.1881 17.8133C33.201 18.1043 33.3006 18.3849 33.4743 18.6198C33.6479 18.8546 33.8879 19.0332 34.1638 19.1328C34.6 19.2964 35.0214 19.4965 35.4233 19.731C35.6753 19.8777 35.9646 19.9491 36.2565 19.9366C36.5484 19.9241 36.8304 19.8283 37.0687 19.6606L37.9557 19.0273L39.5611 20.7866L38.8338 21.5739C38.6363 21.7885 38.507 22.0561 38.4621 22.3432C38.4171 22.6303 38.4585 22.9242 38.581 23.1881C38.7676 23.6142 38.916 24.0557 39.0245 24.5076C39.0951 24.7898 39.248 25.045 39.4642 25.2413C39.6803 25.4377 39.9501 25.5665 40.2397 25.6116L41.3085 25.7743L41.1754 28.1538L40.0978 28.1978C39.8045 28.2112 39.5218 28.3102 39.2851 28.4823C39.0485 28.6545 38.8683 28.8921 38.7673 29.1654C38.6024 29.598 38.4006 30.0159 38.1641 30.4145C38.0129 30.6633 37.939 30.9508 37.9516 31.241C37.9643 31.5312 38.0628 31.8113 38.2351 32.0463L38.8737 32.926L37.0997 34.5182L36.3059 33.7969C36.0889 33.602 35.8191 33.4745 35.5299 33.4299C35.2407 33.3854 34.9446 33.4258 34.6782 33.5461C34.2494 33.7331 33.804 33.8803 33.3478 33.986C33.0635 34.0565 32.8065 34.2084 32.6086 34.4226C32.4106 34.6369 32.2806 34.9041 32.2346 35.1911L32.0749 36.2511L29.6756 36.1192L29.6268 35.0504C29.6145 34.7593 29.5151 34.4784 29.3414 34.2434C29.1677 34.0085 28.9274 33.8301 28.6512 33.7309C28.2164 33.5673 27.7965 33.3672 27.3961 33.1327C27.1445 32.985 26.855 32.9129 26.5628 32.9254C26.2707 32.9379 25.9886 33.0344 25.7507 33.2031L24.8637 33.8364L23.2583 32.0771L23.99 31.2898C24.1868 31.0747 24.3152 30.8069 24.3594 30.5198C24.4036 30.2327 24.3615 29.9391 24.2384 29.6756C24.0518 29.2496 23.9034 28.808 23.7949 28.3561C23.7243 28.074 23.5713 27.8187 23.3552 27.6224C23.139 27.426 22.8693 27.2972 22.5797 27.2522L21.5153 27.0938L21.6395 24.7055ZM31.0283 33.2471H31.4097C33.2027 33.1974 34.9039 32.4497 36.1454 31.1658C37.3868 29.8818 38.0688 28.1648 38.0437 26.3861C38.0186 24.6074 37.2886 22.91 36.0114 21.6609C34.7343 20.4119 33.0127 19.7117 31.219 19.7117C29.4253 19.7117 27.7037 20.4119 26.4266 21.6609C25.1494 22.91 24.4193 24.6074 24.3943 26.3861C24.3692 28.1648 25.0512 29.8818 26.2926 31.1658C27.5341 32.4497 29.2353 33.1974 31.0283 33.2471ZM26.3006 26.1394C26.3709 24.8456 26.9383 23.6278 27.8861 22.7361C28.8338 21.8444 30.09 21.3467 31.3964 21.3452H31.6802C32.6891 21.3997 33.6591 21.7497 34.4674 22.3509C35.2758 22.9521 35.8862 23.7775 36.2216 24.7227C36.557 25.668 36.6022 26.6906 36.3516 27.6614C36.101 28.6321 35.5657 29.5074 34.8136 30.1765C34.0614 30.8455 33.1261 31.2784 32.1259 31.4204C31.1257 31.5623 30.1055 31.4069 29.1943 30.9738C28.2831 30.5408 27.5219 29.8495 27.0068 28.9875C26.4918 28.1254 26.246 27.1312 26.3006 26.1306V26.1394ZM14.9782 33.1415C14.9918 33.2565 14.9824 33.373 14.9505 33.4843C14.9186 33.5957 14.8648 33.6997 14.7923 33.7904C14.7198 33.8811 14.63 33.9567 14.5279 34.0129C14.4259 34.0691 14.3136 34.1048 14.1977 34.1179C13.6944 34.1778 13.1878 34.2072 12.6809 34.2059C9.55202 34.2001 6.53385 33.0567 4.19793 30.9922C1.86201 28.9276 0.370504 26.0853 0.00584899 23.0034C-0.0212041 22.7701 0.0463034 22.5357 0.193517 22.3517C0.34073 22.1678 0.555599 22.0494 0.790843 22.0225C1.02609 21.9957 1.26244 22.0627 1.44791 22.2087C1.63338 22.3547 1.75277 22.5678 1.77983 22.8011C2.11781 25.6786 3.59438 28.3053 5.88482 30.1034C8.17525 31.9015 11.092 32.7237 13.9937 32.3894C14.2244 32.3618 14.4569 32.4252 14.641 32.5658C14.8251 32.7065 14.9462 32.9132 14.9782 33.1415ZM31.1392 23.2937C31.1495 23.1167 31.2298 22.9509 31.3627 22.8323C31.4955 22.7137 31.6702 22.6519 31.8488 22.6603C32.8721 22.7171 33.8311 23.174 34.5153 23.9309C35.1995 24.6878 35.5532 25.6829 35.4987 26.698C35.4896 26.8691 35.4146 27.0302 35.2892 27.1481C35.1637 27.266 34.9974 27.3316 34.8246 27.3313H34.7891C34.7006 27.3268 34.6138 27.305 34.5337 27.2672C34.4536 27.2294 34.3819 27.1763 34.3226 27.1109C34.2632 27.0455 34.2175 26.9692 34.188 26.8862C34.1584 26.8033 34.1457 26.7154 34.1505 26.6276C34.1703 26.2996 34.1245 25.971 34.0158 25.6606C33.9071 25.3503 33.7377 25.0642 33.5172 24.819C33.2967 24.5738 33.0296 24.3742 32.7311 24.2317C32.4326 24.0892 32.1086 24.0066 31.7778 23.9886C31.6005 23.9795 31.4341 23.9014 31.3145 23.7713C31.1949 23.6412 31.1319 23.4696 31.1392 23.2937ZM28.7354 23.7071C28.7346 23.5538 28.7796 23.4037 28.8648 23.2758C28.95 23.148 29.0716 23.048 29.2142 22.9888C29.3567 22.9295 29.5138 22.9136 29.6655 22.9429C29.8172 22.9723 29.9567 23.0457 30.0663 23.1538C30.1759 23.2619 30.2507 23.3998 30.2812 23.5501C30.3117 23.7003 30.2965 23.8562 30.2375 23.9979C30.1786 24.1396 30.0785 24.2608 29.9501 24.3461C29.8216 24.4313 29.6705 24.4768 29.516 24.4768C29.3097 24.4768 29.1119 24.3959 28.9656 24.2516C28.8194 24.1074 28.7366 23.9116 28.7354 23.7071ZM17.6968 32.6577C17.6968 32.8221 17.6477 32.9828 17.5556 33.1195C17.4635 33.2562 17.3326 33.3628 17.1794 33.4257C17.0263 33.4886 16.8577 33.5051 16.6951 33.473C16.5325 33.4409 16.3832 33.3617 16.2659 33.2455C16.1487 33.1292 16.0689 32.9811 16.0365 32.8199C16.0042 32.6586 16.0208 32.4915 16.0842 32.3396C16.1477 32.1877 16.2551 32.0578 16.393 31.9665C16.5308 31.8752 16.6929 31.8264 16.8586 31.8264C17.0809 31.8264 17.2942 31.914 17.4513 32.0699C17.6085 32.2258 17.6968 32.4372 17.6968 32.6577ZM57.0969 57.2883C57.0489 57.0604 56.9118 56.8607 56.7156 56.733C56.5194 56.6052 56.2801 56.5597 56.0502 56.6065L54.09 57.0068C54.0279 56.5054 53.9437 55.85 53.855 55.1463C53.6288 53.2638 53.5001 51.742 53.4425 50.9943C53.2473 48.4389 53.9836 45.8394 55.4515 40.6538L55.6467 39.9765C56.4494 37.1704 57.1457 34.7469 56.2986 31.6944C56.2117 31.3707 56.1066 31.0521 55.9837 30.74C55.8507 30.3969 55.2564 29.4997 53.2962 26.588C52.1342 24.8639 50.9279 23.0693 50.3558 22.1369C49.7206 21.0576 49.1805 19.926 48.7415 18.7546C48.2048 17.4351 47.7392 16.2652 46.4486 16.1772H46.3156C45.6592 16.1772 44.6613 16.5027 43.628 18.0465C42.4926 19.7398 42.8252 21.5915 43.0204 22.6955C43.3458 24.4374 44.1412 26.0593 45.3221 27.3885L47.3178 34.2631C46.3821 37.0604 44.8077 40.5307 43.078 42.18C42.6292 42.6266 42.0873 42.9703 41.4903 43.1873C41.1613 43.277 40.82 43.3141 40.4792 43.2972C39.1052 43.2401 37.7379 43.0753 36.3901 42.8046L36.1285 42.7562C34.7492 41.0937 32.0572 38.5514 28.2919 38.226C27.9593 38.1996 27.5424 38.1644 27.0723 38.1644C25.7052 38.0933 24.3636 38.5505 23.3292 39.4399C22.6503 40.0659 22.1604 40.8669 21.9145 41.7534C21.8501 41.9687 21.8713 42.2002 21.9735 42.4006C22.0758 42.6009 22.2514 42.7549 22.4644 42.831C24.2384 43.4688 27.5735 44.9466 29.7067 47.6691C30.3271 48.4831 30.8761 49.3484 31.3476 50.2554C31.6714 50.8931 31.9596 51.4297 32.2035 51.8915C32.5297 52.4327 32.8016 53.0043 33.0151 53.5981C33.6981 56.6197 34.1106 57.8821 37.1929 60.4859L35.4677 60.8421C35.2383 60.89 35.0374 61.026 34.9089 61.2204C34.7796 61.4147 34.7334 61.652 34.7802 61.8801L35.7027 66.2784C35.7504 66.5071 35.8876 66.7076 36.0843 66.8359C36.281 66.9641 36.5211 67.0096 36.7516 66.9624C36.9821 66.9151 37.1843 66.779 37.3136 66.5839C37.443 66.3889 37.4889 66.1508 37.4412 65.9222L36.6962 62.3771L39.1354 61.8757C39.1778 61.8852 39.2208 61.8925 39.264 61.8977C39.3245 61.9021 39.3853 61.9021 39.4458 61.8977L53.5401 58.9509C53.5964 58.9386 53.6513 58.9209 53.7042 58.8981L55.558 58.5154L57.1856 66.2961C57.2279 66.4969 57.3398 66.6768 57.5018 66.8045C57.6638 66.9322 57.8657 66.9997 58.0726 66.9954C58.133 67.0015 58.194 67.0015 58.2544 66.9954C58.4842 66.9478 58.6855 66.8118 58.8144 66.6172C58.9432 66.4227 58.989 66.1854 58.9418 65.9574L57.0969 57.2883ZM39.4059 60.0284C35.5874 57.0112 35.3923 56.1491 34.7315 53.211C34.4933 52.4611 34.1657 51.742 33.7558 51.069C33.5119 50.6292 33.2325 50.0882 32.9176 49.4637C32.3918 48.4552 31.7805 47.493 31.0904 46.5872C28.9971 43.9482 25.9592 42.3428 23.9102 41.5115C24.0655 41.2252 24.2678 40.9665 24.5089 40.7462C25.2205 40.1605 26.1321 39.8691 27.0546 39.9325C27.4449 39.9325 27.8041 39.9633 28.119 39.9897C31.5516 40.2844 34.0307 42.9761 34.9355 44.1197C35.0772 44.2997 35.284 44.418 35.512 44.4496C35.6185 44.4496 35.8092 44.498 36.0575 44.5419C37.5086 44.8354 38.9815 45.0104 40.4614 45.0653C40.992 45.0811 41.5217 45.0143 42.0314 44.8674C42.8777 44.5659 43.648 44.0857 44.2888 43.4599C46.83 41.0497 48.5907 36.0444 49.0696 34.5666C49.1214 34.3989 49.1214 34.2197 49.0696 34.052L46.9675 26.7288C46.9313 26.6001 46.8661 26.4813 46.7768 26.3813C45.7481 25.2727 45.051 23.9021 44.7633 22.4228C44.5948 21.464 44.3597 20.1577 45.1004 19.0493C45.6725 18.196 46.1293 17.9673 46.3244 17.9673C46.4974 17.9673 46.8389 18.847 47.0872 19.4451C47.5701 20.6997 48.1637 21.9095 48.8612 23.0605C49.4555 24.037 50.6707 25.8403 51.8459 27.582C52.897 29.1434 54.2097 31.1007 54.3561 31.3954C54.4568 31.6493 54.5412 31.9094 54.6089 32.1739C55.3273 34.7557 54.7242 36.8537 53.9614 39.5103L53.7663 40.192C52.2406 45.5755 51.4778 48.2761 51.6951 51.1526C51.7528 51.9047 51.8858 53.4529 52.1164 55.3706C52.214 56.1447 52.3027 56.8616 52.3737 57.3806L39.4059 60.0284ZM57.9129 26.4209C57.912 26.2563 57.9604 26.0951 58.052 25.9578C58.1436 25.8206 58.2742 25.7133 58.4273 25.6497C58.5804 25.5861 58.749 25.5691 58.9119 25.6006C59.0748 25.6322 59.2246 25.711 59.3422 25.8271C59.4599 25.9432 59.5402 26.0913 59.5729 26.2527C59.6056 26.414 59.5892 26.5814 59.5259 26.7336C59.4626 26.8857 59.3552 27.0158 59.2172 27.1073C59.0793 27.1989 58.9171 27.2477 58.7511 27.2477C58.6407 27.2483 58.5312 27.2273 58.429 27.1857C58.3268 27.1442 58.2339 27.0831 58.1556 27.0058C58.0773 26.9286 58.0151 26.8367 57.9727 26.7356C57.9303 26.6345 57.9085 26.526 57.9085 26.4165L57.9129 26.4209ZM55.1233 62.9753C55.1233 63.2799 55.0322 63.5778 54.8614 63.831C54.6907 64.0843 54.448 64.2816 54.1641 64.398C53.8802 64.5143 53.5679 64.5446 53.2666 64.4848C52.9654 64.425 52.6888 64.278 52.4719 64.0623C52.255 63.8465 52.1076 63.5718 52.0482 63.2729C51.9888 62.974 52.0201 62.6644 52.1383 62.3831C52.2565 62.1019 52.4561 61.8618 52.712 61.6932C52.9678 61.5246 53.2684 61.435 53.5756 61.4359C53.9849 61.4382 54.3768 61.6008 54.6659 61.8883C54.9549 62.1758 55.1177 62.5649 55.1189 62.9709L55.1233 62.9753ZM29.0592 55.3222C28.9236 55.3967 28.7707 55.4346 28.6157 55.4322C28.4586 55.4336 28.304 55.3936 28.1677 55.3163C28.0313 55.239 27.9181 55.1273 27.8396 54.9924L27.6134 54.5965C27.3162 54.0731 26.957 53.4265 26.5712 52.67C26.2543 52.0633 25.8895 51.4823 25.4802 50.9327C24.5178 49.7144 22.7482 48.5796 20.6283 47.8231C20.5133 47.7885 20.4066 47.731 20.3146 47.6542C20.2227 47.5774 20.1474 47.4829 20.0935 47.3763C20.0395 47.2698 20.0079 47.1535 20.0007 47.0345C19.9934 46.9155 20.0106 46.7963 20.0512 46.6841C20.0918 46.5719 20.155 46.469 20.2369 46.3818C20.3189 46.2946 20.4178 46.2248 20.5278 46.1766C20.6378 46.1285 20.7565 46.103 20.8767 46.1017C20.9969 46.1005 21.1161 46.1235 21.2271 46.1693C23.6574 47.049 25.7152 48.3685 26.8772 49.8507C27.3562 50.4882 27.7819 51.1633 28.15 51.8695C28.5225 52.6041 28.8596 53.1891 29.1567 53.7344L29.3918 54.1435C29.4998 54.3444 29.525 54.5791 29.4622 54.7981C29.3993 55.0171 29.2533 55.2034 29.0547 55.3178L29.0592 55.3222ZM60.7646 41.4235L60.5739 42.0833C60.5209 42.2668 60.4092 42.4283 60.2556 42.5433C60.102 42.6584 59.9149 42.7208 59.7224 42.721C59.6401 42.7214 59.5581 42.711 59.4785 42.6902C59.2528 42.6258 59.0621 42.4753 58.9482 42.2716C58.8343 42.068 58.8065 41.8278 58.8709 41.6039L59.0571 40.9441C59.8865 38.05 60.8311 34.7865 59.7179 30.7532C59.5927 30.3149 59.4447 29.8833 59.2744 29.4601C59.1898 29.2435 59.195 29.0025 59.2889 28.7897C59.3827 28.5769 59.5577 28.4095 59.7755 28.3241C59.9934 28.2388 60.2364 28.2423 60.4516 28.334C60.6668 28.4257 60.8367 28.5981 60.9242 28.8135C61.1162 29.2947 61.2791 29.7867 61.4121 30.287C62.6672 34.7689 61.656 38.3051 60.7601 41.4192L60.7646 41.4235ZM30.5582 57.4598C30.5582 57.6244 30.5089 57.7853 30.4166 57.9221C30.3243 58.0589 30.1931 58.1654 30.0397 58.2282C29.8863 58.291 29.7175 58.3072 29.5548 58.2748C29.3921 58.2423 29.2428 58.1628 29.1257 58.0461C29.0087 57.9294 28.9292 57.7808 28.8973 57.6193C28.8655 57.4577 28.8827 57.2905 28.9469 57.1386C29.011 56.9868 29.1191 56.8573 29.2575 56.7665C29.396 56.6757 29.5584 56.6277 29.7244 56.6285C29.8343 56.6285 29.9431 56.6501 30.0445 56.6919C30.146 56.7337 30.2381 56.795 30.3156 56.8723C30.393 56.9495 30.4544 57.0412 30.496 57.142C30.5376 57.2429 30.5588 57.3509 30.5582 57.4598Z" stroke="#C70100" stroke-width="2" mask="url(#path-1-inside-1_1_1081)"/>
</svg>
