<svg width="63" height="67" viewBox="0 0 63 67" fill="none" xmlns="http://www.w3.org/2000/svg">
<mask id="path-1-inside-1_1_1038" fill="white">
<path d="M14.4473 14.3911V21.5997C14.4473 21.6634 14.4724 21.7245 14.5172 21.7696C14.562 21.8147 14.6228 21.84 14.6861 21.84H21.8524C21.884 21.8406 21.9153 21.8349 21.9446 21.823C21.9739 21.8112 22.0005 21.7935 22.0228 21.7711C22.0451 21.7486 22.0627 21.7219 22.0744 21.6924C22.0862 21.663 22.0919 21.6314 22.0913 21.5997V19.4467L24.0023 17.14V21.5997C24.001 22.1729 23.7741 22.7222 23.3712 23.1275C22.9683 23.5328 22.4222 23.761 21.8524 23.7623H14.6861C14.1163 23.761 13.5702 23.5328 13.1673 23.1275C12.7644 22.7222 12.5375 22.1729 12.5363 21.5997V14.3911C12.5375 13.8179 12.7644 13.2686 13.1673 12.8633C13.5702 12.458 14.1163 12.2298 14.6861 12.2285H21.8524C22.2448 12.2287 22.6297 12.3367 22.9656 12.5409C22.8033 12.6401 22.6581 12.765 22.5356 12.9109L21.5132 14.1508H14.6861C14.6548 14.1508 14.6237 14.157 14.5947 14.1691C14.5657 14.1812 14.5394 14.1989 14.5172 14.2212C14.495 14.2435 14.4775 14.27 14.4655 14.2991C14.4534 14.3283 14.4473 14.3595 14.4473 14.3911ZM24.0023 31.5668L22.0913 33.8736V36.0169C22.0919 36.0486 22.0862 36.0802 22.0744 36.1096C22.0627 36.1391 22.0451 36.1658 22.0228 36.1883C22.0005 36.2107 21.9739 36.2284 21.9446 36.2402C21.9153 36.2521 21.884 36.2579 21.8524 36.2572H14.6861C14.6228 36.2572 14.562 36.2319 14.5172 36.1868C14.4724 36.1417 14.4473 36.0806 14.4473 36.0169V28.8083C14.4473 28.7446 14.4724 28.6835 14.5172 28.6384C14.562 28.5933 14.6228 28.568 14.6861 28.568H21.518L22.5356 27.3377C22.6586 27.1892 22.8056 27.0625 22.9704 26.9629C22.6341 26.7551 22.2471 26.6453 21.8524 26.6457H14.6861C14.1163 26.647 13.5702 26.8752 13.1673 27.2805C12.7644 27.6858 12.5375 28.2351 12.5363 28.8083V36.0169C12.5375 36.5901 12.7644 37.1394 13.1673 37.5447C13.5702 37.95 14.1163 38.1782 14.6861 38.1795H21.8524C22.4222 38.1782 22.9683 37.95 23.3712 37.5447C23.7741 37.1394 24.001 36.5901 24.0023 36.0169V31.5668ZM21.8524 41.0629C22.4226 41.0629 22.9694 41.2908 23.3726 41.6963C23.7758 42.1019 24.0023 42.652 24.0023 43.2255V50.4341C24.0023 51.0077 23.7758 51.5577 23.3726 51.9633C22.9694 52.3689 22.4226 52.5967 21.8524 52.5967H14.6861C14.1163 52.5954 13.5702 52.3672 13.1673 51.9619C12.7644 51.5566 12.5375 51.0073 12.5363 50.4341V43.2255C12.5375 42.6523 12.7644 42.103 13.1673 41.6977C13.5702 41.2924 14.1163 41.0642 14.6861 41.0629H21.8524ZM21.8524 42.9852H14.6861C14.6232 42.9865 14.5631 43.0122 14.5186 43.057C14.474 43.1018 14.4485 43.1622 14.4473 43.2255V50.4341C14.4473 50.4978 14.4724 50.559 14.5172 50.604C14.562 50.6491 14.6228 50.6744 14.6861 50.6744H21.8524C21.9158 50.6744 21.9765 50.6491 22.0213 50.604C22.0661 50.559 22.0913 50.4978 22.0913 50.4341V43.2255C22.0913 43.1618 22.0661 43.1007 22.0213 43.0556C21.9765 43.0105 21.9158 42.9852 21.8524 42.9852ZM61.267 17.9954C61.0546 17.9963 60.8472 18.0606 60.671 18.18C60.4949 18.2993 60.3579 18.4686 60.2772 18.6662C60.1966 18.8639 60.176 19.0811 60.218 19.2906C60.26 19.5 60.3628 19.6922 60.5133 19.843C60.6638 19.9937 60.8554 20.0962 61.0638 20.1375C61.2722 20.1789 61.4881 20.1572 61.6842 20.0752C61.8803 19.9932 62.0479 19.8546 62.1658 19.6769C62.2837 19.4992 62.3467 19.2903 62.3467 19.0767C62.3454 18.9353 62.3165 18.7956 62.2616 18.6655C62.2066 18.5353 62.1267 18.4174 62.0265 18.3183C61.9262 18.2192 61.8076 18.141 61.6772 18.0881C61.5469 18.0351 61.4075 18.0085 61.267 18.0098V17.9954ZM1.0702 32.6529C1.28301 32.6538 1.4913 32.5912 1.6687 32.473C1.84611 32.3548 1.98464 32.1862 2.06673 31.9887C2.14883 31.7912 2.17077 31.5737 2.12984 31.3636C2.0889 31.1535 1.98692 30.9604 1.83678 30.8087C1.68664 30.657 1.4951 30.5536 1.28645 30.5115C1.0778 30.4693 0.861436 30.4905 0.664737 30.5722C0.468039 30.6539 0.299861 30.7925 0.181532 30.9704C0.0632037 31.1483 4.47474e-05 31.3575 4.26456e-05 31.5716C-0.00121771 31.7142 0.0254699 31.8557 0.0785696 31.988C0.131669 32.1202 0.210139 32.2407 0.309514 32.3424C0.408889 32.4442 0.527219 32.5252 0.657739 32.581C0.788259 32.6367 0.92841 32.6661 1.0702 32.6673V32.6529ZM55.5339 62.8319C55.2473 62.5484 54.975 62.6263 54.7122 62.3283H11.5807V61.3672L52.6674 61.5C52.4238 61.1876 52.1897 60.8656 51.9747 60.5389C51.7597 60.2121 51.559 59.9045 51.3727 59.5777L7.75873 59.4449V4.6739H50.7564V61.5H52.6674V7.55734H54.5784V62.6637C54.9044 62.662 55.2987 62.6637 55.5339 62.8319C55.8899 62.9506 55.9763 64.265 56.4894 64.265V6.59619C56.4894 6.34128 56.3888 6.09681 56.2096 5.91656C56.0304 5.73631 55.7873 5.63504 55.5339 5.63504H52.6674V3.71275C52.6674 3.45784 52.5668 3.21337 52.3876 3.03312C52.2084 2.85287 51.9653 2.7516 51.7119 2.7516H6.80323C6.54981 2.7516 6.30679 2.85287 6.1276 3.03312C5.94841 3.21337 5.84772 3.45784 5.84772 3.71275V60.4204C5.84772 60.6753 5.94841 60.9198 6.1276 61.1001C6.30679 61.2803 6.54981 61.3816 6.80323 61.3816H9.66974V63.3039C9.66974 63.5588 9.77042 63.8033 9.94961 63.9835C10.1288 64.1637 10.3718 64.265 10.6252 64.265H56.4894C56.5 61.5 55.8779 63.1731 55.5339 62.8319ZM27.8243 16.1932H46.0234C46.2768 16.1932 46.5199 16.092 46.699 15.9117C46.8782 15.7315 46.9789 15.487 46.9789 15.2321C46.9789 14.9772 46.8782 14.7327 46.699 14.5525C46.5199 14.3722 46.2768 14.271 46.0234 14.271H27.8243C27.5709 14.271 27.3279 14.3722 27.1487 14.5525C26.9695 14.7327 26.8688 14.9772 26.8688 15.2321C26.8688 15.487 26.9695 15.7315 27.1487 15.9117C27.3279 16.092 27.5709 16.1932 27.8243 16.1932ZM27.8243 21.9601H46.0234C46.2768 21.9601 46.5199 21.8589 46.699 21.6786C46.8782 21.4984 46.9789 21.2539 46.9789 20.999C46.9789 20.7441 46.8782 20.4996 46.699 20.3193C46.5199 20.1391 46.2768 20.0378 46.0234 20.0378H27.8243C27.5709 20.0378 27.3279 20.1391 27.1487 20.3193C26.9695 20.4996 26.8688 20.7441 26.8688 20.999C26.8688 21.2539 26.9695 21.4984 27.1487 21.6786C27.3279 21.8589 27.5709 21.9601 27.8243 21.9601ZM46.9555 29.6493C46.9555 29.3944 46.8548 29.1499 46.6757 28.9697C46.4965 28.7894 46.2534 28.6882 46 28.6882H27.8243C27.5709 28.6882 27.3279 28.7894 27.1487 28.9697C26.9695 29.1499 26.8688 29.3944 26.8688 29.6493C26.8688 29.9042 26.9695 30.1487 27.1487 30.3289C27.3279 30.5092 27.5709 30.6105 27.8243 30.6105H46C46.2509 30.6105 46.4918 30.5112 46.6706 30.3341C46.8494 30.1569 46.9517 29.9161 46.9555 29.6637V29.6493ZM46.9839 35.6926C46.9839 35.4377 46.8833 35.1932 46.7041 35.0129C46.5249 34.8327 46.2818 34.7314 46.0284 34.7314L27.8243 34.455C27.5709 34.455 27.3279 34.5563 27.1487 34.7366C26.9695 34.9168 26.8688 35.1613 26.8688 35.4162C26.8688 35.6711 26.9695 35.9156 27.1487 36.0958C27.3279 36.2761 27.5709 36.3773 27.8243 36.3773L46.0284 36.6537C46.2794 36.6538 46.5203 36.5545 46.699 36.3773C46.8778 36.2002 46.9802 35.9594 46.9839 35.707V35.6926ZM5.79039 65.1156C4.72673 64.8781 3.77484 64.2842 3.09082 63.4311C2.4068 62.578 2.03123 61.5164 2.02571 60.4204V34.4695C2.02571 34.2145 1.92505 33.9701 1.74586 33.7898C1.56667 33.6096 1.32362 33.5083 1.0702 33.5083C0.816787 33.5083 0.573765 33.6096 0.394573 33.7898C0.215381 33.9701 0.114698 34.2145 0.114698 34.4695V60.4204C0.121085 61.9529 0.644457 63.4379 1.59916 64.6322C2.55386 65.8265 3.88334 66.6594 5.36997 66.9947C5.43827 67.0018 5.5071 67.0018 5.5754 66.9947C5.70088 67.0079 5.82773 66.9962 5.9487 66.9601C6.06967 66.9241 6.18238 66.8644 6.28042 66.7845C6.37847 66.7046 6.45992 66.6061 6.52012 66.4946C6.58031 66.383 6.61807 66.2607 6.63124 66.1345C6.64442 66.0082 6.63274 65.8806 6.59689 65.7589C6.56105 65.6373 6.50172 65.5239 6.42231 65.4253C6.3429 65.3266 6.24496 65.2447 6.13407 65.1842C6.02319 65.1236 5.90153 65.0856 5.77605 65.0724L5.79039 65.1156ZM56.5515 1.90099C57.6147 2.13863 58.566 2.7328 59.2493 3.58598C59.9325 4.43916 60.307 5.50065 60.3115 6.59619V16.2077C60.3115 16.4626 60.4121 16.707 60.5913 16.8873C60.7705 17.0675 61.0135 17.1688 61.267 17.1688C61.5204 17.1688 61.7634 17.0675 61.9426 16.8873C62.1218 16.707 62.2225 16.4626 62.2225 16.2077V6.59619C62.2169 5.06345 61.6939 3.57807 60.739 2.38358C59.7842 1.18909 58.4542 0.356378 56.9672 0.0219496C56.7195 -0.0322192 56.4605 0.0148052 56.2473 0.152696C56.034 0.290588 55.884 0.50805 55.8301 0.757227C55.7763 1.0064 55.823 1.26689 55.9601 1.48139C56.0972 1.69588 56.3134 1.84683 56.5611 1.90099H56.5515ZM24.7428 29.1351C24.8784 28.9725 24.9568 28.7694 24.9656 28.5574C24.9744 28.3454 24.9133 28.1364 24.7916 27.963C24.67 27.7896 24.4947 27.6616 24.2932 27.5989C24.0916 27.5362 23.8751 27.5424 23.6774 27.6165C23.5184 27.6761 23.3771 27.7753 23.2666 27.9048L22.0913 29.3465L19.1674 32.8643L17.7342 31.4226L17.0128 30.7018C16.8292 30.5505 16.5962 30.4734 16.3592 30.4855C16.1222 30.4975 15.8981 30.5979 15.7306 30.767C15.5631 30.9361 15.4641 31.1618 15.4529 31.4003C15.4418 31.6387 15.5193 31.8728 15.6703 32.057L18.5368 34.9404C18.6234 35.0307 18.7274 35.1024 18.8423 35.1512C18.9573 35.1999 19.0809 35.2247 19.2057 35.224H19.2534C19.386 35.2158 19.5157 35.181 19.6346 35.1215C19.7536 35.0621 19.8596 34.9793 19.9462 34.8779L22.0722 32.3069L23.9832 30.0001L24.7428 29.1351ZM24.6186 13.3723C24.4878 13.2626 24.3303 13.1901 24.1623 13.1622C23.9943 13.1343 23.822 13.1521 23.6631 13.2137C23.5058 13.2689 23.3668 13.3671 23.2618 13.4972L22.0865 14.9389L19.1674 18.4567L17.7342 17.0391L17.0128 16.3134C16.9268 16.2131 16.8211 16.1318 16.7023 16.0745C16.5836 16.0173 16.4544 15.9853 16.3228 15.9807C16.1911 15.976 16.06 15.9988 15.9376 16.0476C15.8151 16.0963 15.704 16.17 15.6113 16.264C15.5185 16.358 15.446 16.4703 15.3984 16.5938C15.3508 16.7173 15.3291 16.8493 15.3346 16.9817C15.3402 17.114 15.3729 17.2438 15.4306 17.3628C15.4884 17.4819 15.57 17.5876 15.6703 17.6734L18.5368 20.5568C18.6234 20.6472 18.7274 20.7189 18.8423 20.7676C18.9573 20.8163 19.0809 20.8411 19.2057 20.8404H19.2534C19.386 20.8322 19.5157 20.7974 19.6346 20.738C19.7536 20.6785 19.8596 20.5957 19.9462 20.4944L22.0722 17.9233L23.9832 15.6166L24.7237 14.7275C24.8053 14.6316 24.8673 14.5204 24.9061 14.4004C24.945 14.2804 24.96 14.1538 24.9502 14.028C24.9404 13.9022 24.9061 13.7795 24.8492 13.667C24.7923 13.5545 24.714 13.4543 24.6186 13.3723Z"/>
<path d="M46.6755 42.9697C46.8547 43.1499 46.9553 43.3944 46.9553 43.6493V43.6637C46.9516 43.9161 46.8492 44.1569 46.6705 44.3341C46.4917 44.5112 46.2508 44.6105 45.9998 44.6105H27.8242C27.5707 44.6105 27.3277 44.5092 27.1485 44.329C26.9693 44.1487 26.8687 43.9042 26.8687 43.6493C26.8687 43.3944 26.9693 43.1499 27.1485 42.9697C27.3277 42.7894 27.5707 42.6882 27.8242 42.6882H45.9998C46.2533 42.6882 46.4963 42.7894 46.6755 42.9697Z"/>
<path d="M46.7039 49.013C46.8831 49.1932 46.9838 49.4377 46.9838 49.6926V49.707C46.98 49.9594 46.8777 50.2002 46.6989 50.3773C46.5201 50.5545 46.2792 50.6538 46.0283 50.6537L27.8242 50.3773C27.5707 50.3773 27.3277 50.2761 27.1485 50.0958C26.9693 49.9156 26.8687 49.6711 26.8687 49.4162C26.8687 49.1613 26.9693 48.9168 27.1485 48.7366C27.3277 48.5563 27.5707 48.4551 27.8242 48.4551L46.0283 48.7315C46.2817 48.7315 46.5247 48.8327 46.7039 49.013Z"/>
<path d="M60.671 18.18C60.8472 18.0606 61.0546 17.9963 61.267 17.9954V18.0098C61.4075 18.0085 61.5469 18.0351 61.6772 18.0881C61.8076 18.141 61.9262 18.2192 62.0265 18.3183C62.1267 18.4174 62.2066 18.5353 62.2616 18.6655C62.3165 18.7956 62.3454 18.9353 62.3467 19.0767C62.3467 19.2903 62.2837 19.4992 62.1658 19.6769C62.0479 19.8546 61.8803 19.9932 61.6842 20.0752C61.4881 20.1572 61.2722 20.1789 61.0638 20.1375C60.8554 20.0962 60.6638 19.9937 60.5133 19.843C60.3628 19.6922 60.26 19.5 60.218 19.2906C60.176 19.0811 60.1966 18.8639 60.2772 18.6662C60.3579 18.4686 60.4949 18.2993 60.671 18.18Z"/>
<path d="M1.6687 32.473C1.4913 32.5912 1.28301 32.6538 1.0702 32.6529V32.6673C0.92841 32.6661 0.788259 32.6367 0.657739 32.581C0.527219 32.5252 0.408889 32.4442 0.309514 32.3424C0.210139 32.2407 0.131669 32.1202 0.0785696 31.988C0.0254699 31.8557 -0.00121771 31.7142 4.26456e-05 31.5716C4.47474e-05 31.3575 0.0632037 31.1483 0.181532 30.9704C0.299861 30.7925 0.468039 30.6539 0.664737 30.5722C0.861436 30.4905 1.0778 30.4693 1.28645 30.5115C1.4951 30.5536 1.68664 30.657 1.83678 30.8087C1.98692 30.9604 2.0889 31.1535 2.12984 31.3636C2.17077 31.5737 2.14883 31.7912 2.06673 31.9887C1.98464 32.1862 1.84611 32.3548 1.6687 32.473Z"/>
<path d="M3.09082 63.4311C3.77484 64.2842 4.72673 64.8781 5.79039 65.1156L5.77605 65.0724C5.90153 65.0856 6.02319 65.1236 6.13407 65.1842C6.24496 65.2447 6.3429 65.3266 6.42231 65.4253C6.50172 65.5239 6.56105 65.6373 6.59689 65.7589C6.63274 65.8806 6.64442 66.0082 6.63124 66.1345C6.61807 66.2607 6.58031 66.383 6.52012 66.4946C6.45992 66.6061 6.37847 66.7046 6.28042 66.7845C6.18238 66.8644 6.06967 66.9241 5.9487 66.9601C5.82773 66.9962 5.70088 67.0079 5.5754 66.9947C5.5071 67.0018 5.43827 67.0018 5.36997 66.9947C3.88334 66.6594 2.55386 65.8265 1.59916 64.6322C0.644457 63.4379 0.121085 61.9529 0.114698 60.4204V34.4695C0.114698 34.2145 0.215381 33.9701 0.394573 33.7898C0.573765 33.6096 0.816787 33.5083 1.0702 33.5083C1.32362 33.5083 1.56667 33.6096 1.74586 33.7898C1.92505 33.9701 2.02571 34.2145 2.02571 34.4695V60.4204C2.03123 61.5164 2.4068 62.578 3.09082 63.4311Z"/>
</mask>
<path d="M61.267 17.9954H61.767V17.4932L61.2647 17.4954L61.267 17.9954ZM62.3467 19.0767L62.8467 19.0767L62.8467 19.0723L62.3467 19.0767ZM61.267 18.0098H60.767V18.5143L61.2715 18.5098L61.267 18.0098ZM1.0702 32.6529L1.07244 32.1529L0.570202 32.1507V32.6529H1.0702ZM4.26456e-05 31.5716L0.500043 31.576V31.5716L4.26456e-05 31.5716ZM1.0702 32.6673L1.06577 33.1673L1.5702 33.1718V32.6673H1.0702ZM5.79039 65.1156L5.68144 65.6036L6.54285 65.7959L6.26497 64.9582L5.79039 65.1156ZM2.02571 60.4204H1.5257L1.52571 60.4229L2.02571 60.4204ZM0.114698 60.4204H-0.385306L-0.385297 60.4225L0.114698 60.4204ZM5.36997 66.9947L5.25999 67.4824L5.28883 67.4889L5.31823 67.492L5.36997 66.9947ZM5.5754 66.9947L5.62792 66.4974L5.5758 66.4919L5.52366 66.4974L5.5754 66.9947ZM5.77605 65.0724L5.82857 64.5751L5.0573 64.4937L5.30148 65.2298L5.77605 65.0724ZM61.2647 17.4954C60.9529 17.4968 60.6487 17.5911 60.3905 17.7661L60.9516 18.5938C61.0457 18.53 61.1562 18.4959 61.2692 18.4954L61.2647 17.4954ZM60.3905 17.7661C60.1324 17.941 59.932 18.1887 59.8143 18.4774L60.7402 18.8551C60.7837 18.7484 60.8574 18.6577 60.9516 18.5938L60.3905 17.7661ZM59.8143 18.4774C59.6965 18.7661 59.6665 19.0832 59.7278 19.3889L60.7083 19.1922C60.6856 19.0791 60.6967 18.9617 60.7402 18.8551L59.8143 18.4774ZM59.7278 19.3889C59.7891 19.6946 59.9392 19.9756 60.1595 20.1962L60.8671 19.4897C60.7864 19.4088 60.731 19.3053 60.7083 19.1922L59.7278 19.3889ZM60.1595 20.1962C60.3799 20.4169 60.6606 20.5673 60.9665 20.628L61.161 19.6471C61.0502 19.6251 60.9478 19.5705 60.8671 19.4897L60.1595 20.1962ZM60.9665 20.628C61.2724 20.6887 61.5893 20.6568 61.877 20.5365L61.4914 19.6139C61.3869 19.6576 61.2719 19.6691 61.161 19.6471L60.9665 20.628ZM61.877 20.5365C62.1647 20.4163 62.4101 20.2132 62.5825 19.9533L61.7492 19.4005C61.6858 19.4961 61.5959 19.5702 61.4914 19.6139L61.877 20.5365ZM62.5825 19.9533C62.7548 19.6936 62.8467 19.3885 62.8467 19.0767L61.8467 19.0767C61.8467 19.1922 61.8126 19.3049 61.7492 19.4005L62.5825 19.9533ZM62.8467 19.0723C62.8448 18.8656 62.8025 18.6613 62.7222 18.471L61.8009 18.8599C61.8305 18.9298 61.846 19.005 61.8467 19.0811L62.8467 19.0723ZM62.7222 18.471C62.6418 18.2806 62.5249 18.1079 62.3779 17.9626L61.675 18.674C61.7286 18.7269 61.7714 18.79 61.8009 18.8599L62.7222 18.471ZM62.3779 17.9626C62.2309 17.8174 62.0568 17.7026 61.8654 17.6248L61.4891 18.5513C61.5583 18.5794 61.6215 18.621 61.675 18.674L62.3779 17.9626ZM61.8654 17.6248C61.674 17.5471 61.4691 17.508 61.2624 17.5098L61.2715 18.5098C61.3459 18.5091 61.4199 18.5232 61.4891 18.5513L61.8654 17.6248ZM61.767 18.0098V17.9954H60.767V18.0098H61.767ZM1.06797 33.1529C1.38042 33.1543 1.68601 33.0623 1.946 32.8891L1.39141 32.0569C1.2966 32.1201 1.18559 32.1534 1.07244 32.1529L1.06797 33.1529ZM1.946 32.8891C2.20595 32.7158 2.40851 32.4691 2.52844 32.1806L1.60503 31.7968C1.56077 31.9033 1.48626 31.9937 1.39141 32.0569L1.946 32.8891ZM2.52844 32.1806C2.64836 31.8921 2.68035 31.5746 2.6206 31.268L1.63907 31.4592C1.6612 31.5728 1.6493 31.6903 1.60503 31.7968L2.52844 32.1806ZM2.6206 31.268C2.56086 30.9614 2.41193 30.6791 2.19216 30.457L1.4814 31.1604C1.56191 31.2418 1.61694 31.3457 1.63907 31.4592L2.6206 31.268ZM2.19216 30.457C1.97236 30.2349 1.69161 30.0832 1.38537 30.0213L1.18753 31.0016C1.29859 31.024 1.40092 31.0791 1.4814 31.1604L2.19216 30.457ZM1.38537 30.0213C1.07911 29.9595 0.761526 29.9905 0.472951 30.1104L0.856524 31.0339C0.961345 30.9904 1.07649 30.9792 1.18753 31.0016L1.38537 30.0213ZM0.472951 30.1104C0.184426 30.2302 -0.0617827 30.4333 -0.2348 30.6935L0.597865 31.2473C0.661505 31.1516 0.751651 31.0775 0.856524 31.0339L0.472951 30.1104ZM-0.2348 30.6935C-0.4078 30.9536 -0.499954 31.2592 -0.499957 31.5716L0.500043 31.5716C0.500044 31.4559 0.534207 31.343 0.597865 31.2473L-0.2348 30.6935ZM-0.499938 31.5672C-0.501775 31.7751 -0.462879 31.9814 -0.38543 32.1743L0.542569 31.8017C0.513818 31.7301 0.49934 31.6534 0.500023 31.576L-0.499938 31.5672ZM-0.38543 32.1743C-0.307982 32.3672 -0.193446 32.543 -0.0481839 32.6918L0.667212 31.9931C0.613724 31.9383 0.57132 31.8733 0.542569 31.8017L-0.38543 32.1743ZM-0.0481839 32.6918C0.097069 32.8405 0.270185 32.9591 0.461349 33.0408L0.854128 32.1212C0.784253 32.0913 0.72071 32.0478 0.667212 31.9931L-0.0481839 32.6918ZM0.461349 33.0408C0.652524 33.1224 0.857911 33.1654 1.06577 33.1673L1.07463 32.1673C0.998909 32.1667 0.923994 32.151 0.854128 32.1212L0.461349 33.0408ZM1.5702 32.6673V32.6529H0.570202V32.6673H1.5702ZM5.89935 64.6276C4.94697 64.415 4.09411 63.883 3.48091 63.1183L2.70073 63.7438C3.45558 64.6853 4.50648 65.3413 5.68144 65.6036L5.89935 64.6276ZM3.48091 63.1183C2.86767 62.3535 2.53066 61.4013 2.5257 60.4179L1.52571 60.4229C1.5318 61.6315 1.94593 62.8025 2.70073 63.7438L3.48091 63.1183ZM2.52571 60.4204V34.4695H1.52571V60.4204H2.52571ZM2.52571 34.4695C2.52571 34.0829 2.3731 33.7116 2.10045 33.4373L1.39127 34.1423C1.47701 34.2286 1.52571 34.3462 1.52571 34.4695H2.52571ZM2.10045 33.4373C1.82772 33.163 1.45717 33.0083 1.0702 33.0083V34.0083C1.19007 34.0083 1.30562 34.0562 1.39127 34.1423L2.10045 33.4373ZM1.0702 33.0083C0.683218 33.0083 0.312705 33.163 0.0399802 33.4373L0.749166 34.1423C0.834824 34.0562 0.950356 34.0083 1.0702 34.0083V33.0083ZM0.0399802 33.4373C-0.232638 33.7115 -0.385302 34.0829 -0.385302 34.4695H0.614698C0.614698 34.3462 0.663401 34.2286 0.749166 34.1423L0.0399802 33.4373ZM-0.385302 34.4695V60.4204H0.614698V34.4695H-0.385302ZM-0.385297 60.4225C-0.378442 62.0675 0.183322 63.6618 1.2086 64.9444L1.98971 64.32C1.10559 63.214 0.620612 61.8384 0.614694 60.4183L-0.385297 60.4225ZM1.2086 64.9444C2.23393 66.2271 3.66221 67.1221 5.25999 67.4824L5.47996 66.5069C4.10446 66.1967 2.87379 65.4259 1.98971 64.32L1.2086 64.9444ZM5.31823 67.492C5.42093 67.5027 5.52444 67.5027 5.62714 67.492L5.52366 66.4974C5.48977 66.5009 5.4556 66.5009 5.42171 66.4974L5.31823 67.492ZM5.52288 67.4919C5.71405 67.5121 5.90729 67.4942 6.09153 67.4393L5.80587 66.481C5.74818 66.4982 5.68771 66.5037 5.62792 66.4974L5.52288 67.4919ZM6.09153 67.4393C6.27576 67.3844 6.44723 67.2936 6.59624 67.1722L5.9646 66.3969C5.91753 66.4352 5.86358 66.4638 5.80587 66.481L6.09153 67.4393ZM6.59624 67.1722C6.74523 67.0508 6.86885 66.9012 6.96013 66.732L6.0801 66.2571C6.05099 66.3111 6.0117 66.3585 5.9646 66.3969L6.59624 67.1722ZM6.96013 66.732C7.0514 66.5629 7.10859 66.3775 7.12854 66.1864L6.13394 66.0825C6.12755 66.1438 6.10922 66.2032 6.0801 66.2571L6.96013 66.732ZM7.12854 66.1864C7.14849 65.9952 7.13081 65.802 7.07651 65.6177L6.11727 65.9002C6.13467 65.9593 6.14034 66.0213 6.13394 66.0825L7.12854 66.1864ZM7.07651 65.6177C7.02221 65.4333 6.93229 65.2614 6.81176 65.1117L6.03287 65.7388C6.07116 65.7864 6.09988 65.8412 6.11727 65.9002L7.07651 65.6177ZM6.81176 65.1117C6.69122 64.962 6.5424 64.8374 6.37369 64.7453L5.89445 65.623C5.94751 65.652 5.99458 65.6913 6.03287 65.7388L6.81176 65.1117ZM6.37369 64.7453C6.20498 64.6532 6.01974 64.5953 5.82857 64.5751L5.72353 65.5696C5.78331 65.5759 5.84139 65.594 5.89445 65.623L6.37369 64.7453ZM5.30148 65.2298L5.31582 65.273L6.26497 64.9582L6.25062 64.915L5.30148 65.2298ZM21.8524 21.84L21.8732 20.8402L21.8628 20.84H21.8524V21.84ZM22.0913 21.5997H21.0913V21.6099L21.0915 21.6202L22.0913 21.5997ZM22.0913 19.4467L21.3212 18.8088L21.0913 19.0863V19.4467H22.0913ZM24.0023 17.14H25.0023V14.3654L23.2322 16.502L24.0023 17.14ZM24.0023 21.5997L25.0023 21.6019V21.5997H24.0023ZM21.8524 23.7623V24.7623L21.8546 24.7623L21.8524 23.7623ZM14.6861 23.7623L14.6839 24.7623H14.6861V23.7623ZM12.5363 21.5997H11.5362L11.5363 21.6019L12.5363 21.5997ZM12.5363 14.3911L11.5363 14.3889V14.3911H12.5363ZM14.6861 12.2285V11.2285L14.6839 11.2285L14.6861 12.2285ZM21.8524 12.2285L21.853 11.2285H21.8524V12.2285ZM22.9656 12.5409L23.4872 13.3941L24.8868 12.5385L23.485 11.6864L22.9656 12.5409ZM22.5356 12.9109L21.7698 12.2678L21.7641 12.2747L22.5356 12.9109ZM21.5132 14.1508V15.1508H21.9847L22.2847 14.787L21.5132 14.1508ZM24.0023 31.5668H25.0023V28.7922L23.2322 30.9288L24.0023 31.5668ZM22.0913 33.8736L21.3212 33.2356L21.0913 33.5131V33.8736H22.0913ZM22.0913 36.0169H21.0913V36.0272L21.0915 36.0374L22.0913 36.0169ZM21.8524 36.2572L21.8732 35.2574L21.8628 35.2572H21.8524V36.2572ZM21.518 28.568V29.568H21.9886L22.2885 29.2054L21.518 28.568ZM22.5356 27.3377L21.7653 26.7L21.765 26.7004L22.5356 27.3377ZM22.9704 26.9629L23.4875 27.8188L24.888 26.9726L23.4961 26.1123L22.9704 26.9629ZM21.8524 26.6457V27.6457H21.8536L21.8524 26.6457ZM14.6861 26.6457V25.6457L14.6839 25.6457L14.6861 26.6457ZM12.5363 28.8083L11.5363 28.8061V28.8083H12.5363ZM12.5363 36.0169H11.5362L11.5363 36.0191L12.5363 36.0169ZM14.6861 38.1795L14.6839 39.1795H14.6861V38.1795ZM21.8524 38.1795V39.1795L21.8546 39.1795L21.8524 38.1795ZM24.0023 36.0169L25.0023 36.0191V36.0169H24.0023ZM14.6861 52.5967L14.6839 53.5967H14.6861V52.5967ZM12.5363 50.4341H11.5362L11.5363 50.4363L12.5363 50.4341ZM12.5363 43.2255L11.5363 43.2233V43.2255H12.5363ZM14.6861 41.0629V40.0629L14.6839 40.0629L14.6861 41.0629ZM14.6861 42.9852V41.9852H14.6764L14.6666 41.9854L14.6861 42.9852ZM14.4473 43.2255L13.4474 43.2062L13.4473 43.2159V43.2255H14.4473ZM54.7122 62.3283L55.4622 61.6669L55.1636 61.3283H54.7122V62.3283ZM11.5807 62.3283H10.5807V63.3283H11.5807V62.3283ZM11.5807 61.3672L11.584 60.3672L10.5807 60.3639V61.3672H11.5807ZM52.6674 61.5V62.5H53.6674V61.5H52.6674ZM51.3727 59.5777L52.2414 59.0824L51.9547 58.5795L51.3757 58.5777L51.3727 59.5777ZM7.75873 59.4449H6.75873V60.4418L7.75568 60.4449L7.75873 59.4449ZM7.75873 4.6739V3.6739H6.75873V4.6739H7.75873ZM50.7564 4.6739H51.7564V3.6739H50.7564V4.6739ZM50.7564 61.5H49.7564V62.5H50.7564V61.5ZM52.6674 7.55734V6.55734H51.6674V7.55734H52.6674ZM54.5784 7.55734H55.5784V6.55734H54.5784V7.55734ZM54.5784 62.6637H53.5784V63.6689L54.5836 63.6637L54.5784 62.6637ZM56.4894 64.265V65.265H57.4856L57.4894 64.2688L56.4894 64.265ZM52.6674 5.63504H51.6674V6.63504H52.6674V5.63504ZM9.66974 61.3816H10.6697V60.3816H9.66974V61.3816ZM46 30.6105L46.0001 29.6105H46V30.6105ZM46.9555 29.6637L47.9554 29.6786L47.9555 29.6712V29.6637H46.9555ZM46.0284 34.7314L46.0132 35.7313L46.0208 35.7314H46.0284V34.7314ZM27.8243 34.455L27.8395 33.4552L27.8319 33.455H27.8243V34.455ZM27.8243 36.3773L27.8395 35.3774L27.8319 35.3773H27.8243V36.3773ZM46.0284 36.6537L46.0132 37.6536L46.0208 37.6537H46.0283L46.0284 36.6537ZM46.9839 35.707L47.9838 35.7219L47.9839 35.7145V35.707H46.9839ZM56.5515 1.90099V0.900994L56.3334 2.87691L56.5515 1.90099ZM60.3115 6.59619H61.3115L61.3114 6.59216L60.3115 6.59619ZM62.2225 6.59619H63.2225L63.2225 6.59259L62.2225 6.59619ZM56.9672 0.0219496L57.1866 -0.953699L57.1808 -0.954966L56.9672 0.0219496ZM56.5611 1.90099V2.90099L56.7747 0.924079L56.5611 1.90099ZM24.7428 29.1351L25.4942 29.7949L25.5025 29.7854L25.5106 29.7758L24.7428 29.1351ZM23.6774 27.6165L23.3266 26.68L23.3263 26.6801L23.6774 27.6165ZM23.2666 27.9048L22.5059 27.2557L22.4986 27.2643L22.4915 27.273L23.2666 27.9048ZM22.0913 29.3465L22.8604 29.9858L22.8664 29.9784L22.0913 29.3465ZM19.1674 32.8643L18.4583 33.5694L19.2336 34.3493L19.9365 33.5035L19.1674 32.8643ZM17.7342 31.4226L18.4434 30.7176L18.441 30.7153L17.7342 31.4226ZM17.0128 30.7018L17.7196 29.9944L17.6857 29.9604L17.6486 29.9299L17.0128 30.7018ZM15.6703 32.057L14.897 32.6911L14.9274 32.7281L14.9611 32.762L15.6703 32.057ZM18.5368 34.9404L19.2586 34.2483L19.2523 34.2418L19.246 34.2354L18.5368 34.9404ZM19.2057 35.224V34.2239L19.2 34.224L19.2057 35.224ZM19.2534 35.224V36.224H19.2842L19.3149 36.2221L19.2534 35.224ZM19.9462 34.8779L20.7063 35.5277L20.7116 35.5215L20.7168 35.5152L19.9462 34.8779ZM22.0722 32.3069L21.3021 31.6689L21.3015 31.6696L22.0722 32.3069ZM23.9832 30.0001L23.2318 29.3403L23.2223 29.3511L23.2131 29.3622L23.9832 30.0001ZM24.6186 13.3723L25.2708 12.6141L25.2612 12.6061L24.6186 13.3723ZM23.6631 13.2137L23.9943 14.1572L24.0096 14.1519L24.0246 14.1461L23.6631 13.2137ZM23.2618 13.4972L24.0369 14.1291L24.0399 14.1253L23.2618 13.4972ZM22.0865 14.9389L22.8561 15.5775L22.8616 15.5708L22.0865 14.9389ZM19.1674 18.4567L18.4642 19.1677L19.2401 19.9352L19.937 19.0953L19.1674 18.4567ZM17.7342 17.0391L17.025 17.7441L17.031 17.75L17.7342 17.0391ZM17.0128 16.3134L16.2537 16.9644L16.2777 16.9923L16.3036 17.0184L17.0128 16.3134ZM15.6703 17.6734L16.3795 16.9684L16.351 16.9397L16.3203 16.9135L15.6703 17.6734ZM18.5368 20.5568L19.2586 19.8647L19.2523 19.8582L19.246 19.8518L18.5368 20.5568ZM19.2057 20.8404V19.8404L19.2 19.8404L19.2057 20.8404ZM19.2534 20.8404V21.8404H19.2842L19.3149 21.8385L19.2534 20.8404ZM19.9462 20.4944L20.7063 21.1442L20.7116 21.1379L20.7168 21.1316L19.9462 20.4944ZM22.0722 17.9233L21.3021 17.2854L21.3015 17.2861L22.0722 17.9233ZM23.9832 15.6166L23.2148 14.9766L23.2131 14.9786L23.9832 15.6166ZM24.7237 14.7275L23.9619 14.0797L23.9553 14.0875L24.7237 14.7275ZM46.6755 42.9697L47.3847 42.2647L46.6755 42.9697ZM27.1485 42.9697L26.4393 42.2647H26.4393L27.1485 42.9697ZM27.1485 44.329L26.4393 45.034H26.4393L27.1485 44.329ZM45.9998 44.6105L46 43.6105H45.9998V44.6105ZM46.9553 43.6637L47.9552 43.6786L47.9553 43.6712V43.6637H46.9553ZM46.0283 48.7315L46.0131 49.7313L46.0207 49.7315H46.0283V48.7315ZM27.8242 48.4551L27.8393 47.4552L27.8317 47.4551H27.8242V48.4551ZM27.1485 48.7366L26.4393 48.0315L27.1485 48.7366ZM27.1485 50.0958L26.4393 50.8009L27.1485 50.0958ZM27.8242 50.3773L27.8393 49.3775L27.8317 49.3773H27.8242V50.3773ZM46.0283 50.6537L46.0131 51.6536L46.0206 51.6537H46.0282L46.0283 50.6537ZM46.9838 49.707L47.9837 49.7219L47.9838 49.7145V49.707H46.9838ZM13.4473 14.3911V21.5997H15.4473V14.3911H13.4473ZM13.4473 21.5997C13.4473 21.9266 13.5763 22.2415 13.808 22.4746L15.2264 21.0646C15.3686 21.2076 15.4473 21.4002 15.4473 21.5997H13.4473ZM13.808 22.4746C14.0399 22.7079 14.3557 22.84 14.6861 22.84V20.84C14.8899 20.84 15.0841 20.9214 15.2264 21.0646L13.808 22.4746ZM14.6861 22.84H21.8524V20.84H14.6861V22.84ZM21.8317 22.8398C21.9988 22.8432 22.1648 22.8127 22.3196 22.75L21.5696 20.896C21.6658 20.8571 21.7691 20.838 21.8732 20.8402L21.8317 22.8398ZM22.3196 22.75C22.4744 22.6874 22.6146 22.5941 22.7319 22.4761L21.3136 21.066C21.3863 20.9929 21.4733 20.935 21.5696 20.896L22.3196 22.75ZM22.7319 22.4761C22.8492 22.3582 22.9413 22.2178 23.003 22.0637L21.1459 21.3212C21.184 21.2259 21.241 21.1391 21.3136 21.066L22.7319 22.4761ZM23.003 22.0637C23.0646 21.9096 23.0945 21.7448 23.0911 21.5792L21.0915 21.6202C21.0894 21.5181 21.1078 21.4164 21.1459 21.3212L23.003 22.0637ZM23.0913 21.5997V19.4467H21.0913V21.5997H23.0913ZM22.8614 20.0847L24.7724 17.7779L23.2322 16.502L21.3212 18.8088L22.8614 20.0847ZM23.0023 17.14V21.5997H25.0023V17.14H23.0023ZM23.0023 21.5975C23.0016 21.9081 22.8786 22.2046 22.662 22.4224L24.0804 23.8325C24.6697 23.2398 25.0005 22.4376 25.0023 21.6019L23.0023 21.5975ZM22.662 22.4224C22.4457 22.6401 22.1536 22.7616 21.8502 22.7623L21.8546 24.7623C22.6908 24.7604 23.491 24.4254 24.0804 23.8325L22.662 22.4224ZM21.8524 22.7623H14.6861V24.7623H21.8524V22.7623ZM14.6884 22.7623C14.3849 22.7616 14.0929 22.6401 13.8765 22.4224L12.4581 23.8325C13.0476 24.4254 13.8478 24.7604 14.6839 24.7623L14.6884 22.7623ZM13.8765 22.4224C13.6599 22.2046 13.5369 21.9081 13.5362 21.5975L11.5363 21.6019C11.5381 22.4376 11.8689 23.2398 12.4581 23.8325L13.8765 22.4224ZM13.5363 21.5997V14.3911H11.5363V21.5997H13.5363ZM13.5362 14.3933C13.5369 14.0827 13.6599 13.7862 13.8765 13.5683L12.4581 12.1583C11.8689 12.751 11.5381 13.5532 11.5363 14.3889L13.5362 14.3933ZM13.8765 13.5683C14.0929 13.3507 14.3849 13.2292 14.6884 13.2285L14.6839 11.2285C13.8478 11.2304 13.0476 11.5654 12.4581 12.1583L13.8765 13.5683ZM14.6861 13.2285H21.8524V11.2285H14.6861V13.2285ZM21.8519 13.2285C22.061 13.2286 22.2664 13.2862 22.4462 13.3954L23.485 11.6864C22.993 11.3873 22.4287 11.2288 21.853 11.2285L21.8519 13.2285ZM22.444 11.6877C22.1894 11.8433 21.9617 12.0393 21.7698 12.2678L23.3014 13.554C23.3545 13.4908 23.4173 13.4368 23.4872 13.3941L22.444 11.6877ZM21.7641 12.2747L20.7417 13.5146L22.2847 14.787L23.3071 13.5471L21.7641 12.2747ZM21.5132 13.1508H14.6861V15.1508H21.5132V13.1508ZM14.6861 13.1508C14.5227 13.1508 14.3609 13.1832 14.2101 13.246L14.9793 15.0922C14.8865 15.1309 14.7869 15.1508 14.6861 15.1508V13.1508ZM14.2101 13.246C14.0594 13.3088 13.9228 13.4007 13.808 13.5162L15.2264 14.9262C15.156 14.997 15.0721 15.0535 14.9793 15.0922L14.2101 13.246ZM13.808 13.5162C13.693 13.6319 13.6024 13.7687 13.5408 13.9184L15.3901 14.6799C15.3525 14.7713 15.297 14.8552 15.2264 14.9262L13.808 13.5162ZM13.5408 13.9184C13.4791 14.0682 13.4473 14.2288 13.4473 14.3911H15.4473C15.4473 14.4903 15.4278 14.5884 15.3901 14.6799L13.5408 13.9184ZM23.2322 30.9288L21.3212 33.2356L22.8614 34.5115L24.7724 32.2047L23.2322 30.9288ZM21.0913 33.8736V36.0169H23.0913V33.8736H21.0913ZM21.0915 36.0374C21.0894 35.9353 21.1078 35.8336 21.1459 35.7384L23.003 36.4809C23.0646 36.3268 23.0945 36.162 23.0911 35.9964L21.0915 36.0374ZM21.1459 35.7384C21.184 35.6431 21.2409 35.5563 21.3136 35.4833L22.7319 36.8933C22.8492 36.7753 22.9413 36.635 23.003 36.4809L21.1459 35.7384ZM21.3136 35.4833C21.3863 35.4101 21.4733 35.3522 21.5696 35.3132L22.3196 37.1673C22.4744 37.1046 22.6146 37.0113 22.7319 36.8933L21.3136 35.4833ZM21.5696 35.3132C21.6658 35.2743 21.7691 35.2552 21.8732 35.2574L21.8317 37.257C21.9988 37.2604 22.1648 37.2299 22.3196 37.1673L21.5696 35.3132ZM21.8524 35.2572H14.6861V37.2572H21.8524V35.2572ZM14.6861 35.2572C14.8899 35.2572 15.0841 35.3387 15.2264 35.4818L13.808 36.8918C14.0399 37.1251 14.3556 37.2572 14.6861 37.2572V35.2572ZM15.2264 35.4818C15.3685 35.6248 15.4473 35.8174 15.4473 36.0169H13.4473C13.4473 36.3439 13.5763 36.6587 13.808 36.8918L15.2264 35.4818ZM15.4473 36.0169V28.8083H13.4473V36.0169H15.4473ZM15.4473 28.8083C15.4473 29.0078 15.3686 29.2004 15.2264 29.3434L13.808 27.9334C13.5763 28.1665 13.4473 28.4814 13.4473 28.8083H15.4473ZM15.2264 29.3434C15.0841 29.4865 14.8899 29.568 14.6861 29.568V27.568C14.3557 27.568 14.0399 27.7001 13.808 27.9334L15.2264 29.3434ZM14.6861 29.568H21.518V27.568H14.6861V29.568ZM22.2885 29.2054L23.3062 27.9751L21.765 26.7004L20.7474 27.9306L22.2885 29.2054ZM23.3058 27.9755C23.3574 27.9132 23.4189 27.8603 23.4875 27.8188L22.4532 26.107C22.1923 26.2647 21.9598 26.4652 21.7653 26.7L23.3058 27.9755ZM23.4961 26.1123C23.0018 25.8068 22.4323 25.645 21.8513 25.6457L21.8536 27.6457C22.0618 27.6455 22.2664 27.7034 22.4446 27.8135L23.4961 26.1123ZM21.8524 25.6457H14.6861V27.6457H21.8524V25.6457ZM14.6839 25.6457C13.8478 25.6476 13.0476 25.9826 12.4581 26.5755L13.8765 27.9855C14.0929 27.7679 14.3849 27.6464 14.6884 27.6457L14.6839 25.6457ZM12.4581 26.5755C11.8689 27.1682 11.5381 27.9704 11.5363 28.8061L13.5362 28.8105C13.5369 28.4999 13.6599 28.2034 13.8765 27.9855L12.4581 26.5755ZM11.5363 28.8083V36.0169H13.5363V28.8083H11.5363ZM11.5363 36.0191C11.5381 36.8548 11.8689 37.657 12.4581 38.2497L13.8765 36.8396C13.6599 36.6218 13.5369 36.3253 13.5362 36.0147L11.5363 36.0191ZM12.4581 38.2497C13.0476 38.8426 13.8478 39.1776 14.6839 39.1795L14.6884 37.1795C14.3849 37.1788 14.0929 37.0573 13.8765 36.8396L12.4581 38.2497ZM14.6861 39.1795H21.8524V37.1795H14.6861V39.1795ZM21.8546 39.1795C22.6908 39.1776 23.491 38.8426 24.0804 38.2497L22.662 36.8396C22.4457 37.0573 22.1536 37.1788 21.8502 37.1795L21.8546 39.1795ZM24.0804 38.2497C24.6697 37.657 25.0005 36.8548 25.0023 36.0191L23.0023 36.0147C23.0016 36.3253 22.8786 36.6218 22.662 36.8396L24.0804 38.2497ZM25.0023 36.0169V31.5668H23.0023V36.0169H25.0023ZM21.8524 42.0629C22.1555 42.0629 22.4473 42.184 22.6634 42.4014L24.0818 40.9913C23.4915 40.3976 22.6897 40.0629 21.8524 40.0629V42.0629ZM22.6634 42.4014C22.8797 42.6189 23.0023 42.9153 23.0023 43.2255H25.0023C25.0023 42.3886 24.6719 41.5849 24.0818 40.9913L22.6634 42.4014ZM23.0023 43.2255V50.4341H25.0023V43.2255H23.0023ZM23.0023 50.4341C23.0023 50.7444 22.8797 51.0407 22.6634 51.2583L24.0818 52.6683C24.6719 52.0748 25.0023 51.271 25.0023 50.4341H23.0023ZM22.6634 51.2583C22.4473 51.4756 22.1555 51.5967 21.8524 51.5967V53.5967C22.6897 53.5967 23.4915 53.2621 24.0818 52.6683L22.6634 51.2583ZM21.8524 51.5967H14.6861V53.5967H21.8524V51.5967ZM14.6884 51.5967C14.3849 51.596 14.0929 51.4745 13.8765 51.2569L12.4581 52.6669C13.0476 53.2598 13.8478 53.5948 14.6839 53.5967L14.6884 51.5967ZM13.8765 51.2569C13.6599 51.039 13.5369 50.7425 13.5362 50.4319L11.5363 50.4363C11.5381 51.272 11.8689 52.0742 12.4581 52.6669L13.8765 51.2569ZM13.5363 50.4341V43.2255H11.5363V50.4341H13.5363ZM13.5362 43.2277C13.5369 42.9171 13.66 42.6206 13.8765 42.4027L12.4581 40.9927C11.8689 41.5854 11.5381 42.3876 11.5363 43.2233L13.5362 43.2277ZM13.8765 42.4027C14.0929 42.1851 14.3849 42.0636 14.6884 42.0629L14.6839 40.0629C13.8478 40.0648 13.0476 40.3998 12.4581 40.9927L13.8765 42.4027ZM14.6861 42.0629H21.8524V40.0629H14.6861V42.0629ZM21.8524 41.9852H14.6861V43.9852H21.8524V41.9852ZM14.6666 41.9854C14.3432 41.9917 14.0362 42.1238 13.8094 42.3519L15.2278 43.762C15.0901 43.9005 14.9031 43.9812 14.7057 43.985L14.6666 41.9854ZM13.8094 42.3519C13.5828 42.5799 13.4536 42.8862 13.4474 43.2062L15.4471 43.2448C15.4433 43.4382 15.3653 43.6236 15.2278 43.762L13.8094 42.3519ZM13.4473 43.2255V50.4341H15.4473V43.2255H13.4473ZM13.4473 50.4341C13.4473 50.7611 13.5763 51.0759 13.808 51.309L15.2264 49.899C15.3685 50.042 15.4473 50.2346 15.4473 50.4341H13.4473ZM13.808 51.309C14.0399 51.5423 14.3556 51.6744 14.6861 51.6744V49.6744C14.8899 49.6744 15.0841 49.7559 15.2264 49.899L13.808 51.309ZM14.6861 51.6744H21.8524V49.6744H14.6861V51.6744ZM21.8524 51.6744C22.1829 51.6744 22.4987 51.5423 22.7305 51.309L21.3122 49.899C21.4544 49.7559 21.6486 49.6744 21.8524 49.6744V51.6744ZM22.7305 51.309C22.9623 51.0759 23.0913 50.7611 23.0913 50.4341H21.0913C21.0913 50.2346 21.17 50.042 21.3122 49.899L22.7305 51.309ZM23.0913 50.4341V43.2255H21.0913V50.4341H23.0913ZM23.0913 43.2255C23.0913 42.8986 22.9623 42.5837 22.7305 42.3506L21.3122 43.7606C21.17 43.6176 21.0913 43.425 21.0913 43.2255H23.0913ZM22.7305 42.3506C22.4986 42.1173 22.1829 41.9852 21.8524 41.9852V43.9852C21.6487 43.9852 21.4544 43.9038 21.3122 43.7606L22.7305 42.3506ZM56.2372 62.121C55.9305 61.8176 55.6086 61.7049 55.4768 61.6536C55.3667 61.6108 55.4262 61.6261 55.4622 61.6669L53.9622 62.9897C54.2609 63.3285 54.588 63.4538 54.7515 63.5174C54.8931 63.5726 54.8507 63.5627 54.8307 63.5429L56.2372 62.121ZM54.7122 61.3283H11.5807V63.3283H54.7122V61.3283ZM12.5807 62.3283V61.3672H10.5807V62.3283H12.5807ZM11.5775 62.3672L52.6642 62.5L52.6707 60.5L11.584 60.3672L11.5775 62.3672ZM53.4559 60.885C53.2259 60.59 53.0079 60.29 52.8101 59.9892L51.1393 61.0885C51.3714 61.4413 51.6217 61.7852 51.8789 62.115L53.4559 60.885ZM52.8101 59.9892C52.5942 59.6611 52.41 59.3781 52.2414 59.0824L50.504 60.073C50.7081 60.4309 50.9251 60.763 51.1393 61.0885L52.8101 59.9892ZM51.3757 58.5777L7.76178 58.4449L7.75568 60.4449L51.3697 60.5777L51.3757 58.5777ZM8.75873 59.4449V4.6739H6.75873V59.4449H8.75873ZM7.75873 5.6739H50.7564V3.6739H7.75873V5.6739ZM49.7564 4.6739V61.5H51.7564V4.6739H49.7564ZM50.7564 62.5H52.6674V60.5H50.7564V62.5ZM53.6674 61.5V7.55734H51.6674V61.5H53.6674ZM52.6674 8.55734H54.5784V6.55734H52.6674V8.55734ZM53.5784 7.55734V62.6637H55.5784V7.55734H53.5784ZM54.5836 63.6637C54.7534 63.6628 54.8707 63.6644 54.9653 63.6763C54.9859 63.6789 55.0016 63.6815 55.013 63.6839C55.0244 63.6862 55.0295 63.6878 55.0294 63.6878C55.0294 63.6878 55.022 63.6855 55.0091 63.6794C54.9962 63.6732 54.9762 63.6625 54.9523 63.6453L56.1156 62.0185C55.7984 61.7917 55.4461 61.721 55.2151 61.6919C54.9722 61.6614 54.7293 61.6629 54.5732 61.6637L54.5836 63.6637ZM55.2177 63.7806C55.0064 63.7102 54.8983 63.5813 54.872 63.5482C54.8421 63.5104 54.839 63.4948 54.8573 63.5335C54.9008 63.6255 54.9344 63.7279 55.0177 63.9475C55.0817 64.1164 55.1878 64.3883 55.3491 64.6235C55.5061 64.8523 55.8699 65.265 56.4894 65.265V63.265C56.655 63.265 56.793 63.3224 56.8855 63.3865C56.9274 63.4156 56.9558 63.443 56.9723 63.4607C56.9888 63.4784 56.9971 63.4903 56.9983 63.492C56.999 63.493 56.987 63.475 56.964 63.4251C56.9418 63.3768 56.9174 63.3166 56.8878 63.2384C56.8408 63.1146 56.754 62.8661 56.6652 62.6783C56.6173 62.5771 56.545 62.4393 56.4403 62.307C56.3392 62.1792 56.1505 61.9833 55.8501 61.8832L55.2177 63.7806ZM57.4894 64.265V6.59619H55.4894V64.265H57.4894ZM57.4894 6.59619C57.4894 6.078 57.2849 5.5798 56.9188 5.21154L55.5004 6.62158C55.4927 6.61382 55.4894 6.60456 55.4894 6.59619H57.4894ZM56.9188 5.21154C56.5525 4.84309 56.0545 4.63504 55.5339 4.63504V6.63504C55.5202 6.63504 55.5083 6.62953 55.5004 6.62158L56.9188 5.21154ZM55.5339 4.63504H52.6674V6.63504H55.5339V4.63504ZM53.6674 5.63504V3.71275H51.6674V5.63504H53.6674ZM53.6674 3.71275C53.6674 3.19456 53.4629 2.69636 53.0968 2.32809L51.6784 3.73814C51.6707 3.73038 51.6674 3.72112 51.6674 3.71275H53.6674ZM53.0968 2.32809C52.7305 1.95965 52.2324 1.7516 51.7119 1.7516V3.7516C51.6982 3.7516 51.6863 3.74608 51.6784 3.73814L53.0968 2.32809ZM51.7119 1.7516H6.80323V3.7516H51.7119V1.7516ZM6.80323 1.7516C6.28267 1.7516 5.78467 1.95967 5.41841 2.32809L6.83678 3.73814C6.82891 3.74606 6.81695 3.7516 6.80323 3.7516V1.7516ZM5.41841 2.32809C5.05237 2.6963 4.84772 3.19448 4.84772 3.71275H6.84772C6.84772 3.7212 6.84444 3.73043 6.83678 3.73814L5.41841 2.32809ZM4.84772 3.71275V60.4204H6.84772V3.71275H4.84772ZM4.84772 60.4204C4.84772 60.9387 5.05237 61.4369 5.41841 61.8051L6.83678 60.395C6.84444 60.4027 6.84772 60.412 6.84772 60.4204H4.84772ZM5.41841 61.8051C5.78467 62.1735 6.28267 62.3816 6.80323 62.3816V60.3816C6.81695 60.3816 6.82891 60.3871 6.83678 60.395L5.41841 61.8051ZM6.80323 62.3816H9.66974V60.3816H6.80323V62.3816ZM8.66974 61.3816V63.3039H10.6697V61.3816H8.66974ZM8.66974 63.3039C8.66974 63.8221 8.87438 64.3203 9.24043 64.6885L10.6588 63.2785C10.6665 63.2862 10.6697 63.2954 10.6697 63.3039H8.66974ZM9.24043 64.6885C9.60669 65.0569 10.1047 65.265 10.6252 65.265V63.265C10.639 63.265 10.6509 63.2706 10.6588 63.2785L9.24043 64.6885ZM10.6252 65.265H56.4894V63.265H10.6252V65.265ZM57.4894 64.2688C57.4921 63.5717 57.4584 63.0433 57.3603 62.669C57.3132 62.4892 57.2198 62.215 56.9978 61.9876C56.7137 61.6969 56.3371 61.5988 55.9942 61.6509C55.7326 61.6907 55.5349 61.8121 55.4647 61.8554C55.4194 61.8834 55.3767 61.9122 55.3531 61.9281C55.3234 61.948 55.3126 61.9551 55.3051 61.9597C55.2703 61.9812 55.3618 61.9144 55.5218 61.8897C55.7589 61.8532 56.0375 61.9229 56.2382 62.122L54.8297 63.5419C54.9542 63.6654 55.1148 63.7708 55.3093 63.8302C55.5013 63.8889 55.6807 63.8889 55.8266 63.8664C56.0864 63.8263 56.2829 63.7064 56.3546 63.6622C56.4003 63.634 56.4431 63.6052 56.4671 63.5891C56.4971 63.569 56.508 63.5618 56.5157 63.5571C56.5517 63.5348 56.4581 63.6034 56.2951 63.6282C56.1968 63.6431 56.0628 63.6444 55.9146 63.5975C55.7639 63.5498 55.6479 63.4679 55.5671 63.3853C55.429 63.2439 55.4106 63.1186 55.4257 63.1762C55.452 63.2765 55.4921 63.5758 55.4894 64.2612L57.4894 64.2688ZM27.8243 17.1932H46.0234V15.1932H27.8243V17.1932ZM46.0234 17.1932C46.5439 17.1932 47.042 16.9852 47.4082 16.6168L45.9899 15.2067C45.9978 15.1988 46.0097 15.1932 46.0234 15.1932V17.1932ZM47.4082 16.6168C47.7743 16.2485 47.9789 15.7503 47.9789 15.2321H45.9789C45.9789 15.2237 45.9821 15.2145 45.9899 15.2067L47.4082 16.6168ZM47.9789 15.2321C47.9789 14.7139 47.7743 14.2157 47.4082 13.8474L45.9899 15.2575C45.9821 15.2497 45.9789 15.2405 45.9789 15.2321H47.9789ZM47.4082 13.8474C47.042 13.479 46.5439 13.271 46.0234 13.271V15.271C46.0097 15.271 45.9978 15.2654 45.9899 15.2575L47.4082 13.8474ZM46.0234 13.271H27.8243V15.271H46.0234V13.271ZM27.8243 13.271C27.3038 13.271 26.8058 13.479 26.4395 13.8474L27.8579 15.2575C27.85 15.2654 27.838 15.271 27.8243 15.271V13.271ZM26.4395 13.8474C26.0735 14.2157 25.8688 14.7138 25.8688 15.2321H27.8688C27.8688 15.2405 27.8655 15.2498 27.8579 15.2575L26.4395 13.8474ZM25.8688 15.2321C25.8688 15.7504 26.0734 16.2485 26.4395 16.6168L27.8579 15.2067C27.8655 15.2144 27.8688 15.2237 27.8688 15.2321H25.8688ZM26.4395 16.6168C26.8058 16.9852 27.3038 17.1932 27.8243 17.1932V15.1932C27.838 15.1932 27.85 15.1988 27.8579 15.2067L26.4395 16.6168ZM27.8243 22.9601H46.0234V20.9601H27.8243V22.9601ZM46.0234 22.9601C46.5439 22.9601 47.042 22.7521 47.4082 22.3836L45.9899 20.9736C45.9978 20.9656 46.0097 20.9601 46.0234 20.9601V22.9601ZM47.4082 22.3836C47.7743 22.0154 47.9789 21.5172 47.9789 20.999H45.9789C45.9789 20.9906 45.9821 20.9814 45.9899 20.9736L47.4082 22.3836ZM47.9789 20.999C47.9789 20.4808 47.7743 19.9826 47.4082 19.6143L45.9899 21.0244C45.9821 21.0166 45.9789 21.0074 45.9789 20.999H47.9789ZM47.4082 19.6143C47.042 19.2459 46.5439 19.0378 46.0234 19.0378V21.0378C46.0097 21.0378 45.9978 21.0323 45.9899 21.0244L47.4082 19.6143ZM46.0234 19.0378H27.8243V21.0378H46.0234V19.0378ZM27.8243 19.0378C27.3038 19.0378 26.8058 19.2459 26.4395 19.6143L27.8579 21.0244C27.85 21.0323 27.838 21.0378 27.8243 21.0378V19.0378ZM26.4395 19.6143C26.0735 19.9825 25.8688 20.4807 25.8688 20.999H27.8688C27.8688 21.0074 27.8655 21.0167 27.8579 21.0244L26.4395 19.6143ZM25.8688 20.999C25.8688 21.5172 26.0735 22.0154 26.4395 22.3836L27.8579 20.9736C27.8655 20.9813 27.8688 20.9905 27.8688 20.999H25.8688ZM26.4395 22.3836C26.8058 22.7521 27.3038 22.9601 27.8243 22.9601V20.9601C27.838 20.9601 27.85 20.9657 27.8579 20.9736L26.4395 22.3836ZM47.9555 29.6493C47.9555 29.1311 47.7509 28.6329 47.3848 28.2647L45.9665 29.6747C45.9588 29.6669 45.9555 29.6577 45.9555 29.6493H47.9555ZM47.3848 28.2647C47.0186 27.8962 46.5205 27.6882 46 27.6882V29.6882C45.9863 29.6882 45.9744 29.6826 45.9665 29.6747L47.3848 28.2647ZM46 27.6882H27.8243V29.6882H46V27.6882ZM27.8243 27.6882C27.3038 27.6882 26.8058 27.8962 26.4395 28.2647L27.8579 29.6747C27.85 29.6826 27.838 29.6882 27.8243 29.6882V27.6882ZM26.4395 28.2647C26.0735 28.6329 25.8688 29.131 25.8688 29.6493H27.8688C27.8688 29.6577 27.8655 29.667 27.8579 29.6747L26.4395 28.2647ZM25.8688 29.6493C25.8688 30.1676 26.0735 30.6658 26.4395 31.034L27.8579 29.6239C27.8655 29.6316 27.8688 29.6409 27.8688 29.6493H25.8688ZM26.4395 31.034C26.8058 31.4024 27.3038 31.6105 27.8243 31.6105V29.6105C27.838 29.6105 27.85 29.616 27.8579 29.6239L26.4395 31.034ZM27.8243 31.6105H46V29.6105H27.8243V31.6105ZM45.9999 31.6105C46.5154 31.6105 47.009 31.4065 47.3745 31.0444L45.9668 29.6237C45.9747 29.6159 45.9865 29.6105 46.0001 29.6105L45.9999 31.6105ZM47.3745 31.0444C47.7397 30.6825 47.9477 30.1918 47.9554 29.6786L45.9556 29.6488C45.9557 29.6404 45.9591 29.6313 45.9668 29.6237L47.3745 31.0444ZM47.9555 29.6637V29.6493H45.9555V29.6637H47.9555ZM47.9839 35.6926C47.9839 35.1744 47.7794 34.6762 47.4133 34.3079L45.9949 35.718C45.9872 35.7102 45.9839 35.701 45.9839 35.6926H47.9839ZM47.4133 34.3079C47.047 33.9395 46.5489 33.7314 46.0284 33.7314V35.7314C46.0148 35.7314 46.0028 35.7259 45.9949 35.718L47.4133 34.3079ZM46.0436 33.7316L27.8395 33.4552L27.8091 35.4549L46.0132 35.7313L46.0436 33.7316ZM27.8243 33.455C27.3038 33.455 26.8058 33.6631 26.4395 34.0315L27.8579 35.4416C27.85 35.4495 27.838 35.455 27.8243 35.455V33.455ZM26.4395 34.0315C26.0735 34.3997 25.8688 34.8979 25.8688 35.4162H27.8688C27.8688 35.4246 27.8655 35.4339 27.8579 35.4416L26.4395 34.0315ZM25.8688 35.4162C25.8688 35.9344 26.0734 36.4326 26.4395 36.8008L27.8579 35.3908C27.8655 35.3985 27.8688 35.4077 27.8688 35.4162H25.8688ZM26.4395 36.8008C26.8058 37.1693 27.3038 37.3773 27.8243 37.3773V35.3773C27.838 35.3773 27.85 35.3829 27.8579 35.3908L26.4395 36.8008ZM27.8091 37.3772L46.0132 37.6536L46.0436 35.6538L27.8395 35.3774L27.8091 37.3772ZM46.0283 37.6537C46.5438 37.6538 47.0374 37.4498 47.4029 37.0877L45.9952 35.667C46.0031 35.6592 46.015 35.6537 46.0285 35.6537L46.0283 37.6537ZM47.4029 37.0877C47.7681 36.7258 47.9762 36.2351 47.9838 35.7219L45.984 35.6921C45.9842 35.6837 45.9875 35.6746 45.9952 35.667L47.4029 37.0877ZM47.9839 35.707V35.6926H45.9839V35.707H47.9839ZM56.3334 2.87691C57.1739 3.06477 57.9271 3.53473 58.4687 4.21105L60.0298 2.9609C59.205 1.93087 58.0556 1.21249 56.7697 0.925074L56.3334 2.87691ZM58.4687 4.21105C59.0104 4.88749 59.308 5.72996 59.3115 6.60022L61.3114 6.59216C61.3061 5.27133 60.8546 3.99082 60.0298 2.9609L58.4687 4.21105ZM59.3115 6.59619V16.2077H61.3115V6.59619H59.3115ZM59.3115 16.2077C59.3115 16.7259 59.5161 17.2241 59.8821 17.5923L61.3005 16.1823C61.3082 16.19 61.3115 16.1992 61.3115 16.2077H59.3115ZM59.8821 17.5923C60.2484 17.9607 60.7464 18.1688 61.267 18.1688V16.1688C61.2807 16.1688 61.2926 16.1744 61.3005 16.1823L59.8821 17.5923ZM61.267 18.1688C61.7875 18.1688 62.2855 17.9608 62.6518 17.5923L61.2334 16.1823C61.2413 16.1743 61.2533 16.1688 61.267 16.1688V18.1688ZM62.6518 17.5923C63.0179 17.2241 63.2225 16.7258 63.2225 16.2077H61.2225C61.2225 16.1993 61.2257 16.19 61.2334 16.1823L62.6518 17.5923ZM63.2225 16.2077V6.59619H61.2225V16.2077H63.2225ZM63.2225 6.59259C63.2161 4.83472 62.6163 3.13042 61.5202 1.75918L59.9579 3.00797C60.7715 4.02571 61.2178 5.29218 61.2225 6.5998L63.2225 6.59259ZM61.5202 1.75918C60.4239 0.387828 58.8961 -0.569217 57.1866 -0.953682L56.7478 0.997581C58.0123 1.28197 59.1445 1.99035 59.9579 3.00797L61.5202 1.75918ZM57.1808 -0.954966C56.6723 -1.06617 56.141 -0.969451 55.7043 -0.687029L56.7903 0.992422C56.78 0.999061 56.7667 1.00173 56.7536 0.998865L57.1808 -0.954966ZM55.7043 -0.687029C55.2677 -0.404747 54.9622 0.0392474 54.8527 0.545988L56.8076 0.968465C56.8058 0.976853 56.8003 0.985923 56.7903 0.992422L55.7043 -0.687029ZM54.8527 0.545988C54.7432 1.05267 54.8381 1.5827 55.1175 2.01989L56.8027 0.942881C56.808 0.951076 56.8094 0.960137 56.8076 0.968465L54.8527 0.545988ZM55.1175 2.01989C55.3971 2.45731 55.8391 2.76673 56.3475 2.87791L56.7747 0.924079C56.7877 0.926923 56.7974 0.934461 56.8027 0.942881L55.1175 2.01989ZM56.5611 0.900994H56.5515V2.90099H56.5611V0.900994ZM25.5106 29.7758C25.7875 29.444 25.9468 29.0302 25.9648 28.599L23.9665 28.5158C23.9668 28.5087 23.9694 28.5011 23.975 28.4944L25.5106 29.7758ZM25.9648 28.599C25.9827 28.1678 25.8583 27.7423 25.6103 27.3887L23.973 28.5373C23.9682 28.5305 23.9662 28.5229 23.9665 28.5158L25.9648 28.599ZM25.6103 27.3887C25.3621 27.0349 25.0036 26.7726 24.5901 26.644L23.9962 28.5538C23.9858 28.5506 23.9779 28.5443 23.973 28.5373L25.6103 27.3887ZM24.5901 26.644C24.1766 26.5154 23.7322 26.5281 23.3266 26.68L24.0283 28.5529C24.0181 28.5567 24.0067 28.5571 23.9962 28.5538L24.5901 26.644ZM23.3263 26.6801C23.0082 26.7994 22.726 26.9977 22.5059 27.2557L24.0273 28.5539C24.0281 28.5529 24.0287 28.5528 24.0285 28.5528L23.3263 26.6801ZM22.4915 27.273L21.3162 28.7147L22.8664 29.9784L24.0417 28.5367L22.4915 27.273ZM21.3222 28.7073L18.3984 32.2252L19.9365 33.5035L22.8603 29.9857L21.3222 28.7073ZM19.8766 32.1593L18.4434 30.7176L17.025 32.1276L18.4583 33.5694L19.8766 32.1593ZM18.441 30.7153L17.7196 29.9944L16.3059 31.4091L17.0274 32.13L18.441 30.7153ZM17.6486 29.9299C17.2729 29.6205 16.7952 29.462 16.3084 29.4868L16.41 31.4842C16.3972 31.4848 16.3854 31.4806 16.377 31.4736L17.6486 29.9299ZM16.3084 29.4868C15.8216 29.5115 15.3625 29.7176 15.0201 30.0632L16.441 31.4707C16.4337 31.4781 16.4227 31.4835 16.41 31.4842L16.3084 29.4868ZM15.0201 30.0632C14.678 30.4086 14.4767 30.8687 14.454 31.3536L16.4519 31.4469C16.4515 31.4549 16.4482 31.4635 16.441 31.4707L15.0201 30.0632ZM14.454 31.3536C14.4314 31.8385 14.5888 32.3152 14.897 32.6911L16.4436 31.4229C16.4497 31.4304 16.4522 31.439 16.4519 31.4469L14.454 31.3536ZM14.9611 32.762L17.8276 35.6454L19.246 34.2354L16.3795 31.352L14.9611 32.762ZM17.8151 35.6326C17.9954 35.8206 18.212 35.9701 18.4521 36.0719L19.2326 34.2305C19.2427 34.2348 19.2515 34.2409 19.2586 34.2483L17.8151 35.6326ZM18.4521 36.0719C18.6921 36.1736 18.9505 36.2254 19.2114 36.2239L19.2 34.224C19.2114 34.2239 19.2225 34.2262 19.2326 34.2305L18.4521 36.0719ZM19.2057 36.224H19.2534V34.224H19.2057V36.224ZM19.3149 36.2221C19.5818 36.2056 19.8424 36.1356 20.0815 36.0161L19.1878 34.2269C19.1889 34.2264 19.1903 34.226 19.192 34.2259L19.3149 36.2221ZM20.0815 36.0161C20.3205 35.8968 20.5329 35.7306 20.7063 35.5277L19.1861 34.2282C19.1862 34.228 19.1868 34.2274 19.1878 34.2269L20.0815 36.0161ZM20.7168 35.5152L22.8428 32.9441L21.3015 31.6696L19.1755 34.2407L20.7168 35.5152ZM22.8423 32.9448L24.7533 30.6381L23.2131 29.3622L21.3021 31.6689L22.8423 32.9448ZM24.7346 30.66L25.4942 29.7949L23.9914 28.4753L23.2318 29.3403L24.7346 30.66ZM25.2612 12.6061C24.9937 12.3818 24.6709 12.2329 24.326 12.1757L23.9986 14.1487C23.9896 14.1472 23.9819 14.1435 23.976 14.1385L25.2612 12.6061ZM24.326 12.1757C23.9812 12.1184 23.6274 12.155 23.3016 12.2813L24.0246 14.1461C24.0165 14.1492 24.0074 14.1502 23.9986 14.1487L24.326 12.1757ZM23.3318 12.2701C22.9985 12.3872 22.705 12.5948 22.4836 12.8691L24.0399 14.1253C24.0286 14.1393 24.013 14.1507 23.9943 14.1572L23.3318 12.2701ZM22.4867 12.8654L21.3114 14.3071L22.8616 15.5708L24.0369 14.1291L22.4867 12.8654ZM21.3169 14.3004L18.3979 17.8182L19.937 19.0953L22.8561 15.5775L21.3169 14.3004ZM19.8707 17.7458L18.4374 16.3281L17.031 17.75L18.4642 19.1677L19.8707 17.7458ZM18.4434 16.334L17.722 15.6084L16.3036 17.0184L17.025 17.7441L18.4434 16.334ZM17.7719 15.6624C17.5962 15.4575 17.38 15.2911 17.1367 15.1738L16.268 16.9753C16.2621 16.9724 16.2574 16.9686 16.2537 16.9644L17.7719 15.6624ZM17.1367 15.1738C16.8933 15.0564 16.6282 14.9908 16.358 14.9813L16.2875 16.98C16.2805 16.9798 16.2739 16.9781 16.268 16.9753L17.1367 15.1738ZM16.358 14.9813C16.0878 14.9718 15.8187 15.0185 15.5676 15.1185L16.3076 16.9766C16.3013 16.9791 16.2945 16.9803 16.2875 16.98L16.358 14.9813ZM15.5676 15.1185C15.3166 15.2185 15.0892 15.3694 14.8996 15.5615L16.3229 16.9665C16.3189 16.9706 16.3137 16.9741 16.3076 16.9766L15.5676 15.1185ZM14.8996 15.5615C14.7099 15.7536 14.5622 15.9827 14.4653 16.2341L16.3315 16.9534C16.3298 16.9578 16.327 16.9624 16.3229 16.9665L14.8996 15.5615ZM14.4653 16.2341C14.3684 16.4856 14.3242 16.7543 14.3355 17.0235L16.3338 16.9398C16.334 16.9443 16.3332 16.9489 16.3315 16.9534L14.4653 16.2341ZM14.3355 17.0235C14.3468 17.2928 14.4133 17.5569 14.531 17.7994L16.3303 16.9263C16.3325 16.9307 16.3336 16.9353 16.3338 16.9398L14.3355 17.0235ZM14.531 17.7994C14.6487 18.0419 14.8151 18.2578 15.0203 18.4333L16.3203 16.9135C16.3249 16.9174 16.3281 16.9218 16.3303 16.9263L14.531 17.7994ZM14.9611 18.3784L17.8276 21.2619L19.246 19.8518L16.3795 16.9684L14.9611 18.3784ZM17.8151 21.249C17.9953 21.437 18.212 21.5865 18.4521 21.6883L19.2326 19.8469C19.2428 19.8512 19.2515 19.8574 19.2586 19.8647L17.8151 21.249ZM18.4521 21.6883C18.6921 21.7901 18.9505 21.8419 19.2114 21.8404L19.2 19.8404C19.2114 19.8403 19.2225 19.8426 19.2326 19.8469L18.4521 21.6883ZM19.2057 21.8404H19.2534V19.8404H19.2057V21.8404ZM19.3149 21.8385C19.5819 21.8221 19.8425 21.7519 20.0815 21.6326L19.1878 19.8433C19.1888 19.8428 19.1902 19.8424 19.192 19.8423L19.3149 21.8385ZM20.0815 21.6326C20.3204 21.5132 20.5329 21.3471 20.7063 21.1442L19.1861 19.8446C19.1863 19.8443 19.1868 19.8438 19.1878 19.8433L20.0815 21.6326ZM20.7168 21.1316L22.8428 18.5606L21.3015 17.2861L19.1755 19.8571L20.7168 21.1316ZM22.8423 18.5613L24.7533 16.2545L23.2131 14.9786L21.3021 17.2854L22.8423 18.5613ZM24.7516 16.2565L25.4921 15.3675L23.9553 14.0875L23.2148 14.9766L24.7516 16.2565ZM25.4855 15.3753C25.652 15.1795 25.7784 14.9528 25.8575 14.7085L23.9548 14.0924C23.9562 14.088 23.9585 14.0837 23.9619 14.0797L25.4855 15.3753ZM25.8575 14.7085C25.9367 14.464 25.967 14.2065 25.9472 13.9507L23.9532 14.1053C23.9529 14.1011 23.9533 14.0968 23.9548 14.0924L25.8575 14.7085ZM25.9472 13.9507C25.9273 13.6948 25.8576 13.445 25.7416 13.2157L23.9569 14.1182C23.9547 14.1139 23.9535 14.1096 23.9532 14.1053L25.9472 13.9507ZM25.7416 13.2157C25.6256 12.9863 25.4657 12.7819 25.2707 12.6142L23.9664 14.1304C23.9622 14.1267 23.959 14.1226 23.9569 14.1182L25.7416 13.2157ZM47.9553 43.6493C47.9553 43.1311 47.7508 42.6329 47.3847 42.2647L45.9663 43.6747C45.9586 43.6669 45.9553 43.6577 45.9553 43.6493H47.9553ZM47.3847 42.2647C47.0184 41.8962 46.5204 41.6882 45.9998 41.6882V43.6882C45.9862 43.6882 45.9742 43.6827 45.9663 43.6747L47.3847 42.2647ZM45.9998 41.6882H27.8242V43.6882H45.9998V41.6882ZM27.8242 41.6882C27.3036 41.6882 26.8056 41.8962 26.4393 42.2647L27.8577 43.6747C27.8498 43.6826 27.8379 43.6882 27.8242 43.6882V41.6882ZM26.4393 42.2647C26.0733 42.6329 25.8687 43.1311 25.8687 43.6493H27.8687C27.8687 43.6578 27.8654 43.667 27.8577 43.6747L26.4393 42.2647ZM25.8687 43.6493C25.8687 44.1676 26.0733 44.6658 26.4393 45.034L27.8577 43.6239C27.8654 43.6316 27.8687 43.6409 27.8687 43.6493H25.8687ZM26.4393 45.034C26.8056 45.4024 27.3036 45.6105 27.8242 45.6105V43.6105C27.8379 43.6105 27.8498 43.616 27.8577 43.6239L26.4393 45.034ZM27.8242 45.6105H45.9998V43.6105H27.8242V45.6105ZM45.9997 45.6105C46.5152 45.6105 47.0088 45.4065 47.3743 45.0444L45.9666 43.6237C45.9745 43.6159 45.9864 43.6105 46 43.6105L45.9997 45.6105ZM47.3743 45.0444C47.7395 44.6825 47.9476 44.1918 47.9552 43.6786L45.9555 43.6488C45.9556 43.6405 45.9589 43.6313 45.9666 43.6237L47.3743 45.0444ZM47.9553 43.6637V43.6493H45.9553V43.6637H47.9553ZM47.9838 49.6926C47.9838 49.1744 47.7792 48.6762 47.4131 48.3079L45.9947 49.718C45.987 49.7102 45.9838 49.701 45.9838 49.6926H47.9838ZM47.4131 48.3079C47.0468 47.9395 46.5488 47.7315 46.0283 47.7315V49.7315C46.0146 49.7315 46.0027 49.7259 45.9947 49.718L47.4131 48.3079ZM46.0435 47.7316L27.8393 47.4552L27.809 49.4549L46.0131 49.7313L46.0435 47.7316ZM27.8242 47.4551C27.3036 47.4551 26.8056 47.6631 26.4393 48.0315L27.8577 49.4416C27.8498 49.4495 27.8379 49.4551 27.8242 49.4551V47.4551ZM26.4393 48.0315C26.0733 48.3998 25.8687 48.8979 25.8687 49.4162H27.8687C27.8687 49.4246 27.8654 49.4339 27.8577 49.4416L26.4393 48.0315ZM25.8687 49.4162C25.8687 49.9345 26.0733 50.4326 26.4393 50.8009L27.8577 49.3908C27.8654 49.3985 27.8687 49.4078 27.8687 49.4162H25.8687ZM26.4393 50.8009C26.8056 51.1693 27.3036 51.3773 27.8242 51.3773V49.3773C27.8379 49.3773 27.8498 49.3829 27.8577 49.3908L26.4393 50.8009ZM27.809 51.3772L46.0131 51.6536L46.0435 49.6539L27.8393 49.3775L27.809 51.3772ZM46.0282 51.6537C46.5436 51.6538 47.0373 51.4498 47.4027 51.0877L45.9951 49.667C46.003 49.6592 46.0148 49.6537 46.0284 49.6537L46.0282 51.6537ZM47.4027 51.0877C47.768 50.7258 47.976 50.2351 47.9837 49.7219L45.9839 49.6921C45.984 49.6837 45.9874 49.6746 45.9951 49.667L47.4027 51.0877ZM47.9838 49.707V49.6926H45.9838V49.707H47.9838Z" fill="#C70100" mask="url(#path-1-inside-1_1_1038)"/>
</svg>
