<svg width="52" height="67" viewBox="0 0 52 67" fill="none" xmlns="http://www.w3.org/2000/svg">
<mask id="path-1-inside-1_1_1045" fill="white">
<path d="M51.8264 65.1836L49.6083 61.4508C50.1907 60.7996 50.5509 59.9778 50.6364 59.1055C50.7218 58.2332 50.528 57.3562 50.0833 56.6029L35.877 32.6983C37.2909 31.0579 38.2798 29.0904 38.7554 26.9712C39.231 24.852 39.1785 22.6472 38.6025 20.5534C38.0266 18.4597 36.9451 16.5422 35.4547 14.9721C33.9643 13.4019 32.1113 12.228 30.061 11.5551V1.19642C30.061 0.879113 29.9359 0.574797 29.7132 0.350424C29.4905 0.126051 29.1885 0 28.8736 0H23.1217C22.8068 0 22.5047 0.126051 22.282 0.350424C22.0594 0.574797 21.9343 0.879113 21.9343 1.19642V11.5599C19.884 12.2328 18.031 13.4067 16.5405 14.9769C15.0501 16.547 13.9687 18.4645 13.3927 20.5582C12.8168 22.652 12.7643 24.8568 13.2399 26.976C13.7155 29.0951 14.7043 31.0627 16.1183 32.7031L1.91196 56.6076C1.46722 57.361 1.27341 58.2379 1.35887 59.1102C1.44433 59.9825 1.80458 60.8044 2.38693 61.4556L0.168837 65.1884C0.0886872 65.3232 0.0356638 65.4726 0.0128144 65.6281C-0.0100349 65.7835 -0.00227185 65.942 0.0356584 66.0944C0.0735886 66.2468 0.140955 66.3902 0.233891 66.5164C0.326826 66.6426 0.443512 66.7491 0.577304 66.8299C0.711095 66.9107 0.859349 66.9641 1.01363 66.9871C1.16791 67.0101 1.3252 67.0023 1.47648 66.9641C1.62776 66.9259 1.77008 66.858 1.89532 66.7644C2.02057 66.6707 2.12629 66.5531 2.20644 66.4183L4.42454 62.6831C4.74305 62.7631 5.06997 62.8041 5.39822 62.8051C6.10079 62.8032 6.79105 62.619 7.40249 62.2703C8.01392 61.9216 8.52594 61.4202 8.88926 60.8143L15.6813 49.3812H24.8126V50.8672C24.8126 51.1845 24.9377 51.4888 25.1604 51.7132C25.383 51.9376 25.6851 52.0636 26 52.0636C26.3149 52.0636 26.617 51.9376 26.8396 51.7132C27.0623 51.4888 27.1874 51.1845 27.1874 50.8672V49.3812H36.3187L43.1107 60.8143C43.5571 61.5676 44.2323 62.1561 45.0364 62.4927C45.8405 62.8293 46.7308 62.896 47.5755 62.6831L49.7936 66.4183C49.8737 66.5531 49.9794 66.6707 50.1047 66.7644C50.2299 66.858 50.3722 66.9259 50.5235 66.9641C50.6748 67.0023 50.8321 67.0101 50.9864 66.9871C51.1407 66.9641 51.2889 66.9107 51.4227 66.8299C51.5565 66.7491 51.6732 66.6426 51.7661 66.5164C51.859 66.3902 51.9264 66.2468 51.9643 66.0944C52.0023 65.942 52.01 65.7835 51.9872 65.6281C51.9643 65.4726 51.9113 65.3232 51.8312 65.1884L51.8264 65.1836ZM24.3067 2.39285H27.6838V11.0071C26.5632 10.854 25.4273 10.854 24.3067 11.0071V2.39285ZM15.2823 24.0792C15.2797 22.3713 15.6798 20.6872 16.4497 19.1655C17.2196 17.6439 18.3372 16.3283 19.7105 15.3271C21.0838 14.326 22.6736 13.6678 24.3488 13.4069C26.024 13.146 27.7367 13.2899 29.3459 13.8265C30.9552 14.3632 32.4148 15.2774 33.6047 16.4938C34.7946 17.7102 35.6807 19.1941 36.19 20.8231C36.6993 22.4521 36.8172 24.1798 36.534 25.8637C36.2509 27.5477 35.5747 29.1397 34.5613 30.5088L31.5951 25.5174C31.8121 24.6563 31.8311 23.7567 31.6506 22.8872C31.4701 22.0176 31.0949 21.2011 30.5536 20.4998C30.0123 19.7986 29.3192 19.2312 28.5271 18.8409C27.7351 18.4506 26.8651 18.2477 25.9834 18.2477C25.1017 18.2477 24.2316 18.4506 23.4396 18.8409C22.6476 19.2312 21.9545 19.7986 21.4132 20.4998C20.8719 21.2011 20.4966 22.0176 20.3161 22.8872C20.1356 23.7567 20.1546 24.6563 20.3716 25.5174L17.4054 30.5088C16.0327 28.6489 15.2923 26.3923 15.2942 24.0745L15.2823 24.0792ZM25.9953 27.5178C25.3198 27.5178 24.6596 27.316 24.098 26.9379C23.5364 26.5598 23.0987 26.0224 22.8402 25.3936C22.5817 24.7649 22.5141 24.073 22.6458 23.4056C22.7776 22.7381 23.1029 22.125 23.5805 21.6438C24.0581 21.1625 24.6666 20.8348 25.329 20.7021C25.9915 20.5693 26.6781 20.6374 27.3021 20.8979C27.9261 21.1583 28.4595 21.5993 28.8348 22.1652C29.21 22.731 29.4103 23.3963 29.4103 24.0769C29.409 24.989 29.0488 25.8635 28.4087 26.5086C27.7685 27.1536 26.9006 27.5165 25.9953 27.5178ZM6.8469 59.582C6.69735 59.8357 6.48452 60.0456 6.22956 60.1908C5.9746 60.3361 5.68638 60.4116 5.39349 60.4099C5.09511 60.4094 4.80217 60.3292 4.54453 60.1776C4.28689 60.026 4.07373 59.8082 3.92675 59.5466C3.77978 59.2849 3.70426 58.9887 3.70785 58.6881C3.71144 58.3875 3.79401 58.0932 3.94719 57.8352L21.692 27.9724C22.4602 28.836 23.4665 29.4491 24.5822 29.7336L6.8469 59.582ZM27.1827 46.986V45.4976C27.1827 45.1803 27.0576 44.876 26.8349 44.6516C26.6122 44.4273 26.3102 44.3012 25.9953 44.3012C25.6803 44.3012 25.3783 44.4273 25.1556 44.6516C24.9329 44.876 24.8078 45.1803 24.8078 45.4976V46.986H17.0991L25.9953 32.0139L34.8914 46.986H27.1827ZM45.1436 59.582L27.4083 29.7336C28.524 29.4491 29.5303 28.836 30.2985 27.9724L48.0433 57.8352C48.1571 58.027 48.2323 58.2396 48.2646 58.4607C48.2969 58.6818 48.2857 58.9072 48.2316 59.124C48.1774 59.3407 48.0815 59.5446 47.9491 59.724C47.8168 59.9033 47.6507 60.0547 47.4603 60.1694C47.0758 60.401 46.6157 60.4693 46.1812 60.3591C45.7467 60.2489 45.3735 59.9694 45.1436 59.582Z"/>
</mask>
<path d="M16.9742 30.2558L15.687 32.4501L16.5495 32.9561L17.8367 30.7618L16.9742 30.2558ZM34.1327 30.7664L35.4484 32.9558L36.3056 32.4408L34.9899 30.2513L34.1327 30.7664ZM22.0942 12.0336C22.5347 11.8849 23.5951 11.5769 24.354 11.5049L24.2595 10.5093C23.3826 10.5926 22.2339 10.931 21.7744 11.0861L22.0942 12.0336ZM27.6415 11.5053C28.0146 11.537 29.0074 11.6876 29.8825 12.0221L30.2395 11.088C29.2521 10.7106 28.1617 10.5459 27.7261 10.5089L27.6415 11.5053ZM51.8264 65.1836L50.9667 65.6945L51.0299 65.8007L51.117 65.8885L51.8264 65.1836ZM49.6083 61.4508L48.8629 60.7841L48.3739 61.331L48.7486 61.9616L49.6083 61.4508ZM50.0833 56.6029L50.9444 56.0945L50.9429 56.092L50.0833 56.6029ZM35.877 32.6983L35.1195 32.0454L34.6497 32.5905L35.0173 33.2092L35.877 32.6983ZM30.061 11.5551H29.061V12.2793L29.7491 12.5052L30.061 11.5551ZM28.8736 0V-1V0ZM21.9343 11.5599L22.2461 12.51L22.9343 12.2841V11.5599H21.9343ZM16.1183 32.7031L16.9779 33.214L17.3456 32.5953L16.8757 32.0502L16.1183 32.7031ZM1.91196 56.6076L1.05231 56.0968L1.05084 56.0993L1.91196 56.6076ZM2.38693 61.4556L3.24661 61.9664L3.62135 61.3357L3.13233 60.7889L2.38693 61.4556ZM0.168837 65.1884L1.02839 65.6995L1.02852 65.6992L0.168837 65.1884ZM2.20644 66.4183L3.06599 66.9294L3.06627 66.9289L2.20644 66.4183ZM4.42454 62.6831L4.66813 61.7132L3.94527 61.5317L3.56471 62.1725L4.42454 62.6831ZM5.39822 62.8051L5.39498 63.8051L5.40099 63.8051L5.39822 62.8051ZM8.88926 60.8143L9.7469 61.3285L9.74899 61.325L8.88926 60.8143ZM15.6813 49.3812V48.3812H15.1122L14.8216 48.8705L15.6813 49.3812ZM24.8126 49.3812H25.8126V48.3812H24.8126V49.3812ZM27.1874 49.3812V48.3812H26.1874V49.3812H27.1874ZM36.3187 49.3812L37.1784 48.8705L36.8878 48.3812H36.3187V49.3812ZM43.1107 60.8143L43.9711 60.3046L43.9705 60.3035L43.1107 60.8143ZM47.5755 62.6831L48.4353 62.1725L48.0544 61.5311L47.331 61.7134L47.5755 62.6831ZM49.7936 66.4183L48.9337 66.9289L48.934 66.9294L49.7936 66.4183ZM51.8312 65.1884L52.6907 64.6773L52.6276 64.5712L52.5405 64.4836L51.8312 65.1884ZM24.3067 2.39285V1.39285H23.3067V2.39285H24.3067ZM27.6838 2.39285H28.6838V1.39285H27.6838V2.39285ZM27.6838 11.0071L27.5484 11.9979L28.6838 12.1531V11.0071H27.6838ZM24.3067 11.0071H23.3067V12.1531L24.4421 11.9979L24.3067 11.0071ZM15.2823 24.0792L14.2823 24.0808L14.2846 25.559L15.6558 25.0069L15.2823 24.0792ZM34.5613 30.5088L33.7016 31.0197L34.4701 32.3128L35.3651 31.1038L34.5613 30.5088ZM31.5951 25.5174L30.6255 25.273L30.5246 25.6733L30.7355 26.0282L31.5951 25.5174ZM20.3716 25.5174L21.2313 26.0282L21.4422 25.6733L21.3413 25.273L20.3716 25.5174ZM17.4054 30.5088L16.6008 31.1027L17.4955 32.3148L18.2651 31.0197L17.4054 30.5088ZM15.2942 24.0745L16.2942 24.0753L16.2954 22.5933L14.9207 23.1468L15.2942 24.0745ZM25.9953 27.5178V28.5178L25.9967 28.5178L25.9953 27.5178ZM29.4103 24.0769L30.4103 24.0782V24.0769H29.4103ZM6.8469 59.582L5.9872 59.0711L5.98539 59.0742L6.8469 59.582ZM5.39349 60.4099L5.39934 59.4099L5.39514 59.4099L5.39349 60.4099ZM3.94719 57.8352L3.08751 57.3243L3.08732 57.3247L3.94719 57.8352ZM21.692 27.9724L22.4392 27.3078L21.5307 26.2864L20.8324 27.4616L21.692 27.9724ZM24.5822 29.7336L25.4419 30.2444L26.1249 29.0948L24.8292 28.7645L24.5822 29.7336ZM27.1827 46.986H26.1827V47.986H27.1827V46.986ZM24.8078 46.986V47.986H25.8078V46.986H24.8078ZM17.0991 46.986L16.2394 46.4752L15.3417 47.986H17.0991V46.986ZM25.9953 32.0139L26.855 31.5031L25.9953 30.0563L25.1356 31.5031L25.9953 32.0139ZM34.8914 46.986V47.986H36.6488L35.7511 46.4752L34.8914 46.986ZM45.1436 59.582L46.0036 59.0717L46.0033 59.0711L45.1436 59.582ZM27.4083 29.7336L27.1613 28.7645L25.8656 29.0948L26.5486 30.2444L27.4083 29.7336ZM30.2985 27.9724L31.1582 27.4616L30.4599 26.2864L29.5513 27.3078L30.2985 27.9724ZM48.0433 57.8352L48.9033 57.3249L48.903 57.3243L48.0433 57.8352ZM47.4603 60.1694L47.9763 61.026L47.4603 60.1694ZM52.6861 64.6728L50.468 60.9399L48.7486 61.9616L50.9667 65.6945L52.6861 64.6728ZM50.3537 62.1174C51.0782 61.3073 51.5255 60.2859 51.6316 59.203L49.6411 59.0079C49.5763 59.6696 49.3031 60.2919 48.8629 60.7841L50.3537 62.1174ZM51.6316 59.203C51.7377 58.12 51.4972 57.0308 50.9444 56.0945L49.2222 57.1112C49.5589 57.6816 49.706 58.3463 49.6411 59.0079L51.6316 59.203ZM50.9429 56.092L36.7366 32.1874L35.0173 33.2092L49.2236 57.1137L50.9429 56.092ZM36.6344 33.3512C38.156 31.5859 39.2196 29.4692 39.7311 27.1902L37.7796 26.7522C37.34 28.7115 36.4258 30.5299 35.1195 32.0454L36.6344 33.3512ZM39.7311 27.1902C40.2426 24.9111 40.1861 22.54 39.5667 20.2882L37.6383 20.8187C38.1708 22.7544 38.2194 24.7929 37.7796 26.7522L39.7311 27.1902ZM39.5667 20.2882C38.9473 18.0364 37.784 15.9734 36.18 14.2836L34.7294 15.6605C36.1063 17.111 37.1059 18.883 37.6383 20.8187L39.5667 20.2882ZM36.18 14.2836C34.5759 12.5938 32.581 11.3297 30.3728 10.6049L29.7491 12.5052C31.6415 13.1263 33.3526 14.2101 34.7294 15.6605L36.18 14.2836ZM31.061 11.5551V1.19642H29.061V11.5551H31.061ZM31.061 1.19642C31.061 0.616316 30.8323 0.0584675 30.423 -0.354007L29.0034 1.05486C29.0394 1.09113 29.061 1.14191 29.061 1.19642H31.061ZM30.423 -0.354007C30.0133 -0.766742 29.4562 -1 28.8736 -1V1C28.9208 1 28.9677 1.01884 29.0034 1.05486L30.423 -0.354007ZM28.8736 -1H23.1217V1H28.8736V-1ZM23.1217 -1C22.5391 -1 21.9819 -0.766742 21.5723 -0.354007L22.9918 1.05486C23.0276 1.01884 23.0744 1 23.1217 1V-1ZM21.5723 -0.354007C21.1629 0.0584675 20.9343 0.616316 20.9343 1.19642H22.9343C22.9343 1.14191 22.9558 1.09113 22.9918 1.05486L21.5723 -0.354007ZM20.9343 1.19642V11.5599H22.9343V1.19642H20.9343ZM21.6224 10.6097C19.4142 11.3345 17.4193 12.5986 15.8153 14.2884L17.2658 15.6653C18.6426 14.2149 20.3537 13.1311 22.2461 12.51L21.6224 10.6097ZM15.8153 14.2884C14.2112 15.9782 13.048 18.0412 12.4285 20.293L14.3569 20.8235C14.8894 18.8878 15.889 17.1158 17.2658 15.6653L15.8153 14.2884ZM12.4285 20.293C11.8091 22.5448 11.7527 24.9159 12.2641 27.1949L14.2156 26.757C13.7759 24.7977 13.8245 22.7591 14.3569 20.8235L12.4285 20.293ZM12.2641 27.1949C12.7756 29.474 13.8392 31.5907 15.3608 33.356L16.8757 32.0502C15.5694 30.5347 14.6553 28.7163 14.2156 26.757L12.2641 27.1949ZM15.2586 32.1922L1.05231 56.0968L2.77161 57.1185L16.9779 33.214L15.2586 32.1922ZM1.05084 56.0993C0.498043 57.0356 0.257534 58.1248 0.363634 59.2077L2.3541 59.0127C2.28928 58.3511 2.43639 57.6864 2.77309 57.116L1.05084 56.0993ZM0.363634 59.2077C0.469736 60.2907 0.91706 61.3121 1.64154 62.1222L3.13233 60.7889C2.6921 60.2967 2.41893 59.6744 2.3541 59.0127L0.363634 59.2077ZM1.52725 60.9447L-0.690843 64.6776L1.02852 65.6992L3.24661 61.9664L1.52725 60.9447ZM-0.690712 64.6773C-0.837697 64.9246 -0.934747 65.1982 -0.976555 65.4826L1.00218 65.7735C1.00607 65.747 1.01507 65.7218 1.02839 65.6995L-0.690712 64.6773ZM-0.976555 65.4826C-1.01836 65.767 -1.00416 66.0569 -0.934748 66.3359L1.00606 65.8529C0.999621 65.827 0.998287 65.8 1.00218 65.7735L-0.976555 65.4826ZM-0.934748 66.3359C-0.865315 66.6149 -0.741914 66.8778 -0.571328 67.1094L1.03911 65.9234C1.02382 65.9027 1.01249 65.8787 1.00606 65.8529L-0.934748 66.3359ZM-0.571328 67.1094C-0.400729 67.3411 -0.18614 67.5371 0.0605374 67.686L1.09407 65.9738C1.07316 65.9612 1.05438 65.9442 1.03911 65.9234L-0.571328 67.1094ZM0.0605374 67.686C0.307195 67.8349 0.58089 67.9336 0.866037 67.9761L1.16122 65.998C1.13781 65.9946 1.115 65.9864 1.09407 65.9738L0.0605374 67.686ZM0.866037 67.9761C1.1512 68.0187 1.44191 68.0042 1.72141 67.9336L1.23155 65.9945C1.20849 66.0004 1.18461 66.0015 1.16122 65.998L0.866037 67.9761ZM1.72141 67.9336C2.00092 67.863 2.26345 67.7377 2.49411 67.5653L1.29654 65.9634C1.2767 65.9783 1.25459 65.9887 1.23155 65.9945L1.72141 67.9336ZM2.49411 67.5653C2.72476 67.3928 2.91897 67.1767 3.06599 66.9294L1.34689 65.9073C1.33361 65.9296 1.31639 65.9486 1.29654 65.9634L2.49411 67.5653ZM3.06627 66.9289L5.28436 63.1937L3.56471 62.1725L1.34662 65.9077L3.06627 66.9289ZM4.18095 63.653C4.57801 63.7527 4.98564 63.8038 5.39498 63.8051L5.40146 61.8051C5.1543 61.8043 4.90809 61.7735 4.66813 61.7132L4.18095 63.653ZM5.40099 63.8051C6.27668 63.8027 7.13662 63.5731 7.89787 63.139L6.9071 61.4016C6.44548 61.6649 5.9249 61.8037 5.39545 61.8051L5.40099 63.8051ZM7.89787 63.139C8.65907 62.7049 9.29561 62.0811 9.74689 61.3285L8.03162 60.3C7.75627 60.7592 7.36877 61.1384 6.9071 61.4016L7.89787 63.139ZM9.74899 61.325L16.541 49.892L14.8216 48.8705L8.02952 60.3035L9.74899 61.325ZM15.6813 50.3812H24.8126V48.3812H15.6813V50.3812ZM23.8126 49.3812V50.8672H25.8126V49.3812H23.8126ZM23.8126 50.8672C23.8126 51.4473 24.0412 52.0052 24.4506 52.4176L25.8701 51.0088C25.8341 50.9725 25.8126 50.9217 25.8126 50.8672H23.8126ZM24.4506 52.4176C24.8602 52.8304 25.4174 53.0636 26 53.0636V51.0636C25.9527 51.0636 25.9059 51.0448 25.8701 51.0088L24.4506 52.4176ZM26 53.0636C26.5825 53.0636 27.1398 52.8304 27.5494 52.4176L26.1299 51.0088C26.0942 51.0448 26.0473 51.0636 26 51.0636V53.0636ZM27.5494 52.4176C27.9588 52.0051 28.1874 51.4472 28.1874 50.8672H26.1874C26.1874 50.9218 26.1658 50.9725 26.1299 51.0088L27.5494 52.4176ZM28.1874 50.8672V49.3812H26.1874V50.8672H28.1874ZM27.1874 50.3812H36.3187V48.3812H27.1874V50.3812ZM35.459 49.892L42.251 61.325L43.9705 60.3035L37.1784 48.8705L35.459 49.892ZM42.2504 61.324C42.8058 62.2614 43.6469 62.9951 44.6502 63.4151L45.4225 61.5702C44.8177 61.3171 44.3083 60.8738 43.9711 60.3046L42.2504 61.324ZM44.6502 63.4151C45.6538 63.8352 46.7653 63.9186 47.8199 63.6528L47.331 61.7134C46.6962 61.8734 46.0272 61.8233 45.4225 61.5702L44.6502 63.4151ZM46.7156 63.1937L48.9337 66.9289L50.6534 65.9077L48.4353 62.1725L46.7156 63.1937ZM48.934 66.9294C49.081 67.1767 49.2752 67.3928 49.5059 67.5653L50.7035 65.9634C50.6836 65.9486 50.6664 65.9296 50.6531 65.9073L48.934 66.9294ZM49.5059 67.5653C49.7366 67.7377 49.9991 67.863 50.2786 67.9336L50.7685 65.9945C50.7454 65.9887 50.7233 65.9783 50.7035 65.9634L49.5059 67.5653ZM50.2786 67.9336C50.5581 68.0042 50.8488 68.0187 51.134 67.9761L50.8388 65.998C50.8154 66.0015 50.7915 66.0004 50.7685 65.9945L50.2786 67.9336ZM51.134 67.9761C51.4191 67.9336 51.6928 67.8349 51.9395 67.686L50.9059 65.9738C50.885 65.9864 50.8622 65.9946 50.8388 65.998L51.134 67.9761ZM51.9395 67.686C52.1861 67.5371 52.4007 67.3411 52.5713 67.1094L50.9609 65.9234C50.9456 65.9442 50.9268 65.9612 50.9059 65.9738L51.9395 67.686ZM52.5713 67.1094C52.7419 66.8778 52.8653 66.6149 52.9348 66.3359L50.9939 65.8529C50.9875 65.8787 50.9762 65.9027 50.9609 65.9234L52.5713 67.1094ZM52.9348 66.3359C53.0042 66.0569 53.0184 65.767 52.9766 65.4826L50.9978 65.7735C51.0017 65.8 51.0004 65.827 50.9939 65.8529L52.9348 66.3359ZM52.9766 65.4826C52.9347 65.1982 52.8377 64.9246 52.6907 64.6773L50.9716 65.6995C50.9849 65.7219 50.9939 65.747 50.9978 65.7735L52.9766 65.4826ZM52.5405 64.4836L52.5358 64.4788L51.117 65.8885L51.1218 65.8932L52.5405 64.4836ZM24.3067 3.39285H27.6838V1.39285H24.3067V3.39285ZM26.6838 2.39285V11.0071H28.6838V2.39285H26.6838ZM27.8192 10.0163C26.6088 9.8509 25.3817 9.8509 24.1713 10.0163L24.4421 11.9979C25.4728 11.857 26.5177 11.857 27.5484 11.9979L27.8192 10.0163ZM25.3067 11.0071V2.39285H23.3067V11.0071H25.3067ZM16.2823 24.0777C16.2799 22.5269 16.6433 20.998 17.342 19.617L15.5574 18.7141C14.7164 20.3764 14.2795 22.2157 14.2823 24.0808L16.2823 24.0777ZM17.342 19.617C18.0407 18.2361 19.0546 17.0429 20.2996 16.1352L19.1214 14.5191C17.6198 15.6138 16.3984 17.0518 15.5574 18.7141L17.342 19.617ZM20.2996 16.1352C21.5446 15.2276 22.9852 14.6313 24.5026 14.395L24.1949 12.4188C22.3619 12.7043 20.6231 13.4243 19.1214 14.5191L20.2996 16.1352ZM24.5026 14.395C26.0201 14.1587 27.5716 14.2889 29.0296 14.7752L29.6623 12.8779C27.9018 12.2908 26.0278 12.1334 24.1949 12.4188L24.5026 14.395ZM29.0296 14.7752C30.4876 15.2614 31.8107 16.0899 32.8899 17.1931L34.3196 15.7946C33.0189 14.4649 31.4228 13.465 29.6623 12.8779L29.0296 14.7752ZM32.8899 17.1931C33.969 18.2963 34.7732 19.6427 35.2356 21.1215L37.1445 20.5247C36.5882 18.7455 35.6202 17.1242 34.3196 15.7946L32.8899 17.1931ZM35.2356 21.1215C35.6979 22.6004 35.805 24.1689 35.5479 25.6979L37.5202 26.0295C37.8294 24.1906 37.7007 22.3039 37.1445 20.5247L35.2356 21.1215ZM35.5479 25.6979C35.2908 27.2268 34.677 28.6718 33.7576 29.9139L35.3651 31.1038C36.4725 29.6077 37.211 27.8685 37.5202 26.0295L35.5479 25.6979ZM35.421 29.998L32.4548 25.0065L30.7355 26.0282L33.7016 31.0197L35.421 29.998ZM32.5648 25.7617C32.8188 24.7541 32.841 23.7014 32.6297 22.6839L30.6715 23.0904C30.8213 23.812 30.8055 24.5585 30.6255 25.273L32.5648 25.7617ZM32.6297 22.6839C32.4185 21.6663 31.9793 20.7103 31.3452 19.8888L29.762 21.1109C30.2105 21.6918 30.5217 22.3689 30.6715 23.0904L32.6297 22.6839ZM31.3452 19.8888C30.711 19.0672 29.8985 18.4018 28.9692 17.9439L28.0851 19.7379C28.7399 20.0606 29.3136 20.53 29.762 21.1109L31.3452 19.8888ZM28.9692 17.9439C28.0398 17.486 27.0186 17.2477 25.9834 17.2477V19.2477C26.7115 19.2477 27.4304 19.4153 28.0851 19.7379L28.9692 17.9439ZM25.9834 17.2477C24.9482 17.2477 23.9269 17.486 22.9976 17.9439L23.8816 19.7379C24.5364 19.4153 25.2552 19.2477 25.9834 19.2477V17.2477ZM22.9976 17.9439C22.0683 18.4018 21.2558 19.0672 20.6216 19.8888L22.2047 21.1109C22.6532 20.53 23.2269 20.0606 23.8816 19.7379L22.9976 17.9439ZM20.6216 19.8888C19.9874 20.7103 19.5482 21.6663 19.337 22.6839L21.2953 23.0904C21.445 22.3689 21.7563 21.6918 22.2047 21.1109L20.6216 19.8888ZM19.337 22.6839C19.1258 23.7014 19.148 24.7541 19.4019 25.7617L21.3413 25.273C21.1612 24.5585 21.1455 23.812 21.2953 23.0904L19.337 22.6839ZM19.512 25.0065L16.5458 29.998L18.2651 31.0197L21.2313 26.0282L19.512 25.0065ZM18.21 29.915C16.9648 28.2278 16.2925 26.1797 16.2942 24.0753L14.2942 24.0736C14.2921 26.6049 15.1007 29.07 16.6008 31.1027L18.21 29.915ZM14.9207 23.1468L14.9088 23.1516L15.6558 25.0069L15.6677 25.0021L14.9207 23.1468ZM25.9953 26.5178C25.5193 26.5178 25.0534 26.3756 24.6564 26.1083L23.5395 27.7674C24.2657 28.2563 25.1204 28.5178 25.9953 28.5178V26.5178ZM24.6564 26.1083C24.2594 25.841 23.9488 25.4603 23.7651 25.0134L21.9153 25.7739C22.2485 26.5845 22.8133 27.2785 23.5395 27.7674L24.6564 26.1083ZM23.7651 25.0134C23.5813 24.5664 23.5331 24.0742 23.6269 23.5992L21.6648 23.2119C21.495 24.0719 21.5821 24.9633 21.9153 25.7739L23.7651 25.0134ZM23.6269 23.5992C23.7207 23.1243 23.9519 22.6891 24.2902 22.3482L22.8707 20.9393C22.2538 21.5609 21.8346 22.3519 21.6648 23.2119L23.6269 23.5992ZM24.2902 22.3482C24.6285 22.0074 25.0585 21.7762 25.5255 21.6826L25.1325 19.7216C24.2746 19.8935 23.4877 20.3177 22.8707 20.9393L24.2902 22.3482ZM25.5255 21.6826C25.9925 21.589 26.4766 21.6369 26.917 21.8207L27.6873 19.975C26.8796 19.6379 25.9904 19.5496 25.1325 19.7216L25.5255 21.6826ZM26.917 21.8207C27.3574 22.0045 27.7351 22.3163 28.0014 22.7179L29.6682 21.6125C29.1839 20.8823 28.4949 20.3121 27.6873 19.975L26.917 21.8207ZM28.0014 22.7179C28.2677 23.1195 28.4103 23.5924 28.4103 24.0769H30.4103C30.4103 23.2002 30.1523 22.3426 29.6682 21.6125L28.0014 22.7179ZM28.4103 24.0755C28.4094 24.7254 28.1527 25.3469 27.6989 25.8041L29.1184 27.213C29.945 26.3802 30.4087 25.2527 30.4103 24.0782L28.4103 24.0755ZM27.6989 25.8041C27.2453 26.2611 26.632 26.5169 25.9939 26.5178L25.9967 28.5178C27.1692 28.5161 28.2917 28.046 29.1184 27.213L27.6989 25.8041ZM5.98539 59.0742C5.92408 59.1782 5.83737 59.2634 5.73459 59.3219L6.72453 61.0598C7.13167 60.8278 7.47062 60.4932 7.70841 60.0897L5.98539 59.0742ZM5.73459 59.3219C5.63187 59.3804 5.51634 59.4106 5.39934 59.4099L5.38764 61.4099C5.85642 61.4126 6.31732 61.2917 6.72453 61.0598L5.73459 59.3219ZM5.39514 59.4099C5.27492 59.4097 5.15646 59.3774 5.05178 59.3158L4.03728 61.0394C4.44788 61.2811 4.91531 61.4091 5.39185 61.4099L5.39514 59.4099ZM5.05178 59.3158C4.94702 59.2541 4.85941 59.165 4.79862 59.0568L3.05489 60.0363C3.28805 60.4514 3.62675 60.7978 4.03728 61.0394L5.05178 59.3158ZM4.79862 59.0568C4.73782 58.9486 4.70628 58.8255 4.70778 58.7L2.70792 58.6762C2.70224 59.152 2.82174 59.6213 3.05489 60.0363L4.79862 59.0568ZM4.70778 58.7C4.70928 58.5746 4.74375 58.4523 4.80707 58.3457L3.08732 57.3247C2.84428 57.734 2.71361 58.2003 2.70792 58.6762L4.70778 58.7ZM4.80687 58.346L22.5517 28.4832L20.8324 27.4616L3.08751 57.3243L4.80687 58.346ZM20.9449 28.6371C21.8451 29.6491 23.0253 30.3686 24.3352 30.7026L24.8292 28.7645C23.9076 28.5296 23.0753 28.0228 22.4392 27.3078L20.9449 28.6371ZM23.7225 29.2227L5.9872 59.0711L7.70659 60.0928L25.4419 30.2444L23.7225 29.2227ZM28.1827 46.986V45.4976H26.1827V46.986H28.1827ZM28.1827 45.4976C28.1827 44.9175 27.954 44.3597 27.5447 43.9472L26.1251 45.3561C26.1611 45.3923 26.1827 45.4431 26.1827 45.4976H28.1827ZM27.5447 43.9472C27.135 43.5345 26.5778 43.3012 25.9953 43.3012V45.3012C26.0425 45.3012 26.0894 45.3201 26.1251 45.3561L27.5447 43.9472ZM25.9953 43.3012C25.4127 43.3012 24.8555 43.5345 24.4459 43.9472L25.8654 45.3561C25.9011 45.3201 25.948 45.3012 25.9953 45.3012V43.3012ZM24.4459 43.9472C24.0365 44.3597 23.8078 44.9175 23.8078 45.4976H25.8078C25.8078 45.4431 25.8294 45.3923 25.8654 45.3561L24.4459 43.9472ZM23.8078 45.4976V46.986H25.8078V45.4976H23.8078ZM24.8078 45.986H17.0991V47.986H24.8078V45.986ZM17.9588 47.4968L26.855 32.5248L25.1356 31.5031L16.2394 46.4752L17.9588 47.4968ZM25.1356 32.5248L34.0317 47.4968L35.7511 46.4752L26.855 31.5031L25.1356 32.5248ZM34.8914 45.986H27.1827V47.986H34.8914V45.986ZM46.0033 59.0711L28.268 29.2227L26.5486 30.2444L44.2839 60.0928L46.0033 59.0711ZM27.6553 30.7026C28.9652 30.3686 30.1454 29.6491 31.0456 28.6371L29.5513 27.3078C28.9152 28.0228 28.0829 28.5296 27.1613 28.7645L27.6553 30.7026ZM29.4388 28.4832L47.1836 58.346L48.903 57.3243L31.1582 27.4616L29.4388 28.4832ZM47.1833 58.3455C47.2304 58.4248 47.2617 58.513 47.2751 58.6053L49.2541 58.3161C49.203 57.9661 49.0839 57.6293 48.9033 57.3249L47.1833 58.3455ZM47.2751 58.6053C47.2886 58.6975 47.2839 58.7914 47.2614 58.8816L49.2018 59.3663C49.2875 59.023 49.3053 58.6662 49.2541 58.3161L47.2751 58.6053ZM47.2614 58.8816C47.2389 58.9718 47.199 59.0563 47.1444 59.1303L48.7538 60.3176C48.9639 60.0329 49.116 59.7096 49.2018 59.3663L47.2614 58.8816ZM47.1444 59.1303C47.0898 59.2043 47.0217 59.2662 46.9443 59.3128L47.9763 61.026C48.2796 60.8433 48.5437 60.6024 48.7538 60.3176L47.1444 59.1303ZM46.9443 59.3128C46.7881 59.4069 46.6022 59.4342 46.427 59.3898L45.9354 61.3284C46.6291 61.5043 47.3635 61.3951 47.9763 61.026L46.9443 59.3128ZM46.427 59.3898C46.2516 59.3453 46.0987 59.2319 46.0036 59.0717L44.2836 60.0923C44.6483 60.7069 45.2419 61.1526 45.9354 61.3284L46.427 59.3898Z" fill="#C70100" mask="url(#path-1-inside-1_1_1045)"/>
</svg>
