<svg width="46" height="70" viewBox="0 0 46 70" fill="none" xmlns="http://www.w3.org/2000/svg">
<path d="M45 68.4667V62.6C45 61.822 44.691 61.0759 44.1408 60.5258C43.5907 59.9757 42.8446 59.6667 42.0667 59.6667H39.1333V47.9333L25.9333 34.7333L39.1333 21.5333V9.8H42.0667C42.8446 9.8 43.5907 9.49096 44.1408 8.94085C44.691 8.39074 45 7.64464 45 6.86667V1H1V6.86667C1 7.64464 1.30904 8.39074 1.85915 8.94085C2.40926 9.49096 3.15536 9.8 3.93333 9.8H6.86667V21.5333L20.0667 34.7333L6.86667 47.9333V59.6667H3.93333C3.15536 59.6667 2.40926 59.9757 1.85915 60.5258C1.30904 61.0759 1 61.822 1 62.6V68.4667H45Z" stroke="#C70100" stroke-width="2" stroke-miterlimit="10"/>
<path d="M6.86719 9.80005H39.1339" stroke="#C70100" stroke-width="2" stroke-miterlimit="10"/>
<path d="M6.86719 59.6667H39.1339" stroke="#C70100" stroke-width="2" stroke-miterlimit="10"/>
<path d="M33.267 59.6667V50.8667L24.467 42.0667H21.5336L12.7336 50.8667V59.6667" stroke="#C70100" stroke-width="2" stroke-miterlimit="10"/>
<path d="M11.2664 12.7333V18.6L20.0664 27.4" stroke="#C70100" stroke-width="2" stroke-miterlimit="10"/>
</svg>
